<svg xmlns="http://www.w3.org/2000/svg" xmlns:xlink="http://www.w3.org/1999/xlink" fill="none" version="1.1" width="19.28571319580078" height="18" viewBox="0 0 19.28571319580078 18"><g style="mix-blend-mode:passthrough" transform="matrix(-1,0,0,1,38.57142639160156,0)"><path d="M19.41784219580078,8.91469C19.23372669580078,8.6753,19.24284409580078,8.34944,19.44008919580078,8.11952L26.363733195800783,0.0486541C26.390123195800783,0.0178837,26.42988319580078,0,26.47189319580078,0L29.943713195800783,0C30.05961319580078,0,30.124613195800784,0.125659,30.05321319580078,0.21159L23.97227319580078,7.52727L38.29331319580078,7.52727C38.44691319580078,7.52727,38.57141319580078,7.64449,38.57141319580078,7.78909L38.57141319580078,10.2109C38.57141319580078,10.3555,38.44691319580078,10.4727,38.29331319580078,10.4727L23.97227319580078,10.4727L30.05321319580078,17.7884C30.124613195800784,17.8743,30.05961319580078,18,29.943713195800783,18L26.47645319580078,18C26.43186319580078,18,26.38998319580078,17.9799,26.36383319580078,17.9459L19.41784219580078,8.91469Z" fill-rule="evenodd" fill="#FFFFFF" fill-opacity="1"/></g></svg>