<svg xmlns="http://www.w3.org/2000/svg" xmlns:xlink="http://www.w3.org/1999/xlink" fill="none" version="1.1" width="19.28571319580078" height="18" viewBox="0 0 19.28571319580078 18"><g style="mix-blend-mode:passthrough"><path d="M0.132129,8.91469C-0.0519865,8.6753,-0.0428691,8.34944,0.154376,8.11952L7.07802,0.0486541C7.10441,0.0178837,7.14417,0,7.18618,0L10.658,0C10.7739,0,10.8389,0.125659,10.7675,0.21159L4.68656,7.52727L19.0076,7.52727C19.1612,7.52727,19.2857,7.64449,19.2857,7.78909L19.2857,10.2109C19.2857,10.3555,19.1612,10.4727,19.0076,10.4727L4.68656,10.4727L10.7675,17.7884C10.8389,17.8743,10.7739,18,10.658,18L7.19074,18C7.14615,18,7.10427,17.9799,7.07812,17.9459L0.132129,8.91469Z" fill-rule="evenodd" fill="#FFFFFF" fill-opacity="1"/></g></svg>