<svg xmlns="http://www.w3.org/2000/svg" xmlns:xlink="http://www.w3.org/1999/xlink" fill="none" version="1.1" width="16.5859375" height="16.583984375" viewBox="0 0 16.5859375 16.583984375"><g style="mix-blend-mode:passthrough"><g style="mix-blend-mode:passthrough"><g><path d="M8.29253125,0.2998046875C4.88462125,0.2998046875,1.97536125,2.4335846875,0.82623425,5.4376346875L2.0621212499999997,5.4376346875C2.39737125,4.7067846875,2.86337125,4.0336446875,3.44891125,3.4480846875C4.74275125,2.1541646875,6.46292125,1.4415346875,8.29253125,1.4415346875C10.12239125,1.4415346875,11.84278125,2.1541646875,13.13678125,3.4481146875C14.43078125,4.7420746875,15.14338125,6.4623046875,15.14338125,8.2919946875C15.14338125,10.1218046875,14.43078125,11.8421046875,13.13678125,13.1360046875C11.84288125,14.4299046875,10.12242125,15.1424046875,8.29253125,15.1424046875C6.46286125,15.1424046875,4.74269125,14.4299046875,3.44887125,13.1361046875C2.86330125,12.5505046875,2.39729125,11.8773046875,2.06198125,11.1463046875L0.82617225,11.1463046875C1.97525125,14.1506046875,4.88456125,16.2842046875,8.292591250000001,16.2842046875C12.70658125,16.2842046875,16.28518125,12.7061046875,16.28518125,8.2919946875C16.28518125,3.8783846875,12.70658125,0.2998046875,8.29253125,0.2998046875ZM6.53978125,10.7140046875L7.34711125,11.5213046875L10.57648125,8.2919946875L7.34711125,5.0626446875L6.53975125,5.8699946875L8.39092125,7.7211146875L0.30078125,7.7211146875L0.30078125,8.8628646875L8.39092125,8.8628646875L6.53978125,10.7140046875Z" fill="#FFFFFF" fill-opacity="1"/><path d="M8.60305125,9.0749946875L6.75191125,10.9261046875L6.53978125,10.7140046875L6.75191125,10.5019046875L7.55924125,11.3092046875L7.34711125,11.5213046875L7.13498125,11.3092046875L10.36428125,8.079864687499999L10.57648125,8.2919946875L10.36428125,8.5041246875L7.13498125,5.2747846875L7.34711125,5.0626446875L7.55924125,5.2747846875L6.75188125,6.0821246875L6.53975125,5.8699946875L6.75188125,5.6578546875L9.11520125,8.021114687499999L0.30078125,8.021114687499999L0.30078125,7.7211146875L0.60078125,7.7211146875L0.60078125,8.8628646875L0.30078125,8.8628646875L0.30078125,8.5628646875L9.11518125,8.5628646875L8.60305125,9.0749946875ZM8.17879125,8.6507346875L8.39092125,8.8628646875L8.39092125,9.1628646875L0.0007812500000000111,9.1628646875L0.0007812500000000111,7.4211146875L8.39092125,7.4211146875L8.39092125,7.7211146875L8.17879125,7.9332546875L6.11548125,5.8699946875L7.34711125,4.6383846875L11.00068125,8.2919946875L7.34711125,11.9456046875L6.11552125,10.7140046875L8.17879125,8.6507346875ZM15.98518125,8.2919946875Q15.98518125,5.1060146875,13.73198125,2.8529346875Q11.47878125,0.5998036875,8.29253125,0.5998036875Q5.86510125,0.5998046875,3.88452125,1.9878746875Q1.94786125,3.3451646875,1.10643325,5.5448146875L0.82623425,5.4376346875L0.82623425,5.1376346875L2.0621212499999997,5.1376346875L2.0621212499999997,5.4376346875L1.78944125,5.3125546875Q2.32268125,4.1500946875,3.23677125,3.2359646875Q5.33106125,1.1415386875,8.29253125,1.1415396875Q11.25438125,1.1415396875,13.34888125,3.2359846875Q15.44338125,5.3304046875,15.44338125,8.2919946875Q15.44338125,11.2538046875,13.34898125,13.3482046875Q11.25448125,15.4424046875,8.29253125,15.4424046875Q5.33097125,15.4424046875,3.23674125,13.3482046875Q2.32270125,12.4341046875,1.78931125,11.2714046875L2.06198125,11.1463046875L2.06198125,11.4463046875L0.82617225,11.4463046875L0.82617225,11.1463046875L1.1063752500000001,11.0392046875Q1.94774125,13.2389046875,3.88445125,14.5962046875Q5.86501125,15.9842046875,8.292591250000001,15.9842046875Q11.47888125,15.9842046875,13.73198125,13.7312046875Q15.98518125,11.4782046875,15.98518125,8.291984687500001L15.98518125,8.2919946875ZM16.58518125,8.291984687500001Q16.58518125,11.7268046875,14.15628125,14.1555046875Q11.72738125,16.5842046875,8.292591250000001,16.5842046875Q5.67570125,16.5842046875,3.54010125,15.0875046875Q1.45296125,13.6248046875,0.54596925,11.2535046875L0.39023045,10.8463046875L2.25442125,10.8463046875L2.33466125,11.0213046875Q2.82313125,12.0860046875,3.66101125,12.9239046875Q5.57950125,14.8424046875,8.29253125,14.8424046875Q11.00598125,14.8424046875,12.92468125,12.9239046875Q14.84338125,11.0053046875,14.84338125,8.2919946875Q14.84338125,5.5789446875,12.92468125,3.6602546875Q11.00588125,1.7415346875,8.29253125,1.7415346875Q5.57960125,1.7415346875,3.66104125,3.6602146875Q2.82313125,4.4981746875,2.33480125,5.5627146875L2.2545712499999997,5.7376346875L0.39027655,5.7376346875L0.5460342499999999,5.3304446875Q1.45308125,2.9592346875,3.54016125,1.4965246875Q5.67578125,-0.0001953124999999889,8.29253125,-0.00019631250000001765Q11.72728125,-0.00019631250000001765,14.15628125,2.4286546875Q16.58518125,4.8574746875,16.58518125,8.2919946875L16.58518125,8.291984687500001Z" fill="#FFFFFF" fill-opacity="1"/></g></g></g></svg>