<svg width="131" height="99" viewBox="0 0 131 99" fill="none" xmlns="http://www.w3.org/2000/svg">
<rect width="131" height="99" rx="3" fill="#598BD7"/>
<circle cx="65.5" cy="49.5" r="26.5" fill="#416FB4"/>
<path d="M15.9135 82.0601C15.9712 82.1009 16 82.161 16 82.2408V91.8704C16 92.3719 15.8076 92.7781 15.423 93.0891C15.0384 93.4007 14.5385 93.5556 13.9231 93.5556C13.3077 93.5556 12.8076 93.4007 12.423 93.0891C12.0384 92.7781 11.8462 92.3719 11.8462 91.8704C11.8462 91.3694 12.0384 90.9631 12.423 90.6515C12.8076 90.3407 13.3077 90.1852 13.9231 90.1852H15.0769C15.3846 90.1852 15.5385 90.0247 15.5385 89.7037V85.4305L8.15384 86.7847V93.3148C8.15384 93.8163 7.96147 94.2226 7.57686 94.5335C7.19224 94.8452 6.69231 95 6.07693 95C5.46155 95 4.96148 94.8452 4.57687 94.5335C4.19225 94.2226 4 93.8163 4 93.3148C4 92.8138 4.19225 92.4076 4.57687 92.096C4.96148 91.7851 5.46155 91.6296 6.07693 91.6296H7.23077C7.53846 91.6296 7.69231 91.4692 7.69231 91.1482V83.6852C7.69231 83.5648 7.75963 83.4852 7.89427 83.4444L15.7404 82C15.8173 82 15.8749 82.02 15.9135 82.0601Z" fill="white"/>
<path d="M65.5 59C60.2534 59 56 54.7466 56 49.5C56 44.2534 60.2534 40 65.5 40C70.7466 40 75 44.2534 75 49.5C75 54.7466 70.7466 59 65.5 59ZM65.5 57.2727C69.7927 57.2727 73.2727 53.7927 73.2727 49.5C73.2727 45.2073 69.7927 41.7273 65.5 41.7273C61.2073 41.7273 57.7273 45.2073 57.7273 49.5C57.7273 53.7927 61.2073 57.2727 65.5 57.2727ZM70.0311 50.9306C70.1 50.7122 70.2528 50.53 70.456 50.4243C70.6592 50.3185 70.896 50.2978 71.1145 50.3667C71.333 50.4355 71.5151 50.5884 71.6209 50.7916C71.7266 50.9948 71.7473 51.2316 71.6785 51.4501C71.3643 52.4423 70.8162 53.3444 70.0803 54.0803C69.3444 54.8162 68.4423 55.3643 67.4501 55.6785C67.2316 55.7473 66.9948 55.7266 66.7916 55.6209C66.5884 55.5151 66.4355 55.333 66.3667 55.1145C66.2978 54.896 66.3185 54.6592 66.4243 54.456C66.53 54.2528 66.7122 54.1 66.9306 54.0311C67.658 53.8004 68.3192 53.3983 68.8588 52.8588C69.3983 52.3192 69.8004 51.658 70.0311 50.9306ZM60.9689 48.0694C60.9348 48.1776 60.8797 48.2779 60.8068 48.3648C60.7339 48.4517 60.6446 48.5234 60.544 48.5758C60.4434 48.6281 60.3335 48.6602 60.2205 48.67C60.1075 48.6799 59.9937 48.6675 59.8855 48.6333C59.7773 48.5992 59.6769 48.5442 59.5901 48.4712C59.5032 48.3983 59.4315 48.309 59.3791 48.2084C59.3268 48.1078 59.2947 47.9979 59.2848 47.8849C59.275 47.7719 59.2874 47.6581 59.3215 47.5499C59.6357 46.5577 60.1838 45.6556 60.9197 44.9197C61.6556 44.1838 62.5577 43.6357 63.5499 43.3215C63.6581 43.2874 63.7719 43.275 63.8849 43.2848C63.9979 43.2947 64.1078 43.3268 64.2084 43.3791C64.309 43.4315 64.3983 43.5032 64.4712 43.5901C64.5442 43.6769 64.5992 43.7773 64.6333 43.8855C64.6675 43.9937 64.6799 44.1075 64.67 44.2205C64.6602 44.3335 64.6281 44.4434 64.5758 44.544C64.5234 44.6446 64.4517 44.7339 64.3648 44.8068C64.2779 44.8797 64.1776 44.9348 64.0694 44.9689C63.342 45.1996 62.6808 45.6017 62.1412 46.1412C61.6017 46.6808 61.1996 47.342 60.9689 48.0694ZM65.5 52.0909C64.8128 52.0909 64.1538 51.8179 63.668 51.332C63.1821 50.8462 62.9091 50.1872 62.9091 49.5C62.9091 48.8128 63.1821 48.1538 63.668 47.668C64.1538 47.1821 64.8128 46.9091 65.5 46.9091C66.1872 46.9091 66.8462 47.1821 67.332 47.668C67.8179 48.1538 68.0909 48.8128 68.0909 49.5C68.0909 50.1872 67.8179 50.8462 67.332 51.332C66.8462 51.8179 66.1872 52.0909 65.5 52.0909ZM65.5 50.3636C65.7291 50.3636 65.9487 50.2726 66.1107 50.1107C66.2726 49.9487 66.3636 49.7291 66.3636 49.5C66.3636 49.271 66.2726 49.0513 66.1107 48.8893C65.9487 48.7274 65.7291 48.6364 65.5 48.6364C65.271 48.6364 65.0513 48.7274 64.8893 48.8893C64.7274 49.0513 64.6364 49.271 64.6364 49.5C64.6364 49.7291 64.7274 49.9487 64.8893 50.1107C65.0513 50.2726 65.271 50.3636 65.5 50.3636Z" fill="white"/>
</svg>
