<svg width="131" height="99" viewBox="0 0 131 99" fill="none" xmlns="http://www.w3.org/2000/svg">
<rect width="131" height="99" rx="3" fill="#2F8E9B"/>
<circle cx="65.5" cy="49.5" r="26.5" fill="#147380"/>
<rect x="5.68433" y="82" width="4.63158" height="9.45444" rx="2.31579" fill="white"/>
<path d="M12 89.288C12 90.2806 11.5786 91.2325 10.8284 91.9343C10.0783 92.6361 9.06087 93.0304 8 93.0304C6.93913 93.0304 5.92172 92.6361 5.17157 91.9343C4.42143 91.2325 4 90.2806 4 89.288L4.80059 89.288C4.80059 90.0819 5.13767 90.8433 5.73767 91.4047C6.33768 91.966 7.15146 92.2814 8 92.2814C8.84854 92.2814 9.66232 91.966 10.2623 91.4047C10.8623 90.8433 11.1994 90.0819 11.1994 89.288H12Z" fill="white"/>
<path d="M7.57861 92.6362H8.42072V94.9998H7.57861V92.6362Z" fill="white"/>
<path d="M60.4088 51.1631C60.1599 51.4119 59.7516 51.4143 59.5454 51.1291C59.3633 50.8774 59.2108 50.6046 59.0913 50.3162C58.8904 49.8311 58.7869 49.311 58.7869 48.7859C58.7869 48.2607 58.8904 47.7407 59.0913 47.2555C59.2108 46.9671 59.3633 46.6944 59.5454 46.4426C59.7516 46.1575 60.1599 46.1599 60.4088 46.4087V46.4087C60.6576 46.6575 60.6497 47.0585 60.4653 47.3582C60.3899 47.4808 60.3241 47.6095 60.2687 47.7432C60.1318 48.0738 60.0613 48.4281 60.0613 48.7859C60.0613 49.1437 60.1318 49.498 60.2687 49.8286C60.3241 49.9622 60.3899 50.091 60.4653 50.2136C60.6497 50.5133 60.6576 50.9142 60.4088 51.1631V51.1631Z" fill="white"/>
<path d="M58.6056 54.0462C58.331 54.3208 57.8829 54.3227 57.6339 54.0245C57.1264 53.4166 56.713 52.7343 56.4089 52.0001C56.0149 51.049 55.8121 50.0295 55.8121 49C55.8121 47.9705 56.0149 46.951 56.4089 45.9999C56.713 45.2657 57.1264 44.5834 57.6339 43.9755C57.8829 43.6773 58.331 43.6792 58.6056 43.9538V43.9538C58.8803 44.2285 58.8768 44.6716 58.6338 44.9746C58.2536 45.4485 57.9418 45.9747 57.7084 46.5382C57.3851 47.3187 57.2187 48.1552 57.2187 49C57.2187 49.8448 57.3851 50.6813 57.7084 51.4618C57.9418 52.0253 58.2536 52.5515 58.6338 53.0254C58.8768 53.3284 58.8803 53.7715 58.6056 54.0462V54.0462Z" fill="white"/>
<path d="M56.025 55.9751C55.735 56.265 55.2628 56.2666 54.9938 55.9571C54.2449 55.0953 53.639 54.1168 53.2008 53.059C52.6677 51.7721 52.3934 50.3929 52.3934 49C52.3934 47.6071 52.6677 46.2279 53.2008 44.941C53.639 43.8832 54.2449 42.9047 54.9938 42.0429C55.2628 41.7334 55.735 41.735 56.025 42.0249V42.0249C56.3149 42.3149 56.3123 42.7831 56.0469 43.0956C55.4339 43.8175 54.9361 44.6315 54.5725 45.5092C54.1141 46.6159 53.8782 47.8021 53.8782 49C53.8782 50.1979 54.1141 51.3841 54.5725 52.4908C54.9361 53.3685 55.4339 54.1825 56.0469 54.9044C56.3123 55.2169 56.3149 55.6851 56.025 55.9751V55.9751Z" fill="white"/>
<path d="M74.9751 42.0249C75.265 41.735 75.7372 41.7334 76.0061 42.0428C76.755 42.9047 77.361 43.8831 77.7992 44.941C78.3323 46.2279 78.6066 47.6071 78.6066 49C78.6066 50.3929 78.3323 51.7721 77.7992 53.059C77.361 54.1169 76.755 55.0953 76.0061 55.9572C75.7372 56.2666 75.265 56.265 74.9751 55.9751V55.9751C74.6853 55.6853 74.6879 55.2171 74.9532 54.9046C75.5662 54.1827 76.0641 53.3686 76.4277 52.4909C76.8861 51.3841 77.1221 50.1979 77.1221 49C77.1221 47.8021 76.8861 46.6159 76.4277 45.5091C76.0641 44.6314 75.5662 43.8172 74.9532 43.0954C74.6879 42.7829 74.6853 42.3147 74.9751 42.0249V42.0249Z" fill="white"/>
<path d="M72.3939 43.9538C72.6686 43.6792 73.1166 43.6773 73.3656 43.9755C73.8731 44.5834 74.2865 45.2657 74.5906 45.9999C74.9846 46.951 75.1874 47.9705 75.1874 49C75.1874 50.0295 74.9846 51.049 74.5906 52.0001C74.2865 52.7343 73.8731 53.4166 73.3656 54.0245C73.1166 54.3227 72.6686 54.3208 72.3939 54.0462V54.0462C72.1192 53.7715 72.1227 53.3284 72.3658 53.0254C72.7459 52.5515 73.0577 52.0253 73.2911 51.4618C73.6144 50.6813 73.7808 49.8448 73.7808 49C73.7808 48.1552 73.6144 47.3187 73.2911 46.5382C73.0577 45.9747 72.7459 45.4485 72.3658 44.9746C72.1227 44.6716 72.1192 44.2285 72.3939 43.9538V43.9538Z" fill="white"/>
<path d="M70.8153 46.4087C71.0642 46.1599 71.4725 46.1575 71.6787 46.4426C71.8608 46.6944 72.0133 46.9671 72.1328 47.2555C72.3337 47.7407 72.4372 48.2607 72.4372 48.7859C72.4372 49.311 72.3337 49.8311 72.1328 50.3162C72.0133 50.6046 71.8608 50.8774 71.6787 51.1291C71.4725 51.4143 71.0642 51.4119 70.8153 51.1631V51.1631C70.5665 50.9142 70.5744 50.5133 70.7588 50.2136C70.8343 50.091 70.9001 49.9622 70.9554 49.8286C71.0923 49.498 71.1628 49.1437 71.1628 48.7859C71.1628 48.4281 71.0923 48.0738 70.9554 47.7432C70.9001 47.6095 70.8343 47.4808 70.7588 47.3582C70.5744 47.0585 70.5665 46.6575 70.8153 46.4087V46.4087Z" fill="white"/>
<circle cx="65.5" cy="48.5" r="2.5" fill="white"/>
</svg>
