<svg width="131" height="99" viewBox="0 0 131 99" fill="none" xmlns="http://www.w3.org/2000/svg">
<rect width="131" height="99" rx="3" fill="#59A8D7"/>
<circle cx="65.5" cy="49.5" r="26.5" fill="#318ABE"/>
<path d="M62.0813 52.6954C62.1426 52.7375 62.2115 52.7672 62.2843 52.7826C62.357 52.798 62.4321 52.799 62.5052 52.7854C62.5783 52.7717 62.648 52.7438 62.7103 52.7032C62.7726 52.6626 62.8262 52.6102 62.8682 52.5488L63.4195 51.7452C63.5045 51.6214 63.5367 51.4689 63.5092 51.3213C63.4817 51.1738 63.3967 51.0432 63.2729 50.9582C63.2117 50.9162 63.1427 50.8866 63.07 50.8712C62.9972 50.8558 62.9222 50.8548 62.8491 50.8685C62.776 50.8821 62.7063 50.91 62.644 50.9505C62.5817 50.9911 62.528 51.0435 62.486 51.1048L61.9347 51.9085C61.8498 52.0323 61.8175 52.1847 61.845 52.3323C61.8725 52.4799 61.9575 52.6105 62.0813 52.6954Z" fill="white"/>
<path d="M72.7056 57.6087C68.4966 55.3071 66.0004 56.4498 63.9946 57.3682C63.2858 57.6926 62.6163 57.9992 61.9312 58.1374C61.3805 58.2483 60.423 58.3297 60.1943 57.6266C60.1459 57.478 60.152 57.3107 60.1813 57.1526L60.5345 57.3884C60.6468 57.4636 60.7825 57.496 60.9167 57.4797C61.0509 57.4635 61.1749 57.3997 61.2661 57.2998L66.9278 51.1156C68.4429 51.0078 69.8962 50.2427 70.8119 48.9078C71.5789 47.7899 71.8604 46.4434 71.6045 45.1168C71.347 43.7815 70.5772 42.6272 69.437 41.8663C67.0969 40.3044 63.9036 40.9127 62.319 43.2224C61.5521 44.3405 61.2706 45.6868 61.5264 47.0134C61.5728 47.2534 61.6365 47.4897 61.7168 47.7205L58.0584 55.1441C57.9976 55.2673 57.9837 55.4084 58.0194 55.541C58.055 55.6737 58.1376 55.7889 58.2519 55.8651L59.1911 56.4919C59.0549 56.8688 58.9371 57.4218 59.1177 57.9768C59.2329 58.331 59.7001 59.3439 61.2591 59.3438C61.5247 59.3438 61.8222 59.3143 62.1549 59.2473C62.9683 59.0832 63.7294 58.7347 64.4656 58.3978C66.4252 57.5006 68.4513 56.573 72.1622 58.6024C72.2274 58.6381 72.2991 58.6605 72.373 58.6685C72.4469 58.6765 72.5216 58.6699 72.593 58.649C72.6643 58.6281 72.7308 58.5933 72.7887 58.5467C72.8467 58.5001 72.8948 58.4425 72.9305 58.3773C72.9662 58.312 72.9887 58.2404 72.9967 58.1665C73.0047 58.0926 72.9981 58.0178 72.9772 57.9464C72.9563 57.8751 72.9216 57.8085 72.875 57.7506C72.8284 57.6926 72.7708 57.6444 72.7056 57.6087ZM63.2526 43.8627C64.0246 42.7375 65.2866 42.1305 66.5709 42.1305C67.3676 42.1296 68.1465 42.3654 68.809 42.8078C69.6954 43.3993 70.2936 44.2953 70.4933 45.331C70.6914 46.3581 70.4732 47.4007 69.8788 48.2672C68.6429 50.0687 66.1505 50.5421 64.3225 49.3221C63.4361 48.7306 62.8381 47.8346 62.6383 46.7989C62.44 45.7718 62.6582 44.7292 63.2526 43.8627ZM62.3622 48.9719C62.7234 49.4804 63.1748 49.9183 63.6941 50.2639C64.2372 50.6265 64.8446 50.8821 65.4836 51.0168L60.7592 56.1772L59.2934 55.199L62.3622 48.9719Z" fill="white"/>
<path d="M11.5712 83.2772C12.271 83.9799 12.6816 84.8631 12.8037 85.7779L13.421 85.7773C13.497 85.7774 13.5724 85.7924 13.6426 85.8217C13.7129 85.8509 13.7767 85.8937 13.8305 85.9477C13.8843 86.0017 13.9269 86.0658 13.956 86.1363C13.9851 86.2069 14 86.2824 14 86.3588C14 86.4351 13.985 86.5107 13.9558 86.5812C13.9267 86.6517 13.884 86.7157 13.8302 86.7697C13.7764 86.8236 13.7125 86.8664 13.6422 86.8956C13.572 86.9248 13.4966 86.9398 13.4206 86.9398L12.8029 86.9391C12.677 87.8859 12.2433 88.7644 11.569 89.4385C11.3421 89.666 11.096 89.8635 10.8365 90.0302L10.358 94.3327C10.3061 94.7915 10.0876 95.2152 9.74429 95.5227C9.40093 95.8303 8.95674 96.0002 8.4965 96C8.03625 95.9998 7.59219 95.8296 7.24906 95.5218C6.90593 95.214 6.68776 94.7902 6.63621 94.3313L6.16088 90.0285C5.90141 89.8616 5.65588 89.6643 5.42877 89.4363C4.75472 88.7617 4.32149 87.8826 4.19631 86.9356L3.57902 86.9362C3.4254 86.9361 3.27809 86.8748 3.1695 86.7658C3.06092 86.6567 2.99994 86.5089 3 86.3547C3.00006 86.2006 3.06114 86.0528 3.1698 85.9438C3.27847 85.8349 3.42582 85.7737 3.57944 85.7737L4.19714 85.7744C4.30533 84.9695 4.63555 84.211 5.15054 83.5845C5.66553 82.958 6.34478 82.4884 7.11164 82.2287C7.87849 81.969 8.70242 81.9296 9.49042 82.1149C10.2784 82.3001 10.9991 82.7027 11.5712 83.2772ZM9.58849 90.7756L7.40789 90.7744L7.78652 94.2036C7.80459 94.3666 7.87781 94.5185 7.99397 94.634C8.11013 94.7494 8.26222 94.8214 8.42487 94.838L8.49692 94.8413C8.67276 94.8413 8.84243 94.7763 8.97349 94.6586C9.10455 94.541 9.18782 94.379 9.20737 94.2037L9.58849 90.7756ZM11.6309 86.9383L5.36828 86.9364C5.50263 87.6713 5.8894 88.3357 6.46135 88.8141C7.0333 89.2925 7.75425 89.5546 8.49884 89.5549C9.24343 89.5551 9.96457 89.2936 10.5369 88.8156C11.1092 88.3376 11.496 87.6731 11.6309 86.9383ZM10.7522 84.0984C10.3421 83.6865 9.82752 83.3949 9.26419 83.2551C8.70086 83.1154 8.11018 83.1327 7.55597 83.3054C7.00176 83.478 6.50511 83.7993 6.11969 84.2346C5.73426 84.6699 5.47472 85.2026 5.36911 85.7752L11.6317 85.7771C11.5155 85.1408 11.2087 84.5552 10.7522 84.0984Z" fill="white"/>
</svg>
