<svg width="131" height="99" viewBox="0 0 131 99" fill="none" xmlns="http://www.w3.org/2000/svg">
<rect width="131" height="99" rx="3" fill="#1D3454"/>
<circle cx="65.5" cy="49.5" r="26.5" fill="#162944"/>
<g clip-path="url(#clip0_2004_53)">
<path d="M57.1876 51.875C57.1356 51.875 57.0841 51.8647 57.0361 51.8448C56.9881 51.8249 56.9444 51.7958 56.9077 51.759C56.8709 51.7223 56.8418 51.6786 56.8219 51.6306C56.802 51.5826 56.7917 51.5311 56.7917 51.4791V47.5208C56.7917 47.4158 56.8335 47.3151 56.9077 47.2409C56.9819 47.1667 57.0826 47.125 57.1876 47.125C57.2926 47.125 57.3932 47.1667 57.4675 47.2409C57.5417 47.3151 57.5834 47.4158 57.5834 47.5208V51.4791C57.5834 51.5311 57.5732 51.5826 57.5533 51.6306C57.5334 51.6786 57.5042 51.7223 57.4675 51.759C57.4307 51.7958 57.3871 51.8249 57.3391 51.8448C57.291 51.8647 57.2396 51.875 57.1876 51.875ZM59.5626 55.0416C59.5106 55.0416 59.4591 55.0314 59.4111 55.0115C59.3631 54.9916 59.3194 54.9624 59.2827 54.9257C59.2459 54.8889 59.2168 54.8453 59.1969 54.7973C59.177 54.7492 59.1667 54.6978 59.1667 54.6458V44.3541C59.1667 44.2491 59.2085 44.1485 59.2827 44.0742C59.3569 44 59.4576 43.9583 59.5626 43.9583C59.6676 43.9583 59.7682 44 59.8425 44.0742C59.9167 44.1485 59.9584 44.2491 59.9584 44.3541V54.6458C59.9584 54.6978 59.9482 54.7492 59.9283 54.7973C59.9084 54.8453 59.8792 54.8889 59.8425 54.9257C59.8057 54.9624 59.7621 54.9916 59.7141 55.0115C59.666 55.0314 59.6146 55.0416 59.5626 55.0416ZM61.9376 58.2083C61.8326 58.2083 61.7319 58.1666 61.6577 58.0924C61.5835 58.0181 61.5417 57.9174 61.5417 57.8125V41.1875C61.5417 41.0825 61.5835 40.9818 61.6577 40.9076C61.7319 40.8333 61.8326 40.7916 61.9376 40.7916C62.0426 40.7916 62.1432 40.8333 62.2175 40.9076C62.2917 40.9818 62.3334 41.0825 62.3334 41.1875V57.8125C62.3334 57.9174 62.2917 58.0181 62.2175 58.0924C62.1432 58.1666 62.0426 58.2083 61.9376 58.2083ZM64.3126 57.4166C64.2606 57.4166 64.2091 57.4064 64.1611 57.3865C64.1131 57.3666 64.0694 57.3374 64.0327 57.3007C63.9959 57.2639 63.9668 57.2203 63.9469 57.1723C63.927 57.1242 63.9167 57.0728 63.9167 57.0208V41.9791C63.9167 41.8741 63.9585 41.7735 64.0327 41.6992C64.1069 41.625 64.2076 41.5833 64.3126 41.5833C64.4176 41.5833 64.5182 41.625 64.5925 41.6992C64.6667 41.7735 64.7084 41.8741 64.7084 41.9791V57.0208C64.7084 57.0728 64.6982 57.1242 64.6783 57.1723C64.6584 57.2203 64.6292 57.2639 64.5925 57.3007C64.5557 57.3374 64.5121 57.3666 64.4641 57.3865C64.416 57.4064 64.3646 57.4166 64.3126 57.4166ZM66.6876 54.25C66.5826 54.25 66.4819 54.2083 66.4077 54.134C66.3335 54.0598 66.2917 53.9591 66.2917 53.8541V45.1458C66.2917 45.0408 66.3335 44.9401 66.4077 44.8659C66.4819 44.7917 66.5826 44.75 66.6876 44.75C66.7926 44.75 66.8932 44.7917 66.9675 44.8659C67.0417 44.9401 67.0834 45.0408 67.0834 45.1458V53.8541C67.0834 53.9591 67.0417 54.0598 66.9675 54.134C66.8932 54.2083 66.7926 54.25 66.6876 54.25ZM69.0626 57.4166C69.0106 57.4166 68.9591 57.4064 68.9111 57.3865C68.8631 57.3666 68.8194 57.3374 68.7827 57.3007C68.7459 57.2639 68.7168 57.2203 68.6969 57.1723C68.677 57.1242 68.6667 57.0728 68.6667 57.0208V41.9791C68.6667 41.8741 68.7085 41.7735 68.7827 41.6992C68.8569 41.625 68.9576 41.5833 69.0626 41.5833C69.1676 41.5833 69.2682 41.625 69.3425 41.6992C69.4167 41.7735 69.4584 41.8741 69.4584 41.9791V57.0208C69.4584 57.0728 69.4482 57.1242 69.4283 57.1723C69.4084 57.2203 69.3792 57.2639 69.3425 57.3007C69.3057 57.3374 69.2621 57.3666 69.2141 57.3865C69.166 57.4064 69.1146 57.4166 69.0626 57.4166ZM71.4376 54.25C71.3326 54.25 71.2319 54.2083 71.1577 54.134C71.0835 54.0598 71.0417 53.9591 71.0417 53.8541V45.1458C71.0417 45.0408 71.0835 44.9401 71.1577 44.8659C71.2319 44.7917 71.3326 44.75 71.4376 44.75C71.5426 44.75 71.6432 44.7917 71.7175 44.8659C71.7917 44.9401 71.8334 45.0408 71.8334 45.1458V53.8541C71.8334 53.9591 71.7917 54.0598 71.7175 54.134C71.6432 54.2083 71.5426 54.25 71.4376 54.25ZM73.8126 51.875C73.7606 51.875 73.7091 51.8647 73.6611 51.8448C73.6131 51.8249 73.5694 51.7958 73.5327 51.759C73.4959 51.7223 73.4668 51.6786 73.4469 51.6306C73.427 51.5826 73.4167 51.5311 73.4167 51.4791V47.5208C73.4167 47.4158 73.4585 47.3151 73.5327 47.2409C73.6069 47.1667 73.7076 47.125 73.8126 47.125C73.9176 47.125 74.0182 47.1667 74.0925 47.2409C74.1667 47.3151 74.2084 47.4158 74.2084 47.5208V51.4791C74.2084 51.5311 74.1982 51.5826 74.1783 51.6306C74.1584 51.6786 74.1292 51.7223 74.0925 51.759C74.0557 51.7958 74.0121 51.8249 73.9641 51.8448C73.916 51.8647 73.8646 51.875 73.8126 51.875Z" fill="white"/>
</g>
<path d="M12 82.9191V86.0051L8.37795 85.2172V93.293C8.37795 93.7526 8.12598 94.152 7.62205 94.4913C7.11812 94.8311 6.5197 95 5.82681 95C5.3019 95 4.8661 94.8414 4.51966 94.524C4.17323 94.2074 4 93.7971 4 93.293C4 92.8553 4.17323 92.4778 4.51966 92.1604C4.8661 91.8437 5.30192 91.6515 5.82681 91.5858H6.74023C6.97124 91.5858 7.1759 91.4874 7.35436 91.2904C7.53281 91.0935 7.62205 90.8753 7.62205 90.6339V82L12 82.9191Z" fill="white"/>
<defs>
<clipPath id="clip0_2004_53">
<rect width="19" height="19" fill="white" transform="translate(56 40)"/>
</clipPath>
</defs>
</svg>
