<svg width="18" height="16" viewBox="0 0 18 16" fill="none" xmlns="http://www.w3.org/2000/svg">
<path d="M0.233798 7.42863C0.262318 7.40171 0.299127 7.39023 0.330463 7.36806L7.89482 0.230251C8.22031 -0.0767504 8.74794 -0.0767504 9.07341 0.230251C9.39887 0.537429 9.39887 1.03532 9.07341 1.3424L2.86556 7.20024H17.1524C17.6205 7.20024 18 7.55832 18 8.00001C18 8.44173 17.6205 8.79986 17.1524 8.79986H2.86556L9.07338 14.6576C9.39885 14.9646 9.39885 15.4626 9.07338 15.7697C8.74792 16.0768 8.22025 16.0768 7.89479 15.7697L0.330437 8.63204C0.299127 8.6098 0.262292 8.59839 0.233771 8.5714C0.0775114 8.42393 0.005841 8.23198 0 8.03879C0.00586729 7.76807 0.0775378 7.57612 0.233798 7.42863Z" fill="white"/>
</svg>
