<svg width="1026" height="345" viewBox="0 0 1026 345" fill="none" xmlns="http://www.w3.org/2000/svg">
<path d="M260.095 218H198.24C188.718 218 181 225.718 181 235.24V236.497C181 245.612 188.388 253 197.503 253C198.053 253 198.5 253.447 198.5 253.997V261.5C198.5 266.194 202.306 270 207 270C211.694 270 215.5 266.194 215.5 261.5C215.5 256.806 219.306 253 224 253H239C243.694 253 247.5 249.194 247.5 244.5V241.645C247.5 238.527 250.027 236 253.145 236H259.905C264.928 236 269 231.928 269 226.905C269 221.987 265.013 218 260.095 218Z" fill="#1B57E6"/>
<path d="M229.5 171.5H218.5C213.253 171.5 209 175.753 209 181C209 186.247 213.253 190.5 218.5 190.5H219C224.523 190.5 229 194.977 229 200.5V202.25C229 207.359 233.141 211.5 238.25 211.5C243.359 211.5 247.5 207.359 247.5 202.25V189.5C247.5 179.559 239.441 171.5 229.5 171.5Z" fill="#1B57E6"/>
<path d="M269 190C269 175.088 281.088 163 296 163V218C281.088 218 269 205.912 269 191V190Z" fill="#1B57E6"/>
<circle cx="309" cy="270" r="7" fill="#1B57E6"/>
<line x1="6" y1="6.5" x2="1022" y2="6.5" stroke="#1B57E6"/>
<path d="M794.5 54H910C915.523 54 920 58.4772 920 64V335C920 340.523 915.523 345 910 345H378.5C370.216 345 363.5 338.284 363.5 330V238.75C363.5 234.746 360.254 231.5 356.25 231.5C352.246 231.5 349 234.746 349 238.75V249.25C349 257.672 342.172 264.5 333.75 264.5C325.328 264.5 318.5 257.672 318.5 249.25V246.125C318.5 242.742 315.758 240 312.375 240H300C291.716 240 285 233.284 285 225V216.828C285 216.298 284.789 215.789 284.414 215.414L283.5 214.5L296 163H302.5C308.851 163 314 157.851 314 151.5C314 145.149 308.851 140 302.5 140H296.5C280.76 140 268 127.24 268 111.5C268 95.7599 280.76 83 296.5 83H358.423C365.093 83 370.5 77.5929 370.5 70.923V40C370.5 31.7157 377.216 25 385.5 25H765.5C773.508 25 780 31.4919 780 39.5C780 47.5081 786.492 54 794.5 54Z" fill="#1B57E6"/>
<path d="M403.5 2.5C409.575 2.5 414.5 7.42487 414.5 13.5L414.5 56.5C414.5 62.5751 409.575 67.5 403.5 67.5C397.425 67.5 392.5 62.5751 392.5 56.5L392.5 13.5C392.5 7.42486 397.425 2.5 403.5 2.5Z" stroke="url(#paint0_angular_1263_13)" stroke-width="5"/>
<path d="M392.5 25L392.5 13.5C392.5 7.42487 397.425 2.5 403.5 2.5V2.5" stroke="url(#paint1_linear_1263_13)" stroke-width="5"/>
<path d="M19 233L19.6566 232.624L20.3132 232.25L20.9698 231.884L21.6264 231.528L22.283 231.184L22.9396 230.857L23.5962 230.548L24.2528 230.262L24.9094 230L25.566 229.764L26.2226 229.557L26.8792 229.381L27.5358 229.236L28.1925 229.126L28.8491 229.049L29.5057 229.008L30.1623 229.002L30.8189 229.032L31.4755 229.096L32.1321 229.196L32.7887 229.329L33.4453 229.495L34.1019 229.692L34.7585 229.918L35.4151 230.172L36.0717 230.45L36.7283 230.752L37.3849 231.073L38.0415 231.411L38.6981 231.764L39.3547 232.127L40.0113 232.499L40.6679 232.874L41.3245 233.251L41.9811 233.626L42.6377 233.995L43.2943 234.355L43.9509 234.703L44.6075 235.036L45.2642 235.351L45.9208 235.645L46.5774 235.916L47.234 236.161L47.8906 236.377L48.5472 236.564L49.2038 236.719L49.8604 236.841L50.517 236.929L51.1736 236.982L51.8302 237L52.4868 236.982L53.1434 236.929L53.8 236.841L54.4566 236.719L55.1132 236.564L55.7698 236.377L56.4264 236.161L57.083 235.916L57.7396 235.645L58.3962 235.351L59.0528 235.036L59.7094 234.703L60.366 234.355L61.0226 233.995L61.6792 233.626L62.3358 233.251L62.9925 232.874L63.6491 232.499L64.3057 232.127L64.9623 231.764L65.6189 231.411L66.2755 231.073L66.9321 230.752L67.5887 230.45L68.2453 230.172L68.9019 229.918L69.5585 229.692L70.2151 229.495L70.8717 229.329L71.5283 229.196L72.1849 229.096L72.8415 229.032L73.4981 229.002L74.1547 229.008L74.8113 229.049L75.4679 229.126L76.1245 229.236L76.7811 229.381L77.4377 229.557L78.0943 229.764L78.7509 230L79.4075 230.262L80.0642 230.548L80.7208 230.857L81.3774 231.184L82.034 231.528L82.6906 231.884L83.3472 232.25L84.0038 232.624L84.6604 233L85.317 233.376L85.9736 233.75L86.6302 234.116L87.2868 234.472L87.9434 234.816L88.6 235.143L89.2566 235.452L89.9132 235.738L90.5698 236L91.2264 236.236L91.883 236.443L92.5396 236.619L93.1962 236.764L93.8528 236.874L94.5094 236.951L95.166 236.992L95.8226 236.998L96.4792 236.968L97.1359 236.904L97.7925 236.804L98.4491 236.671L99.1057 236.505L99.7623 236.308L100.419 236.082L101.075 235.828L101.732 235.55L102.389 235.248L103.045 234.927L103.702 234.589L104.358 234.236L105.015 233.873L105.672 233.501L106.328 233.126L106.985 232.749L107.642 232.374L108.298 232.005L108.955 231.645L109.611 231.297L110.268 230.964L110.925 230.649L111.581 230.355L112.238 230.084L112.894 229.839L113.551 229.623L114.208 229.436L114.864 229.281L115.521 229.159L116.177 229.071L116.834 229.018L117.491 229L118.147 229.018L118.804 229.071L119.46 229.159L120.117 229.281L120.774 229.436L121.43 229.623L122.087 229.839L122.743 230.084L123.4 230.355L124.057 230.649L124.713 230.964L125.37 231.297L126.026 231.645L126.683 232.005L127.34 232.374L127.996 232.749L128.653 233.126L129.309 233.501L129.966 233.873L130.623 234.236L131.279 234.589L131.936 234.927L132.592 235.248L133.249 235.55L133.906 235.828L134.562 236.082L135.219 236.308L135.875 236.505L136.532 236.671L137.189 236.804L137.845 236.904L138.502 236.968L139.158 236.998L139.815 236.992L140.472 236.951L141.128 236.874L141.785 236.764L142.442 236.619L143.098 236.443L143.755 236.236L144.411 236L145.068 235.738L145.725 235.452L146.381 235.143L147.038 234.816L147.694 234.472L148.351 234.116L149.008 233.75L149.664 233.376L150.321 233L150.977 232.624L151.634 232.25L152.291 231.884L152.947 231.528L153.604 231.184L154.26 230.857L154.917 230.548L155.574 230.262L156.23 230L156.887 229.764L157.543 229.557L158.2 229.381L158.857 229.236L159.513 229.126L160.17 229.049L160.826 229.008L161.483 229.002L162.14 229.032L162.796 229.096L163.453 229.196L164.109 229.329L164.766 229.495L165.423 229.692L166.079 229.918L166.736 230.172L167.392 230.45L168.049 230.752L168.706 231.073L169.362 231.411L170.019 231.764L170.675 232.127L171.332 232.499L171.989 232.874L172.645 233.251L173.302 233.626L173.958 233.995L174.615 234.355L175.272 234.703L175.928 235.036L176.585 235.351L177.242 235.645L177.898 235.916L178.555 236.161L179.211 236.377L179.868 236.564L180.525 236.719L181.181 236.841L181.838 236.929L182.494 236.982L183.151 237L183.808 236.982L184.464 236.929L185.121 236.841L185.777 236.719L186.434 236.564L187.091 236.377L187.747 236.161L188.404 235.916L189.06 235.645L189.717 235.351L190.374 235.036L191.03 234.703L191.687 234.355L192.343 233.995L193 233.626" stroke="url(#paint2_linear_1263_13)" stroke-width="19" stroke-miterlimit="10" stroke-linecap="square" stroke-linejoin="round"/>
<circle cx="4.5" cy="6.5" r="4.5" fill="#1B57E6"/>
<circle cx="1021.5" cy="6.5" r="4.5" fill="#1B57E6"/>
<path d="M911.883 102H920V305H891.049C883.317 305 877.049 298.732 877.049 291V256.5C877.049 250.977 872.571 246.5 867.049 246.5H849.097C840.813 246.5 834.097 239.784 834.097 231.5V187.796C834.097 179.072 827.025 172 818.301 172C812.612 172 808 167.388 808 161.699V142C808 136.477 812.477 132 818 132H884.883C893.168 132 899.883 125.284 899.883 117V114C899.883 107.373 905.256 102 911.883 102Z" fill="url(#paint3_linear_1263_13)"/>
<path d="M246 218H260C264.971 218 269 222.029 269 227C269 231.971 264.971 236 260 236H246V218Z" fill="url(#paint4_linear_1263_13)"/>
<defs>
<radialGradient id="paint0_angular_1263_13" cx="0" cy="0" r="1" gradientUnits="userSpaceOnUse" gradientTransform="translate(404 25) rotate(-180) scale(31 59.2858)">
<stop stop-color="#DBFE01"/>
<stop offset="0.963542" stop-color="#DBFE01" stop-opacity="0"/>
<stop offset="1" stop-color="#DBFE01" stop-opacity="0"/>
</radialGradient>
<linearGradient id="paint1_linear_1263_13" x1="390.5" y1="15" x2="401.5" y2="3.5" gradientUnits="userSpaceOnUse">
<stop stop-color="#DBFE01"/>
<stop offset="0.755208" stop-color="#DBFE01"/>
<stop offset="1" stop-color="#DBFE01" stop-opacity="0"/>
</linearGradient>
<linearGradient id="paint2_linear_1263_13" x1="182.5" y1="233" x2="10.5" y2="233" gradientUnits="userSpaceOnUse">
<stop stop-color="#1B57E6" stop-opacity="0.62"/>
<stop offset="1" stop-color="#1B57E6" stop-opacity="0"/>
</linearGradient>
<linearGradient id="paint3_linear_1263_13" x1="864" y1="102" x2="864" y2="305" gradientUnits="userSpaceOnUse">
<stop stop-color="#0034B0"/>
<stop offset="1" stop-color="#1B57E6" stop-opacity="0.62"/>
</linearGradient>
<linearGradient id="paint4_linear_1263_13" x1="248.5" y1="227" x2="267.5" y2="227" gradientUnits="userSpaceOnUse">
<stop stop-color="#1B57E6" stop-opacity="0"/>
<stop offset="1" stop-color="#DBFE01"/>
</linearGradient>
</defs>
</svg>
