<svg width="1920" height="1622" viewBox="0 0 1920 1622" fill="none" xmlns="http://www.w3.org/2000/svg">
<path d="M392.604 1350C392.604 1350 362.038 1045.54 714.158 1028.56C714.158 1028.56 914.558 1059.12 949.653 829.37C949.653 829.37 976.823 559.99 1309.7 615.464C1309.7 615.464 1492.44 635.132 1529.09 497.319C1529.09 497.319 1551.78 230.406 1920 270.535V-195.255C1920 -195.255 1504.21 -239.005 1051.52 111.628C1051.52 111.628 707.864 379.332 413.977 170.859C120.091 -37.6153 0 -2.98654 0 -2.98654V1017.04C0 1017.04 210.498 980.107 237.102 1122.74C237.102 1122.74 254.128 1223.87 336.136 1250.48C336.136 1250.48 385.109 1268.02 365.955 1350H392.604Z" fill="url(#paint0_linear_2442_2)"/>
<path d="M385.334 1378.86C382.477 1371.98 330.87 1384.44 322.266 1385.6L337.266 1401.56C364.267 1393.99 388.137 1385.6 385.334 1378.86Z" fill="#0036B8"/>
<path d="M294.496 1599.73C291.65 1588.33 287.974 1545.7 286.492 1525.8L322.955 1524.02C322.955 1535.42 316.729 1581.02 309.615 1604.18C306.947 1610.42 297.342 1611.13 294.496 1599.73Z" fill="#0036B8"/>
<path d="M287.51 1308.24C248.517 1311.43 256.156 1338.16 264.438 1348.23C267.396 1350.9 271.537 1356.94 264.438 1359.78C255.564 1363.34 242.254 1360.67 214.745 1446.86C192.737 1515.82 217.407 1527.72 232.493 1525.06C232.493 1563.56 229.548 1621.03 241.366 1621.03C251.127 1621.03 267.988 1552.31 273.313 1527.72C283.666 1527.43 308.809 1526.48 326.557 1525.06C344.305 1523.64 351.699 1514.99 353.178 1510.84C354.598 1478.14 347.262 1439.75 343.417 1424.65C356.728 1410.43 383.35 1409.54 388.674 1391.77C392.934 1377.55 354.362 1389.4 334.543 1397.1L309.696 1363.34C304.727 1356.23 307.032 1350.9 310.583 1348.23C328.33 1341.12 330.993 1304.69 287.51 1308.24Z" fill="#1B57E6"/>
<defs>
<linearGradient id="paint0_linear_2442_2" x1="298.868" y1="1116.85" x2="1123.69" y2="-322.877" gradientUnits="userSpaceOnUse">
<stop stop-color="#1B57E6"/>
<stop offset="1" stop-color="#1B57E6" stop-opacity="0"/>
</linearGradient>
</defs>
</svg>
