<svg width="1918" height="1890" viewBox="0 0 1918 1890" fill="none" xmlns="http://www.w3.org/2000/svg">
<path d="M390.604 1547C390.604 1547 360.038 1242.54 712.158 1225.56C712.158 1225.56 912.558 1256.12 947.653 1026.37C947.653 1026.37 974.823 756.99 1307.7 812.464C1307.7 812.464 1490.44 832.132 1527.09 694.319C1527.09 694.319 1549.78 427.406 1918 467.535V1.74494C1918 1.74494 1502.21 -42.0049 1049.52 308.628C1049.52 308.628 705.864 576.332 411.977 367.859C118.091 159.385 -2 194.013 -2 194.013V1214.04C-2 1214.04 208.498 1177.11 235.102 1319.74C235.102 1319.74 252.128 1420.87 334.136 1447.48C334.136 1447.48 383.109 1465.02 363.955 1547H390.604Z" fill="url(#paint0_linear_1820_32)"/>
<path d="M348.674 1537.99C344.52 1527.99 269.508 1546.11 257 1547.8L278.804 1571C318.052 1560 352.748 1547.8 348.674 1537.99Z" fill="#0036B8"/>
<path d="M216.634 1859.04C212.498 1842.47 207.154 1780.5 205 1751.59L258 1749C258 1765.57 248.951 1831.85 238.61 1865.51C234.732 1874.58 220.771 1875.61 216.634 1859.04Z" fill="#0036B8"/>
<path d="M206.48 1435.35C149.801 1439.99 162 1483.61 172.943 1493.48C177.243 1497.35 180.5 1503.79 172.943 1510.27C162.395 1519.31 143 1525 100.711 1636.84C63.5018 1735.26 104.581 1754.38 126.509 1750.51C126.509 1806.48 122.229 1890 139.406 1890C153.595 1890 178.104 1790.12 185.843 1754.38C200.891 1753.95 237.438 1752.57 263.235 1750.51C289.033 1748.44 299.782 1735.87 301.932 1729.84C303.995 1682.31 293.333 1626.51 287.743 1604.55C307.091 1583.89 345.787 1582.6 353.527 1556.77C359.718 1536.1 303.652 1553.32 274.844 1564.51L238.728 1515.43C231.504 1505.1 234.856 1497.35 240.017 1493.48C265.813 1483.14 269.684 1430.19 206.48 1435.35Z" fill="#1B57E6"/>
<defs>
<linearGradient id="paint0_linear_1820_32" x1="296.868" y1="1313.85" x2="1121.69" y2="-125.877" gradientUnits="userSpaceOnUse">
<stop stop-color="#1B57E6"/>
<stop offset="1" stop-color="#1B57E6" stop-opacity="0"/>
</linearGradient>
</defs>
</svg>
