<svg width="22" height="17" viewBox="0 0 22 17" fill="none" xmlns="http://www.w3.org/2000/svg">
<path d="M10.9948 2.68429C13.1579 2.68429 15.321 2.68367 17.4841 2.68456C18.2127 2.6849 18.8122 3.11574 18.9657 3.75021C18.9895 3.84897 18.9983 3.95244 18.9983 4.05362C19 7.01835 19.0006 9.98301 18.9992 12.9477C18.9988 13.7224 18.345 14.3136 17.4795 14.314C13.1602 14.3162 8.84096 14.3162 4.52164 14.314C3.65604 14.3135 3.00136 13.7222 3.00099 12.948C2.99962 9.98333 2.99977 7.01863 3.00085 4.05396C3.00116 3.26913 3.65862 2.68441 4.5367 2.68421C6.68945 2.684 8.84219 2.68421 10.9949 2.68421L10.9948 2.68429ZM11.0061 3.57686H7.30511C6.38584 3.57686 5.46671 3.57747 4.54743 3.57626C4.37144 3.57599 4.22274 3.62401 4.10905 3.74833C4.01537 3.85065 4.0007 3.97052 4.0007 4.09711C4.00176 7.03114 4.00152 9.96509 4.00161 12.8991C4.00161 12.9331 4.00185 12.9671 4.00396 13.001C4.01264 13.1434 4.08666 13.2539 4.21322 13.3372C4.32493 13.4106 4.45429 13.4206 4.58795 13.4206C8.52391 13.42 12.4599 13.4201 16.3959 13.4201C16.7518 13.4201 17.1077 13.4196 17.4637 13.4202C17.5958 13.4205 17.7168 13.3925 17.8196 13.3149C17.9606 13.2087 18.0026 13.0688 18.0026 12.9093C18.0013 9.97527 18.0017 7.04133 18.0016 4.10732C18.0016 3.74907 17.8106 3.57686 17.4129 3.57678H11.0062L11.0061 3.57686ZM15.3597 8.50293C15.0246 8.50293 14.6893 8.49657 14.3543 8.50436C13.7821 8.51776 13.2936 8.72025 12.8551 9.04172C12.527 9.28224 12.1977 9.52431 11.8473 9.73714C11.3981 10.01 10.8999 10.1932 10.3572 10.2629C10.2379 10.2782 10.1165 10.2868 9.99602 10.2875C9.53994 10.2903 9.08349 10.2972 8.62762 10.2861C8.23059 10.2765 7.87119 10.3732 7.53063 10.5435C7.26043 10.6785 7.01929 10.8457 6.80723 11.0493C6.49385 11.3501 6.175 11.6463 5.85346 11.9401C5.65706 12.1195 5.35158 12.122 5.15335 11.9551C4.9586 11.7911 4.93457 11.5143 5.12212 11.3368C5.53261 10.9483 5.93768 10.5532 6.37464 10.1894C6.89409 9.75695 7.51369 9.48567 8.22779 9.41025C8.34066 9.39833 8.45518 9.39557 8.56904 9.39511C9.01135 9.39348 9.45392 9.38758 9.89601 9.39671C10.2186 9.40341 10.5184 9.33816 10.8082 9.22059C11.2292 9.04981 11.6186 8.83615 11.9594 8.55365C12.4104 8.1797 12.9079 7.86864 13.5107 7.72883C13.7894 7.66425 14.0801 7.61677 14.3668 7.6096C15.0609 7.59227 15.7558 7.60175 16.4505 7.60345C16.6708 7.60399 16.8372 7.69347 16.9255 7.87696C17.0085 8.04915 16.9734 8.21095 16.8365 8.35143C16.7323 8.45829 16.5949 8.49888 16.438 8.4982C16.0786 8.49657 15.7192 8.4977 15.3598 8.4977V8.50306L15.3597 8.50293ZM8.00038 5.36893C8.55384 5.36942 9.00289 5.7713 9.00131 6.26477C8.99972 6.75803 8.54869 7.15768 7.99503 7.15627C7.44822 7.15485 7.00174 6.75492 6.9991 6.26443C6.99644 5.77191 7.4476 5.36845 8.00038 5.36893Z" fill="#454545"/>
<rect x="0.5" y="0.5" width="21" height="16" rx="1.5" stroke="white"/>
</svg>
