<?xml version="1.0" encoding="UTF-8"?>
<svg id="_图层_2" data-name="图层 2" xmlns="http://www.w3.org/2000/svg" viewBox="0 0 91.04 74.03">
  <defs>
    <style>
      .cls-1 {
        fill: #1b57e6;
      }
    </style>
  </defs>
  <g id="_图层_1-2" data-name="图层 1">
    <g>
      <path class="cls-1" d="M28.51,21.94c-1.66,0-3-1.34-3-3V8.67C25.51,3.89,29.4,0,34.18,0h36.85C72.69,0,74.03,1.34,74.03,3s-1.34,3-3,3H34.18c-1.47,0-2.67,1.2-2.67,2.67v10.27c0,1.66-1.34,3-3,3Z"/>
      <path class="cls-1" d="M82.37,74.03H34.18c-4.78,0-8.67-3.89-8.67-8.67v-20.64c0-1.66,1.34-3,3-3s3,1.34,3,3v20.64c0,1.47,1.2,2.67,2.67,2.67h48.19c1.47,0,2.67-1.2,2.67-2.67V20.01c0-1.66,1.34-3,3-3s3,1.34,3,3v45.35c0,4.78-3.89,8.67-8.67,8.67Z"/>
      <path class="cls-1" d="M65.38,5.6v14.46c0,3.09,2.5,5.59,5.59,5.59h14.46c4.98,0,7.48-6.02,3.95-9.55L74.93,1.65c-3.52-3.52-9.55-1.03-9.55,3.95Z"/>
      <path class="cls-1" d="M65.34,43.96l3.52,.89c-.74,2.89-2.07,5.09-3.98,6.61-1.92,1.52-4.26,2.28-7.03,2.28s-5.2-.58-6.99-1.75-3.16-2.86-4.1-5.07-1.41-4.59-1.41-7.13c0-2.77,.53-5.18,1.59-7.25,1.06-2.06,2.56-3.63,4.52-4.7,1.95-1.07,4.1-1.61,6.45-1.61,2.66,0,4.9,.68,6.71,2.03,1.81,1.35,3.08,3.26,3.79,5.71l-3.46,.82c-.62-1.93-1.51-3.34-2.68-4.23-1.17-.88-2.65-1.32-4.43-1.32-2.04,0-3.75,.49-5.12,1.47-1.37,.98-2.34,2.29-2.89,3.94-.56,1.65-.83,3.35-.83,5.11,0,2.26,.33,4.24,.99,5.92,.66,1.69,1.68,2.95,3.07,3.78s2.9,1.25,4.52,1.25c1.97,0,3.64-.57,5.01-1.71,1.37-1.14,2.29-2.82,2.78-5.06Z"/>
      <path class="cls-1" d="M18.94,37.87C8.5,37.87,0,29.38,0,18.94S8.5,0,18.94,0C20.59,0,21.94,1.34,21.94,3s-1.34,3-3,3c-7.13,0-12.94,5.8-12.94,12.94s5.8,12.94,12.94,12.94c2.83,0,5.52-.9,7.77-2.59,1.32-1,3.2-.73,4.2,.59,1,1.32,.73,3.2-.59,4.2-3.3,2.49-7.24,3.8-11.38,3.8Z"/>
      <path class="cls-1" d="M35.55,25.92l-9.85-.49c-1.74-.09-2.92,1.74-2.13,3.29l4.5,8.78c.79,1.55,2.97,1.66,3.91,.19l5.35-8.29c.94-1.46-.05-3.4-1.79-3.49Z"/>
    </g>
  </g>
</svg>