<svg xmlns="http://www.w3.org/2000/svg" xmlns:xlink="http://www.w3.org/1999/xlink" fill="none" version="1.1" width="26" height="26" viewBox="0 0 26 26"><g style="mix-blend-mode:passthrough"><g style="mix-blend-mode:passthrough"><g><path d="M13,26C5.82029,26,0,20.1797,0,13C0,5.82029,5.82029,0,13,0C20.1797,0,26,5.82029,26,13C26,20.1797,20.1797,26,13,26ZM13,1.85714C7.18776,1.85714,1.85714,7.18776,1.85714,13C1.85714,18.8122,7.18776,24.1429,13,24.1429C18.8122,24.1429,24.1429,18.8122,24.1429,13C24.1429,7.18776,18.8122,1.85714,13,1.85714ZM18.8259,18.9187C18.3427,19.4027,17.5584,19.4027,17.0752,18.9187L13.1356,14.9797L9.19595,18.9187C8.71252,19.4023,7.92858,19.4025,7.44498,18.919C6.96137,18.4356,6.96123,17.6517,7.44467,17.1681L11.3843,13.2284L7.44467,9.28881C6.96123,8.80521,6.96137,8.02127,7.44498,7.53783C7.92858,7.0544,8.71252,7.05454,9.19595,7.53815L13.1356,11.4778L17.0752,7.53815C17.5561,7.04025,18.3518,7.03333,18.8412,7.52279C19.3307,8.01225,19.3238,8.80793,18.8259,9.28881L14.8862,13.2284L18.8259,17.1681C19.3092,17.6515,19.3092,18.4352,18.8259,18.9187Z" fill="#FFFFFF" fill-opacity="1"/></g></g></g></svg>