<svg width="559" height="56" viewBox="0 0 559 56" fill="none" xmlns="http://www.w3.org/2000/svg">
<path d="M0.728 43V42.168C2.52 42.04 3.928 40.184 3.928 38.52V7.544C3.928 5.752 2.648 3.896 0.792 3.768V3H30.104V12.408L23.64 4.28H10.648V21.88H20.44L23.704 16.888V28.472L20.44 23.48H10.648V43H0.728ZM30.1565 15.416V14.648H36.8125L39.4365 17.848L39.6925 21.816C40.0125 21.496 40.3965 21.112 40.6525 20.856C43.8525 16.76 48.3965 13.944 53.5805 14.776L52.1085 23.288L48.2685 17.272C48.2685 17.272 44.5565 16.632 41.1645 22.456C40.7805 22.904 40.3325 23.48 40.0125 24.184V43H30.1565V42.04C30.1565 42.04 33.2925 42.04 33.2925 38.456V19.192C33.2925 16.824 32.2685 15.544 30.1565 15.416ZM55.85 29.112C55.658 20.28 63.21 14.136 72.362 14.136C82.154 14.136 85.61 20.6 85.61 23.864H62.826C62.57 25.08 62.506 26.424 62.57 27.896C63.018 33.976 68.01 38.648 74.794 38.904C78.442 39.096 82.218 37.688 84.586 34.552L85.226 35.32C82.282 40.76 76.458 43.384 70.506 43.384C62.826 43.384 55.978 37.752 55.85 29.112ZM72.426 15.096C67.818 15.096 64.426 17.912 63.146 22.264H79.146C79.146 22.264 78.57 15.16 72.426 15.096ZM88.6625 29.112C88.4705 20.28 96.0225 14.136 105.175 14.136C114.967 14.136 118.423 20.6 118.423 23.864H95.6385C95.3825 25.08 95.3185 26.424 95.3825 27.896C95.8305 33.976 100.823 38.648 107.607 38.904C111.255 39.096 115.031 37.688 117.399 34.552L118.039 35.32C115.095 40.76 109.271 43.384 103.319 43.384C95.6385 43.384 88.7905 37.752 88.6625 29.112ZM105.239 15.096C100.631 15.096 97.2385 17.912 95.9585 22.264H111.959C111.959 22.264 111.383 15.16 105.239 15.096ZM369.85 29.24C369.85 19.128 378.426 14.2 385.21 14.2C391.482 14.2 399.546 18.808 399.546 28.344C399.546 38.328 391.418 43.576 384.122 43.576C377.786 43.576 369.85 39.16 369.85 29.24ZM379.194 17.464C371.706 24.056 377.658 40.952 387.13 40.952C388.282 40.952 389.498 40.76 390.714 40.184C398.266 32.632 391.418 16.824 382.394 16.824C381.306 16.824 380.282 17.016 379.194 17.464ZM403.88 9.72C401.64 4.216 408.168 1.784 414.312 1.784C415.656 1.784 417 1.848 418.216 2.104L421.352 0.631996V10.168L415.784 2.68C415.784 2.68 407.848 2.936 410.344 10.552C410.728 11.832 411.816 13.752 412.776 14.648H421.16V15.928H412.904V39.352L409.512 43H402.984V42.04C402.984 42.04 406.184 42.04 406.184 38.52V15.928H402.152V14.648H409.192C407.08 13.88 404.776 11.768 403.88 9.72ZM439.474 29.368C439.474 19.832 447.73 14.264 455.986 14.264C458.354 14.264 461.49 14.904 463.666 15.352L466.354 14.136V24.056L460.53 15.992C459.378 15.48 457.202 15.224 456.114 15.224C442.482 15.224 441.97 38.712 458.098 38.712C461.618 38.712 465.266 37.176 466.93 34.552L467.57 35.32C464.818 40.888 459.122 43.384 454.385 43.384C447.986 43.32 439.474 39.288 439.474 29.368ZM470.093 3.576V2.808H480.013V38.456C480.013 40.696 481.101 41.976 483.213 42.168V43H473.293V7.096C473.293 4.856 472.205 3.704 470.093 3.576ZM485.846 15.416V14.648H495.766V38.456C495.766 40.696 496.854 41.976 498.966 42.168V43H489.046V19.128C489.046 16.888 487.958 15.672 485.846 15.416ZM487.19 5.304L491.862 0.695999L496.47 5.304L491.862 9.976L487.19 5.304ZM501.017 15.416V14.648H507.545L510.169 17.336L510.553 20.024C511.641 18.488 514.713 14.84 519.833 14.84C534.425 14.84 533.593 42.808 517.721 42.808C514.969 42.808 512.537 41.976 510.937 40.44V51.832L507.673 55.8H501.081V55.032C501.081 55.032 504.217 54.904 504.217 51.32V19.128C504.217 16.76 503.129 15.544 501.017 15.416ZM510.937 21.88V38.008C511.577 39.544 513.433 40.952 515.801 40.952C525.017 40.952 526.233 16.952 517.849 16.952C514.905 16.952 512.217 19.832 510.937 21.88ZM553.117 37.56C553.117 31.352 534.941 32.888 534.941 22.392C534.941 17.016 540.957 14.2 545.757 14.2C548.637 14.2 551.133 14.648 553.757 15.48L556.829 14.072V24.504L548.893 15.8C547.869 15.48 546.845 15.352 545.821 15.352C542.429 15.352 539.613 17.144 539.613 19.64C539.613 26.68 558.109 25.848 558.109 35.192C558.109 39.736 553.949 43.512 547.357 43.512C544.029 43.512 540.573 42.488 538.141 41.72L535.133 42.872L535.197 32.568L542.941 41.08C544.605 41.72 546.141 42.04 547.485 42.04C551.005 42.04 553.117 39.992 553.117 37.56Z" fill="white"/>
<path d="M138.036 29.368C138.036 19.832 146.292 14.264 154.548 14.264C156.916 14.264 160.052 14.904 162.228 15.352L164.916 14.136V24.056L159.092 15.992C157.94 15.48 155.764 15.224 154.676 15.224C141.044 15.224 140.532 38.712 156.66 38.712C160.18 38.712 163.828 37.176 165.492 34.552L166.132 35.32C163.38 40.888 157.684 43.384 152.948 43.384C146.548 43.32 138.036 39.288 138.036 29.368ZM169.288 29.24C169.288 19.128 177.864 14.2 184.648 14.2C190.92 14.2 198.984 18.808 198.984 28.344C198.984 38.328 190.856 43.576 183.56 43.576C177.224 43.576 169.288 39.16 169.288 29.24ZM178.632 17.464C171.144 24.056 177.095 40.952 186.568 40.952C187.72 40.952 188.936 40.76 190.152 40.184C197.704 32.632 190.856 16.824 181.832 16.824C180.744 16.824 179.72 17.016 178.632 17.464ZM201.526 43V42.168C201.526 42.168 204.661 42.04 204.661 38.52V19.192C204.661 16.824 203.638 15.544 201.526 15.416V14.648H208.118L210.742 17.784L210.998 22.584C212.214 20.088 214.966 14.328 220.79 14.328C225.59 14.328 229.814 17.656 229.814 24.824V38.456V38.584C229.814 40.888 230.838 42.104 232.95 42.168V43H223.094V24.952C223.094 19.512 221.75 17.208 218.806 17.208C214.71 17.208 212.278 22.52 211.382 24.888V38.84L214.966 43H201.526ZM234.776 43V42.168C234.776 42.168 237.911 42.04 237.911 38.52V19.192C237.911 16.824 236.888 15.544 234.776 15.416V14.648H241.368L243.992 17.784L244.248 22.584C245.464 20.088 248.216 14.328 254.04 14.328C258.84 14.328 263.064 17.656 263.064 24.824V38.456V38.584C263.064 40.888 264.088 42.104 266.2 42.168V43H256.344V24.952C256.344 19.512 255 17.208 252.056 17.208C247.96 17.208 245.528 22.52 244.632 24.888V38.84L248.216 43H234.776ZM268.538 29.112C268.346 20.28 275.898 14.136 285.05 14.136C294.842 14.136 298.298 20.6 298.298 23.864H275.514C275.258 25.08 275.194 26.424 275.258 27.896C275.706 33.976 280.698 38.648 287.482 38.904C291.13 39.096 294.906 37.688 297.274 34.552L297.914 35.32C294.97 40.76 289.146 43.384 283.194 43.384C275.514 43.384 268.666 37.752 268.538 29.112ZM285.114 15.096C280.506 15.096 277.114 17.912 275.834 22.264H291.834C291.834 22.264 291.258 15.16 285.114 15.096ZM301.286 29.368C301.286 19.832 309.542 14.264 317.798 14.264C320.166 14.264 323.302 14.904 325.478 15.352L328.166 14.136V24.056L322.342 15.992C321.19 15.48 319.014 15.224 317.926 15.224C304.294 15.224 303.782 38.712 319.91 38.712C323.43 38.712 327.078 37.176 328.742 34.552L329.382 35.32C326.63 40.888 320.934 43.384 316.198 43.384C309.798 43.32 301.286 39.288 301.286 29.368ZM335.617 15.928H331.265V14.648H331.841C335.937 14.328 337.729 11.256 337.729 8.824C337.729 6.648 336.833 5.56 335.617 5.56V4.856H342.593C344.897 9.784 340.481 13.752 336.833 14.648H349.441V15.928H342.337V32.312C342.337 38.52 343.873 41.144 346.433 41.848C346.497 41.848 349.505 35.256 349.505 35.256L350.017 43H345.345C340.993 43 335.617 41.144 335.617 32.312V15.928Z" fill="#DBFE01"/>
</svg>
