<svg width="25" height="25" viewBox="0 0 25 25" fill="none" xmlns="http://www.w3.org/2000/svg">
<path d="M7.29167 4.16668C7.29167 3.89309 7.34556 3.62218 7.45025 3.36942C7.55495 3.11666 7.70841 2.88699 7.90186 2.69354C8.09532 2.50008 8.32498 2.34663 8.57775 2.24193C8.83051 2.13723 9.10142 2.08334 9.375 2.08334H15.625C15.8986 2.08334 16.1695 2.13723 16.4223 2.24193C16.675 2.34663 16.9047 2.50008 17.0981 2.69354C17.2916 2.88699 17.4451 3.11666 17.5498 3.36942C17.6544 3.62218 17.7083 3.89309 17.7083 4.16668V6.25001H21.875C22.0118 6.24999 22.1473 6.27692 22.2737 6.32926C22.4001 6.3816 22.5149 6.45832 22.6117 6.55505C22.7084 6.65178 22.7852 6.76662 22.8375 6.89301C22.8899 7.0194 22.9168 7.15487 22.9168 7.29168C22.9168 7.42848 22.8899 7.56395 22.8375 7.69034C22.7852 7.81673 22.7084 7.93157 22.6117 8.0283C22.5149 8.12503 22.4001 8.20176 22.2737 8.2541C22.1473 8.30644 22.0118 8.33336 21.875 8.33334H20.7615L19.8583 20.9813C19.8209 21.5069 19.5857 21.9988 19.2001 22.3579C18.8145 22.717 18.3071 22.9167 17.7802 22.9167H7.21875C6.69182 22.9167 6.18445 22.717 5.79884 22.3579C5.41324 21.9988 5.17804 21.5069 5.14063 20.9813L4.23959 8.33334H3.125C2.84876 8.3333 2.58385 8.22354 2.38854 8.02819C2.19322 7.83284 2.0835 7.56792 2.0835 7.29168C2.0835 7.01544 2.19322 6.75051 2.38854 6.55516C2.58385 6.35982 2.84876 6.25005 3.125 6.25001H7.29167V4.16668ZM9.375 6.25001H15.625V4.16668H9.375V6.25001ZM6.32709 8.33334L7.21979 20.8333H17.7813L18.674 8.33334H6.32709ZM10.4167 10.4167C10.6929 10.4167 10.9579 10.5264 11.1532 10.7218C11.3486 10.9171 11.4583 11.1821 11.4583 11.4583V17.7083C11.4584 17.8452 11.4314 17.9806 11.3791 18.107C11.3268 18.2334 11.25 18.3483 11.1533 18.445C11.0566 18.5418 10.9417 18.6185 10.8153 18.6709C10.6889 18.7232 10.5535 18.7502 10.4167 18.7502C10.2799 18.7502 10.1444 18.7232 10.018 18.6709C9.89161 18.6185 9.77677 18.5418 9.68004 18.445C9.58331 18.3483 9.50659 18.2334 9.45425 18.107C9.40191 17.9806 9.37498 17.8452 9.375 17.7083V11.4583C9.375 11.1821 9.48475 10.9171 9.6801 10.7218C9.87545 10.5264 10.1404 10.4167 10.4167 10.4167ZM14.5833 10.4167C14.8596 10.4167 15.1246 10.5264 15.3199 10.7218C15.5153 10.9171 15.625 11.1821 15.625 11.4583V17.7083C15.625 17.8452 15.5981 17.9806 15.5458 18.107C15.4934 18.2334 15.4167 18.3483 15.32 18.445C15.2232 18.5418 15.1084 18.6185 14.982 18.6709C14.8556 18.7232 14.7201 18.7502 14.5833 18.7502C14.4465 18.7502 14.3111 18.7232 14.1847 18.6709C14.0583 18.6185 13.9434 18.5418 13.8467 18.445C13.75 18.3483 13.6733 18.2334 13.6209 18.107C13.5686 17.9806 13.5416 17.8452 13.5417 17.7083V11.4583C13.5417 11.1821 13.6514 10.9171 13.8468 10.7218C14.0421 10.5264 14.3071 10.4167 14.5833 10.4167Z" fill="white"/>
</svg>
