<svg width="19" height="19" viewBox="0 0 19 19" fill="none" xmlns="http://www.w3.org/2000/svg">
<path d="M0.850962 5.08181C0.658425 5.08181 0.473773 5.00532 0.337629 4.86918C0.201485 4.73303 0.125 4.54838 0.125 4.35584C0.125 4.16331 0.201485 3.97866 0.337629 3.84251C0.473773 3.70637 0.658425 3.62988 0.850962 3.62988H18.274C18.4666 3.62988 18.6512 3.70637 18.7874 3.84251C18.9235 3.97866 19 4.16331 19 4.35584C19 4.54838 18.9235 4.73303 18.7874 4.86918C18.6512 5.00532 18.4666 5.08181 18.274 5.08181H0.850962Z" fill="white"/>
<path d="M5.20654 6.5332H16.8219V15.5915C16.8219 16.2076 16.2524 17.4896 15.8168 17.9252C15.3811 18.3609 14.1991 18.8745 13.583 18.8745H7.52962C6.9135 18.8745 6.32262 18.6298 5.88696 18.1941C5.4513 17.7585 5.20654 17.1676 5.20654 16.5515V6.5332Z" fill="white" fill-opacity="0.2"/>
<path d="M5.93288 3.62981H13.1925V2.90385C13.1925 2.51877 13.0395 2.14947 12.7672 1.87718C12.4949 1.60489 12.1256 1.45192 11.7406 1.45192H7.3848C6.99973 1.45192 6.63043 1.60489 6.35814 1.87718C6.08585 2.14947 5.93288 2.51877 5.93288 2.90385V3.62981ZM7.3848 0H11.7406C12.5107 0 13.2493 0.30594 13.7939 0.850517C14.3385 1.39509 14.6444 2.1337 14.6444 2.90385V5.08173H4.48096V2.90385C4.48096 2.1337 4.7869 1.39509 5.33147 0.850517C5.87605 0.30594 6.61466 0 7.3848 0ZM6.29586 8.34856C6.29586 8.15602 6.37235 7.97137 6.50849 7.83523C6.64463 7.69908 6.82929 7.6226 7.02182 7.6226C7.21436 7.6226 7.39901 7.69908 7.53515 7.83523C7.6713 7.97137 7.74778 8.15602 7.74778 8.34856V14.1563C7.74778 14.3488 7.6713 14.5334 7.53515 14.6696C7.39901 14.8057 7.21436 14.8822 7.02182 14.8822C6.82929 14.8822 6.64463 14.8057 6.50849 14.6696C6.37235 14.5334 6.29586 14.3488 6.29586 14.1563V8.34856ZM11.1961 8.34856C11.1961 8.15602 11.2726 7.97137 11.4087 7.83523C11.5449 7.69908 11.7295 7.6226 11.9221 7.6226C12.1146 7.6226 12.2993 7.69908 12.4354 7.83523C12.5715 7.97137 12.648 8.15602 12.648 8.34856V14.1563C12.648 14.3488 12.5715 14.5334 12.4354 14.6696C12.2993 14.8057 12.1146 14.8822 11.9221 14.8822C11.7295 14.8822 11.5449 14.8057 11.4087 14.6696C11.2726 14.5334 11.1961 14.3488 11.1961 14.1563V8.34856Z" fill="white"/>
<path d="M3.75466 5.08181V15.9712C3.75466 16.3563 3.90763 16.7256 4.17992 16.9979C4.4522 17.2702 4.82151 17.4232 5.20658 17.4232H13.9181C14.3032 17.4232 14.6725 17.2702 14.9448 16.9979C15.2171 16.7256 15.37 16.3563 15.37 15.9712V5.08181H3.75466ZM2.30273 3.62988H16.822V15.9712C16.822 16.7414 16.516 17.48 15.9714 18.0246C15.4269 18.5691 14.6883 18.8751 13.9181 18.8751H5.20658C4.43643 18.8751 3.69783 18.5691 3.15325 18.0246C2.60867 17.48 2.30273 16.7414 2.30273 15.9712V3.62988Z" fill="white"/>
</svg>
