<svg width="270" height="59" viewBox="0 0 270 59" fill="none" xmlns="http://www.w3.org/2000/svg">
<mask id="path-1-inside-1_1813_28" fill="white">
<path d="M0 10C0 4.47715 4.47715 0 10 0H260C265.523 0 270 4.47715 270 10V49C270 54.5228 265.523 59 260 59H9.99999C4.47715 59 0 54.5228 0 49V10Z"/>
</mask>
<path d="M-2 10C-2 3.92487 2.92487 -1 9 -1H261C267.075 -1 272 3.92487 272 10H268C268 5.02944 264.418 1 260 1H10C5.58172 1 2 5.02944 2 10H-2ZM272 52C272 58.6274 266.627 64 260 64H10C3.37258 64 -2 58.6274 -2 52L2 49C2 51.7614 5.58172 54 10 54H260C264.418 54 268 51.7614 268 49L272 52ZM10 64C3.37258 64 -2 58.6274 -2 52V10C-2 3.92487 2.92487 -1 9 -1L10 1C5.58172 1 2 5.02944 2 10V49C2 51.7614 5.58172 54 10 54V64ZM261 -1C267.075 -1 272 3.92487 272 10V52C272 58.6274 266.627 64 260 64V54C264.418 54 268 51.7614 268 49V10C268 5.02944 264.418 1 260 1L261 -1Z" fill="#DBFE01" mask="url(#path-1-inside-1_1813_28)"/>
<path d="M31.508 34.76V18.02C31.508 16.04 29.708 15.932 29.708 15.932V15.5H37.088V15.932C37.088 15.932 35.288 16.04 35.288 18.02V33.428C35.288 39.368 31.292 40.952 26.972 40.952V40.52C28.88 40.52 31.508 39.008 31.508 34.76ZM38.2203 30.26C38.2203 24.572 43.0443 21.8 46.8603 21.8C50.3883 21.8 54.9243 24.392 54.9243 29.756C54.9243 35.372 50.3523 38.324 46.2483 38.324C42.6843 38.324 38.2203 35.84 38.2203 30.26ZM43.4763 23.636C39.2643 27.344 42.6123 36.848 47.9403 36.848C48.5883 36.848 49.2723 36.74 49.9563 36.416C54.2043 32.168 50.3523 23.276 45.2763 23.276C44.6643 23.276 44.0883 23.384 43.4763 23.636ZM56.3584 22.484V22.052H61.9384V35.444C61.9384 36.704 62.5504 37.424 63.7384 37.532V38H58.1584V24.572C58.1584 23.312 57.5464 22.628 56.3584 22.484ZM57.1144 16.796L59.7424 14.204L62.3344 16.796L59.7424 19.424L57.1144 16.796ZM65.1081 38V37.532C65.1081 37.532 66.8721 37.46 66.8721 35.48V24.608C66.8721 23.276 66.2961 22.556 65.1081 22.484V22.052H68.8161L70.2921 23.816L70.4361 26.516C71.1201 25.112 72.6681 21.872 75.9441 21.872C78.6441 21.872 81.0201 23.744 81.0201 27.776V35.444V35.516C81.0201 36.812 81.5961 37.496 82.7841 37.532V38H77.2401V27.848C77.2401 24.788 76.4841 23.492 74.8281 23.492C72.5241 23.492 71.1561 26.48 70.6521 27.812V35.66L72.6681 38H65.1081ZM93.3428 22.484V22.052H98.9228V35.444C98.9228 36.704 99.5348 37.424 100.723 37.532V38H95.1428V24.572C95.1428 23.312 94.5308 22.628 93.3428 22.484ZM94.0988 16.796L96.7268 14.204L99.3188 16.796L96.7268 19.424L94.0988 16.796ZM102.092 38V37.532C102.092 37.532 103.856 37.46 103.856 35.48V24.608C103.856 23.276 103.28 22.556 102.092 22.484V22.052H105.8L107.276 23.816L107.42 26.516C108.104 25.112 109.652 21.872 112.928 21.872C115.628 21.872 118.004 23.744 118.004 27.776V35.444V35.516C118.004 36.812 118.58 37.496 119.768 37.532V38H114.224V27.848C114.224 24.788 113.468 23.492 111.812 23.492C109.508 23.492 108.14 26.48 107.636 27.812V35.66L109.652 38H102.092ZM139.471 38H130.507V37.532C130.507 37.532 132.307 37.316 132.307 35.516V18.056C132.307 16.04 130.507 15.932 130.507 15.932V15.5H140.515C145.231 15.5 149.155 19.244 149.191 26.372C149.155 34.076 144.259 38 139.471 38ZM136.123 16.184L136.087 37.316H138.967C140.911 37.316 145.159 34.508 145.195 26.732C145.195 19.856 142.567 16.184 139.795 16.184H136.123ZM150.999 22.484V22.052H156.579V35.444C156.579 36.704 157.191 37.424 158.379 37.532V38H152.799V24.572C152.799 23.312 152.187 22.628 150.999 22.484ZM151.755 16.796L154.383 14.204L156.975 16.796L154.383 19.424L151.755 16.796ZM170.945 34.94C170.945 31.448 160.721 32.312 160.721 26.408C160.721 23.384 164.105 21.8 166.805 21.8C168.425 21.8 169.829 22.052 171.305 22.52L173.033 21.728V27.596L168.569 22.7C167.993 22.52 167.417 22.448 166.841 22.448C164.933 22.448 163.349 23.456 163.349 24.86C163.349 28.82 173.753 28.352 173.753 33.608C173.753 36.164 171.413 38.288 167.705 38.288C165.833 38.288 163.889 37.712 162.521 37.28L160.829 37.928L160.865 32.132L165.221 36.92C166.157 37.28 167.021 37.46 167.777 37.46C169.757 37.46 170.945 36.308 170.945 34.94ZM176.348 30.332C176.348 24.968 180.992 21.836 185.636 21.836C186.968 21.836 188.732 22.196 189.956 22.448L191.468 21.764V27.344L188.192 22.808C187.544 22.52 186.32 22.376 185.708 22.376C178.04 22.376 177.752 35.588 186.824 35.588C188.804 35.588 190.856 34.724 191.792 33.248L192.152 33.68C190.604 36.812 187.4 38.216 184.736 38.216C181.136 38.18 176.348 35.912 176.348 30.332ZM193.927 30.26C193.927 24.572 198.751 21.8 202.567 21.8C206.095 21.8 210.631 24.392 210.631 29.756C210.631 35.372 206.059 38.324 201.955 38.324C198.391 38.324 193.927 35.84 193.927 30.26ZM199.183 23.636C194.971 27.344 198.319 36.848 203.647 36.848C204.295 36.848 204.979 36.74 205.663 36.416C209.911 32.168 206.059 23.276 200.983 23.276C200.371 23.276 199.795 23.384 199.183 23.636ZM212.205 22.484V22.052H215.949L217.425 23.852L217.569 26.084C217.749 25.904 217.965 25.688 218.109 25.544C219.909 23.24 222.465 21.656 225.381 22.124L224.553 26.912L222.393 23.528C222.393 23.528 220.305 23.168 218.397 26.444C218.181 26.696 217.929 27.02 217.749 27.416V38H212.205V37.46C212.205 37.46 213.969 37.46 213.969 35.444V24.608C213.969 23.276 213.393 22.556 212.205 22.484ZM233.403 22.412C234.951 22.412 236.319 22.916 237.219 23.78V17.948C237.219 15.932 235.455 15.824 235.455 15.824V15.392H239.163L240.999 17.624V35.48C240.999 37.064 242.295 37.532 242.799 37.532V38H239.127L237.723 36.596L237.543 35.084C237.003 35.948 235.275 38.18 232.215 38.18C224.007 38.18 224.475 22.412 233.403 22.412ZM233.511 36.74C235.167 36.74 236.571 35.3 237.219 34.22V25.4C236.895 24.464 235.527 23.528 234.123 23.528C228.939 23.528 228.795 36.74 233.511 36.74Z" fill="url(#paint0_linear_1813_28)"/>
<defs>
<linearGradient id="paint0_linear_1813_28" x1="26" y1="29" x2="244" y2="29" gradientUnits="userSpaceOnUse">
<stop stop-color="white"/>
<stop offset="1" stop-color="#DBFE01"/>
</linearGradient>
</defs>
</svg>
