<svg width="803" height="156" viewBox="0 0 803 156" fill="none" xmlns="http://www.w3.org/2000/svg">
<mask id="path-1-inside-1_1026_400" fill="white">
<path fill-rule="evenodd" clip-rule="evenodd" d="M397.624 0H371.365V128.736C371.365 143.095 383.006 154.736 397.365 154.736H402.571C416.93 154.736 428.571 143.095 428.571 128.736V0H401.375V129.415C401.375 130.451 400.535 131.291 399.499 131.291C398.463 131.291 397.624 130.451 397.624 129.415V0ZM431.385 0H466.244C473.097 0 488.59 7.18734 488.59 19.3048V82.5881C488.292 86.9441 485.015 96.6658 476.672 100.705L488.59 126.818V154.736H471.905L457.902 105.16V154.736H431.385V0ZM458.796 80.3433V24.4004C461.099 24.4004 462.967 26.2679 462.967 28.5716V76.1721C462.967 78.4758 461.099 80.3433 458.796 80.3433ZM251.333 1.08333H277.051L280.042 51.1333L283.032 1.08333H308.75V20.4479L292.602 97.0125V156H267.482V97.0125L251.333 20.4479V1.08333ZM337.347 0C322.987 0 311.347 11.6406 311.347 26V128.736C311.347 143.095 322.987 154.736 337.347 154.736H342.552C356.911 154.736 368.552 143.095 368.552 128.736V26C368.552 11.6406 356.911 0 342.552 0H337.347ZM339.949 23.2102C338.962 23.2102 338.161 24.0106 338.161 24.9979V129.142C338.161 130.13 338.962 130.93 339.949 130.93C340.936 130.93 341.737 130.13 341.737 129.142V24.9979C341.737 24.0106 340.936 23.2102 339.949 23.2102ZM191.75 1.08333H229.667V26.1083H219.003V65.4333H229.667V90.4583H219.003V130.379H229.667V156H191.75V1.08333ZM0 1.08333V156H25.8531V79.7333L34.6667 156L43.4802 79.7333V156H69.3333V1.08333H38.7797L34.6667 58.8792L30.5537 1.08333H0ZM72.2109 108.657V155.673H97.2383L98.43 130.082H103.197L104.389 155.673H129.416V108.657L121.67 0.937337H79.9575L72.2109 108.657ZM103.196 104.491L100.812 39.0263L98.4289 104.491H103.196ZM132.167 1.08333H157.586V50.8354L165.361 1.08333H189.583V20.4479L180.911 64.2417L189.583 125.017V156H166.557L159.081 97.6083L157.586 101.183V156H132.167V1.08333ZM630.5 1.08333H668.417V26.1083H657.753V65.4333H668.417V90.4583H657.753V130.379H668.417V156H630.5V1.08333ZM570.179 0.937174H605.038C611.891 0.937174 627.384 8.12451 627.384 20.242V83.5253C627.086 87.8813 623.809 97.603 615.466 101.642L627.384 127.755V155.673H610.699L596.696 106.097V155.673H570.179V0.937174ZM597.59 81.2805V25.3376C599.894 25.3376 601.761 27.2051 601.761 29.5088V77.1092C601.761 79.4129 599.894 81.2805 597.59 81.2805ZM731.25 156V1.08333H762.758L767 58.8792L771.242 1.08333H802.75V156H776.089V79.7333L767 156L757.911 79.7333V156H731.25ZM671.46 155.673V108.657L679.206 0.937174H720.918L728.665 108.657V155.673H703.638L702.446 130.082H697.679L696.487 155.673H671.46ZM700.061 39.0263L702.445 104.491H697.678L700.061 39.0263ZM510.16 0.937174H541.365C555.725 0.937174 567.365 12.5778 567.365 26.9372V129.673C567.365 144.032 555.725 155.673 541.365 155.673H510.16V0.937174ZM536.378 22.9572H539.953V130.677H536.378V22.9572Z"/>
</mask>
<path d="M371.365 0V-1H370.365V0H371.365ZM397.624 0H398.624V-1H397.624V0ZM428.571 0H429.571V-1H428.571V0ZM401.375 0V-1H400.375V0H401.375ZM431.385 0V-1H430.385V0H431.385ZM488.59 82.5881L489.588 82.6564L489.59 82.6223V82.5881H488.59ZM476.672 100.705L476.236 99.8049L475.357 100.231L475.762 101.12L476.672 100.705ZM488.59 126.818H489.59V126.601L489.5 126.403L488.59 126.818ZM488.59 154.736V155.736H489.59V154.736H488.59ZM471.905 154.736L470.943 155.008L471.148 155.736H471.905V154.736ZM457.902 105.16L458.864 104.888L456.902 105.16H457.902ZM457.902 154.736V155.736H458.902V154.736H457.902ZM431.385 154.736H430.385V155.736H431.385V154.736ZM458.796 24.4004V23.4004H457.796V24.4004H458.796ZM458.796 80.3433H457.796V81.3433H458.796V80.3433ZM277.051 1.08333L278.049 1.02369L277.993 0.0833334H277.051V1.08333ZM251.333 1.08333V0.0833334H250.333V1.08333H251.333ZM280.042 51.1333L279.043 51.193H281.04L280.042 51.1333ZM283.032 1.08333V0.0833334H282.09L282.034 1.02369L283.032 1.08333ZM308.75 1.08333H309.75V0.0833334H308.75V1.08333ZM308.75 20.4479L309.728 20.6543L309.75 20.5522V20.4479H308.75ZM292.602 97.0125L291.623 96.8061L291.602 96.9082V97.0125H292.602ZM292.602 156V157H293.602V156H292.602ZM267.482 156H266.482V157H267.482V156ZM267.482 97.0125H268.482V96.9082L268.46 96.8061L267.482 97.0125ZM251.333 20.4479H250.333V20.5522L250.355 20.6543L251.333 20.4479ZM229.667 1.08333H230.667V0.0833334H229.667V1.08333ZM191.75 1.08333V0.0833334H190.75V1.08333H191.75ZM229.667 26.1083V27.1083H230.667V26.1083H229.667ZM219.003 26.1083V25.1083H218.003V26.1083H219.003ZM219.003 65.4333H218.003V66.4333H219.003V65.4333ZM229.667 65.4333H230.667V64.4333H229.667V65.4333ZM229.667 90.4583V91.4583H230.667V90.4583H229.667ZM219.003 90.4583V89.4583H218.003V90.4583H219.003ZM219.003 130.379H218.003V131.379H219.003V130.379ZM229.667 130.379H230.667V129.379H229.667V130.379ZM229.667 156V157H230.667V156H229.667ZM191.75 156H190.75V157H191.75V156ZM0 156H-1V157H0V156ZM0 1.08333V0.0833334H-1V1.08333H0ZM25.8531 156V157H26.8531V156H25.8531ZM25.8531 79.7333L26.8465 79.6185L24.8531 79.7333H25.8531ZM34.6667 156L33.6733 156.115H35.6601L34.6667 156ZM43.4802 79.7333H44.4802L42.4868 79.6185L43.4802 79.7333ZM43.4802 156H42.4802V157H43.4802V156ZM69.3333 156V157H70.3333V156H69.3333ZM69.3333 1.08333H70.3333V0.0833334H69.3333V1.08333ZM38.7797 1.08333V0.0833334H37.8483L37.7822 1.01235L38.7797 1.08333ZM34.6667 58.8792L33.6692 58.9502H35.6641L34.6667 58.8792ZM30.5537 1.08333L31.5512 1.01235L31.485 0.0833334H30.5537V1.08333ZM72.2109 155.673H71.2109V156.673H72.2109V155.673ZM72.2109 108.657L71.2135 108.585L71.2109 108.621V108.657H72.2109ZM97.2383 155.673V156.673H98.1928L98.2372 155.72L97.2383 155.673ZM98.43 130.082V129.082H97.4755L97.4311 130.036L98.43 130.082ZM103.197 130.082L104.196 130.036L104.152 129.082H103.197V130.082ZM104.389 155.673L103.39 155.72L103.434 156.673H104.389V155.673ZM129.416 155.673V156.673H130.416V155.673H129.416ZM129.416 108.657H130.416V108.621L130.414 108.585L129.416 108.657ZM121.67 0.937337L122.667 0.865609L122.6 -0.0626628H121.67V0.937337ZM79.9575 0.937337V-0.0626628H79.0268L78.9601 0.865609L79.9575 0.937337ZM100.812 39.0263L101.812 38.9899H99.8131L100.812 39.0263ZM103.196 104.491V105.491H104.233L104.195 104.455L103.196 104.491ZM98.4289 104.491L97.4295 104.455L97.3918 105.491H98.4289V104.491ZM157.586 1.08333H158.586V0.0833334H157.586V1.08333ZM132.167 1.08333V0.0833334H131.167V1.08333H132.167ZM157.586 50.8354H156.586L158.574 50.9898L157.586 50.8354ZM165.361 1.08333V0.0833334H164.505L164.373 0.928929L165.361 1.08333ZM189.583 1.08333H190.583V0.0833334H189.583V1.08333ZM189.583 20.4479L190.564 20.6422L190.583 20.546V20.4479H189.583ZM180.911 64.2417L179.93 64.0474L179.897 64.2144L179.921 64.3829L180.911 64.2417ZM189.583 125.017H190.583V124.946L190.573 124.875L189.583 125.017ZM189.583 156V157H190.583V156H189.583ZM166.557 156L165.565 156.127L165.677 157H166.557V156ZM159.081 97.6083L160.073 97.4813L159.599 93.7786L158.158 97.2225L159.081 97.6083ZM157.586 101.183L156.663 100.797L156.586 100.983V101.183H157.586ZM157.586 156V157H158.586V156H157.586ZM132.167 156H131.167V157H132.167V156ZM668.417 1.08333H669.417V0.0833334H668.417V1.08333ZM630.5 1.08333V0.0833334H629.5V1.08333H630.5ZM668.417 26.1083V27.1083H669.417V26.1083H668.417ZM657.753 26.1083V25.1083H656.753V26.1083H657.753ZM657.753 65.4333H656.753V66.4333H657.753V65.4333ZM668.417 65.4333H669.417V64.4333H668.417V65.4333ZM668.417 90.4583V91.4583H669.417V90.4583H668.417ZM657.753 90.4583V89.4583H656.753V90.4583H657.753ZM657.753 130.379H656.753V131.379H657.753V130.379ZM668.417 130.379H669.417V129.379H668.417V130.379ZM668.417 156V157H669.417V156H668.417ZM630.5 156H629.5V157H630.5V156ZM570.179 0.937174V-0.0628256H569.179V0.937174H570.179ZM627.384 83.5253L628.382 83.5936L628.384 83.5595V83.5253H627.384ZM615.466 101.642L615.03 100.742L614.151 101.168L614.557 102.057L615.466 101.642ZM627.384 127.755H628.384V127.538L628.294 127.34L627.384 127.755ZM627.384 155.673V156.673H628.384V155.673H627.384ZM610.699 155.673L609.737 155.945L609.943 156.673H610.699V155.673ZM596.696 106.097L597.658 105.825L595.696 106.097H596.696ZM596.696 155.673V156.673H597.696V155.673H596.696ZM570.179 155.673H569.179V156.673H570.179V155.673ZM597.59 25.3376V24.3376H596.59V25.3376H597.59ZM597.59 81.2805H596.59V82.2805H597.59V81.2805ZM731.25 1.08333V0.0833334H730.25V1.08333H731.25ZM731.25 156H730.25V157H731.25V156ZM762.758 1.08333L763.756 1.01014L763.688 0.0833334H762.758V1.08333ZM767 58.8792L766.003 58.9524H767.997L767 58.8792ZM771.242 1.08333V0.0833334H770.312L770.244 1.01014L771.242 1.08333ZM802.75 1.08333H803.75V0.0833334H802.75V1.08333ZM802.75 156V157H803.75V156H802.75ZM776.089 156H775.089V157H776.089V156ZM776.089 79.7333H777.089L775.096 79.615L776.089 79.7333ZM767 156L766.007 156.118H767.993L767 156ZM757.911 79.7333L758.904 79.615L756.911 79.7333H757.911ZM757.911 156V157H758.911V156H757.911ZM671.46 108.657L670.462 108.585L670.46 108.621V108.657H671.46ZM671.46 155.673H670.46V156.673H671.46V155.673ZM679.206 0.937174V-0.0628256H678.276L678.209 0.865445L679.206 0.937174ZM720.918 0.937174L721.916 0.865445L721.849 -0.0628256H720.918V0.937174ZM728.665 108.657H729.665V108.621L729.662 108.585L728.665 108.657ZM728.665 155.673V156.673H729.665V155.673H728.665ZM703.638 155.673L702.639 155.719L702.683 156.673H703.638V155.673ZM702.446 130.082L703.445 130.035L703.4 129.082H702.446V130.082ZM697.679 130.082V129.082H696.724L696.68 130.035L697.679 130.082ZM696.487 155.673V156.673H697.441L697.486 155.719L696.487 155.673ZM702.445 104.491V105.491H703.482L703.444 104.455L702.445 104.491ZM700.061 39.0263L701.06 38.9899H699.062L700.061 39.0263ZM697.678 104.491L696.678 104.455L696.641 105.491H697.678V104.491ZM510.16 0.937174V-0.0628256H509.16V0.937174H510.16ZM510.16 155.673H509.16V156.673H510.16V155.673ZM539.953 22.9572H540.953V21.9572H539.953V22.9572ZM536.378 22.9572V21.9572H535.378V22.9572H536.378ZM539.953 130.677V131.677H540.953V130.677H539.953ZM536.378 130.677H535.378V131.677H536.378V130.677ZM371.365 1H397.624V-1H371.365V1ZM372.365 128.736V0H370.365V128.736H372.365ZM397.365 153.736C383.558 153.736 372.365 142.543 372.365 128.736H370.365C370.365 143.647 382.454 155.736 397.365 155.736V153.736ZM402.571 153.736H397.365V155.736H402.571V153.736ZM427.571 128.736C427.571 142.543 416.378 153.736 402.571 153.736V155.736C417.482 155.736 429.571 143.647 429.571 128.736H427.571ZM427.571 0V128.736H429.571V0H427.571ZM401.375 1H428.571V-1H401.375V1ZM402.375 129.415V0H400.375V129.415H402.375ZM399.499 132.291C401.087 132.291 402.375 131.003 402.375 129.415H400.375C400.375 129.899 399.983 130.291 399.499 130.291V132.291ZM396.624 129.415C396.624 131.003 397.911 132.291 399.499 132.291V130.291C399.016 130.291 398.624 129.899 398.624 129.415H396.624ZM396.624 0V129.415H398.624V0H396.624ZM466.244 -1H431.385V1H466.244V-1ZM489.59 19.3048C489.59 12.7836 485.422 7.69298 480.56 4.28917C475.708 0.891996 469.925 -1 466.244 -1V1C469.416 1 474.806 2.70167 479.413 5.92754C484.011 9.14678 487.59 13.7086 487.59 19.3048H489.59ZM489.59 82.5881V19.3048H487.59V82.5881H489.59ZM477.108 101.605C481.519 99.4691 484.558 95.8482 486.525 92.2445C488.488 88.6495 489.428 84.991 489.588 82.6564L487.592 82.5199C487.454 84.5413 486.607 87.9216 484.77 91.2863C482.938 94.6422 480.167 97.9017 476.236 99.8049L477.108 101.605ZM489.5 126.403L477.582 100.29L475.762 101.12L487.68 127.233L489.5 126.403ZM489.59 154.736V126.818H487.59V154.736H489.59ZM471.905 155.736H488.59V153.736H471.905V155.736ZM456.939 105.432L470.943 155.008L472.867 154.464L458.864 104.888L456.939 105.432ZM458.902 154.736V105.16H456.902V154.736H458.902ZM431.385 155.736H457.902V153.736H431.385V155.736ZM430.385 0V154.736H432.385V0H430.385ZM457.796 24.4004V80.3433H459.796V24.4004H457.796ZM463.967 28.5716C463.967 25.7156 461.652 23.4004 458.796 23.4004V25.4004C460.547 25.4004 461.967 26.8202 461.967 28.5716H463.967ZM463.967 76.1721V28.5716H461.967V76.1721H463.967ZM458.796 81.3433C461.652 81.3433 463.967 79.0281 463.967 76.1721H461.967C461.967 77.9235 460.547 79.3433 458.796 79.3433V81.3433ZM277.051 0.0833334H251.333V2.08333H277.051V0.0833334ZM281.04 51.0737L278.049 1.02369L276.053 1.14298L279.043 51.193L281.04 51.0737ZM282.034 1.02369L279.043 51.0737L281.04 51.193L284.03 1.14298L282.034 1.02369ZM308.75 0.0833334H283.032V2.08333H308.75V0.0833334ZM309.75 20.4479V1.08333H307.75V20.4479H309.75ZM293.58 97.2189L309.728 20.6543L307.772 20.2415L291.623 96.8061L293.58 97.2189ZM293.602 156V97.0125H291.602V156H293.602ZM267.482 157H292.602V155H267.482V157ZM266.482 97.0125V156H268.482V97.0125H266.482ZM250.355 20.6543L266.503 97.2189L268.46 96.8061L252.312 20.2415L250.355 20.6543ZM250.333 1.08333V20.4479H252.333V1.08333H250.333ZM312.347 26C312.347 12.1929 323.54 1 337.347 1V-1C322.435 -1 310.347 11.0883 310.347 26H312.347ZM312.347 128.736V26H310.347V128.736H312.347ZM337.347 153.736C323.54 153.736 312.347 142.543 312.347 128.736H310.347C310.347 143.647 322.435 155.736 337.347 155.736V153.736ZM342.552 153.736H337.347V155.736H342.552V153.736ZM367.552 128.736C367.552 142.543 356.359 153.736 342.552 153.736V155.736C357.464 155.736 369.552 143.647 369.552 128.736H367.552ZM367.552 26V128.736H369.552V26H367.552ZM342.552 1C356.359 1 367.552 12.1929 367.552 26H369.552C369.552 11.0883 357.464 -1 342.552 -1V1ZM337.347 1H342.552V-1H337.347V1ZM339.161 24.9979C339.161 24.5629 339.514 24.2102 339.949 24.2102V22.2102C338.409 22.2102 337.161 23.4583 337.161 24.9979H339.161ZM339.161 129.142V24.9979H337.161V129.142H339.161ZM339.949 129.93C339.514 129.93 339.161 129.577 339.161 129.142H337.161C337.161 130.682 338.409 131.93 339.949 131.93V129.93ZM340.737 129.142C340.737 129.577 340.384 129.93 339.949 129.93V131.93C341.489 131.93 342.737 130.682 342.737 129.142H340.737ZM340.737 24.9979V129.142H342.737V24.9979H340.737ZM339.949 24.2102C340.384 24.2102 340.737 24.5629 340.737 24.9979H342.737C342.737 23.4583 341.489 22.2102 339.949 22.2102V24.2102ZM229.667 0.0833334H191.75V2.08333H229.667V0.0833334ZM230.667 26.1083V1.08333H228.667V26.1083H230.667ZM219.003 27.1083H229.667V25.1083H219.003V27.1083ZM220.003 65.4333V26.1083H218.003V65.4333H220.003ZM229.667 64.4333H219.003V66.4333H229.667V64.4333ZM230.667 90.4583V65.4333H228.667V90.4583H230.667ZM219.003 91.4583H229.667V89.4583H219.003V91.4583ZM220.003 130.379V90.4583H218.003V130.379H220.003ZM229.667 129.379H219.003V131.379H229.667V129.379ZM230.667 156V130.379H228.667V156H230.667ZM191.75 157H229.667V155H191.75V157ZM190.75 1.08333V156H192.75V1.08333H190.75ZM1 156V1.08333H-1V156H1ZM25.8531 155H0V157H25.8531V155ZM24.8531 79.7333V156H26.8531V79.7333H24.8531ZM35.6601 155.885L26.8465 79.6185L24.8597 79.8481L33.6733 156.115L35.6601 155.885ZM42.4868 79.6185L33.6733 155.885L35.6601 156.115L44.4736 79.8481L42.4868 79.6185ZM44.4802 156V79.7333H42.4802V156H44.4802ZM69.3333 155H43.4802V157H69.3333V155ZM68.3333 1.08333V156H70.3333V1.08333H68.3333ZM38.7797 2.08333H69.3333V0.0833334H38.7797V2.08333ZM35.6641 58.9502L39.7771 1.15432L37.7822 1.01235L33.6692 58.8082L35.6641 58.9502ZM29.5562 1.15432L33.6692 58.9502L35.6641 58.8082L31.5512 1.01235L29.5562 1.15432ZM0 2.08333H30.5537V0.0833334H0V2.08333ZM73.2109 155.673V108.657H71.2109V155.673H73.2109ZM97.2383 154.673H72.2109V156.673H97.2383V154.673ZM97.4311 130.036L96.2393 155.626L98.2372 155.72L99.429 130.129L97.4311 130.036ZM103.197 129.082H98.43V131.082H103.197V129.082ZM105.388 155.626L104.196 130.036L102.198 130.129L103.39 155.72L105.388 155.626ZM129.416 154.673H104.389V156.673H129.416V154.673ZM128.416 108.657V155.673H130.416V108.657H128.416ZM120.672 1.00907L128.419 108.729L130.414 108.585L122.667 0.865609L120.672 1.00907ZM79.9575 1.93734H121.67V-0.0626628H79.9575V1.93734ZM73.2084 108.729L80.9549 1.00907L78.9601 0.865609L71.2135 108.585L73.2084 108.729ZM99.8131 39.0627L102.197 104.528L104.195 104.455L101.812 38.9899L99.8131 39.0627ZM99.4282 104.528L101.812 39.0627L99.8131 38.9899L97.4295 104.455L99.4282 104.528ZM103.196 103.491H98.4289V105.491H103.196V103.491ZM157.586 0.0833334H132.167V2.08333H157.586V0.0833334ZM158.586 50.8354V1.08333H156.586V50.8354H158.586ZM164.373 0.928929L156.598 50.681L158.574 50.9898L166.349 1.23774L164.373 0.928929ZM189.583 0.0833334H165.361V2.08333H189.583V0.0833334ZM190.583 20.4479V1.08333H188.583V20.4479H190.583ZM181.892 64.4359L190.564 20.6422L188.602 20.2537L179.93 64.0474L181.892 64.4359ZM190.573 124.875L181.901 64.1004L179.921 64.3829L188.593 125.158L190.573 124.875ZM190.583 156V125.017H188.583V156H190.583ZM166.557 157H189.583V155H166.557V157ZM158.089 97.7353L165.565 156.127L167.549 155.873L160.073 97.4813L158.089 97.7353ZM158.508 101.569L160.003 97.9942L158.158 97.2225L156.663 100.797L158.508 101.569ZM158.586 156V101.183H156.586V156H158.586ZM132.167 157H157.586V155H132.167V157ZM131.167 1.08333V156H133.167V1.08333H131.167ZM668.417 0.0833334H630.5V2.08333H668.417V0.0833334ZM669.417 26.1083V1.08333H667.417V26.1083H669.417ZM657.753 27.1083H668.417V25.1083H657.753V27.1083ZM658.753 65.4333V26.1083H656.753V65.4333H658.753ZM668.417 64.4333H657.753V66.4333H668.417V64.4333ZM669.417 90.4583V65.4333H667.417V90.4583H669.417ZM657.753 91.4583H668.417V89.4583H657.753V91.4583ZM658.753 130.379V90.4583H656.753V130.379H658.753ZM668.417 129.379H657.753V131.379H668.417V129.379ZM669.417 156V130.379H667.417V156H669.417ZM630.5 157H668.417V155H630.5V157ZM629.5 1.08333V156H631.5V1.08333H629.5ZM605.038 -0.0628256H570.179V1.93717H605.038V-0.0628256ZM628.384 20.242C628.384 13.7207 624.216 8.63015 619.354 5.22635C614.502 1.82917 608.719 -0.0628256 605.038 -0.0628256V1.93717C608.21 1.93717 613.6 3.63885 618.207 6.86471C622.805 10.084 626.384 14.6458 626.384 20.242H628.384ZM628.384 83.5253V20.242H626.384V83.5253H628.384ZM615.902 102.542C620.313 100.406 623.353 96.7853 625.32 93.1817C627.282 89.5867 628.222 85.9281 628.382 83.5936L626.386 83.4571C626.248 85.4785 625.401 88.8588 623.564 92.2234C621.732 95.5794 618.961 98.8389 615.03 100.742L615.902 102.542ZM628.294 127.34L616.376 101.227L614.557 102.057L626.474 128.17L628.294 127.34ZM628.384 155.673V127.755H626.384V155.673H628.384ZM610.699 156.673H627.384V154.673H610.699V156.673ZM595.733 106.369L609.737 155.945L611.661 155.401L597.658 105.825L595.733 106.369ZM597.696 155.673V106.097H595.696V155.673H597.696ZM570.179 156.673H596.696V154.673H570.179V156.673ZM569.179 0.937174V155.673H571.179V0.937174H569.179ZM596.59 25.3376V81.2805H598.59V25.3376H596.59ZM602.761 29.5088C602.761 26.6528 600.446 24.3376 597.59 24.3376V26.3376C599.341 26.3376 600.761 27.7574 600.761 29.5088H602.761ZM602.761 77.1093V29.5088H600.761V77.1093H602.761ZM597.59 82.2805C600.446 82.2805 602.761 79.9652 602.761 77.1093H600.761C600.761 78.8607 599.341 80.2805 597.59 80.2805V82.2805ZM730.25 1.08333V156H732.25V1.08333H730.25ZM762.758 0.0833334H731.25V2.08333H762.758V0.0833334ZM767.997 58.806L763.756 1.01014L761.761 1.15652L766.003 58.9524L767.997 58.806ZM770.244 1.01014L766.003 58.806L767.997 58.9524L772.239 1.15652L770.244 1.01014ZM802.75 0.0833334H771.242V2.08333H802.75V0.0833334ZM803.75 156V1.08333H801.75V156H803.75ZM776.089 157H802.75V155H776.089V157ZM775.089 79.7333V156H777.089V79.7333H775.089ZM767.993 156.118L777.082 79.8517L775.096 79.615L766.007 155.882L767.993 156.118ZM756.918 79.8517L766.007 156.118L767.993 155.882L758.904 79.615L756.918 79.8517ZM758.911 156V79.7333H756.911V156H758.911ZM731.25 157H757.911V155H731.25V157ZM670.46 108.657V155.673H672.46V108.657H670.46ZM678.209 0.865445L670.462 108.585L672.457 108.729L680.204 1.0089L678.209 0.865445ZM720.918 -0.0628256H679.206V1.93717H720.918V-0.0628256ZM729.662 108.585L721.916 0.865445L719.921 1.0089L727.667 108.729L729.662 108.585ZM729.665 155.673V108.657H727.665V155.673H729.665ZM703.638 156.673H728.665V154.673H703.638V156.673ZM701.447 130.128L702.639 155.719L704.636 155.626L703.445 130.035L701.447 130.128ZM697.679 131.082H702.446V129.082H697.679V131.082ZM697.486 155.719L698.678 130.128L696.68 130.035L695.488 155.626L697.486 155.719ZM671.46 156.673H696.487V154.673H671.46V156.673ZM703.444 104.455L701.06 38.9899L699.062 39.0627L701.445 104.528L703.444 104.455ZM697.678 105.491H702.445V103.491H697.678V105.491ZM699.062 38.9899L696.678 104.455L698.677 104.528L701.06 39.0627L699.062 38.9899ZM541.365 -0.0628256H510.16V1.93717H541.365V-0.0628256ZM568.365 26.9372C568.365 12.0255 556.277 -0.0628256 541.365 -0.0628256V1.93717C555.172 1.93717 566.365 13.1301 566.365 26.9372H568.365ZM568.365 129.673V26.9372H566.365V129.673H568.365ZM541.365 156.673C556.277 156.673 568.365 144.585 568.365 129.673H566.365C566.365 143.48 555.172 154.673 541.365 154.673V156.673ZM510.16 156.673H541.365V154.673H510.16V156.673ZM509.16 0.937174V155.673H511.16V0.937174H509.16ZM539.953 21.9572H536.378V23.9572H539.953V21.9572ZM540.953 130.677V22.9572H538.953V130.677H540.953ZM536.378 131.677H539.953V129.677H536.378V131.677ZM535.378 22.9572V130.677H537.378V22.9572H535.378Z" fill="white" mask="url(#path-1-inside-1_1026_400)"/>
</svg>
