<svg width="548" height="114" viewBox="0 0 548 114" fill="none" xmlns="http://www.w3.org/2000/svg">
<path d="M4.8 43H0.064V42.168C0.064 42.168 3.2 41.848 3.2 38.52V8.952L0.704 3H8.256L22.464 37.24L36.672 3H44.672V3.96C44.672 3.96 41.472 4.28 41.472 9.336V38.52C41.472 41.848 44.672 42.168 44.672 42.168V43H34.752V11.832L22.08 42.36V43H17.664L4.8 12.664V43ZM44.2025 15.416V14.648H54.0585V31.8C54.0585 37.176 54.8905 40.632 58.6025 40.632C62.6345 40.632 64.6825 36.344 65.7065 34.232V19.064C65.7065 16.76 64.6825 15.544 62.5705 15.416V14.648H72.4265V38.392C72.4265 40.76 73.4505 42.04 75.5625 42.168V42.936H68.9705L66.2825 39.608C66.2185 39.224 66.1545 36.984 66.0265 36.408C64.8745 38.776 62.1225 43 56.9385 43C51.5625 43 47.3385 38.648 47.3385 31.992V19.192C47.3385 16.824 46.3145 15.544 44.2025 15.416ZM78.03 3.576V2.808H87.95V38.456C87.95 40.696 89.038 41.976 91.15 42.168V43H81.23V7.096C81.23 4.856 80.142 3.704 78.03 3.576ZM97.367 15.928H93.015V14.648H93.591C97.687 14.328 99.479 11.256 99.479 8.824C99.479 6.648 98.583 5.56 97.367 5.56V4.856H104.343C106.647 9.784 102.231 13.752 98.583 14.648H111.191V15.928H104.087V32.312C104.087 38.52 105.623 41.144 108.183 41.848C108.247 41.848 111.255 35.256 111.255 35.256L111.767 43H107.095C102.743 43 97.367 41.144 97.367 32.312V15.928ZM114.783 15.416V14.648H124.703V38.456C124.703 40.696 125.791 41.976 127.903 42.168V43H117.983V19.128C117.983 16.888 116.895 15.672 114.783 15.416ZM116.127 5.304L120.799 0.695999L125.407 5.304L120.799 9.976L116.127 5.304ZM129.954 15.416V14.648H136.482L139.106 17.336L139.49 20.024C140.578 18.488 143.65 14.84 148.77 14.84C163.362 14.84 162.53 42.808 146.658 42.808C143.906 42.808 141.474 41.976 139.874 40.44V51.832L136.61 55.8H130.018V55.032C130.018 55.032 133.154 54.904 133.154 51.32V19.128C133.154 16.76 132.066 15.544 129.954 15.416ZM139.874 21.88V38.008C140.514 39.544 142.37 40.952 144.738 40.952C153.954 40.952 155.17 16.952 146.786 16.952C143.842 16.952 141.154 19.832 139.874 21.88ZM161.093 3.576V2.808H171.013V38.456C171.013 40.696 172.101 41.976 174.213 42.168V43H164.293V7.096C164.293 4.856 163.205 3.704 161.093 3.576ZM177.038 29.112C176.846 20.28 184.398 14.136 193.55 14.136C203.342 14.136 206.798 20.6 206.798 23.864H184.014C183.758 25.08 183.694 26.424 183.758 27.896C184.206 33.976 189.198 38.648 195.982 38.904C199.63 39.096 203.406 37.688 205.774 34.552L206.414 35.32C203.47 40.76 197.646 43.384 191.694 43.384C184.014 43.384 177.166 37.752 177.038 29.112ZM193.614 15.096C189.006 15.096 185.614 17.912 184.334 22.264H200.334C200.334 22.264 199.758 15.16 193.614 15.096ZM229.867 15.928H225.515V14.648H226.091C230.187 14.328 231.979 11.256 231.979 8.824C231.979 6.648 231.083 5.56 229.867 5.56V4.856H236.843C239.147 9.784 234.731 13.752 231.083 14.648H243.691V15.928H236.587V32.312C236.587 38.52 238.123 41.144 240.683 41.848C240.747 41.848 243.755 35.256 243.755 35.256L244.267 43H239.595C235.243 43 229.867 41.144 229.867 32.312V15.928ZM247.283 15.416V14.648H257.203V38.456C257.203 40.696 258.291 41.976 260.403 42.168V43H250.483V19.128C250.483 16.888 249.395 15.672 247.283 15.416ZM248.627 5.304L253.299 0.695999L257.907 5.304L253.299 9.976L248.627 5.304ZM263.158 43V42.168C263.158 42.168 266.294 42.04 266.294 38.52V19.192C266.294 16.824 265.27 15.544 263.158 15.416V14.648H269.814L272.502 17.912L272.63 20.6C273.846 17.976 276.406 14.328 281.59 14.328C284.982 14.328 288.694 16.312 289.782 20.664C290.87 18.104 293.622 14.328 298.87 14.328C303.862 14.328 308.278 18.168 308.342 25.08V38.456C308.342 40.824 309.366 42.104 311.478 42.168V43H301.686V25.528C301.686 20.216 300.598 16.888 297.206 16.888C293.75 16.888 291.382 19.896 290.23 22.2C290.678 23.16 290.87 25.272 290.87 26.168V38.904L294.07 43H280.502V42.168C280.502 42.168 284.214 41.72 284.214 38.2V25.528C284.214 20.28 283.19 16.76 279.99 16.76C276.342 16.76 274.038 19.896 273.014 22.392V39.352L269.686 43H263.158ZM314.038 29.112C313.846 20.28 321.398 14.136 330.55 14.136C340.342 14.136 343.798 20.6 343.798 23.864H321.014C320.758 25.08 320.694 26.424 320.758 27.896C321.206 33.976 326.198 38.648 332.982 38.904C336.63 39.096 340.406 37.688 342.774 34.552L343.414 35.32C340.47 40.76 334.646 43.384 328.694 43.384C321.014 43.384 314.166 37.752 314.038 29.112ZM330.614 15.096C326.006 15.096 322.614 17.912 321.334 22.264H337.334C337.334 22.264 336.758 15.16 330.614 15.096Z" fill="#DBFE01"/>
<path d="M363.475 29.112C363.283 20.28 370.835 14.136 379.987 14.136C389.779 14.136 393.235 20.6 393.235 23.864H370.451C370.195 25.08 370.131 26.424 370.195 27.896C370.643 33.976 375.635 38.648 382.419 38.904C386.067 39.096 389.843 37.688 392.211 34.552L392.851 35.32C389.907 40.76 384.083 43.384 378.131 43.384C370.451 43.384 363.603 37.752 363.475 29.112ZM380.051 15.096C375.443 15.096 372.051 17.912 370.771 22.264H386.771C386.771 22.264 386.195 15.16 380.051 15.096ZM409.28 15.288C412.032 15.288 414.464 16.184 416.064 17.72V7.352C416.064 3.768 412.928 3.576 412.928 3.576V2.808H419.52L422.784 6.776V38.52C422.784 41.336 425.088 42.168 425.984 42.168V43H419.456L416.96 40.504L416.64 37.816C415.68 39.352 412.608 43.32 407.168 43.32C392.576 43.32 393.407 15.288 409.28 15.288ZM409.472 40.76C412.416 40.76 414.912 38.2 416.064 36.28V20.6C415.488 18.936 413.056 17.272 410.56 17.272C401.344 17.272 401.088 40.76 409.472 40.76ZM428.533 15.416V14.648H438.453V38.456C438.453 40.696 439.541 41.976 441.653 42.168V43H431.733V19.128C431.733 16.888 430.645 15.672 428.533 15.416ZM429.877 5.304L434.549 0.695999L439.157 5.304L434.549 9.976L429.877 5.304ZM447.992 15.928H443.64V14.648H444.216C448.312 14.328 450.104 11.256 450.104 8.824C450.104 6.648 449.208 5.56 447.992 5.56V4.856H454.968C457.272 9.784 452.856 13.752 449.208 14.648H461.816V15.928H454.712V32.312C454.712 38.52 456.248 41.144 458.808 41.848C458.872 41.848 461.88 35.256 461.88 35.256L462.392 43H457.72C453.368 43 447.992 41.144 447.992 32.312V15.928ZM465.408 15.416V14.648H475.328V38.456C475.328 40.696 476.416 41.976 478.528 42.168V43H468.608V19.128C468.608 16.888 467.52 15.672 465.408 15.416ZM466.752 5.304L471.424 0.695999L476.032 5.304L471.424 9.976L466.752 5.304ZM480.963 43V42.168C480.963 42.168 484.099 42.04 484.099 38.52V19.192C484.099 16.824 483.075 15.544 480.963 15.416V14.648H487.555L490.179 17.784L490.435 22.584C491.651 20.088 494.403 14.328 500.227 14.328C505.027 14.328 509.251 17.656 509.251 24.824V38.456V38.584C509.251 40.888 510.275 42.104 512.387 42.168V43H502.531V24.952C502.531 19.512 501.187 17.208 498.243 17.208C494.147 17.208 491.715 22.52 490.819 24.888V38.84L494.403 43H480.963ZM514.149 50.168C514.149 44.92 518.885 41.912 520.805 41.016C517.285 38.776 514.533 34.936 514.533 29.304C514.533 19.128 523.557 14.2 530.661 14.2C533.669 14.2 537.125 15.16 539.877 17.272L541.093 11.704H547.237L541.413 18.36C543.909 20.664 545.701 23.992 545.701 28.344C545.701 38.328 536.485 43.576 529.253 43.576C526.885 43.576 524.261 42.936 521.957 41.72C520.357 42.488 516.517 44.792 516.645 48.504C516.709 50.424 517.541 51.192 518.821 51.192C522.981 51.192 532.069 44.152 538.533 44.152C546.725 44.152 547.365 53.176 542.373 57.848H532.453C532.453 57.848 541.029 51.832 541.029 47.608C541.029 46.328 540.197 45.24 538.661 45.24C533.349 45.24 527.717 57.848 520.613 57.848C516.517 57.848 514.149 53.88 514.149 50.168ZM524.325 17.272C516.261 24.12 522.725 41.208 532.709 41.208C533.925 41.208 535.205 40.952 536.485 40.44C544.421 33.272 536.933 16.632 527.461 16.632C526.437 16.632 525.349 16.824 524.325 17.272ZM1.408 85.416V84.648H11.328V108.456C11.328 110.696 12.416 111.976 14.528 112.168V113H4.608V89.128C4.608 86.888 3.52 85.672 1.408 85.416ZM2.752 75.304L7.424 70.696L12.032 75.304L7.424 79.976L2.752 75.304ZM16.963 113V112.168C16.963 112.168 20.099 112.04 20.099 108.52V89.192C20.099 86.824 19.075 85.544 16.963 85.416V84.648H23.555L26.179 87.784L26.435 92.584C27.651 90.088 30.403 84.328 36.227 84.328C41.027 84.328 45.251 87.656 45.251 94.824V108.456V108.584C45.251 110.888 46.275 112.104 48.387 112.168V113H38.531V94.952C38.531 89.512 37.187 87.208 34.243 87.208C30.147 87.208 27.715 92.52 26.819 94.888V108.84L30.403 113H16.963ZM86.742 107.56C86.742 101.352 68.566 102.888 68.566 92.392C68.566 87.016 74.582 84.2 79.382 84.2C82.262 84.2 84.758 84.648 87.382 85.48L90.454 84.072V94.504L82.518 85.8C81.494 85.48 80.47 85.352 79.446 85.352C76.054 85.352 73.238 87.144 73.238 89.64C73.238 96.68 91.734 95.848 91.734 105.192C91.734 109.736 87.574 113.512 80.982 113.512C77.654 113.512 74.198 112.488 71.766 111.72L68.758 112.872L68.822 102.568L76.566 111.08C78.23 111.72 79.766 112.04 81.11 112.04C84.63 112.04 86.742 109.992 86.742 107.56ZM104.74 113.448C100.58 113.448 96.356 110.888 96.612 106.28C97.124 97.64 109.86 99.304 115.364 93.608V91.304C115.364 87.208 112.74 85.8 109.796 85.8C108.772 85.8 107.748 85.992 106.724 86.248L98.852 94.568L98.788 84.072L101.732 85.928C104.74 84.968 107.748 84.328 110.244 84.2C116.132 83.944 122.02 86.312 122.148 93.096V108.904C122.148 112.04 124.644 112.168 124.708 112.168V113H118.628L115.492 109.544L115.364 107.56C113.252 110.056 109.348 113.448 104.74 113.448ZM104.804 105.128C104.676 107.88 106.468 109.48 108.9 109.48C110.884 109.48 113.252 108.392 115.364 106.088V95.784C110.82 98.536 105.06 100.072 104.804 105.128ZM127.721 113V112.168C127.721 112.168 130.857 112.04 130.857 108.52V89.192C130.857 86.824 129.833 85.544 127.721 85.416V84.648H134.377L137.065 87.912L137.193 90.6C138.409 87.976 140.969 84.328 146.153 84.328C149.545 84.328 153.257 86.312 154.345 90.664C155.433 88.104 158.185 84.328 163.433 84.328C168.425 84.328 172.841 88.168 172.905 95.08V108.456C172.905 110.824 173.929 112.104 176.041 112.168V113H166.249V95.528C166.249 90.216 165.161 86.888 161.769 86.888C158.312 86.888 155.945 89.896 154.793 92.2C155.241 93.16 155.433 95.272 155.433 96.168V108.904L158.632 113H145.065V112.168C145.065 112.168 148.777 111.72 148.777 108.2V95.528C148.777 90.28 147.753 86.76 144.553 86.76C140.905 86.76 138.601 89.896 137.577 92.392V109.352L134.249 113H127.721ZM178.6 99.112C178.408 90.28 185.96 84.136 195.112 84.136C204.904 84.136 208.36 90.6 208.36 93.864H185.576C185.32 95.08 185.256 96.424 185.32 97.896C185.768 103.976 190.76 108.648 197.544 108.904C201.192 109.096 204.968 107.688 207.336 104.552L207.976 105.32C205.032 110.76 199.208 113.384 193.256 113.384C185.576 113.384 178.728 107.752 178.6 99.112ZM195.176 85.096C190.568 85.096 187.176 87.912 185.896 92.264H201.896C201.896 92.264 201.32 85.16 195.176 85.096ZM225.797 84.648H237.574L237.766 85.416C237.766 85.416 234.054 86.504 235.27 89.96L243.014 110.568L249.158 91.88L244.038 84.648H253.318L243.91 113H236.934L225.797 84.648ZM254.096 85.416V84.648H264.016V108.456C264.016 110.696 265.104 111.976 267.216 112.168V113H257.296V89.128C257.296 86.888 256.208 85.672 254.096 85.416ZM255.44 75.304L260.112 70.696L264.72 75.304L260.112 79.976L255.44 75.304ZM282.217 85.288C284.969 85.288 287.401 86.184 289.001 87.72V77.352C289.001 73.768 285.865 73.576 285.865 73.576V72.808H292.457L295.721 76.776V108.52C295.721 111.336 298.025 112.168 298.921 112.168V113H292.393L289.897 110.504L289.577 107.816C288.617 109.352 285.545 113.32 280.105 113.32C265.513 113.32 266.345 85.288 282.217 85.288ZM282.409 110.76C285.353 110.76 287.849 108.2 289.001 106.28V90.6C288.425 88.936 285.993 87.272 283.497 87.272C274.281 87.272 274.025 110.76 282.409 110.76ZM301.663 99.112C301.471 90.28 309.023 84.136 318.175 84.136C327.967 84.136 331.423 90.6 331.423 93.864H308.639C308.383 95.08 308.319 96.424 308.383 97.896C308.831 103.976 313.823 108.648 320.607 108.904C324.255 109.096 328.031 107.688 330.399 104.552L331.039 105.32C328.095 110.76 322.271 113.384 316.319 113.384C308.639 113.384 301.791 107.752 301.663 99.112ZM318.239 85.096C313.631 85.096 310.239 87.912 308.959 92.264H324.959C324.959 92.264 324.383 85.16 318.239 85.096ZM334.475 99.24C334.475 89.128 343.051 84.2 349.835 84.2C356.107 84.2 364.171 88.808 364.171 98.344C364.171 108.328 356.043 113.576 348.747 113.576C342.411 113.576 334.475 109.16 334.475 99.24ZM343.819 87.464C336.331 94.056 342.283 110.952 351.755 110.952C352.907 110.952 354.123 110.76 355.339 110.184C362.891 102.632 356.043 86.824 347.019 86.824C345.931 86.824 344.907 87.016 343.819 87.464Z" fill="white"/>
</svg>
