<svg xmlns="http://www.w3.org/2000/svg" xmlns:xlink="http://www.w3.org/1999/xlink" fill="none" version="1.1" width="24" height="24" viewBox="0 0 24 24"><defs><clipPath id="master_svg0_13_3876"><rect x="0" y="0" width="24" height="24" rx="0"/></clipPath></defs><g clip-path="url(#master_svg0_13_3876)"><g><path d="M10.963623046875,3.530303955078125L13.033323046875001,3.530303955078125L13.033323046875001,14.909103955078125C13.033323046875001,15.218203955078126,12.827263046875,15.427303955078125,12.515133046875,15.427303955078125L11.481805046875,15.427303955078125C11.172714046875,15.427303955078125,10.963623046875,15.221203955078124,10.963623046875,14.909103955078125L10.963623046875,3.530303955078125Z" fill="#FFFFFF" fill-opacity="1"/></g><g><path d="M7.2424354609375,9.115139658203125L6.5181924609375,8.390899658203125C6.3121321609375,8.184839658203124,6.3121321609375,7.872719658203125,6.5181924609375,7.666659658203125L11.6394074609375,2.545444658203125C11.845467460937499,2.339384558203125,12.1575874609375,2.339384558203125,12.3636474609375,2.545444658203125L13.4484974609375,3.630289658203125L7.9636474609375,9.115139658203125C7.7575874609375,9.321199658203124,7.4484974609375,9.321199658203124,7.2424354609375,9.115139658203125Z" fill="#FFFFFF" fill-opacity="1"/></g><g><path d="M10.55158052734375,3.633319658203125L11.63643052734375,2.545445658203125C11.84249052734375,2.339384558203125,12.15461052734375,2.339384558203125,12.36069052734375,2.545445658203125L17.48189052734375,7.666659658203125C17.68799052734375,7.872719658203125,17.68799052734375,8.184839658203124,17.48189052734375,8.390899658203125L16.75759052734375,9.115139658203125C16.55159052734375,9.321199658203124,16.23949052734375,9.321199658203124,16.033390527343748,9.115139658203125L10.55158052734375,3.633319658203125ZM21.30919052734375,11.803019658203125L20.27579052734375,11.803019658203125C19.96669052734375,11.803019658203125,19.75759052734375,12.009079658203126,19.75759052734375,12.321199658203126L19.75759052734375,19.045399658203124C19.75759052734375,19.354499658203125,19.55159052734375,19.563599658203124,19.23949052734375,19.563599658203124L4.757640527343749,19.563599658203124C4.44855052734375,19.563599658203124,4.23946052734375,19.357599658203124,4.23946052734375,19.045399658203124L4.23946052734375,12.321199658203126C4.23946052734375,12.012109658203125,4.03340052734375,11.803019658203125,3.72127052734375,11.803019658203125L2.69097252734375,11.803019658203125C2.38188152734375,11.803019658203125,2.17279052734375,12.009079658203126,2.17279052734375,12.321199658203126L2.17279052734375,21.112099658203125C2.17279052734375,21.421199658203125,2.37885152734375,21.630299658203125,2.69097252734375,21.630299658203125L21.30919052734375,21.630299658203125C21.61829052734375,21.630299658203125,21.82729052734375,21.424199658203126,21.82729052734375,21.112099658203125L21.82729052734375,12.321199658203126C21.82429052734375,12.012109658203125,21.61829052734375,11.803019658203125,21.30919052734375,11.803019658203125Z" fill="#FFFFFF" fill-opacity="1"/></g><g><path d="M6.3090846875,13.872724291992188L3.2060546875,13.872724291992188L3.2060546875,11.803024291992188L6.3090846875,11.803024291992188C6.6181746875,11.803024291992188,6.8272646875,12.009084291992188,6.8272646875,12.321206291992187L6.8272646875,13.354544291992188C6.8272646875,13.615144291992188,6.621204687500001,13.872724291992188,6.3090846875,13.872724291992188ZM20.7908546875,13.872724291992188L17.6878546875,13.872724291992188C17.3787546875,13.872724291992188,17.1696546875,13.666664291992188,17.1696546875,13.354534291992188L17.1696546875,12.321206291992187C17.1696546875,12.012115291992188,17.3757546875,11.803024291992188,17.6878546875,11.803024291992188L20.7908546875,11.803024291992188L20.7908546875,13.872724291992188Z" fill="#FFFFFF" fill-opacity="1"/></g></g></svg>