<svg xmlns="http://www.w3.org/2000/svg" xmlns:xlink="http://www.w3.org/1999/xlink" fill="none" version="1.1" width="24" height="24" viewBox="0 0 24 24"><defs><clipPath id="master_svg0_4642_03355"><rect x="0" y="0" width="24" height="24" rx="0"/></clipPath></defs><g style="mix-blend-mode:passthrough"><g clip-path="url(#master_svg0_4642_03355)"><g><path d="M22.993,5.58595C23.562,6.08293,23.919,6.74915,24,7.46519L24,21.1867C24,22.739,22.6265,23.998,20.9307,24L3.06933,24C1.37353,23.998,-7.34165e-8,22.739,0,21.1867L0,4.8133099999999995C-0.00000199657,3.261,1.37353,2.00203987,3.06933,2L9.03163,2C9.9027,2.0492758,10.713,2.425069,11.2717,3.0388200000000003L12.2531,4.0764C12.3837,4.2865,12.559,4.470470000000001,12.7687,4.61738C12.9944,4.75734,13.2638,4.82613,13.536,4.8133099999999995L20.7826,4.8133099999999995C21.6009,4.79918,22.3933,5.07615,22.993,5.58595ZM17.6083,15.0179C17.7818,14.6785,17.7177,14.2772,17.4454,13.9975L12.7714,9.36661C12.6781,9.27994,12.5698,9.20791,12.451,9.15342C12.3083,9.10061,12.1471,9.1106,12.0135,9.180530000000001C11.8598,9.19324,11.7108,9.23522,11.5759,9.30376C11.4592,9.3668,11.3516,9.44298,11.2556,9.5305L6.58156,14.0012C6.4247,14.1296,6.32143,14.3038,6.28943,14.4941C6.27201,14.675,6.31272,14.8566,6.40655,15.0166C6.48999,15.1813,6.62864,15.3173,6.80233,15.4048C6.96792,15.486,7.15294,15.5284,7.34081,15.528L9.76397,15.528L9.76397,18.6087C9.78462,18.8784,9.91477,19.1311,10.1288,19.3173C10.3308,19.5144,10.6069,19.6341,10.9015,19.6525L13.1227,19.6525C13.7872,19.7381,14.356,19.2169,14.2616,18.6087L14.2616,15.528L16.5084,15.528C16.9662,15.6417,17.4441,15.4219,17.6177,15.0179L17.6083,15.0179Z" fill="#00FFFF" fill-opacity="1"/></g></g></g></svg>