<svg xmlns="http://www.w3.org/2000/svg" xmlns:xlink="http://www.w3.org/1999/xlink" fill="none" version="1.1" width="14" height="14" viewBox="0 0 14 14"><defs><clipPath id="master_svg0_4529_24904"><rect x="0" y="0" width="14" height="14" rx="0"/></clipPath></defs><g style="mix-blend-mode:passthrough" clip-path="url(#master_svg0_4529_24904)"><g style="mix-blend-mode:passthrough"><path d="M7.0000440234375,1.749921953125C4.1005440234375,1.749921953125,1.7500440234375,4.100421953125,1.7500440234375,6.999921953125C1.7500440234375,9.899431953125,4.1005440234375,12.249951953125,7.0000440234375,12.249951953125C9.8995540234375,12.249951953125,12.2500740234375,9.899431953125,12.2500740234375,6.999921953125C12.2500740234375,4.100421953125,9.8995540234375,1.749921953125,7.0000440234375,1.749921953125C7.0000440234375,1.749921953125,7.0000440234375,1.749921953125,7.0000440234375,1.749921953125ZM0.5833740234375,6.999921953125C0.5833740234375,3.456091953125,3.4562140234375,0.583251953125,7.0000440234375,0.583251953125C10.5438440234375,0.583251953125,13.4166740234375,3.456091953125,13.4166740234375,6.999921953125C13.4166740234375,10.543721953125,10.5438440234375,13.416551953125,7.0000440234375,13.416551953125C3.4562140234375,13.416551953125,0.5833740234375,10.543721953125,0.5833740234375,6.999921953125C0.5833740234375,6.999921953125,0.5833740234375,6.999921953125,0.5833740234375,6.999921953125ZM6.4167040234375,4.666581953125C6.4167040234375,4.344421953125,6.6778640234375,4.083251953125,7.0000440234375,4.083251953125C7.0000440234375,4.083251953125,7.0058740234375,4.083251953125,7.0058740234375,4.083251953125C7.3280440234375,4.083251953125,7.5892040234375,4.344421953125,7.5892040234375,4.666581953125C7.5892040234375,4.988751953125,7.3280440234375,5.249921953125,7.0058740234375,5.249921953125C7.0058740234375,5.249921953125,7.0000440234375,5.249921953125,7.0000440234375,5.249921953125C6.6778640234375,5.249921953125,6.4167040234375,4.988751953125,6.4167040234375,4.666581953125C6.4167040234375,4.666581953125,6.4167040234375,4.666581953125,6.4167040234375,4.666581953125ZM7.0000440234375,6.416581953125C7.3222140234375,6.416581953125,7.5833740234375,6.677741953125,7.5833740234375,6.999921953125C7.5833740234375,6.999921953125,7.5833740234375,9.333251953125,7.5833740234375,9.333251953125C7.5833740234375,9.655431953125,7.3222140234375,9.916581953125,7.0000440234375,9.916581953125C6.6778640234375,9.916581953125,6.4167040234375,9.655431953125,6.4167040234375,9.333251953125C6.4167040234375,9.333251953125,6.4167040234375,6.999921953125,6.4167040234375,6.999921953125C6.4167040234375,6.677741953125,6.6778640234375,6.416581953125,7.0000440234375,6.416581953125C7.0000440234375,6.416581953125,7.0000440234375,6.416581953125,7.0000440234375,6.416581953125Z" fill-rule="evenodd" fill="#1A69F3" fill-opacity="1"/></g></g></svg>