<svg width="410" height="79" viewBox="0 0 410 79" fill="none" xmlns="http://www.w3.org/2000/svg">
<path d="M5.24 3L1.28 8.72V2H21V8.72L17.04 3H13.24V24.36C13.32 26.28 15.24 26.48 15.24 26.48V27H7.08V26.48C7.08 26.48 9 26.28 9.04 24.36V3H5.24ZM20.9416 9.76V9.28H25.1016L26.7416 11.28L26.9016 13.76C27.1016 13.56 27.3416 13.32 27.5016 13.16C29.5016 10.6 32.3416 8.84 35.5816 9.36L34.6616 14.68L32.2616 10.92C32.2616 10.92 29.9416 10.52 27.8216 14.16C27.5816 14.44 27.3016 14.8 27.1016 15.24V27H20.9416V26.4C20.9416 26.4 22.9016 26.4 22.9016 24.16V12.12C22.9016 10.64 22.2616 9.84 20.9416 9.76ZM45.7916 28.56L36.2316 9.28H43.5916L43.7116 9.76C43.7116 9.76 41.4316 10.56 42.4716 12.68L47.8716 24.04L52.4716 13.84L49.1916 9.28H55.8716L45.1116 32.4C43.9116 34.68 42.0316 36.08 38.9916 36.28L39.0316 30.8L40.7916 32.8C41.1116 32.88 41.4316 32.92 41.7516 32.92C42.5916 32.92 43.4316 32.68 44.1516 32.2L45.7916 28.56ZM69.12 10.08H66.4V9.28H66.76C69.32 9.08 70.44 7.16 70.44 5.64C70.44 4.28 69.88 3.6 69.12 3.6V3.16H73.48C74.92 6.24 72.16 8.72 69.88 9.28H77.76V10.08H73.32V20.32C73.32 24.2 74.28 25.84 75.88 26.28C75.92 26.28 77.8 22.16 77.8 22.16L78.12 27H75.2C72.48 27 69.12 25.84 69.12 20.32V10.08ZM80.125 18.32C80.005 12.8 84.725 8.96 90.445 8.96C96.565 8.96 98.725 13 98.725 15.04H84.485C84.325 15.8 84.285 16.64 84.325 17.56C84.605 21.36 87.725 24.28 91.965 24.44C94.245 24.56 96.605 23.68 98.085 21.72L98.485 22.2C96.645 25.6 93.005 27.24 89.285 27.24C84.485 27.24 80.205 23.72 80.125 18.32ZM90.485 9.56C87.605 9.56 85.485 11.32 84.685 14.04H94.685C94.685 14.04 94.325 9.6 90.485 9.56ZM98.9269 27L106.327 18.76L99.3269 9.28H107.207L107.327 9.76C106.527 10 106.127 10.4 106.127 10.92C106.127 11.28 106.287 11.68 106.607 12.12L109.807 16.44L113.807 11.92L111.647 9.28H117.687L110.447 17.28L117.647 27H109.567L109.407 26.52C110.327 26.36 110.767 26 110.767 25.4C110.767 25 110.567 24.52 110.167 23.92L106.927 19.6L102.767 24.32L104.527 27H98.9269ZM120.604 10.08H117.884V9.28H118.244C120.804 9.08 121.924 7.16 121.924 5.64C121.924 4.28 121.364 3.6 120.604 3.6V3.16H124.964C126.404 6.24 123.644 8.72 121.364 9.28H129.244V10.08H124.804V20.32C124.804 24.2 125.764 25.84 127.364 26.28C127.404 26.28 129.284 22.16 129.284 22.16L129.604 27H126.684C123.964 27 120.604 25.84 120.604 20.32V10.08ZM132.209 17.08V16.44L132.889 16.08H141.009V16.68L140.289 17.08H132.209ZM143.282 27V26.48C144.642 26.48 145.282 24.88 145.282 24.2V4.72C145.282 2.52 143.322 2.36 143.322 2.36V1.88H147.442L149.482 4.36V12.68C150.202 11.72 152.082 9.68 155.042 9.68C163.962 9.68 163.642 26.48 154.322 27.16C152.162 27.36 150.162 26.64 148.922 25.08L148.762 25.64L147.362 27H143.282ZM149.482 14.04V23.84C149.802 25.04 150.802 26.04 152.522 26.04C158.282 26.04 159.042 11 153.802 11C151.962 11 150.242 12.76 149.482 14.04ZM166.97 27.28C164.37 27.28 161.73 25.68 161.89 22.8C162.21 17.4 170.17 18.44 173.61 14.88V13.44C173.61 10.88 171.97 10 170.13 10C169.49 10 168.85 10.12 168.21 10.28L163.29 15.48L163.25 8.92L165.09 10.08C166.97 9.48 168.85 9.08 170.41 9C174.09 8.84 177.77 10.32 177.85 14.56V24.44C177.85 26.4 179.41 26.48 179.45 26.48V27H175.65L173.69 24.84L173.61 23.6C172.29 25.16 169.85 27.28 166.97 27.28ZM167.01 22.08C166.93 23.8 168.05 24.8 169.57 24.8C170.81 24.8 172.29 24.12 173.61 22.68V16.24C170.77 17.96 167.17 18.92 167.01 22.08ZM193.104 23.6C193.104 19.72 181.744 20.68 181.744 14.12C181.744 10.76 185.504 9 188.504 9C190.304 9 191.864 9.28 193.504 9.8L195.424 8.92V15.44L190.464 10C189.824 9.8 189.184 9.72 188.544 9.72C186.424 9.72 184.664 10.84 184.664 12.4C184.664 16.8 196.224 16.28 196.224 22.12C196.224 24.96 193.624 27.32 189.504 27.32C187.424 27.32 185.264 26.68 183.744 26.2L181.864 26.92L181.904 20.48L186.744 25.8C187.784 26.2 188.744 26.4 189.584 26.4C191.784 26.4 193.104 25.12 193.104 23.6ZM198.953 18.32C198.833 12.8 203.553 8.96 209.273 8.96C215.393 8.96 217.553 13 217.553 15.04H203.313C203.153 15.8 203.113 16.64 203.153 17.56C203.433 21.36 206.553 24.28 210.793 24.44C213.073 24.56 215.433 23.68 216.913 21.72L217.313 22.2C215.473 25.6 211.833 27.24 208.113 27.24C203.313 27.24 199.033 23.72 198.953 18.32ZM209.313 9.56C206.433 9.56 204.313 11.32 203.513 14.04H213.513C213.513 14.04 213.153 9.6 209.313 9.56ZM227.581 9.68C229.301 9.68 230.821 10.24 231.821 11.2V4.72C231.821 2.48 229.861 2.36 229.861 2.36V1.88H233.981L236.021 4.36V24.2C236.021 25.96 237.461 26.48 238.021 26.48V27H233.941L232.381 25.44L232.181 23.76C231.581 24.72 229.661 27.2 226.261 27.2C217.141 27.2 217.661 9.68 227.581 9.68ZM227.701 25.6C229.541 25.6 231.101 24 231.821 22.8V13C231.461 11.96 229.941 10.92 228.381 10.92C222.621 10.92 222.461 25.6 227.701 25.6ZM255.525 27.28C252.925 27.28 250.285 25.68 250.445 22.8C250.765 17.4 258.725 18.44 262.165 14.88V13.44C262.165 10.88 260.525 10 258.685 10C258.045 10 257.405 10.12 256.765 10.28L251.845 15.48L251.805 8.92L253.645 10.08C255.525 9.48 257.405 9.08 258.965 9C262.645 8.84 266.325 10.32 266.405 14.56V24.44C266.405 26.4 267.965 26.48 268.005 26.48V27H264.205L262.245 24.84L262.165 23.6C260.845 25.16 258.405 27.28 255.525 27.28ZM255.565 22.08C255.485 23.8 256.605 24.8 258.125 24.8C259.365 24.8 260.845 24.12 262.165 22.68V16.24C259.325 17.96 255.725 18.92 255.565 22.08ZM268.822 9.76V9.28H274.982V20C274.982 23.36 275.502 25.52 277.822 25.52C280.342 25.52 281.622 22.84 282.262 21.52V12.04C282.262 10.6 281.622 9.84 280.302 9.76V9.28H286.462V24.12C286.462 25.6 287.102 26.4 288.422 26.48V26.96H284.302L282.622 24.88C282.582 24.64 282.542 23.24 282.462 22.88C281.742 24.36 280.022 27 276.782 27C273.422 27 270.782 24.28 270.782 20.12V12.12C270.782 10.64 270.142 9.84 268.822 9.76ZM298.284 9.68C300.004 9.68 301.524 10.24 302.524 11.2V4.72C302.524 2.48 300.564 2.36 300.564 2.36V1.88H304.684L306.724 4.36V24.2C306.724 25.96 308.164 26.48 308.724 26.48V27H304.644L303.084 25.44L302.884 23.76C302.284 24.72 300.364 27.2 296.964 27.2C287.844 27.2 288.364 9.68 298.284 9.68ZM298.404 25.6C300.244 25.6 301.804 24 302.524 22.8V13C302.164 11.96 300.644 10.92 299.084 10.92C293.324 10.92 293.164 25.6 298.404 25.6ZM310.318 9.76V9.28H316.518V24.16C316.518 25.56 317.198 26.36 318.518 26.48V27H312.318V12.08C312.318 10.68 311.638 9.92 310.318 9.76ZM311.158 3.44L314.078 0.559999L316.958 3.44L314.078 6.36L311.158 3.44ZM319.969 18.4C319.969 12.08 325.329 9 329.569 9C333.489 9 338.529 11.88 338.529 17.84C338.529 24.08 333.449 27.36 328.889 27.36C324.929 27.36 319.969 24.6 319.969 18.4ZM325.809 11.04C321.129 15.16 324.849 25.72 330.769 25.72C331.489 25.72 332.249 25.6 333.009 25.24C337.729 20.52 333.449 10.64 327.809 10.64C327.129 10.64 326.489 10.76 325.809 11.04ZM356.228 27.28C353.628 27.28 350.988 25.68 351.148 22.8C351.468 17.4 359.428 18.44 362.868 14.88V13.44C362.868 10.88 361.228 10 359.388 10C358.748 10 358.108 10.12 357.468 10.28L352.548 15.48L352.508 8.92L354.348 10.08C356.228 9.48 358.108 9.08 359.668 9C363.348 8.84 367.028 10.32 367.108 14.56V24.44C367.108 26.4 368.668 26.48 368.708 26.48V27H364.908L362.948 24.84L362.868 23.6C361.548 25.16 359.108 27.28 356.228 27.28ZM356.268 22.08C356.188 23.8 357.308 24.8 358.828 24.8C360.068 24.8 361.548 24.12 362.868 22.68V16.24C360.028 17.96 356.428 18.92 356.268 22.08ZM370.391 27V26.48C370.391 26.48 372.351 26.4 372.351 24.2V12.12C372.351 10.64 371.711 9.84 370.391 9.76V9.28H374.511L376.151 11.24L376.311 14.24C377.071 12.68 378.791 9.08 382.431 9.08C385.431 9.08 388.071 11.16 388.071 15.64V24.16V24.24C388.071 25.68 388.711 26.44 390.031 26.48V27H383.871V15.72C383.871 12.32 383.031 10.88 381.191 10.88C378.631 10.88 377.111 14.2 376.551 15.68V24.4L378.791 27H370.391ZM399.143 9.68C400.863 9.68 402.383 10.24 403.383 11.2V4.72C403.383 2.48 401.423 2.36 401.423 2.36V1.88H405.543L407.583 4.36V24.2C407.583 25.96 409.023 26.48 409.583 26.48V27H405.503L403.943 25.44L403.743 23.76C403.143 24.72 401.223 27.2 397.823 27.2C388.703 27.2 389.223 9.68 399.143 9.68ZM399.263 25.6C401.103 25.6 402.663 24 403.383 22.8V13C403.023 11.96 401.503 10.92 399.943 10.92C394.183 10.92 394.023 25.6 399.263 25.6ZM0.6 53.28H7.96L8.08 53.76C8.08 53.76 5.76 54.44 6.52 56.6L11.36 69.48L15.2 57.8L12 53.28H17.8L11.92 71H7.56L0.6 53.28ZM18.2863 53.76V53.28H24.4863V68.16C24.4863 69.56 25.1663 70.36 26.4863 70.48V71H20.2863V56.08C20.2863 54.68 19.6063 53.92 18.2863 53.76ZM19.1263 47.44L22.0463 44.56L24.9263 47.44L22.0463 50.36L19.1263 47.44ZM35.8622 53.68C37.5822 53.68 39.1022 54.24 40.1022 55.2V48.72C40.1022 46.48 38.1422 46.36 38.1422 46.36V45.88H42.2622L44.3022 48.36V68.2C44.3022 69.96 45.7422 70.48 46.3022 70.48V71H42.2222L40.6622 69.44L40.4622 67.76C39.8622 68.72 37.9422 71.2 34.5422 71.2C25.4222 71.2 25.9422 53.68 35.8622 53.68ZM35.9822 69.6C37.8222 69.6 39.3822 68 40.1022 66.8V57C39.7422 55.96 38.2222 54.92 36.6622 54.92C30.9022 54.92 30.7422 69.6 35.9822 69.6ZM48.0156 62.32C47.8956 56.8 52.6156 52.96 58.3356 52.96C64.4556 52.96 66.6156 57 66.6156 59.04H52.3756C52.2156 59.8 52.1756 60.64 52.2156 61.56C52.4956 65.36 55.6156 68.28 59.8556 68.44C62.1356 68.56 64.4956 67.68 65.9756 65.72L66.3756 66.2C64.5356 69.6 60.8956 71.24 57.1756 71.24C52.3756 71.24 48.0956 67.72 48.0156 62.32ZM58.3756 53.56C55.4956 53.56 53.3756 55.32 52.5756 58.04H62.5756C62.5756 58.04 62.2156 53.6 58.3756 53.56ZM68.5234 62.4C68.5234 56.08 73.8834 53 78.1234 53C82.0434 53 87.0834 55.88 87.0834 61.84C87.0834 68.08 82.0034 71.36 77.4434 71.36C73.4834 71.36 68.5234 68.6 68.5234 62.4ZM74.3634 55.04C69.6834 59.16 73.4034 69.72 79.3234 69.72C80.0434 69.72 80.8034 69.6 81.5634 69.24C86.2834 64.52 82.0034 54.64 76.3634 54.64C75.6834 54.64 75.0434 54.76 74.3634 55.04ZM98.8228 53.76V53.28H102.903L104.543 54.96L104.783 56.64C105.463 55.68 107.383 53.4 110.583 53.4C119.703 53.4 119.183 70.88 109.263 70.88C107.543 70.88 106.023 70.36 105.023 69.4V76.52L102.983 79H98.8628V78.52C98.8628 78.52 100.823 78.44 100.823 76.2V56.08C100.823 54.6 100.143 53.84 98.8228 53.76ZM105.023 57.8V67.88C105.423 68.84 106.583 69.72 108.063 69.72C113.823 69.72 114.583 54.72 109.343 54.72C107.503 54.72 105.823 56.52 105.023 57.8ZM118.715 53.76V53.28H122.875L124.515 55.28L124.675 57.76C124.875 57.56 125.115 57.32 125.275 57.16C127.275 54.6 130.115 52.84 133.355 53.36L132.435 58.68L130.035 54.92C130.035 54.92 127.715 54.52 125.595 58.16C125.355 58.44 125.075 58.8 124.875 59.24V71H118.715V70.4C118.715 70.4 120.675 70.4 120.675 68.16V56.12C120.675 54.64 120.035 53.84 118.715 53.76ZM134.266 62.4C134.266 56.08 139.626 53 143.866 53C147.786 53 152.826 55.88 152.826 61.84C152.826 68.08 147.746 71.36 143.186 71.36C139.226 71.36 134.266 68.6 134.266 62.4ZM140.106 55.04C135.426 59.16 139.146 69.72 145.066 69.72C145.786 69.72 146.546 69.6 147.306 69.24C152.026 64.52 147.746 54.64 142.106 54.64C141.426 54.64 140.786 54.76 140.106 55.04ZM162.854 53.68C164.574 53.68 166.094 54.24 167.094 55.2V48.72C167.094 46.48 165.134 46.36 165.134 46.36V45.88H169.254L171.294 48.36V68.2C171.294 69.96 172.734 70.48 173.294 70.48V71H169.214L167.654 69.44L167.454 67.76C166.854 68.72 164.934 71.2 161.534 71.2C152.414 71.2 152.934 53.68 162.854 53.68ZM162.974 69.6C164.814 69.6 166.374 68 167.094 66.8V57C166.734 55.96 165.214 54.92 163.654 54.92C157.894 54.92 157.734 69.6 162.974 69.6ZM174.408 53.76V53.28H180.568V64C180.568 67.36 181.088 69.52 183.408 69.52C185.928 69.52 187.208 66.84 187.848 65.52V56.04C187.848 54.6 187.208 53.84 185.888 53.76V53.28H192.048V68.12C192.048 69.6 192.688 70.4 194.008 70.48V70.96H189.888L188.208 68.88C188.168 68.64 188.128 67.24 188.048 66.88C187.328 68.36 185.608 71 182.368 71C179.008 71 176.368 68.28 176.368 64.12V56.12C176.368 54.64 175.728 53.84 174.408 53.76ZM195.515 62.48C195.515 56.52 200.675 53.04 205.835 53.04C207.315 53.04 209.275 53.44 210.635 53.72L212.315 52.96V59.16L208.675 54.12C207.955 53.8 206.595 53.64 205.915 53.64C197.395 53.64 197.075 68.32 207.155 68.32C209.355 68.32 211.635 67.36 212.675 65.72L213.075 66.2C211.355 69.68 207.795 71.24 204.835 71.24C200.835 71.2 195.515 68.68 195.515 62.48ZM216.972 54.08H214.252V53.28H214.612C217.172 53.08 218.292 51.16 218.292 49.64C218.292 48.28 217.732 47.6 216.972 47.6V47.16H221.332C222.772 50.24 220.012 52.72 217.732 53.28H225.612V54.08H221.172V64.32C221.172 68.2 222.132 69.84 223.732 70.28C223.772 70.28 225.652 66.16 225.652 66.16L225.972 71H223.052C220.332 71 216.972 69.84 216.972 64.32V54.08ZM227.857 53.76V53.28H234.057V68.16C234.057 69.56 234.737 70.36 236.057 70.48V71H229.857V56.08C229.857 54.68 229.177 53.92 227.857 53.76ZM228.697 47.44L231.617 44.56L234.497 47.44L231.617 50.36L228.697 47.44ZM237.508 62.4C237.508 56.08 242.868 53 247.108 53C251.028 53 256.068 55.88 256.068 61.84C256.068 68.08 250.988 71.36 246.428 71.36C242.468 71.36 237.508 68.6 237.508 62.4ZM243.348 55.04C238.668 59.16 242.388 69.72 248.308 69.72C249.028 69.72 249.788 69.6 250.548 69.24C255.268 64.52 250.988 54.64 245.348 54.64C244.668 54.64 244.028 54.76 243.348 55.04ZM257.657 71V70.48C257.657 70.48 259.617 70.4 259.617 68.2V56.12C259.617 54.64 258.977 53.84 257.657 53.76V53.28H261.777L263.417 55.24L263.577 58.24C264.337 56.68 266.057 53.08 269.697 53.08C272.697 53.08 275.337 55.16 275.337 59.64V68.16V68.24C275.337 69.68 275.977 70.44 277.297 70.48V71H271.137V59.72C271.137 56.32 270.297 54.88 268.457 54.88C265.897 54.88 264.377 58.2 263.817 59.68V68.4L266.057 71H257.657Z" fill="#DBFE01"/>
</svg>
