<svg width="339" height="91" viewBox="0 0 339 91" fill="none" xmlns="http://www.w3.org/2000/svg">
<rect x="172" y="20" width="167" height="15" fill="#DBFE01" fill-opacity="0.65"/>
<path d="M265.601 14.97C239.985 7.42236 213.139 20.4922 203.99 28.4973C225.004 22.3506 248.447 30.5514 263.171 29.6937C287.186 27.5495 274.464 18.3531 265.601 14.97Z" fill="#1B57E6"/>
<path d="M192.268 36.4123C200.273 30.8087 209.469 24.876 212.995 22.4935C194.984 27.3538 177.544 16.2566 175.257 14.8271C172.97 13.3976 166.108 5.67844 153.243 10.1098C142.951 13.6549 122.462 14.7318 113.503 14.8271C98.4081 15.1702 76.0987 7.96047 66.9023 4.19617C73.7639 9.11359 86.5816 27.6448 92.0612 36.4123C124.225 84.7288 182.262 43.4168 192.268 36.4123Z" fill="url(#paint0_linear_2544_11)"/>
<path d="M57.1828 11.3963C67.7038 12.5399 76.0987 15.775 78.91 17.3474C75.9081 12.916 68.9894 3.48142 60.7556 0.622458C50.4633 -2.95125 44.0316 9.96687 57.1828 11.3963Z" fill="url(#paint1_linear_2544_11)"/>
<path d="M-4 89.3031C59.3547 96.9651 106.261 72.2923 121.794 58.9981L119.364 58.2833C85.9716 85.5007 23.1602 90.542 -4 89.3031Z" fill="#1B57E6"/>
<path d="M52.72 35.06C48.9 35.06 46.56 31.88 46.56 28.66C46.56 25.44 48.68 22.34 52.7 22.34C53.58 22.34 54.62 22.56 55.42 22.72L56.3 22.3V25.98L54.46 23C53.86 22.78 53.28 22.66 52.7 22.66C49.8 22.66 48.44 25.06 48.56 27.58C48.68 30.42 50.7 33.7 54.04 33.78C55.18 33.8 56.26 33.28 56.94 32.24L57.14 32.5C56.26 34.24 54.54 35.06 52.72 35.06ZM58.0606 26.38V26.14H60.1406L60.9606 27.14L61.0406 28.38C61.1406 28.28 61.2606 28.16 61.3406 28.08C62.3406 26.8 63.7606 25.92 65.3806 26.18L64.9206 28.84L63.7206 26.96C63.7206 26.96 62.5606 26.76 61.5006 28.58C61.3806 28.72 61.2406 28.9 61.1406 29.12V35H58.0606V34.7C58.0606 34.7 59.0406 34.7 59.0406 33.58V27.56C59.0406 26.82 58.7206 26.42 58.0606 26.38ZM66.0898 30.66C66.0298 27.9 68.3898 25.98 71.2498 25.98C74.3098 25.98 75.3898 28 75.3898 29.02H68.2698C68.1898 29.4 68.1698 29.82 68.1898 30.28C68.3298 32.18 69.8898 33.64 72.0098 33.72C73.1498 33.78 74.3298 33.34 75.0698 32.36L75.2698 32.6C74.3498 34.3 72.5298 35.12 70.6698 35.12C68.2698 35.12 66.1298 33.36 66.0898 30.66ZM71.2698 26.28C69.8298 26.28 68.7698 27.16 68.3698 28.52H73.3698C73.3698 28.52 73.1898 26.3 71.2698 26.28ZM79.0438 35.14C77.7438 35.14 76.4238 34.34 76.5037 32.9C76.6638 30.2 80.6438 30.72 82.3638 28.94V28.22C82.3638 26.94 81.5438 26.5 80.6238 26.5C80.3038 26.5 79.9838 26.56 79.6638 26.64L77.2038 29.24L77.1838 25.96L78.1038 26.54C79.0438 26.24 79.9838 26.04 80.7638 26C82.6038 25.92 84.4438 26.66 84.4838 28.78V33.72C84.4838 34.7 85.2638 34.74 85.2838 34.74V35H83.3838L82.4038 33.92L82.3638 33.3C81.7038 34.08 80.4838 35.14 79.0438 35.14ZM79.0638 32.54C79.0238 33.4 79.5838 33.9 80.3438 33.9C80.9638 33.9 81.7038 33.56 82.3638 32.84V29.62C80.9438 30.48 79.1438 30.96 79.0638 32.54ZM87.0522 26.54H85.6922V26.14H85.8722C87.1522 26.04 87.7122 25.08 87.7122 24.32C87.7122 23.64 87.4322 23.3 87.0522 23.3V23.08H89.2322C89.9522 24.62 88.5722 25.86 87.4322 26.14H91.3722V26.54H89.1522V31.66C89.1522 33.6 89.6322 34.42 90.4322 34.64C90.4522 34.64 91.3922 32.58 91.3922 32.58L91.5522 35H90.0922C88.7322 35 87.0522 34.42 87.0522 31.66V26.54ZM92.4947 26.38V26.14H95.5947V33.58C95.5947 34.28 95.9347 34.68 96.5947 34.74V35H93.4947V27.54C93.4947 26.84 93.1547 26.46 92.4947 26.38ZM92.9147 23.22L94.3747 21.78L95.8147 23.22L94.3747 24.68L92.9147 23.22ZM97.3556 35V34.74C97.3556 34.74 98.3356 34.7 98.3356 33.6V27.56C98.3356 26.82 98.0156 26.42 97.3556 26.38V26.14H99.4156L100.236 27.12L100.316 28.62C100.696 27.84 101.556 26.04 103.376 26.04C104.876 26.04 106.196 27.08 106.196 29.32V33.58V33.62C106.196 34.34 106.516 34.72 107.176 34.74V35H104.096V29.36C104.096 27.66 103.676 26.94 102.756 26.94C101.476 26.94 100.716 28.6 100.436 29.34V33.7L101.556 35H97.3556ZM107.726 37.24C107.726 35.6 109.206 34.66 109.806 34.38C108.706 33.68 107.846 32.48 107.846 30.72C107.846 27.54 110.666 26 112.886 26C113.826 26 114.906 26.3 115.766 26.96L116.146 25.22H118.066L116.246 27.3C117.026 28.02 117.586 29.06 117.586 30.42C117.586 33.54 114.706 35.18 112.446 35.18C111.706 35.18 110.886 34.98 110.166 34.6C109.666 34.84 108.466 35.56 108.506 36.72C108.526 37.32 108.786 37.56 109.186 37.56C110.486 37.56 113.326 35.36 115.346 35.36C117.906 35.36 118.106 38.18 116.546 39.64H113.446C113.446 39.64 116.126 37.76 116.126 36.44C116.126 36.04 115.866 35.7 115.386 35.7C113.726 35.7 111.966 39.64 109.746 39.64C108.466 39.64 107.726 38.4 107.726 37.24ZM110.906 26.96C108.386 29.1 110.406 34.44 113.526 34.44C113.906 34.44 114.306 34.36 114.706 34.2C117.186 31.96 114.846 26.76 111.886 26.76C111.566 26.76 111.226 26.82 110.906 26.96ZM175.489 35.14C174.189 35.14 172.869 34.34 172.949 32.9C173.109 30.2 177.089 30.72 178.809 28.94V28.22C178.809 26.94 177.989 26.5 177.069 26.5C176.749 26.5 176.429 26.56 176.109 26.64L173.649 29.24L173.629 25.96L174.549 26.54C175.489 26.24 176.429 26.04 177.209 26C179.049 25.92 180.889 26.66 180.929 28.78V33.72C180.929 34.7 181.709 34.74 181.729 34.74V35H179.829L178.849 33.92L178.809 33.3C178.149 34.08 176.929 35.14 175.489 35.14ZM175.509 32.54C175.469 33.4 176.029 33.9 176.789 33.9C177.409 33.9 178.149 33.56 178.809 32.84V29.62C177.389 30.48 175.589 30.96 175.509 32.54ZM188.556 33.3C188.556 31.36 182.876 31.84 182.876 28.56C182.876 26.88 184.756 26 186.256 26C187.156 26 187.936 26.14 188.756 26.4L189.716 25.96V29.22L187.236 26.5C186.916 26.4 186.596 26.36 186.276 26.36C185.216 26.36 184.336 26.92 184.336 27.7C184.336 29.9 190.116 29.64 190.116 32.56C190.116 33.98 188.816 35.16 186.756 35.16C185.716 35.16 184.636 34.84 183.876 34.6L182.936 34.96L182.956 31.74L185.376 34.4C185.896 34.6 186.376 34.7 186.796 34.7C187.896 34.7 188.556 34.06 188.556 33.3ZM196.516 35V34.74C196.516 34.74 197.496 34.7 197.496 33.6V27.56C197.496 26.82 197.176 26.42 196.516 26.38V26.14H198.576L199.396 27.12L199.476 28.62C199.856 27.84 200.716 26.04 202.536 26.04C204.036 26.04 205.356 27.08 205.356 29.32V33.58V33.62C205.356 34.34 205.676 34.72 206.336 34.74V35H203.256V29.36C203.256 27.66 202.836 26.94 201.916 26.94C200.636 26.94 199.876 28.6 199.596 29.34V33.7L200.716 35H196.516ZM209.766 35.14C208.466 35.14 207.146 34.34 207.226 32.9C207.386 30.2 211.366 30.72 213.086 28.94V28.22C213.086 26.94 212.266 26.5 211.346 26.5C211.026 26.5 210.706 26.56 210.386 26.64L207.926 29.24L207.906 25.96L208.826 26.54C209.766 26.24 210.706 26.04 211.486 26C213.326 25.92 215.166 26.66 215.206 28.78V33.72C215.206 34.7 215.986 34.74 216.006 34.74V35H214.106L213.126 33.92L213.086 33.3C212.426 34.08 211.206 35.14 209.766 35.14ZM209.786 32.54C209.746 33.4 210.306 33.9 211.066 33.9C211.686 33.9 212.426 33.56 213.086 32.84V29.62C211.666 30.48 209.866 30.96 209.786 32.54ZM217.775 26.54H216.415V26.14H216.595C217.875 26.04 218.435 25.08 218.435 24.32C218.435 23.64 218.155 23.3 217.775 23.3V23.08H219.955C220.675 24.62 219.295 25.86 218.155 26.14H222.095V26.54H219.875V31.66C219.875 33.6 220.355 34.42 221.155 34.64C221.175 34.64 222.115 32.58 222.115 32.58L222.275 35H220.815C219.455 35 217.775 34.42 217.775 31.66V26.54ZM222.977 26.38V26.14H226.057V31.5C226.057 33.18 226.317 34.26 227.477 34.26C228.737 34.26 229.377 32.92 229.697 32.26V27.52C229.697 26.8 229.377 26.42 228.717 26.38V26.14H231.797V33.56C231.797 34.3 232.117 34.7 232.777 34.74V34.98H230.717L229.877 33.94C229.857 33.82 229.837 33.12 229.797 32.94C229.437 33.68 228.577 35 226.957 35C225.277 35 223.957 33.64 223.957 31.56V27.56C223.957 26.82 223.637 26.42 222.977 26.38ZM233.568 26.38V26.14H235.648L236.468 27.14L236.548 28.38C236.648 28.28 236.768 28.16 236.848 28.08C237.848 26.8 239.268 25.92 240.888 26.18L240.428 28.84L239.228 26.96C239.228 26.96 238.068 26.76 237.008 28.58C236.888 28.72 236.748 28.9 236.648 29.12V35H233.568V34.7C233.568 34.7 234.548 34.7 234.548 33.58V27.56C234.548 26.82 234.228 26.42 233.568 26.38ZM244.278 35.14C242.978 35.14 241.658 34.34 241.738 32.9C241.898 30.2 245.878 30.72 247.598 28.94V28.22C247.598 26.94 246.778 26.5 245.858 26.5C245.538 26.5 245.218 26.56 244.898 26.64L242.438 29.24L242.418 25.96L243.338 26.54C244.278 26.24 245.218 26.04 245.998 26C247.838 25.92 249.678 26.66 249.718 28.78V33.72C249.718 34.7 250.498 34.74 250.518 34.74V35H248.618L247.638 33.92L247.598 33.3C246.938 34.08 245.718 35.14 244.278 35.14ZM244.298 32.54C244.258 33.4 244.818 33.9 245.578 33.9C246.198 33.9 246.938 33.56 247.598 32.84V29.62C246.178 30.48 244.378 30.96 244.298 32.54ZM251.263 22.68V22.44H254.363V33.58C254.363 34.28 254.703 34.68 255.363 34.74V35H252.263V23.78C252.263 23.08 251.923 22.72 251.263 22.68ZM264.141 35.14C262.841 35.14 261.521 34.34 261.601 32.9C261.761 30.2 265.741 30.72 267.461 28.94V28.22C267.461 26.94 266.641 26.5 265.721 26.5C265.401 26.5 265.081 26.56 264.761 26.64L262.301 29.24L262.281 25.96L263.201 26.54C264.141 26.24 265.081 26.04 265.861 26C267.701 25.92 269.541 26.66 269.581 28.78V33.72C269.581 34.7 270.361 34.74 270.381 34.74V35H268.481L267.501 33.92L267.461 33.3C266.801 34.08 265.581 35.14 264.141 35.14ZM264.161 32.54C264.121 33.4 264.681 33.9 265.441 33.9C266.061 33.9 266.801 33.56 267.461 32.84V29.62C266.041 30.48 264.241 30.96 264.161 32.54ZM277.208 33.3C277.208 31.36 271.528 31.84 271.528 28.56C271.528 26.88 273.408 26 274.908 26C275.808 26 276.588 26.14 277.408 26.4L278.368 25.96V29.22L275.888 26.5C275.568 26.4 275.248 26.36 274.928 26.36C273.868 26.36 272.988 26.92 272.988 27.7C272.988 29.9 278.768 29.64 278.768 32.56C278.768 33.98 277.468 35.16 275.408 35.16C274.368 35.16 273.288 34.84 272.528 34.6L271.588 34.96L271.608 31.74L274.028 34.4C274.548 34.6 275.028 34.7 275.448 34.7C276.548 34.7 277.208 34.06 277.208 33.3ZM291.388 33.3C291.388 31.36 285.708 31.84 285.708 28.56C285.708 26.88 287.588 26 289.088 26C289.988 26 290.768 26.14 291.588 26.4L292.548 25.96V29.22L290.068 26.5C289.748 26.4 289.428 26.36 289.108 26.36C288.048 26.36 287.168 26.92 287.168 27.7C287.168 29.9 292.948 29.64 292.948 32.56C292.948 33.98 291.648 35.16 289.588 35.16C288.548 35.16 287.468 34.84 286.708 34.6L285.768 34.96L285.788 31.74L288.208 34.4C288.728 34.6 289.208 34.7 289.628 34.7C290.728 34.7 291.388 34.06 291.388 33.3ZM294.033 26.38V26.14H296.073L296.893 26.98L297.013 27.82C297.353 27.34 298.313 26.2 299.913 26.2C304.473 26.2 304.213 34.94 299.253 34.94C298.393 34.94 297.633 34.68 297.133 34.2V37.76L296.113 39H294.053V38.76C294.053 38.76 295.033 38.72 295.033 37.6V27.54C295.033 26.8 294.693 26.42 294.033 26.38ZM297.133 28.4V33.44C297.333 33.92 297.913 34.36 298.653 34.36C301.533 34.36 301.913 26.86 299.293 26.86C298.373 26.86 297.533 27.76 297.133 28.4ZM304.254 30.66C304.194 27.9 306.554 25.98 309.414 25.98C312.474 25.98 313.554 28 313.554 29.02H306.434C306.354 29.4 306.334 29.82 306.354 30.28C306.494 32.18 308.054 33.64 310.174 33.72C311.314 33.78 312.494 33.34 313.234 32.36L313.434 32.6C312.514 34.3 310.694 35.12 308.834 35.12C306.434 35.12 304.294 33.36 304.254 30.66ZM309.434 26.28C307.994 26.28 306.934 27.16 306.534 28.52H311.534C311.534 28.52 311.354 26.3 309.434 26.28ZM317.208 35.14C315.908 35.14 314.588 34.34 314.668 32.9C314.828 30.2 318.808 30.72 320.528 28.94V28.22C320.528 26.94 319.708 26.5 318.788 26.5C318.468 26.5 318.148 26.56 317.828 26.64L315.368 29.24L315.348 25.96L316.268 26.54C317.208 26.24 318.148 26.04 318.928 26C320.768 25.92 322.608 26.66 322.648 28.78V33.72C322.648 34.7 323.428 34.74 323.448 34.74V35H321.548L320.568 33.92L320.528 33.3C319.868 34.08 318.648 35.14 317.208 35.14ZM317.228 32.54C317.188 33.4 317.748 33.9 318.508 33.9C319.128 33.9 319.868 33.56 320.528 32.84V29.62C319.108 30.48 317.308 30.96 317.228 32.54ZM326.134 35H324.094V34.74C324.094 34.74 325.094 34.7 325.094 33.6V23.86C325.094 22.74 324.114 22.68 324.114 22.68V22.44H326.174L327.194 23.68V30.56L331.174 27.44L329.914 26.28V26.08H333.854L330.034 29.02L334.734 35H330.914V34.74C330.914 34.74 331.754 34.68 331.054 33.72L328.454 30.4L327.194 31.24V33.86L326.134 35ZM336.851 35.4L335.331 33.88L336.851 32.38L338.351 33.88L336.851 35.4Z" fill="white"/>
<path d="M123.398 26.14H127.078L127.138 26.38C127.138 26.38 125.978 26.72 126.358 27.8L128.778 34.24L130.698 28.4L129.098 26.14H131.998L129.058 35H126.878L123.398 26.14ZM132.241 26.38V26.14H135.341V33.58C135.341 34.28 135.681 34.68 136.341 34.74V35H133.241V27.54C133.241 26.84 132.901 26.46 132.241 26.38ZM132.661 23.22L134.121 21.78L135.561 23.22L134.121 24.68L132.661 23.22ZM141.029 26.34C141.889 26.34 142.649 26.62 143.149 27.1V23.86C143.149 22.74 142.169 22.68 142.169 22.68V22.44H144.229L145.249 23.68V33.6C145.249 34.48 145.969 34.74 146.249 34.74V35H144.209L143.429 34.22L143.329 33.38C143.029 33.86 142.069 35.1 140.369 35.1C135.809 35.1 136.069 26.34 141.029 26.34ZM141.089 34.3C142.009 34.3 142.789 33.5 143.149 32.9V28C142.969 27.48 142.209 26.96 141.429 26.96C138.549 26.96 138.469 34.3 141.089 34.3ZM147.105 30.66C147.045 27.9 149.405 25.98 152.265 25.98C155.325 25.98 156.405 28 156.405 29.02H149.285C149.205 29.4 149.185 29.82 149.205 30.28C149.345 32.18 150.905 33.64 153.025 33.72C154.165 33.78 155.345 33.34 156.085 32.36L156.285 32.6C155.365 34.3 153.545 35.12 151.685 35.12C149.285 35.12 147.145 33.36 147.105 30.66ZM152.285 26.28C150.845 26.28 149.785 27.16 149.385 28.52H154.385C154.385 28.52 154.205 26.3 152.285 26.28ZM157.359 30.7C157.359 27.54 160.039 26 162.159 26C164.119 26 166.639 27.44 166.639 30.42C166.639 33.54 164.099 35.18 161.819 35.18C159.839 35.18 157.359 33.8 157.359 30.7ZM160.279 27.02C157.939 29.08 159.799 34.36 162.759 34.36C163.119 34.36 163.499 34.3 163.879 34.12C166.239 31.76 164.099 26.82 161.279 26.82C160.939 26.82 160.619 26.88 160.279 27.02Z" fill="#DBFE01"/>
<defs>
<linearGradient id="paint0_linear_2544_11" x1="184.835" y1="29.5508" x2="80.1965" y2="14.5412" gradientUnits="userSpaceOnUse">
<stop stop-color="#1B57E6"/>
<stop offset="1" stop-color="#1B57E6" stop-opacity="0"/>
</linearGradient>
<linearGradient id="paint1_linear_2544_11" x1="59.7869" y1="8.16794e-07" x2="76.9966" y2="19.5781" gradientUnits="userSpaceOnUse">
<stop stop-color="#1B57E6"/>
<stop offset="1" stop-color="#1B57E6" stop-opacity="0"/>
</linearGradient>
</defs>
</svg>
