<svg width="890" height="288" viewBox="0 0 890 288" fill="none" xmlns="http://www.w3.org/2000/svg">
<path d="M853.773 47.4073C772.651 23.5053 687.636 64.8951 658.664 90.2457C725.209 70.78 799.451 96.7505 846.078 94.0344C922.129 87.244 881.84 58.121 853.773 47.4073Z" fill="#1B57E6"/>
<path d="M621.542 115.311C646.893 97.5654 676.016 78.7776 687.182 71.2327C630.143 86.6242 574.915 51.4815 567.672 46.9547C560.429 42.4278 538.7 17.9825 497.958 32.0159C465.364 43.2426 400.479 46.6529 372.11 46.9547C324.306 48.0411 253.656 25.2093 224.533 13.2885C246.262 28.861 286.853 87.5458 304.207 115.311C406.062 268.32 589.854 137.493 621.542 115.311Z" fill="url(#paint0_linear_1513_4)"/>
<path d="M193.753 36.09C227.071 39.7116 253.656 49.9563 262.559 54.9359C253.053 40.9025 231.143 11.025 205.068 1.9712C172.474 -9.34604 152.106 31.5631 193.753 36.09Z" fill="url(#paint1_linear_1513_4)"/>
<path d="M0 282.806C200.632 307.07 349.175 228.936 398.367 186.836L390.671 184.572C284.923 270.764 86.011 286.729 0 282.806Z" fill="#1B57E6"/>
<rect x="498" y="55" width="334" height="39" fill="#DBFE01" fill-opacity="0.65"/>
<path d="M259.44 94.12C251.8 94.12 247.12 87.76 247.12 81.32C247.12 74.88 251.36 68.68 259.4 68.68C261.16 68.68 263.24 69.12 264.84 69.44L266.6 68.6V75.96L262.92 70C261.72 69.56 260.56 69.32 259.4 69.32C253.6 69.32 250.88 74.12 251.12 79.16C251.36 84.84 255.4 91.4 262.08 91.56C264.36 91.6 266.52 90.56 267.88 88.48L268.28 89C266.52 92.48 263.08 94.12 259.44 94.12ZM270.121 76.76V76.28H274.281L275.921 78.28L276.081 80.76C276.281 80.56 276.521 80.32 276.681 80.16C278.681 77.6 281.521 75.84 284.761 76.36L283.841 81.68L281.441 77.92C281.441 77.92 279.121 77.52 277.001 81.16C276.761 81.44 276.481 81.8 276.281 82.24V94H270.121V93.4C270.121 93.4 272.081 93.4 272.081 91.16V79.12C272.081 77.64 271.441 76.84 270.121 76.76ZM286.18 85.32C286.06 79.8 290.78 75.96 296.5 75.96C302.62 75.96 304.78 80 304.78 82.04H290.54C290.38 82.8 290.34 83.64 290.38 84.56C290.66 88.36 293.78 91.28 298.02 91.44C300.3 91.56 302.66 90.68 304.14 88.72L304.54 89.2C302.7 92.6 299.06 94.24 295.34 94.24C290.54 94.24 286.26 90.72 286.18 85.32ZM296.54 76.56C293.66 76.56 291.54 78.32 290.74 81.04H300.74C300.74 81.04 300.38 76.6 296.54 76.56ZM312.088 94.28C309.488 94.28 306.848 92.68 307.007 89.8C307.328 84.4 315.288 85.44 318.728 81.88V80.44C318.728 77.88 317.088 77 315.248 77C314.608 77 313.968 77.12 313.328 77.28L308.408 82.48L308.368 75.92L310.208 77.08C312.088 76.48 313.968 76.08 315.528 76C319.208 75.84 322.888 77.32 322.968 81.56V91.44C322.968 93.4 324.528 93.48 324.568 93.48V94H320.768L318.808 91.84L318.728 90.6C317.408 92.16 314.968 94.28 312.088 94.28ZM312.128 89.08C312.048 90.8 313.168 91.8 314.688 91.8C315.928 91.8 317.408 91.12 318.728 89.68V83.24C315.888 84.96 312.288 85.92 312.128 89.08ZM328.104 77.08H325.384V76.28H325.744C328.304 76.08 329.424 74.16 329.424 72.64C329.424 71.28 328.864 70.6 328.104 70.6V70.16H332.464C333.904 73.24 331.144 75.72 328.864 76.28H336.744V77.08H332.304V87.32C332.304 91.2 333.264 92.84 334.864 93.28C334.904 93.28 336.784 89.16 336.784 89.16L337.104 94H334.184C331.464 94 328.104 92.84 328.104 87.32V77.08ZM338.989 76.76V76.28H345.189V91.16C345.189 92.56 345.869 93.36 347.189 93.48V94H340.989V79.08C340.989 77.68 340.309 76.92 338.989 76.76ZM339.829 70.44L342.749 67.56L345.629 70.44L342.749 73.36L339.829 70.44ZM348.711 94V93.48C348.711 93.48 350.671 93.4 350.671 91.2V79.12C350.671 77.64 350.031 76.84 348.711 76.76V76.28H352.831L354.471 78.24L354.631 81.24C355.391 79.68 357.111 76.08 360.751 76.08C363.751 76.08 366.391 78.16 366.391 82.64V91.16V91.24C366.391 92.68 367.031 93.44 368.351 93.48V94H362.191V82.72C362.191 79.32 361.351 77.88 359.511 77.88C356.951 77.88 355.431 81.2 354.871 82.68V91.4L357.111 94H348.711ZM369.453 98.48C369.453 95.2 372.413 93.32 373.613 92.76C371.413 91.36 369.693 88.96 369.693 85.44C369.693 79.08 375.333 76 379.773 76C381.653 76 383.813 76.6 385.533 77.92L386.293 74.44H390.133L386.493 78.6C388.053 80.04 389.173 82.12 389.173 84.84C389.173 91.08 383.413 94.36 378.893 94.36C377.413 94.36 375.773 93.96 374.333 93.2C373.333 93.68 370.933 95.12 371.013 97.44C371.053 98.64 371.573 99.12 372.373 99.12C374.973 99.12 380.653 94.72 384.693 94.72C389.813 94.72 390.213 100.36 387.093 103.28H380.893C380.893 103.28 386.253 99.52 386.253 96.88C386.253 96.08 385.733 95.4 384.773 95.4C381.453 95.4 377.933 103.28 373.493 103.28C370.933 103.28 369.453 100.8 369.453 98.48ZM375.813 77.92C370.773 82.2 374.813 92.88 381.053 92.88C381.813 92.88 382.613 92.72 383.413 92.4C388.373 87.92 383.693 77.52 377.773 77.52C377.133 77.52 376.453 77.64 375.813 77.92ZM504.978 94.28C502.378 94.28 499.738 92.68 499.898 89.8C500.218 84.4 508.178 85.44 511.618 81.88V80.44C511.618 77.88 509.978 77 508.138 77C507.498 77 506.858 77.12 506.218 77.28L501.298 82.48L501.258 75.92L503.098 77.08C504.978 76.48 506.858 76.08 508.418 76C512.098 75.84 515.778 77.32 515.858 81.56V91.44C515.858 93.4 517.418 93.48 517.458 93.48V94H513.658L511.698 91.84L511.618 90.6C510.298 92.16 507.858 94.28 504.978 94.28ZM505.018 89.08C504.938 90.8 506.058 91.8 507.578 91.8C508.818 91.8 510.298 91.12 511.618 89.68V83.24C508.778 84.96 505.178 85.92 505.018 89.08ZM531.112 90.6C531.112 86.72 519.752 87.68 519.752 81.12C519.752 77.76 523.512 76 526.512 76C528.312 76 529.872 76.28 531.512 76.8L533.432 75.92V82.44L528.472 77C527.832 76.8 527.192 76.72 526.552 76.72C524.432 76.72 522.672 77.84 522.672 79.4C522.672 83.8 534.232 83.28 534.232 89.12C534.232 91.96 531.632 94.32 527.512 94.32C525.432 94.32 523.272 93.68 521.752 93.2L519.872 93.92L519.912 87.48L524.752 92.8C525.792 93.2 526.752 93.4 527.592 93.4C529.792 93.4 531.112 92.12 531.112 90.6ZM547.032 94V93.48C547.032 93.48 548.992 93.4 548.992 91.2V79.12C548.992 77.64 548.352 76.84 547.032 76.76V76.28H551.152L552.792 78.24L552.952 81.24C553.712 79.68 555.432 76.08 559.072 76.08C562.072 76.08 564.712 78.16 564.712 82.64V91.16V91.24C564.712 92.68 565.352 93.44 566.672 93.48V94H560.512V82.72C560.512 79.32 559.672 77.88 557.832 77.88C555.272 77.88 553.752 81.2 553.192 82.68V91.4L555.432 94H547.032ZM573.533 94.28C570.933 94.28 568.293 92.68 568.453 89.8C568.773 84.4 576.733 85.44 580.173 81.88V80.44C580.173 77.88 578.533 77 576.693 77C576.053 77 575.413 77.12 574.773 77.28L569.853 82.48L569.813 75.92L571.653 77.08C573.533 76.48 575.413 76.08 576.973 76C580.653 75.84 584.333 77.32 584.413 81.56V91.44C584.413 93.4 585.973 93.48 586.013 93.48V94H582.213L580.253 91.84L580.173 90.6C578.853 92.16 576.413 94.28 573.533 94.28ZM573.573 89.08C573.493 90.8 574.613 91.8 576.133 91.8C577.373 91.8 578.853 91.12 580.173 89.68V83.24C577.333 84.96 573.733 85.92 573.573 89.08ZM589.55 77.08H586.83V76.28H587.19C589.75 76.08 590.87 74.16 590.87 72.64C590.87 71.28 590.31 70.6 589.55 70.6V70.16H593.91C595.35 73.24 592.59 75.72 590.31 76.28H598.19V77.08H593.75V87.32C593.75 91.2 594.71 92.84 596.31 93.28C596.35 93.28 598.23 89.16 598.23 89.16L598.55 94H595.63C592.91 94 589.55 92.84 589.55 87.32V77.08ZM599.955 76.76V76.28H606.115V87C606.115 90.36 606.635 92.52 608.955 92.52C611.475 92.52 612.755 89.84 613.395 88.52V79.04C613.395 77.6 612.755 76.84 611.435 76.76V76.28H617.595V91.12C617.595 92.6 618.235 93.4 619.555 93.48V93.96H615.435L613.755 91.88C613.715 91.64 613.675 90.24 613.595 89.88C612.875 91.36 611.155 94 607.915 94C604.555 94 601.915 91.28 601.915 87.12V79.12C601.915 77.64 601.275 76.84 599.955 76.76ZM621.137 76.76V76.28H625.297L626.937 78.28L627.097 80.76C627.297 80.56 627.537 80.32 627.697 80.16C629.697 77.6 632.537 75.84 635.777 76.36L634.857 81.68L632.457 77.92C632.457 77.92 630.137 77.52 628.017 81.16C627.777 81.44 627.497 81.8 627.297 82.24V94H621.137V93.4C621.137 93.4 623.097 93.4 623.097 91.16V79.12C623.097 77.64 622.457 76.84 621.137 76.76ZM642.556 94.28C639.956 94.28 637.316 92.68 637.476 89.8C637.796 84.4 645.756 85.44 649.196 81.88V80.44C649.196 77.88 647.556 77 645.716 77C645.076 77 644.436 77.12 643.796 77.28L638.876 82.48L638.836 75.92L640.676 77.08C642.556 76.48 644.436 76.08 645.996 76C649.676 75.84 653.356 77.32 653.436 81.56V91.44C653.436 93.4 654.996 93.48 655.036 93.48V94H651.236L649.276 91.84L649.196 90.6C647.876 92.16 645.436 94.28 642.556 94.28ZM642.596 89.08C642.516 90.8 643.636 91.8 645.156 91.8C646.396 91.8 647.876 91.12 649.196 89.68V83.24C646.356 84.96 642.756 85.92 642.596 89.08ZM656.527 69.36V68.88H662.727V91.16C662.727 92.56 663.407 93.36 664.727 93.48V94H658.527V71.56C658.527 70.16 657.847 69.44 656.527 69.36ZM682.283 94.28C679.683 94.28 677.043 92.68 677.203 89.8C677.523 84.4 685.483 85.44 688.923 81.88V80.44C688.923 77.88 687.283 77 685.443 77C684.803 77 684.163 77.12 683.523 77.28L678.603 82.48L678.563 75.92L680.403 77.08C682.283 76.48 684.163 76.08 685.723 76C689.403 75.84 693.083 77.32 693.163 81.56V91.44C693.163 93.4 694.723 93.48 694.763 93.48V94H690.963L689.003 91.84L688.923 90.6C687.603 92.16 685.163 94.28 682.283 94.28ZM682.323 89.08C682.243 90.8 683.363 91.8 684.883 91.8C686.123 91.8 687.603 91.12 688.923 89.68V83.24C686.083 84.96 682.483 85.92 682.323 89.08ZM708.417 90.6C708.417 86.72 697.057 87.68 697.057 81.12C697.057 77.76 700.817 76 703.817 76C705.617 76 707.177 76.28 708.817 76.8L710.737 75.92V82.44L705.777 77C705.137 76.8 704.497 76.72 703.857 76.72C701.737 76.72 699.977 77.84 699.977 79.4C699.977 83.8 711.537 83.28 711.537 89.12C711.537 91.96 708.937 94.32 704.817 94.32C702.737 94.32 700.577 93.68 699.057 93.2L697.177 93.92L697.217 87.48L702.057 92.8C703.097 93.2 704.057 93.4 704.897 93.4C707.097 93.4 708.417 92.12 708.417 90.6ZM736.776 90.6C736.776 86.72 725.416 87.68 725.416 81.12C725.416 77.76 729.176 76 732.176 76C733.976 76 735.536 76.28 737.176 76.8L739.096 75.92V82.44L734.136 77C733.496 76.8 732.856 76.72 732.216 76.72C730.096 76.72 728.336 77.84 728.336 79.4C728.336 83.8 739.896 83.28 739.896 89.12C739.896 91.96 737.296 94.32 733.176 94.32C731.096 94.32 728.936 93.68 727.416 93.2L725.536 93.92L725.576 87.48L730.416 92.8C731.456 93.2 732.416 93.4 733.256 93.4C735.456 93.4 736.776 92.12 736.776 90.6ZM742.065 76.76V76.28H746.145L747.785 77.96L748.025 79.64C748.705 78.68 750.625 76.4 753.825 76.4C762.945 76.4 762.425 93.88 752.505 93.88C750.785 93.88 749.265 93.36 748.265 92.4V99.52L746.225 102H742.105V101.52C742.105 101.52 744.065 101.44 744.065 99.2V79.08C744.065 77.6 743.385 76.84 742.065 76.76ZM748.265 80.8V90.88C748.665 91.84 749.825 92.72 751.305 92.72C757.065 92.72 757.825 77.72 752.585 77.72C750.745 77.72 749.065 79.52 748.265 80.8ZM762.508 85.32C762.388 79.8 767.108 75.96 772.828 75.96C778.948 75.96 781.108 80 781.108 82.04H766.868C766.708 82.8 766.668 83.64 766.708 84.56C766.988 88.36 770.108 91.28 774.348 91.44C776.628 91.56 778.988 90.68 780.468 88.72L780.868 89.2C779.028 92.6 775.388 94.24 771.668 94.24C766.868 94.24 762.588 90.72 762.508 85.32ZM772.868 76.56C769.988 76.56 767.868 78.32 767.068 81.04H777.068C777.068 81.04 776.708 76.6 772.868 76.56ZM788.416 94.28C785.816 94.28 783.176 92.68 783.336 89.8C783.656 84.4 791.616 85.44 795.056 81.88V80.44C795.056 77.88 793.416 77 791.576 77C790.936 77 790.296 77.12 789.656 77.28L784.736 82.48L784.696 75.92L786.536 77.08C788.416 76.48 790.296 76.08 791.856 76C795.536 75.84 799.216 77.32 799.296 81.56V91.44C799.296 93.4 800.856 93.48 800.896 93.48V94H797.096L795.136 91.84L795.056 90.6C793.736 92.16 791.296 94.28 788.416 94.28ZM788.456 89.08C788.376 90.8 789.496 91.8 791.016 91.8C792.256 91.8 793.736 91.12 795.056 89.68V83.24C792.216 84.96 788.616 85.92 788.456 89.08ZM806.268 94H802.188V93.48C802.188 93.48 804.188 93.4 804.188 91.2V71.72C804.188 69.48 802.228 69.36 802.228 69.36V68.88H806.348L808.388 71.36V85.12L816.348 78.88L813.828 76.56V76.16H821.708L814.068 82.04L823.468 94H815.828V93.48C815.828 93.48 817.508 93.36 816.108 91.44L810.908 84.8L808.388 86.48V91.72L806.268 94ZM827.702 94.8L824.662 91.76L827.702 88.76L830.702 91.76L827.702 94.8Z" fill="white"/>
<path d="M400.795 76.28H408.155L408.275 76.76C408.275 76.76 405.955 77.44 406.715 79.6L411.555 92.48L415.395 80.8L412.195 76.28H417.995L412.115 94H407.755L400.795 76.28ZM418.482 76.76V76.28H424.682V91.16C424.682 92.56 425.362 93.36 426.682 93.48V94H420.482V79.08C420.482 77.68 419.802 76.92 418.482 76.76ZM419.322 70.44L422.242 67.56L425.122 70.44L422.242 73.36L419.322 70.44ZM436.058 76.68C437.778 76.68 439.298 77.24 440.298 78.2V71.72C440.298 69.48 438.338 69.36 438.338 69.36V68.88H442.458L444.498 71.36V91.2C444.498 92.96 445.938 93.48 446.498 93.48V94H442.418L440.858 92.44L440.658 90.76C440.058 91.72 438.138 94.2 434.738 94.2C425.618 94.2 426.137 76.68 436.058 76.68ZM436.178 92.6C438.018 92.6 439.578 91 440.298 89.8V80C439.938 78.96 438.418 77.92 436.858 77.92C431.098 77.92 430.938 92.6 436.178 92.6ZM448.211 85.32C448.091 79.8 452.811 75.96 458.531 75.96C464.651 75.96 466.811 80 466.811 82.04H452.571C452.411 82.8 452.371 83.64 452.411 84.56C452.691 88.36 455.811 91.28 460.051 91.44C462.331 91.56 464.691 90.68 466.171 88.72L466.571 89.2C464.731 92.6 461.091 94.24 457.371 94.24C452.571 94.24 448.291 90.72 448.211 85.32ZM458.571 76.56C455.691 76.56 453.571 78.32 452.771 81.04H462.771C462.771 81.04 462.411 76.6 458.571 76.56ZM468.719 85.4C468.719 79.08 474.079 76 478.319 76C482.239 76 487.279 78.88 487.279 84.84C487.279 91.08 482.199 94.36 477.639 94.36C473.679 94.36 468.719 91.6 468.719 85.4ZM474.559 78.04C469.879 82.16 473.599 92.72 479.519 92.72C480.239 92.72 480.999 92.6 481.759 92.24C486.479 87.52 482.199 77.64 476.559 77.64C475.879 77.64 475.239 77.76 474.559 78.04Z" fill="#DBFE01"/>
<defs>
<linearGradient id="paint0_linear_1513_4" x1="598.002" y1="93.5817" x2="266.633" y2="46.0493" gradientUnits="userSpaceOnUse">
<stop stop-color="#1B57E6"/>
<stop offset="1" stop-color="#1B57E6" stop-opacity="0"/>
</linearGradient>
<linearGradient id="paint1_linear_1513_4" x1="202" y1="2.58663e-06" x2="256.5" y2="62" gradientUnits="userSpaceOnUse">
<stop stop-color="#1B57E6"/>
<stop offset="1" stop-color="#1B57E6" stop-opacity="0"/>
</linearGradient>
</defs>
</svg>
