<svg width="132" height="129" viewBox="0 0 132 129" fill="none" xmlns="http://www.w3.org/2000/svg">
<g filter="url(#filter0_f_2436_170)">
<path d="M101.992 68.4092L101.279 76.4298L79.668 71.0147L101.992 68.4092Z" fill="#1D2087"/>
<path d="M30 76.8141L55.8692 73.7935L49.3691 83.103L30 76.8141Z" fill="#E95513"/>
<path opacity="0.6" d="M101.277 76.4296L93.08 57.3226L70.5723 52.7319L79.6662 71.0145L101.277 76.4296Z" fill="#F92F01"/>
<path opacity="0.7" d="M93.08 57.3227L86.4445 30L70.5723 52.732L93.08 57.3227Z" fill="#45A3FB"/>
<path d="M49.3691 83.1031L30 76.8143L60.036 31.5425L65.6666 59.7609L49.3691 83.1031Z" fill="#0112E8"/>
<path d="M60.0371 31.5425L70.5744 52.7321L65.6677 59.7609L60.0371 31.5425Z" fill="#45A3FB"/>
<path fill-rule="evenodd" clip-rule="evenodd" d="M98.3241 98.9997L83.2966 34.5103L65.668 59.7604L71.7049 90.3557L98.3241 98.9997ZM90.7093 90.708L80.7251 47.8616L71.5534 60.9985L76.5055 86.0957L90.7093 90.708Z" fill="#DBFE01"/>
<path d="M93.0807 57.3224L99.8429 86.0753L98.3224 98.9997L83.2949 34.5103L93.0807 57.3224Z" fill="#E4A819"/>
<path opacity="0.7" d="M93.0808 57.3227L86.4453 30L101.991 68.4091L101.278 76.4296L93.0808 57.3227Z" fill="#E5078C"/>
</g>
<path fill-rule="evenodd" clip-rule="evenodd" d="M101.277 76.4295L97.3434 75.4438L99.8438 86.0755L98.3233 98.9999L71.7041 90.3559L65.6672 59.7606L70.5734 52.7332L70.5732 52.7328L65.6672 59.7606L65.667 59.7608L60.0365 31.5424L70.5734 52.7313L86.445 30L93.0792 57.3169L93.0812 57.3217L86.446 30L101.992 68.4091L101.278 76.4296L101.278 76.4287L101.278 76.4296L101.277 76.4295ZM93.0818 57.3235L93.0829 57.3283L98.0347 68.8709L98.0355 68.8708L93.0818 57.3235ZM73.3817 58.3789L79.6668 71.0145L79.6672 71.0146L86.5195 72.7316L90.7085 90.7082L76.5047 86.0959L71.5526 60.9987L73.3817 58.3789ZM55.8689 73.7936L55.8692 73.7936L49.3691 83.1031L30 76.8142L60.036 31.5424L65.6666 59.7608L55.8689 73.7936Z" fill="white"/>
<defs>
<filter id="filter0_f_2436_170" x="0" y="0" width="131.992" height="129" filterUnits="userSpaceOnUse" color-interpolation-filters="sRGB">
<feFlood flood-opacity="0" result="BackgroundImageFix"/>
<feBlend mode="normal" in="SourceGraphic" in2="BackgroundImageFix" result="shape"/>
<feGaussianBlur stdDeviation="15" result="effect1_foregroundBlur_2436_170"/>
</filter>
</defs>
</svg>
