<svg xmlns="http://www.w3.org/2000/svg" xmlns:xlink="http://www.w3.org/1999/xlink" fill="none" version="1.1" width="14" height="14" viewBox="0 0 14 14"><defs><clipPath id="master_svg0_4547_18703"><rect x="0" y="0" width="14" height="14" rx="0"/></clipPath></defs><g style="mix-blend-mode:passthrough" clip-path="url(#master_svg0_4547_18703)"><g style="mix-blend-mode:passthrough"><path d="M1.75,7.0000440234375C1.75,6.3557080234375,2.272334,5.8333740234375,2.91667,5.8333740234375C3.561,5.8333740234375,4.08333,6.3557080234375,4.08333,7.0000440234375C4.08333,7.6443740234375,3.561,8.1667040234375,2.91667,8.1667040234375C2.272334,8.1667040234375,1.75,7.6443740234375,1.75,7.0000440234375C1.75,7.0000440234375,1.75,7.0000440234375,1.75,7.0000440234375ZM5.83333,7.0000440234375C5.83333,6.3557080234375,6.35567,5.8333740234375,7,5.8333740234375C7.64435,5.8333740234375,8.16667,6.3557080234375,8.16667,7.0000440234375C8.16667,7.6443740234375,7.64435,8.1667040234375,7,8.1667040234375C6.35567,8.1667040234375,5.83333,7.6443740234375,5.83333,7.0000440234375C5.83333,7.0000440234375,5.83333,7.0000440234375,5.83333,7.0000440234375ZM9.91667,7.0000440234375C9.91667,6.3557080234375,10.43898,5.8333740234375,11.08333,5.8333740234375C11.72768,5.8333740234375,12.25,6.3557080234375,12.25,7.0000440234375C12.25,7.6443740234375,11.72768,8.1667040234375,11.08333,8.1667040234375C10.43898,8.1667040234375,9.91667,7.6443740234375,9.91667,7.0000440234375C9.91667,7.0000440234375,9.91667,7.0000440234375,9.91667,7.0000440234375Z" fill-rule="evenodd" fill="#B3BBC7" fill-opacity="1"/></g></g></svg>