<svg width="440" height="128" viewBox="0 0 440 128" fill="none" xmlns="http://www.w3.org/2000/svg">
<path d="M17.368 2.232C22.872 2.232 27.8 3.832 30.488 4.856L28.76 17.016L22.488 5.24C22.488 5.24 21.336 3.512 17.24 3.512C12.12 3.512 7.448 6.2 7.448 11.512C7.448 15.544 10.136 18.424 19.48 21.752C24.216 23.416 31.96 26.68 31.96 33.144C31.96 39.032 25.432 43.384 15.64 43.384C10.52 43.384 5.4 42.68 2.2 41.848V29.368L10.136 40.824C10.136 40.824 12.056 41.976 15.96 41.976C21.336 41.976 25.816 39.864 25.816 35.96C25.816 30.968 18.328 28.792 13.912 27.192C5.976 24.184 1.048 20.216 1.048 14.008C1.048 6.136 8.92 2.232 17.368 2.232ZM33.9525 15.416V14.648H43.8085V31.8C43.8085 37.176 44.6405 40.632 48.3525 40.632C52.3845 40.632 54.4325 36.344 55.4565 34.232V19.064C55.4565 16.76 54.4325 15.544 52.3205 15.416V14.648H62.1765V38.392C62.1765 40.76 63.2005 42.04 65.3125 42.168V42.936H58.7205L56.0325 39.608C55.9685 39.224 55.9045 36.984 55.7765 36.408C54.6245 38.776 51.8725 43 46.6885 43C41.3125 43 37.0885 38.648 37.0885 31.992V19.192C37.0885 16.824 36.0645 15.544 33.9525 15.416ZM66.579 15.416V14.648H73.107L75.731 17.336L76.115 20.024C77.203 18.488 80.275 14.84 85.395 14.84C99.987 14.84 99.155 42.808 83.283 42.808C80.531 42.808 78.099 41.976 76.499 40.44V51.832L73.235 55.8H66.643V55.032C66.643 55.032 69.779 54.904 69.779 51.32V19.128C69.779 16.76 68.691 15.544 66.579 15.416ZM76.499 21.88V38.008C77.139 39.544 78.995 40.952 81.363 40.952C90.579 40.952 91.795 16.952 83.411 16.952C80.467 16.952 77.779 19.832 76.499 21.88ZM98.3915 15.416V14.648H104.92L107.544 17.336L107.928 20.024C109.016 18.488 112.088 14.84 117.208 14.84C131.8 14.84 130.968 42.808 115.096 42.808C112.344 42.808 109.912 41.976 108.312 40.44V51.832L105.048 55.8H98.4555V55.032C98.4555 55.032 101.592 54.904 101.592 51.32V19.128C101.592 16.76 100.504 15.544 98.3915 15.416ZM108.312 21.88V38.008C108.952 39.544 110.808 40.952 113.176 40.952C122.392 40.952 123.608 16.952 115.224 16.952C112.28 16.952 109.592 19.832 108.312 21.88ZM131.6 29.24C131.6 19.128 140.176 14.2 146.96 14.2C153.232 14.2 161.296 18.808 161.296 28.344C161.296 38.328 153.168 43.576 145.872 43.576C139.536 43.576 131.6 39.16 131.6 29.24ZM140.944 17.464C133.456 24.056 139.408 40.952 148.88 40.952C150.032 40.952 151.248 40.76 152.464 40.184C160.016 32.632 153.168 16.824 144.144 16.824C143.056 16.824 142.032 17.016 140.944 17.464ZM164.094 15.416V14.648H170.75L173.374 17.848L173.63 21.816C173.95 21.496 174.334 21.112 174.59 20.856C177.79 16.76 182.334 13.944 187.518 14.776L186.046 23.288L182.206 17.272C182.206 17.272 178.494 16.632 175.102 22.456C174.718 22.904 174.27 23.48 173.95 24.184V43H164.094V42.04C164.094 42.04 167.23 42.04 167.23 38.456V19.192C167.23 16.824 166.206 15.544 164.094 15.416ZM193.867 15.928H189.515V14.648H190.091C194.187 14.328 195.979 11.256 195.979 8.824C195.979 6.648 195.083 5.56 193.867 5.56V4.856H200.843C203.147 9.784 198.731 13.752 195.083 14.648H207.691V15.928H200.587V32.312C200.587 38.52 202.123 41.144 204.683 41.848C204.747 41.848 207.755 35.256 207.755 35.256L208.267 43H203.595C199.243 43 193.867 41.144 193.867 32.312V15.928ZM180.85 99.112C180.658 90.28 188.21 84.136 197.362 84.136C207.154 84.136 210.61 90.6 210.61 93.864H187.826C187.57 95.08 187.506 96.424 187.57 97.896C188.018 103.976 193.01 108.648 199.794 108.904C203.442 109.096 207.218 107.688 209.586 104.552L210.226 105.32C207.282 110.76 201.458 113.384 195.506 113.384C187.826 113.384 180.978 107.752 180.85 99.112ZM197.426 85.096C192.818 85.096 189.426 87.912 188.146 92.264H204.146C204.146 92.264 203.57 85.16 197.426 85.096ZM226.655 85.288C229.407 85.288 231.839 86.184 233.439 87.72V77.352C233.439 73.768 230.303 73.576 230.303 73.576V72.808H236.895L240.159 76.776V108.52C240.159 111.336 242.463 112.168 243.359 112.168V113H236.831L234.335 110.504L234.015 107.816C233.055 109.352 229.983 113.32 224.543 113.32C209.951 113.32 210.782 85.288 226.655 85.288ZM226.847 110.76C229.791 110.76 232.287 108.2 233.439 106.28V90.6C232.863 88.936 230.431 87.272 227.935 87.272C218.719 87.272 218.463 110.76 226.847 110.76ZM245.908 85.416V84.648H255.828V108.456C255.828 110.696 256.916 111.976 259.028 112.168V113H249.108V89.128C249.108 86.888 248.02 85.672 245.908 85.416ZM247.252 75.304L251.924 70.696L256.532 75.304L251.924 79.976L247.252 75.304ZM265.367 85.928H261.015V84.648H261.591C265.687 84.328 267.479 81.256 267.479 78.824C267.479 76.648 266.583 75.56 265.367 75.56V74.856H272.343C274.647 79.784 270.231 83.752 266.583 84.648H279.191V85.928H272.087V102.312C272.087 108.52 273.623 111.144 276.183 111.848C276.247 111.848 279.255 105.256 279.255 105.256L279.767 113H275.095C270.743 113 265.367 111.144 265.367 102.312V85.928ZM282.783 85.416V84.648H292.703V108.456C292.703 110.696 293.791 111.976 295.903 112.168V113H285.983V89.128C285.983 86.888 284.895 85.672 282.783 85.416ZM284.127 75.304L288.799 70.696L293.407 75.304L288.799 79.976L284.127 75.304ZM298.338 113V112.168C298.338 112.168 301.474 112.04 301.474 108.52V89.192C301.474 86.824 300.45 85.544 298.338 85.416V84.648H304.93L307.554 87.784L307.81 92.584C309.026 90.088 311.778 84.328 317.602 84.328C322.402 84.328 326.626 87.656 326.626 94.824V108.456V108.584C326.626 110.888 327.65 112.104 329.762 112.168V113H319.906V94.952C319.906 89.512 318.562 87.208 315.618 87.208C311.522 87.208 309.09 92.52 308.194 94.888V108.84L311.778 113H298.338ZM331.524 120.168C331.524 114.92 336.26 111.912 338.18 111.016C334.66 108.776 331.908 104.936 331.908 99.304C331.908 89.128 340.932 84.2 348.036 84.2C351.044 84.2 354.5 85.16 357.252 87.272L358.468 81.704H364.612L358.788 88.36C361.284 90.664 363.076 93.992 363.076 98.344C363.076 108.328 353.86 113.576 346.628 113.576C344.26 113.576 341.636 112.936 339.332 111.72C337.732 112.488 333.892 114.792 334.02 118.504C334.084 120.424 334.916 121.192 336.196 121.192C340.356 121.192 349.444 114.152 355.908 114.152C364.1 114.152 364.74 123.176 359.748 127.848H349.828C349.828 127.848 358.404 121.832 358.404 117.608C358.404 116.328 357.572 115.24 356.036 115.24C350.724 115.24 345.092 127.848 337.988 127.848C333.892 127.848 331.524 123.88 331.524 120.168ZM341.7 87.272C333.636 94.12 340.1 111.208 350.084 111.208C351.3 111.208 352.58 110.952 353.86 110.44C361.796 103.272 354.308 86.632 344.836 86.632C343.812 86.632 342.724 86.824 341.7 87.272Z" fill="white"/>
<path d="M227.908 43V42.168C227.908 42.168 231.044 42.04 231.044 38.52V19.192C231.044 16.824 230.02 15.544 227.908 15.416V14.648H234.564L237.252 17.912L237.38 20.6C238.596 17.976 241.156 14.328 246.34 14.328C249.732 14.328 253.444 16.312 254.532 20.664C255.62 18.104 258.372 14.328 263.62 14.328C268.612 14.328 273.028 18.168 273.092 25.08V38.456C273.092 40.824 274.116 42.104 276.228 42.168V43H266.436V25.528C266.436 20.216 265.348 16.888 261.956 16.888C258.5 16.888 256.132 19.896 254.98 22.2C255.428 23.16 255.62 25.272 255.62 26.168V38.904L258.82 43H245.252V42.168C245.252 42.168 248.964 41.72 248.964 38.2V25.528C248.964 20.28 247.94 16.76 244.74 16.76C241.092 16.76 238.788 19.896 237.764 22.392V39.352L234.436 43H227.908ZM276.89 15.416V14.648H286.746V31.8C286.746 37.176 287.578 40.632 291.29 40.632C295.322 40.632 297.37 36.344 298.394 34.232V19.064C298.394 16.76 297.37 15.544 295.258 15.416V14.648H305.114V38.392C305.114 40.76 306.138 42.04 308.25 42.168V42.936H301.658L298.97 39.608C298.906 39.224 298.842 36.984 298.714 36.408C297.562 38.776 294.81 43 289.626 43C284.25 43 280.026 38.648 280.026 31.992V19.192C280.026 16.824 279.002 15.544 276.89 15.416ZM310.718 3.576V2.808H320.638V38.456C320.638 40.696 321.726 41.976 323.838 42.168V43H313.918V7.096C313.918 4.856 312.83 3.704 310.718 3.576ZM330.055 15.928H325.703V14.648H326.279C330.375 14.328 332.167 11.256 332.167 8.824C332.167 6.648 331.271 5.56 330.055 5.56V4.856H337.031C339.335 9.784 334.919 13.752 331.271 14.648H343.878V15.928H336.775V32.312C336.775 38.52 338.311 41.144 340.871 41.848C340.935 41.848 343.943 35.256 343.943 35.256L344.455 43H339.783C335.431 43 330.055 41.144 330.055 32.312V15.928ZM347.471 15.416V14.648H357.391V38.456C357.391 40.696 358.479 41.976 360.591 42.168V43H350.671V19.128C350.671 16.888 349.583 15.672 347.471 15.416ZM348.815 5.304L353.487 0.695999L358.095 5.304L353.487 9.976L348.815 5.304ZM362.642 15.416V14.648H369.17L371.794 17.336L372.178 20.024C373.266 18.488 376.338 14.84 381.458 14.84C396.05 14.84 395.218 42.808 379.346 42.808C376.594 42.808 374.162 41.976 372.562 40.44V51.832L369.298 55.8H362.706V55.032C362.706 55.032 365.842 54.904 365.842 51.32V19.128C365.842 16.76 364.754 15.544 362.642 15.416ZM372.562 21.88V38.008C373.202 39.544 375.058 40.952 377.426 40.952C386.642 40.952 387.858 16.952 379.474 16.952C376.53 16.952 373.842 19.832 372.562 21.88ZM393.78 3.576V2.808H403.7V38.456C403.7 40.696 404.788 41.976 406.9 42.168V43H396.98V7.096C396.98 4.856 395.892 3.704 393.78 3.576ZM409.725 29.112C409.533 20.28 417.085 14.136 426.237 14.136C436.029 14.136 439.485 20.6 439.485 23.864H416.701C416.445 25.08 416.381 26.424 416.445 27.896C416.893 33.976 421.885 38.648 428.669 38.904C432.317 39.096 436.093 37.688 438.461 34.552L439.101 35.32C436.157 40.76 430.333 43.384 424.381 43.384C416.701 43.384 409.853 37.752 409.725 29.112ZM426.301 15.096C421.693 15.096 418.301 17.912 417.021 22.264H433.021C433.021 22.264 432.445 15.16 426.301 15.096ZM0.408 113V112.168C0.408 112.168 3.544 112.04 3.544 108.52V89.192C3.544 86.824 2.52 85.544 0.408 85.416V84.648H7.064L9.752 87.912L9.88 90.6C11.096 87.976 13.656 84.328 18.84 84.328C22.232 84.328 25.944 86.312 27.032 90.664C28.12 88.104 30.872 84.328 36.12 84.328C41.112 84.328 45.528 88.168 45.592 95.08V108.456C45.592 110.824 46.616 112.104 48.728 112.168V113H38.936V95.528C38.936 90.216 37.848 86.888 34.456 86.888C31 86.888 28.632 89.896 27.48 92.2C27.928 93.16 28.12 95.272 28.12 96.168V108.904L31.32 113H17.752V112.168C17.752 112.168 21.464 111.72 21.464 108.2V95.528C21.464 90.28 20.44 86.76 17.24 86.76C13.592 86.76 11.288 89.896 10.264 92.392V109.352L6.936 113H0.408ZM51.2875 99.112C51.0955 90.28 58.6475 84.136 67.7995 84.136C77.5915 84.136 81.0475 90.6 81.0475 93.864H58.2635C58.0075 95.08 57.9435 96.424 58.0075 97.896C58.4555 103.976 63.4475 108.648 70.2315 108.904C73.8795 109.096 77.6555 107.688 80.0235 104.552L80.6635 105.32C77.7195 110.76 71.8955 113.384 65.9435 113.384C58.2635 113.384 51.4155 107.752 51.2875 99.112ZM67.8635 85.096C63.2555 85.096 59.8635 87.912 58.5835 92.264H74.5835C74.5835 92.264 74.0075 85.16 67.8635 85.096ZM97.092 85.288C99.844 85.288 102.276 86.184 103.876 87.72V77.352C103.876 73.768 100.74 73.576 100.74 73.576V72.808H107.332L110.596 76.776V108.52C110.596 111.336 112.9 112.168 113.796 112.168V113H107.268L104.772 110.504L104.452 107.816C103.492 109.352 100.42 113.32 94.98 113.32C80.388 113.32 81.22 85.288 97.092 85.288ZM97.284 110.76C100.228 110.76 102.724 108.2 103.876 106.28V90.6C103.3 88.936 100.868 87.272 98.372 87.272C89.156 87.272 88.9 110.76 97.284 110.76ZM116.346 85.416V84.648H126.266V108.456C126.266 110.696 127.354 111.976 129.466 112.168V113H119.546V89.128C119.546 86.888 118.458 85.672 116.346 85.416ZM117.69 75.304L122.362 70.696L126.97 75.304L122.362 79.976L117.69 75.304ZM141.053 113.448C136.893 113.448 132.669 110.888 132.924 106.28C133.437 97.64 146.173 99.304 151.677 93.608V91.304C151.677 87.208 149.053 85.8 146.109 85.8C145.085 85.8 144.061 85.992 143.037 86.248L135.165 94.568L135.101 84.072L138.045 85.928C141.053 84.968 144.061 84.328 146.557 84.2C152.445 83.944 158.333 86.312 158.461 93.096V108.904C158.461 112.04 160.957 112.168 161.021 112.168V113H154.941L151.805 109.544L151.677 107.56C149.565 110.056 145.661 113.448 141.053 113.448ZM141.117 105.128C140.989 107.88 142.781 109.48 145.213 109.48C147.197 109.48 149.565 108.392 151.677 106.088V95.784C147.133 98.536 141.373 100.072 141.117 105.128Z" fill="#DBFE01"/>
</svg>
