<svg width="417" height="480" viewBox="0 0 417 480" fill="none" xmlns="http://www.w3.org/2000/svg">
<path d="M80.568 44L71.784 21.464H78.228L78.336 21.896C78.336 21.896 76.356 22.22 77.04 24.02L83.592 40.976L89.712 25.784L86.292 21.464H92.412L83.376 44H80.568ZM91.6358 28.484V28.052H97.2158V41.444C97.2158 42.704 97.8278 43.424 99.0158 43.532V44H93.4358V30.572C93.4358 29.312 92.8238 28.628 91.6358 28.484ZM92.3918 22.796L95.0198 20.204L97.6118 22.796L95.0198 25.424L92.3918 22.796ZM107.454 28.412C109.002 28.412 110.37 28.916 111.27 29.78V23.948C111.27 21.932 109.506 21.824 109.506 21.824V21.392H113.214L115.05 23.624V41.48C115.05 43.064 116.346 43.532 116.85 43.532V44H113.178L111.774 42.596L111.594 41.084C111.054 41.948 109.326 44.18 106.266 44.18C98.0581 44.18 98.5261 28.412 107.454 28.412ZM107.562 42.74C109.218 42.74 110.622 41.3 111.27 40.22V31.4C110.946 30.464 109.578 29.528 108.174 29.528C102.99 29.528 102.846 42.74 107.562 42.74ZM118.392 36.188C118.284 31.22 122.532 27.764 127.68 27.764C133.188 27.764 135.132 31.4 135.132 33.236H122.316C122.172 33.92 122.136 34.676 122.172 35.504C122.424 38.924 125.232 41.552 129.048 41.696C131.1 41.804 133.224 41.012 134.556 39.248L134.916 39.68C133.26 42.74 129.984 44.216 126.636 44.216C122.316 44.216 118.464 41.048 118.392 36.188ZM127.716 28.304C125.124 28.304 123.216 29.888 122.496 32.336H131.496C131.496 32.336 131.172 28.34 127.716 28.304ZM136.849 36.26C136.849 30.572 141.673 27.8 145.489 27.8C149.017 27.8 153.553 30.392 153.553 35.756C153.553 41.372 148.981 44.324 144.877 44.324C141.313 44.324 136.849 41.84 136.849 36.26ZM142.105 29.636C137.893 33.344 141.241 42.848 146.569 42.848C147.217 42.848 147.901 42.74 148.585 42.416C152.833 38.168 148.981 29.276 143.905 29.276C143.293 29.276 142.717 29.384 142.105 29.636ZM164.299 48.032C164.299 45.08 166.963 43.388 168.043 42.884C166.063 41.624 164.515 39.464 164.515 36.296C164.515 30.572 169.591 27.8 173.587 27.8C175.279 27.8 177.223 28.34 178.771 29.528L179.455 26.396H182.911L179.635 30.14C181.039 31.436 182.047 33.308 182.047 35.756C182.047 41.372 176.863 44.324 172.795 44.324C171.463 44.324 169.987 43.964 168.691 43.28C167.791 43.712 165.631 45.008 165.703 47.096C165.739 48.176 166.207 48.608 166.927 48.608C169.267 48.608 174.379 44.648 178.015 44.648C182.623 44.648 182.983 49.724 180.175 52.352H174.595C174.595 52.352 179.419 48.968 179.419 46.592C179.419 45.872 178.951 45.26 178.087 45.26C175.099 45.26 171.931 52.352 167.935 52.352C165.631 52.352 164.299 50.12 164.299 48.032ZM170.023 29.528C165.487 33.38 169.123 42.992 174.739 42.992C175.423 42.992 176.143 42.848 176.863 42.56C181.327 38.528 177.115 29.168 171.787 29.168C171.211 29.168 170.599 29.276 170.023 29.528ZM184.416 36.188C184.308 31.22 188.556 27.764 193.704 27.764C199.212 27.764 201.156 31.4 201.156 33.236H188.34C188.196 33.92 188.16 34.676 188.196 35.504C188.448 38.924 191.256 41.552 195.072 41.696C197.124 41.804 199.248 41.012 200.58 39.248L200.94 39.68C199.284 42.74 196.008 44.216 192.66 44.216C188.34 44.216 184.488 41.048 184.416 36.188ZM193.74 28.304C191.148 28.304 189.24 29.888 188.52 32.336H197.52C197.52 32.336 197.196 28.34 193.74 28.304ZM202.233 44V43.532C202.233 43.532 203.997 43.46 203.997 41.48V30.608C203.997 29.276 203.421 28.556 202.233 28.484V28.052H205.941L207.417 29.816L207.561 32.516C208.245 31.112 209.793 27.872 213.069 27.872C215.769 27.872 218.145 29.744 218.145 33.776V41.444V41.516C218.145 42.812 218.721 43.496 219.909 43.532V44H214.365V33.848C214.365 30.788 213.609 29.492 211.953 29.492C209.649 29.492 208.281 32.48 207.777 33.812V41.66L209.793 44H202.233ZM221.224 36.188C221.116 31.22 225.364 27.764 230.512 27.764C236.02 27.764 237.964 31.4 237.964 33.236H225.148C225.004 33.92 224.968 34.676 225.004 35.504C225.256 38.924 228.064 41.552 231.88 41.696C233.932 41.804 236.056 41.012 237.388 39.248L237.748 39.68C236.092 42.74 232.816 44.216 229.468 44.216C225.148 44.216 221.296 41.048 221.224 36.188ZM230.548 28.304C227.956 28.304 226.048 29.888 225.328 32.336H234.328C234.328 32.336 234.004 28.34 230.548 28.304ZM239.186 28.484V28.052H242.93L244.406 29.852L244.55 32.084C244.73 31.904 244.946 31.688 245.09 31.544C246.89 29.24 249.446 27.656 252.362 28.124L251.534 32.912L249.374 29.528C249.374 29.528 247.286 29.168 245.378 32.444C245.162 32.696 244.91 33.02 244.73 33.416V44H239.186V43.46C239.186 43.46 240.95 43.46 240.95 41.444V30.608C240.95 29.276 240.374 28.556 239.186 28.484ZM258.463 44.252C256.123 44.252 253.747 42.812 253.891 40.22C254.179 35.36 261.343 36.296 264.439 33.092V31.796C264.439 29.492 262.963 28.7 261.307 28.7C260.731 28.7 260.155 28.808 259.579 28.952L255.151 33.632L255.115 27.728L256.771 28.772C258.463 28.232 260.155 27.872 261.559 27.8C264.871 27.656 268.183 28.988 268.255 32.804V41.696C268.255 43.46 269.659 43.532 269.695 43.532V44H266.275L264.511 42.056L264.439 40.94C263.251 42.344 261.055 44.252 258.463 44.252ZM258.499 39.572C258.427 41.12 259.435 42.02 260.803 42.02C261.919 42.02 263.251 41.408 264.439 40.112V34.316C261.883 35.864 258.643 36.728 258.499 39.572ZM272.878 28.772H270.43V28.052H270.754C273.058 27.872 274.066 26.144 274.066 24.776C274.066 23.552 273.562 22.94 272.878 22.94V22.544H276.802C278.098 25.316 275.614 27.548 273.562 28.052H280.654V28.772H276.658V37.988C276.658 41.48 277.522 42.956 278.962 43.352C278.998 43.352 280.69 39.644 280.69 39.644L280.978 44H278.35C275.902 44 272.878 42.956 272.878 37.988V28.772ZM282.783 36.188C282.675 31.22 286.923 27.764 292.071 27.764C297.579 27.764 299.523 31.4 299.523 33.236H286.707C286.563 33.92 286.527 34.676 286.563 35.504C286.815 38.924 289.623 41.552 293.439 41.696C295.491 41.804 297.615 41.012 298.947 39.248L299.307 39.68C297.651 42.74 294.375 44.216 291.027 44.216C286.707 44.216 282.855 41.048 282.783 36.188ZM292.107 28.304C289.515 28.304 287.607 29.888 286.887 32.336H295.887C295.887 32.336 295.563 28.34 292.107 28.304Z" fill="white"/>
<path d="M80.568 129L71.784 106.464H78.228L78.336 106.896C78.336 106.896 76.356 107.22 77.04 109.02L83.592 125.976L89.712 110.784L86.292 106.464H92.412L83.376 129H80.568ZM91.6358 113.484V113.052H97.2158V126.444C97.2158 127.704 97.8278 128.424 99.0158 128.532V129H93.4358V115.572C93.4358 114.312 92.8238 113.628 91.6358 113.484ZM92.3918 107.796L95.0198 105.204L97.6118 107.796L95.0198 110.424L92.3918 107.796ZM107.454 113.412C109.002 113.412 110.37 113.916 111.27 114.78V108.948C111.27 106.932 109.506 106.824 109.506 106.824V106.392H113.214L115.05 108.624V126.48C115.05 128.064 116.346 128.532 116.85 128.532V129H113.178L111.774 127.596L111.594 126.084C111.054 126.948 109.326 129.18 106.266 129.18C98.0581 129.18 98.5261 113.412 107.454 113.412ZM107.562 127.74C109.218 127.74 110.622 126.3 111.27 125.22V116.4C110.946 115.464 109.578 114.528 108.174 114.528C102.99 114.528 102.846 127.74 107.562 127.74ZM118.392 121.188C118.284 116.22 122.532 112.764 127.68 112.764C133.188 112.764 135.132 116.4 135.132 118.236H122.316C122.172 118.92 122.136 119.676 122.172 120.504C122.424 123.924 125.232 126.552 129.048 126.696C131.1 126.804 133.224 126.012 134.556 124.248L134.916 124.68C133.26 127.74 129.984 129.216 126.636 129.216C122.316 129.216 118.464 126.048 118.392 121.188ZM127.716 113.304C125.124 113.304 123.216 114.888 122.496 117.336H131.496C131.496 117.336 131.172 113.34 127.716 113.304ZM136.849 121.26C136.849 115.572 141.673 112.8 145.489 112.8C149.017 112.8 153.553 115.392 153.553 120.756C153.553 126.372 148.981 129.324 144.877 129.324C141.313 129.324 136.849 126.84 136.849 121.26ZM142.105 114.636C137.893 118.344 141.241 127.848 146.569 127.848C147.217 127.848 147.901 127.74 148.585 127.416C152.833 123.168 148.981 114.276 143.905 114.276C143.293 114.276 142.717 114.384 142.105 114.636ZM164.623 121.188C164.515 116.22 168.763 112.764 173.911 112.764C179.419 112.764 181.363 116.4 181.363 118.236H168.547C168.403 118.92 168.367 119.676 168.403 120.504C168.655 123.924 171.463 126.552 175.279 126.696C177.331 126.804 179.455 126.012 180.787 124.248L181.147 124.68C179.491 127.74 176.215 129.216 172.867 129.216C168.547 129.216 164.695 126.048 164.623 121.188ZM173.947 113.304C171.355 113.304 169.447 114.888 168.727 117.336H177.727C177.727 117.336 177.403 113.34 173.947 113.304ZM190.388 113.412C191.936 113.412 193.304 113.916 194.204 114.78V108.948C194.204 106.932 192.44 106.824 192.44 106.824V106.392H196.148L197.984 108.624V126.48C197.984 128.064 199.28 128.532 199.784 128.532V129H196.112L194.708 127.596L194.528 126.084C193.988 126.948 192.26 129.18 189.2 129.18C180.992 129.18 181.46 113.412 190.388 113.412ZM190.496 127.74C192.152 127.74 193.556 126.3 194.204 125.22V116.4C193.88 115.464 192.512 114.528 191.108 114.528C185.924 114.528 185.78 127.74 190.496 127.74ZM201.218 113.484V113.052H206.798V126.444C206.798 127.704 207.41 128.424 208.598 128.532V129H203.018V115.572C203.018 114.312 202.406 113.628 201.218 113.484ZM201.974 107.796L204.602 105.204L207.194 107.796L204.602 110.424L201.974 107.796ZM212.163 113.772H209.715V113.052H210.039C212.343 112.872 213.351 111.144 213.351 109.776C213.351 108.552 212.847 107.94 212.163 107.94V107.544H216.087C217.383 110.316 214.899 112.548 212.847 113.052H219.939V113.772H215.943V122.988C215.943 126.48 216.807 127.956 218.247 128.352C218.283 128.352 219.975 124.644 219.975 124.644L220.263 129H217.635C215.187 129 212.163 127.956 212.163 122.988V113.772Z" fill="white"/>
<path d="M72.684 191.5H77.22L88.668 210.508V191.5H91.368V191.932C90.684 192.004 89.568 192.976 89.568 194.02V212.056L90.684 214H86.544L75.6 196.252V214H72.9V213.532C73.584 213.46 74.7 212.488 74.7 211.48V194.776L72.684 191.5ZM96.6741 214.252C94.3341 214.252 91.9581 212.812 92.1021 210.22C92.3901 205.36 99.5541 206.296 102.65 203.092V201.796C102.65 199.492 101.174 198.7 99.5181 198.7C98.9421 198.7 98.3661 198.808 97.7901 198.952L93.3621 203.632L93.3261 197.728L94.9821 198.772C96.6741 198.232 98.3661 197.872 99.7701 197.8C103.082 197.656 106.394 198.988 106.466 202.804V211.696C106.466 213.46 107.87 213.532 107.906 213.532V214H104.486L102.722 212.056L102.65 210.94C101.462 212.344 99.2661 214.252 96.6741 214.252ZM96.7101 209.572C96.6381 211.12 97.6461 212.02 99.0141 212.02C100.13 212.02 101.462 211.408 102.65 210.112V204.316C100.094 205.864 96.8541 206.728 96.7101 209.572ZM111.089 198.772H108.641V198.052H108.965C111.269 197.872 112.277 196.144 112.277 194.776C112.277 193.552 111.773 192.94 111.089 192.94V192.544H115.013C116.309 195.316 113.825 197.548 111.773 198.052H118.865V198.772H114.869V207.988C114.869 211.48 115.733 212.956 117.173 213.352C117.209 213.352 118.901 209.644 118.901 209.644L119.189 214H116.561C114.113 214 111.089 212.956 111.089 207.988V198.772ZM120.454 198.484V198.052H125.998V207.7C125.998 210.724 126.466 212.668 128.554 212.668C130.822 212.668 131.974 210.256 132.55 209.068V200.536C132.55 199.24 131.974 198.556 130.786 198.484V198.052H136.33V211.408C136.33 212.74 136.906 213.46 138.094 213.532V213.964H134.386L132.874 212.092C132.838 211.876 132.802 210.616 132.73 210.292C132.082 211.624 130.534 214 127.618 214C124.594 214 122.218 211.552 122.218 207.808V200.608C122.218 199.276 121.642 198.556 120.454 198.484ZM139.518 198.484V198.052H143.262L144.738 199.852L144.882 202.084C145.062 201.904 145.278 201.688 145.422 201.544C147.222 199.24 149.778 197.656 152.694 198.124L151.866 202.912L149.706 199.528C149.706 199.528 147.618 199.168 145.71 202.444C145.494 202.696 145.242 203.02 145.062 203.416V214H139.518V213.46C139.518 213.46 141.282 213.46 141.282 211.444V200.608C141.282 199.276 140.706 198.556 139.518 198.484ZM158.795 214.252C156.455 214.252 154.079 212.812 154.223 210.22C154.511 205.36 161.675 206.296 164.771 203.092V201.796C164.771 199.492 163.295 198.7 161.639 198.7C161.063 198.7 160.487 198.808 159.911 198.952L155.483 203.632L155.447 197.728L157.103 198.772C158.795 198.232 160.487 197.872 161.891 197.8C165.203 197.656 168.515 198.988 168.587 202.804V211.696C168.587 213.46 169.991 213.532 170.027 213.532V214H166.607L164.843 212.056L164.771 210.94C163.583 212.344 161.387 214.252 158.795 214.252ZM158.831 209.572C158.759 211.12 159.767 212.02 161.135 212.02C162.251 212.02 163.583 211.408 164.771 210.112V204.316C162.215 205.864 158.975 206.728 158.831 209.572ZM171.368 191.824V191.392H176.948V211.444C176.948 212.704 177.56 213.424 178.748 213.532V214H173.168V193.804C173.168 192.544 172.556 191.896 171.368 191.824ZM194.549 214.252C192.209 214.252 189.833 212.812 189.977 210.22C190.265 205.36 197.429 206.296 200.525 203.092V201.796C200.525 199.492 199.049 198.7 197.393 198.7C196.817 198.7 196.241 198.808 195.665 198.952L191.237 203.632L191.201 197.728L192.857 198.772C194.549 198.232 196.241 197.872 197.645 197.8C200.957 197.656 204.269 198.988 204.341 202.804V211.696C204.341 213.46 205.745 213.532 205.781 213.532V214H202.361L200.597 212.056L200.525 210.94C199.337 212.344 197.141 214.252 194.549 214.252ZM194.585 209.572C194.513 211.12 195.521 212.02 196.889 212.02C198.005 212.02 199.337 211.408 200.525 210.112V204.316C197.969 205.864 194.729 206.728 194.585 209.572ZM206.516 198.484V198.052H212.06V207.7C212.06 210.724 212.528 212.668 214.616 212.668C216.884 212.668 218.036 210.256 218.612 209.068V200.536C218.612 199.24 218.036 198.556 216.848 198.484V198.052H222.392V211.408C222.392 212.74 222.968 213.46 224.156 213.532V213.964H220.448L218.936 212.092C218.9 211.876 218.864 210.616 218.792 210.292C218.144 211.624 216.596 214 213.68 214C210.656 214 208.28 211.552 208.28 207.808V200.608C208.28 199.276 207.704 198.556 206.516 198.484ZM233.032 198.412C234.58 198.412 235.948 198.916 236.848 199.78V193.948C236.848 191.932 235.084 191.824 235.084 191.824V191.392H238.792L240.628 193.624V211.48C240.628 213.064 241.924 213.532 242.428 213.532V214H238.756L237.352 212.596L237.172 211.084C236.632 211.948 234.904 214.18 231.844 214.18C223.636 214.18 224.104 198.412 233.032 198.412ZM233.14 212.74C234.796 212.74 236.2 211.3 236.848 210.22V201.4C236.524 200.464 235.156 199.528 233.752 199.528C228.568 199.528 228.424 212.74 233.14 212.74ZM243.862 198.484V198.052H249.442V211.444C249.442 212.704 250.054 213.424 251.242 213.532V214H245.662V200.572C245.662 199.312 245.05 198.628 243.862 198.484ZM244.618 192.796L247.246 190.204L249.838 192.796L247.246 195.424L244.618 192.796ZM252.548 206.26C252.548 200.572 257.372 197.8 261.188 197.8C264.716 197.8 269.252 200.392 269.252 205.756C269.252 211.372 264.68 214.324 260.576 214.324C257.012 214.324 252.548 211.84 252.548 206.26ZM257.804 199.636C253.592 203.344 256.94 212.848 262.268 212.848C262.916 212.848 263.6 212.74 264.284 212.416C268.532 208.168 264.68 199.276 259.604 199.276C258.992 199.276 258.416 199.384 257.804 199.636ZM279.998 218.032C279.998 215.08 282.662 213.388 283.742 212.884C281.762 211.624 280.214 209.464 280.214 206.296C280.214 200.572 285.29 197.8 289.286 197.8C290.978 197.8 292.922 198.34 294.47 199.528L295.154 196.396H298.61L295.334 200.14C296.738 201.436 297.746 203.308 297.746 205.756C297.746 211.372 292.562 214.324 288.494 214.324C287.162 214.324 285.686 213.964 284.39 213.28C283.49 213.712 281.33 215.008 281.402 217.096C281.438 218.176 281.906 218.608 282.626 218.608C284.966 218.608 290.078 214.648 293.714 214.648C298.322 214.648 298.682 219.724 295.874 222.352H290.294C290.294 222.352 295.118 218.968 295.118 216.592C295.118 215.872 294.65 215.26 293.786 215.26C290.798 215.26 287.63 222.352 283.634 222.352C281.33 222.352 279.998 220.12 279.998 218.032ZM285.722 199.528C281.186 203.38 284.822 212.992 290.438 212.992C291.122 212.992 291.842 212.848 292.562 212.56C297.026 208.528 292.814 199.168 287.486 199.168C286.91 199.168 286.298 199.276 285.722 199.528ZM300.115 206.188C300.007 201.22 304.255 197.764 309.403 197.764C314.911 197.764 316.855 201.4 316.855 203.236H304.039C303.895 203.92 303.859 204.676 303.895 205.504C304.147 208.924 306.955 211.552 310.771 211.696C312.823 211.804 314.947 211.012 316.279 209.248L316.639 209.68C314.983 212.74 311.707 214.216 308.359 214.216C304.039 214.216 300.187 211.048 300.115 206.188ZM309.439 198.304C306.847 198.304 304.939 199.888 304.219 202.336H313.219C313.219 202.336 312.895 198.34 309.439 198.304ZM317.932 214V213.532C317.932 213.532 319.696 213.46 319.696 211.48V200.608C319.696 199.276 319.12 198.556 317.932 198.484V198.052H321.64L323.116 199.816L323.26 202.516C323.944 201.112 325.492 197.872 328.768 197.872C331.468 197.872 333.844 199.744 333.844 203.776V211.444V211.516C333.844 212.812 334.42 213.496 335.608 213.532V214H330.064V203.848C330.064 200.788 329.308 199.492 327.652 199.492C325.348 199.492 323.98 202.48 323.476 203.812V211.66L325.492 214H317.932ZM336.923 206.188C336.815 201.22 341.063 197.764 346.211 197.764C351.719 197.764 353.663 201.4 353.663 203.236H340.847C340.703 203.92 340.667 204.676 340.703 205.504C340.955 208.924 343.763 211.552 347.579 211.696C349.631 211.804 351.755 211.012 353.087 209.248L353.447 209.68C351.791 212.74 348.515 214.216 345.167 214.216C340.847 214.216 336.995 211.048 336.923 206.188ZM346.247 198.304C343.655 198.304 341.747 199.888 341.027 202.336H350.027C350.027 202.336 349.703 198.34 346.247 198.304ZM354.885 198.484V198.052H358.629L360.105 199.852L360.249 202.084C360.429 201.904 360.645 201.688 360.789 201.544C362.589 199.24 365.145 197.656 368.061 198.124L367.233 202.912L365.073 199.528C365.073 199.528 362.985 199.168 361.077 202.444C360.861 202.696 360.609 203.02 360.429 203.416V214H354.885V213.46C354.885 213.46 356.649 213.46 356.649 211.444V200.608C356.649 199.276 356.073 198.556 354.885 198.484ZM374.162 214.252C371.822 214.252 369.446 212.812 369.59 210.22C369.878 205.36 377.042 206.296 380.138 203.092V201.796C380.138 199.492 378.662 198.7 377.006 198.7C376.43 198.7 375.854 198.808 375.278 198.952L370.85 203.632L370.814 197.728L372.47 198.772C374.162 198.232 375.854 197.872 377.258 197.8C380.57 197.656 383.882 198.988 383.954 202.804V211.696C383.954 213.46 385.358 213.532 385.394 213.532V214H381.974L380.21 212.056L380.138 210.94C378.95 212.344 376.754 214.252 374.162 214.252ZM374.198 209.572C374.126 211.12 375.134 212.02 376.502 212.02C377.618 212.02 378.95 211.408 380.138 210.112V204.316C377.582 205.864 374.342 206.728 374.198 209.572ZM388.578 198.772H386.13V198.052H386.454C388.758 197.872 389.766 196.144 389.766 194.776C389.766 193.552 389.262 192.94 388.578 192.94V192.544H392.502C393.798 195.316 391.314 197.548 389.262 198.052H396.354V198.772H392.358V207.988C392.358 211.48 393.222 212.956 394.662 213.352C394.698 213.352 396.39 209.644 396.39 209.644L396.678 214H394.05C391.602 214 388.578 212.956 388.578 207.988V198.772ZM398.482 206.188C398.374 201.22 402.622 197.764 407.77 197.764C413.278 197.764 415.222 201.4 415.222 203.236H402.406C402.262 203.92 402.226 204.676 402.262 205.504C402.514 208.924 405.322 211.552 409.138 211.696C411.19 211.804 413.314 211.012 414.646 209.248L415.006 209.68C413.35 212.74 410.074 214.216 406.726 214.216C402.406 214.216 398.554 211.048 398.482 206.188ZM407.806 198.304C405.214 198.304 403.306 199.888 402.586 202.336H411.586C411.586 202.336 411.262 198.34 407.806 198.304Z" fill="white"/>
<path d="M77.688 299H71.712L74.304 295.292L79.632 277.544C78.84 277.04 78.012 276.932 78.012 276.932V276.464H83.772L91.152 299H85.248L85.104 298.532C85.104 298.532 86.904 298.208 86.292 296.264L84.492 290.72H76.644L75.24 295.364L77.688 299ZM76.932 289.82H84.204L80.748 278.948C80.604 278.66 80.496 278.408 80.316 278.192L76.932 289.82ZM90.0436 283.484V283.052H95.5876V292.7C95.5876 295.724 96.0556 297.668 98.1436 297.668C100.412 297.668 101.564 295.256 102.14 294.068V285.536C102.14 284.24 101.564 283.556 100.376 283.484V283.052H105.92V296.408C105.92 297.74 106.496 298.46 107.684 298.532V298.964H103.976L102.464 297.092C102.428 296.876 102.392 295.616 102.32 295.292C101.672 296.624 100.124 299 97.2076 299C94.1836 299 91.8076 296.552 91.8076 292.808V285.608C91.8076 284.276 91.2316 283.556 90.0436 283.484ZM116.56 283.412C118.108 283.412 119.476 283.916 120.376 284.78V278.948C120.376 276.932 118.612 276.824 118.612 276.824V276.392H122.32L124.156 278.624V296.48C124.156 298.064 125.452 298.532 125.956 298.532V299H122.284L120.88 297.596L120.7 296.084C120.16 296.948 118.432 299.18 115.372 299.18C107.164 299.18 107.632 283.412 116.56 283.412ZM116.668 297.74C118.324 297.74 119.728 296.3 120.376 295.22V286.4C120.052 285.464 118.684 284.528 117.28 284.528C112.096 284.528 111.952 297.74 116.668 297.74ZM127.39 283.484V283.052H132.97V296.444C132.97 297.704 133.582 298.424 134.77 298.532V299H129.19V285.572C129.19 284.312 128.578 283.628 127.39 283.484ZM128.146 277.796L130.774 275.204L133.366 277.796L130.774 280.424L128.146 277.796ZM136.076 291.26C136.076 285.572 140.9 282.8 144.716 282.8C148.244 282.8 152.78 285.392 152.78 290.756C152.78 296.372 148.208 299.324 144.104 299.324C140.54 299.324 136.076 296.84 136.076 291.26ZM141.332 284.636C137.12 288.344 140.468 297.848 145.796 297.848C146.444 297.848 147.128 297.74 147.812 297.416C152.06 293.168 148.208 284.276 143.132 284.276C142.52 284.276 141.944 284.384 141.332 284.636ZM163.849 291.188C163.741 286.22 167.989 282.764 173.137 282.764C178.645 282.764 180.589 286.4 180.589 288.236H167.773C167.629 288.92 167.593 289.676 167.629 290.504C167.881 293.924 170.689 296.552 174.505 296.696C176.557 296.804 178.681 296.012 180.013 294.248L180.373 294.68C178.717 297.74 175.441 299.216 172.093 299.216C167.773 299.216 163.921 296.048 163.849 291.188ZM173.173 283.304C170.581 283.304 168.673 284.888 167.953 287.336H176.953C176.953 287.336 176.629 283.34 173.173 283.304ZM189.614 283.412C191.162 283.412 192.53 283.916 193.43 284.78V278.948C193.43 276.932 191.666 276.824 191.666 276.824V276.392H195.374L197.21 278.624V296.48C197.21 298.064 198.506 298.532 199.01 298.532V299H195.338L193.934 297.596L193.754 296.084C193.214 296.948 191.486 299.18 188.426 299.18C180.218 299.18 180.686 283.412 189.614 283.412ZM189.722 297.74C191.378 297.74 192.782 296.3 193.43 295.22V286.4C193.106 285.464 191.738 284.528 190.334 284.528C185.15 284.528 185.006 297.74 189.722 297.74ZM200.444 283.484V283.052H206.024V296.444C206.024 297.704 206.636 298.424 207.824 298.532V299H202.244V285.572C202.244 284.312 201.632 283.628 200.444 283.484ZM201.2 277.796L203.828 275.204L206.42 277.796L203.828 280.424L201.2 277.796ZM211.39 283.772H208.942V283.052H209.266C211.57 282.872 212.578 281.144 212.578 279.776C212.578 278.552 212.074 277.94 211.39 277.94V277.544H215.314C216.61 280.316 214.126 282.548 212.074 283.052H219.166V283.772H215.17V292.988C215.17 296.48 216.034 297.956 217.474 298.352C217.51 298.352 219.202 294.644 219.202 294.644L219.49 299H216.862C214.414 299 211.39 297.956 211.39 292.988V283.772Z" fill="white"/>
<path d="M82.332 361.068C85.428 361.068 88.2 361.968 89.712 362.544L88.74 369.384L85.212 362.76C85.212 362.76 84.564 361.788 82.26 361.788C79.38 361.788 76.752 363.3 76.752 366.288C76.752 368.556 78.264 370.176 83.52 372.048C86.184 372.984 90.54 374.82 90.54 378.456C90.54 381.768 86.868 384.216 81.36 384.216C78.48 384.216 75.6 383.82 73.8 383.352V376.332L78.264 382.776C78.264 382.776 79.344 383.424 81.54 383.424C84.564 383.424 87.084 382.236 87.084 380.04C87.084 377.232 82.872 376.008 80.388 375.108C75.924 373.416 73.152 371.184 73.152 367.692C73.152 363.264 77.58 361.068 82.332 361.068ZM91.6608 368.484V368.052H97.2048V377.7C97.2048 380.724 97.6728 382.668 99.7608 382.668C102.029 382.668 103.181 380.256 103.757 379.068V370.536C103.757 369.24 103.181 368.556 101.993 368.484V368.052H107.537V381.408C107.537 382.74 108.113 383.46 109.301 383.532V383.964H105.593L104.081 382.092C104.045 381.876 104.009 380.616 103.937 380.292C103.289 381.624 101.741 384 98.8248 384C95.8008 384 93.4248 381.552 93.4248 377.808V370.608C93.4248 369.276 92.8488 368.556 91.6608 368.484ZM110.581 384V383.532C111.805 383.532 112.381 382.092 112.381 381.48V363.948C112.381 361.968 110.617 361.824 110.617 361.824V361.392H114.325L116.161 363.624V371.112C116.809 370.248 118.501 368.412 121.165 368.412C129.193 368.412 128.905 383.532 120.517 384.144C118.573 384.324 116.773 383.676 115.657 382.272L115.513 382.776L114.253 384H110.581ZM116.161 372.336V381.156C116.449 382.236 117.349 383.136 118.897 383.136C124.081 383.136 124.765 369.6 120.049 369.6C118.393 369.6 116.845 371.184 116.161 372.336ZM130.917 368.772H128.469V368.052H128.793C131.097 367.872 132.105 366.144 132.105 364.776C132.105 363.552 131.601 362.94 130.917 362.94V362.544H134.841C136.137 365.316 133.653 367.548 131.601 368.052H138.693V368.772H134.697V377.988C134.697 381.48 135.561 382.956 137.001 383.352C137.037 383.352 138.729 379.644 138.729 379.644L139.017 384H136.389C133.941 384 130.917 382.956 130.917 377.988V368.772ZM140.714 368.484V368.052H146.294V381.444C146.294 382.704 146.906 383.424 148.094 383.532V384H142.514V370.572C142.514 369.312 141.902 368.628 140.714 368.484ZM141.47 362.796L144.098 360.204L146.69 362.796L144.098 365.424L141.47 362.796ZM151.66 368.772H149.212V368.052H149.536C151.84 367.872 152.848 366.144 152.848 364.776C152.848 363.552 152.344 362.94 151.66 362.94V362.544H155.584C156.88 365.316 154.396 367.548 152.344 368.052H159.436V368.772H155.44V377.988C155.44 381.48 156.304 382.956 157.744 383.352C157.78 383.352 159.472 379.644 159.472 379.644L159.76 384H157.132C154.684 384 151.66 382.956 151.66 377.988V368.772ZM161.384 361.824V361.392H166.964V381.444C166.964 382.704 167.576 383.424 168.764 383.532V384H163.184V363.804C163.184 362.544 162.572 361.896 161.384 361.824ZM170.353 376.188C170.245 371.22 174.493 367.764 179.641 367.764C185.149 367.764 187.093 371.4 187.093 373.236H174.277C174.133 373.92 174.097 374.676 174.133 375.504C174.385 378.924 177.193 381.552 181.009 381.696C183.061 381.804 185.185 381.012 186.517 379.248L186.877 379.68C185.221 382.74 181.945 384.216 178.597 384.216C174.277 384.216 170.425 381.048 170.353 376.188ZM179.677 368.304C177.085 368.304 175.177 369.888 174.457 372.336H183.457C183.457 372.336 183.133 368.34 179.677 368.304ZM197.838 388.032C197.838 385.08 200.502 383.388 201.582 382.884C199.602 381.624 198.054 379.464 198.054 376.296C198.054 370.572 203.13 367.8 207.126 367.8C208.818 367.8 210.762 368.34 212.31 369.528L212.994 366.396H216.45L213.174 370.14C214.578 371.436 215.586 373.308 215.586 375.756C215.586 381.372 210.402 384.324 206.334 384.324C205.002 384.324 203.526 383.964 202.23 383.28C201.33 383.712 199.17 385.008 199.242 387.096C199.278 388.176 199.746 388.608 200.466 388.608C202.806 388.608 207.918 384.648 211.554 384.648C216.162 384.648 216.522 389.724 213.714 392.352H208.134C208.134 392.352 212.958 388.968 212.958 386.592C212.958 385.872 212.49 385.26 211.626 385.26C208.638 385.26 205.47 392.352 201.474 392.352C199.17 392.352 197.838 390.12 197.838 388.032ZM203.562 369.528C199.026 373.38 202.662 382.992 208.278 382.992C208.962 382.992 209.682 382.848 210.402 382.56C214.866 378.528 210.654 369.168 205.326 369.168C204.75 369.168 204.138 369.276 203.562 369.528ZM217.955 376.188C217.847 371.22 222.095 367.764 227.243 367.764C232.751 367.764 234.695 371.4 234.695 373.236H221.879C221.735 373.92 221.699 374.676 221.735 375.504C221.987 378.924 224.795 381.552 228.611 381.696C230.663 381.804 232.787 381.012 234.119 379.248L234.479 379.68C232.823 382.74 229.547 384.216 226.199 384.216C221.879 384.216 218.027 381.048 217.955 376.188ZM227.279 368.304C224.687 368.304 222.779 369.888 222.059 372.336H231.059C231.059 372.336 230.735 368.34 227.279 368.304ZM235.772 384V383.532C235.772 383.532 237.536 383.46 237.536 381.48V370.608C237.536 369.276 236.96 368.556 235.772 368.484V368.052H239.48L240.956 369.816L241.1 372.516C241.784 371.112 243.332 367.872 246.608 367.872C249.308 367.872 251.684 369.744 251.684 373.776V381.444V381.516C251.684 382.812 252.26 383.496 253.448 383.532V384H247.904V373.848C247.904 370.788 247.148 369.492 245.492 369.492C243.188 369.492 241.82 372.48 241.316 373.812V381.66L243.332 384H235.772ZM254.763 376.188C254.655 371.22 258.903 367.764 264.051 367.764C269.559 367.764 271.503 371.4 271.503 373.236H258.687C258.543 373.92 258.507 374.676 258.543 375.504C258.795 378.924 261.603 381.552 265.419 381.696C267.471 381.804 269.595 381.012 270.927 379.248L271.287 379.68C269.631 382.74 266.355 384.216 263.007 384.216C258.687 384.216 254.835 381.048 254.763 376.188ZM264.087 368.304C261.495 368.304 259.587 369.888 258.867 372.336H267.867C267.867 372.336 267.543 368.34 264.087 368.304ZM272.725 368.484V368.052H276.469L277.945 369.852L278.089 372.084C278.269 371.904 278.485 371.688 278.629 371.544C280.429 369.24 282.985 367.656 285.901 368.124L285.073 372.912L282.913 369.528C282.913 369.528 280.825 369.168 278.917 372.444C278.701 372.696 278.449 373.02 278.269 373.416V384H272.725V383.46C272.725 383.46 274.489 383.46 274.489 381.444V370.608C274.489 369.276 273.913 368.556 272.725 368.484ZM292.002 384.252C289.662 384.252 287.286 382.812 287.43 380.22C287.718 375.36 294.882 376.296 297.978 373.092V371.796C297.978 369.492 296.502 368.7 294.846 368.7C294.27 368.7 293.694 368.808 293.118 368.952L288.69 373.632L288.654 367.728L290.31 368.772C292.002 368.232 293.694 367.872 295.098 367.8C298.41 367.656 301.722 368.988 301.794 372.804V381.696C301.794 383.46 303.198 383.532 303.234 383.532V384H299.814L298.05 382.056L297.978 380.94C296.79 382.344 294.594 384.252 292.002 384.252ZM292.038 379.572C291.966 381.12 292.974 382.02 294.342 382.02C295.458 382.02 296.79 381.408 297.978 380.112V374.316C295.422 375.864 292.182 376.728 292.038 379.572ZM306.417 368.772H303.969V368.052H304.293C306.597 367.872 307.605 366.144 307.605 364.776C307.605 363.552 307.101 362.94 306.417 362.94V362.544H310.341C311.637 365.316 309.153 367.548 307.101 368.052H314.193V368.772H310.197V377.988C310.197 381.48 311.061 382.956 312.501 383.352C312.537 383.352 314.229 379.644 314.229 379.644L314.517 384H311.889C309.441 384 306.417 382.956 306.417 377.988V368.772ZM316.322 376.188C316.214 371.22 320.462 367.764 325.61 367.764C331.118 367.764 333.062 371.4 333.062 373.236H320.246C320.102 373.92 320.066 374.676 320.102 375.504C320.354 378.924 323.162 381.552 326.978 381.696C329.03 381.804 331.154 381.012 332.486 379.248L332.846 379.68C331.19 382.74 327.914 384.216 324.566 384.216C320.246 384.216 316.394 381.048 316.322 376.188ZM325.646 368.304C323.054 368.304 321.146 369.888 320.426 372.336H329.426C329.426 372.336 329.102 368.34 325.646 368.304Z" fill="white"/>
<path d="M46.9454 46.9454C44.3918 49.499 41.3602 51.5247 38.0238 52.9067C34.6873 54.2887 31.1113 55 27.5 55C23.8886 55 20.3127 54.2887 16.9762 52.9067C13.6397 51.5247 10.6082 49.499 8.05456 46.9454C5.50095 44.3918 3.47532 41.3602 2.09331 38.0238C0.711308 34.6873 -4.77154e-07 31.1113 0 27.5C4.77155e-07 23.8886 0.711309 20.3127 2.09331 16.9762C3.47532 13.6397 5.50096 10.6082 8.05457 8.05456L11.5401 11.5401C9.44427 13.636 7.78173 16.1242 6.64745 18.8626C5.51317 21.601 4.92936 24.536 4.92936 27.5C4.92936 30.464 5.51317 33.399 6.64745 36.1374C7.78173 38.8758 9.44427 41.364 11.5401 43.4599C13.636 45.5557 16.1242 47.2183 18.8626 48.3526C21.601 49.4868 24.536 50.0706 27.5 50.0706C30.464 50.0706 33.399 49.4868 36.1374 48.3526C38.8758 47.2183 41.364 45.5557 43.4599 43.4599L46.9454 46.9454Z" fill="url(#paint0_linear_1663_9)"/>
<path d="M16 25.7943L26.4398 36L46 12" stroke="#DBFE01" stroke-width="4" stroke-linecap="round"/>
<path d="M46.9454 131.945C44.3918 134.499 41.3602 136.525 38.0238 137.907C34.6873 139.289 31.1113 140 27.5 140C23.8886 140 20.3127 139.289 16.9762 137.907C13.6397 136.525 10.6082 134.499 8.05456 131.945C5.50095 129.392 3.47532 126.36 2.09331 123.024C0.711308 119.687 -4.77154e-07 116.111 0 112.5C4.77155e-07 108.889 0.711309 105.313 2.09331 101.976C3.47532 98.6397 5.50096 95.6082 8.05457 93.0546L11.5401 96.5401C9.44427 98.636 7.78173 101.124 6.64745 103.863C5.51317 106.601 4.92936 109.536 4.92936 112.5C4.92936 115.464 5.51317 118.399 6.64745 121.137C7.78173 123.876 9.44427 126.364 11.5401 128.46C13.636 130.556 16.1242 132.218 18.8626 133.353C21.601 134.487 24.536 135.071 27.5 135.071C30.464 135.071 33.399 134.487 36.1374 133.353C38.8758 132.218 41.364 130.556 43.4599 128.46L46.9454 131.945Z" fill="url(#paint1_linear_1663_9)"/>
<path d="M16 110.794L26.4398 121L46 97" stroke="#DBFE01" stroke-width="4" stroke-linecap="round"/>
<path d="M46.9454 216.945C44.3918 219.499 41.3602 221.525 38.0238 222.907C34.6873 224.289 31.1113 225 27.5 225C23.8886 225 20.3127 224.289 16.9762 222.907C13.6397 221.525 10.6082 219.499 8.05456 216.945C5.50095 214.392 3.47532 211.36 2.09331 208.024C0.711308 204.687 -4.77154e-07 201.111 0 197.5C4.77155e-07 193.889 0.711309 190.313 2.09331 186.976C3.47532 183.64 5.50096 180.608 8.05457 178.055L11.5401 181.54C9.44427 183.636 7.78173 186.124 6.64745 188.863C5.51317 191.601 4.92936 194.536 4.92936 197.5C4.92936 200.464 5.51317 203.399 6.64745 206.137C7.78173 208.876 9.44427 211.364 11.5401 213.46C13.636 215.556 16.1242 217.218 18.8626 218.353C21.601 219.487 24.536 220.071 27.5 220.071C30.464 220.071 33.399 219.487 36.1374 218.353C38.8758 217.218 41.364 215.556 43.4599 213.46L46.9454 216.945Z" fill="url(#paint2_linear_1663_9)"/>
<path d="M16 195.794L26.4398 206L46 182" stroke="#DBFE01" stroke-width="4" stroke-linecap="round"/>
<path d="M46.9454 301.945C44.3918 304.499 41.3602 306.525 38.0238 307.907C34.6873 309.289 31.1113 310 27.5 310C23.8886 310 20.3127 309.289 16.9762 307.907C13.6397 306.525 10.6082 304.499 8.05456 301.945C5.50095 299.392 3.47532 296.36 2.09331 293.024C0.711308 289.687 -4.77154e-07 286.111 0 282.5C4.77155e-07 278.889 0.711309 275.313 2.09331 271.976C3.47532 268.64 5.50096 265.608 8.05457 263.055L11.5401 266.54C9.44427 268.636 7.78173 271.124 6.64745 273.863C5.51317 276.601 4.92936 279.536 4.92936 282.5C4.92936 285.464 5.51317 288.399 6.64745 291.137C7.78173 293.876 9.44427 296.364 11.5401 298.46C13.636 300.556 16.1242 302.218 18.8626 303.353C21.601 304.487 24.536 305.071 27.5 305.071C30.464 305.071 33.399 304.487 36.1374 303.353C38.8758 302.218 41.364 300.556 43.4599 298.46L46.9454 301.945Z" fill="url(#paint3_linear_1663_9)"/>
<path d="M16 280.794L26.4398 291L46 267" stroke="#DBFE01" stroke-width="4" stroke-linecap="round"/>
<path d="M46.9454 386.945C44.3918 389.499 41.3602 391.525 38.0238 392.907C34.6873 394.289 31.1113 395 27.5 395C23.8886 395 20.3127 394.289 16.9762 392.907C13.6397 391.525 10.6082 389.499 8.05456 386.945C5.50095 384.392 3.47532 381.36 2.09331 378.024C0.711308 374.687 -4.77154e-07 371.111 0 367.5C4.77155e-07 363.889 0.711309 360.313 2.09331 356.976C3.47532 353.64 5.50096 350.608 8.05457 348.055L11.5401 351.54C9.44427 353.636 7.78173 356.124 6.64745 358.863C5.51317 361.601 4.92936 364.536 4.92936 367.5C4.92936 370.464 5.51317 373.399 6.64745 376.137C7.78173 378.876 9.44427 381.364 11.5401 383.46C13.636 385.556 16.1242 387.218 18.8626 388.353C21.601 389.487 24.536 390.071 27.5 390.071C30.464 390.071 33.399 389.487 36.1374 388.353C38.8758 387.218 41.364 385.556 43.4599 383.46L46.9454 386.945Z" fill="url(#paint4_linear_1663_9)"/>
<path d="M16 365.794L26.4398 376L46 352" stroke="#DBFE01" stroke-width="4" stroke-linecap="round"/>
<path d="M72.972 469V468.532C73.98 468.46 74.772 467.416 74.772 466.48V449.056C74.772 448.048 74.052 447.004 73.008 446.932V446.5H89.496V451.792L85.86 447.22H78.552V457.12H84.06L85.896 454.312V460.828L84.06 458.02H78.552V469H72.972ZM90.2295 453.484V453.052H95.8095V466.444C95.8095 467.704 96.4215 468.424 97.6095 468.532V469H92.0295V455.572C92.0295 454.312 91.4175 453.628 90.2295 453.484ZM90.9855 447.796L93.6135 445.204L96.2055 447.796L93.6135 450.424L90.9855 447.796ZM98.9792 469V468.532C98.9792 468.532 100.743 468.46 100.743 466.48V455.608C100.743 454.276 100.167 453.556 98.9792 453.484V453.052H102.687L104.163 454.816L104.307 457.516C104.991 456.112 106.539 452.872 109.815 452.872C112.515 452.872 114.891 454.744 114.891 458.776V466.444V466.516C114.891 467.812 115.467 468.496 116.655 468.532V469H111.111V458.848C111.111 455.788 110.355 454.492 108.699 454.492C106.395 454.492 105.027 457.48 104.523 458.812V466.66L106.539 469H98.9792ZM117.97 461.188C117.862 456.22 122.11 452.764 127.258 452.764C132.766 452.764 134.71 456.4 134.71 458.236H121.894C121.75 458.92 121.714 459.676 121.75 460.504C122.002 463.924 124.81 466.552 128.626 466.696C130.678 466.804 132.802 466.012 134.134 464.248L134.494 464.68C132.838 467.74 129.562 469.216 126.214 469.216C121.894 469.216 118.042 466.048 117.97 461.188ZM127.294 453.304C124.702 453.304 122.794 454.888 122.074 457.336H131.074C131.074 457.336 130.75 453.34 127.294 453.304ZM147.687 453.772H145.239V453.052H145.563C147.867 452.872 148.875 451.144 148.875 449.776C148.875 448.552 148.371 447.94 147.687 447.94V447.544H151.611C152.907 450.316 150.423 452.548 148.371 453.052H155.463V453.772H151.467V462.988C151.467 466.48 152.331 467.956 153.771 468.352C153.807 468.352 155.499 464.644 155.499 464.644L155.787 469H153.159C150.711 469 147.687 467.956 147.687 462.988V453.772ZM157.051 453.484V453.052H162.595V462.7C162.595 465.724 163.063 467.668 165.151 467.668C167.419 467.668 168.571 465.256 169.147 464.068V455.536C169.147 454.24 168.571 453.556 167.383 453.484V453.052H172.927V466.408C172.927 467.74 173.503 468.46 174.691 468.532V468.964H170.983L169.471 467.092C169.435 466.876 169.399 465.616 169.327 465.292C168.679 466.624 167.131 469 164.215 469C161.191 469 158.815 466.552 158.815 462.808V455.608C158.815 454.276 158.239 453.556 157.051 453.484ZM175.971 469V468.532C175.971 468.532 177.735 468.46 177.735 466.48V455.608C177.735 454.276 177.159 453.556 175.971 453.484V453.052H179.679L181.155 454.816L181.299 457.516C181.983 456.112 183.531 452.872 186.807 452.872C189.507 452.872 191.883 454.744 191.883 458.776V466.444V466.516C191.883 467.812 192.459 468.496 193.647 468.532V469H188.103V458.848C188.103 455.788 187.347 454.492 185.691 454.492C183.387 454.492 182.019 457.48 181.515 458.812V466.66L183.531 469H175.971ZM194.963 461.188C194.855 456.22 199.103 452.764 204.251 452.764C209.759 452.764 211.703 456.4 211.703 458.236H198.887C198.743 458.92 198.707 459.676 198.743 460.504C198.995 463.924 201.803 466.552 205.619 466.696C207.671 466.804 209.795 466.012 211.127 464.248L211.487 464.68C209.831 467.74 206.555 469.216 203.207 469.216C198.887 469.216 195.035 466.048 194.963 461.188ZM204.287 453.304C201.695 453.304 199.787 454.888 199.067 457.336H208.067C208.067 457.336 207.743 453.34 204.287 453.304ZM222.663 469V468.532C222.663 468.532 224.427 468.46 224.427 466.48V455.608C224.427 454.276 223.851 453.556 222.663 453.484V453.052H226.407L227.919 454.888L227.991 456.4C228.675 454.924 230.115 452.872 233.031 452.872C234.939 452.872 237.027 453.988 237.639 456.436C238.251 454.996 239.799 452.872 242.751 452.872C245.559 452.872 248.043 455.032 248.079 458.92V466.444C248.079 467.776 248.655 468.496 249.843 468.532V469H244.335V459.172C244.335 456.184 243.723 454.312 241.815 454.312C239.871 454.312 238.539 456.004 237.891 457.3C238.143 457.84 238.251 459.028 238.251 459.532V466.696L240.051 469H232.419V468.532C232.419 468.532 234.507 468.28 234.507 466.3V459.172C234.507 456.22 233.931 454.24 232.131 454.24C230.079 454.24 228.783 456.004 228.207 457.408V466.948L226.335 469H222.663ZM250.931 461.26C250.931 455.572 255.755 452.8 259.571 452.8C263.099 452.8 267.635 455.392 267.635 460.756C267.635 466.372 263.063 469.324 258.959 469.324C255.395 469.324 250.931 466.84 250.931 461.26ZM256.187 454.636C251.975 458.344 255.323 467.848 260.651 467.848C261.299 467.848 261.983 467.74 262.667 467.416C266.915 463.168 263.063 454.276 257.987 454.276C257.375 454.276 256.799 454.384 256.187 454.636ZM276.661 453.412C278.209 453.412 279.577 453.916 280.477 454.78V448.948C280.477 446.932 278.713 446.824 278.713 446.824V446.392H282.421L284.257 448.624V466.48C284.257 468.064 285.553 468.532 286.057 468.532V469H282.385L280.981 467.596L280.801 466.084C280.261 466.948 278.533 469.18 275.473 469.18C267.265 469.18 267.733 453.412 276.661 453.412ZM276.769 467.74C278.425 467.74 279.829 466.3 280.477 465.22V456.4C280.153 455.464 278.785 454.528 277.381 454.528C272.197 454.528 272.053 467.74 276.769 467.74ZM287.599 461.188C287.491 456.22 291.739 452.764 296.887 452.764C302.395 452.764 304.339 456.4 304.339 458.236H291.523C291.379 458.92 291.343 459.676 291.379 460.504C291.631 463.924 294.439 466.552 298.255 466.696C300.307 466.804 302.431 466.012 303.763 464.248L304.123 464.68C302.467 467.74 299.191 469.216 295.843 469.216C291.523 469.216 287.671 466.048 287.599 461.188ZM296.923 453.304C294.331 453.304 292.423 454.888 291.703 457.336H300.703C300.703 457.336 300.379 453.34 296.923 453.304ZM305.876 446.824V446.392H311.456V466.444C311.456 467.704 312.068 468.424 313.256 468.532V469H307.676V448.804C307.676 447.544 307.064 446.896 305.876 446.824Z" fill="white"/>
<path d="M46.9454 471.945C44.3918 474.499 41.3602 476.525 38.0238 477.907C34.6873 479.289 31.1113 480 27.5 480C23.8886 480 20.3127 479.289 16.9762 477.907C13.6397 476.525 10.6082 474.499 8.05456 471.945C5.50095 469.392 3.47532 466.36 2.09331 463.024C0.711308 459.687 -4.77154e-07 456.111 0 452.5C4.77155e-07 448.889 0.711309 445.313 2.09331 441.976C3.47532 438.64 5.50096 435.608 8.05457 433.055L11.5401 436.54C9.44427 438.636 7.78173 441.124 6.64745 443.863C5.51317 446.601 4.92936 449.536 4.92936 452.5C4.92936 455.464 5.51317 458.399 6.64745 461.137C7.78173 463.876 9.44427 466.364 11.5401 468.46C13.636 470.556 16.1242 472.218 18.8626 473.353C21.601 474.487 24.536 475.071 27.5 475.071C30.464 475.071 33.399 474.487 36.1374 473.353C38.8758 472.218 41.364 470.556 43.4599 468.46L46.9454 471.945Z" fill="url(#paint5_linear_1663_9)"/>
<path d="M16 450.794L26.4398 461L46 437" stroke="#DBFE01" stroke-width="4" stroke-linecap="round"/>
<defs>
<linearGradient id="paint0_linear_1663_9" x1="44.5" y1="52.5" x2="-5" y2="14" gradientUnits="userSpaceOnUse">
<stop stop-color="#DBFE01"/>
<stop offset="1" stop-color="#1B57E6"/>
</linearGradient>
<linearGradient id="paint1_linear_1663_9" x1="44.5" y1="137.5" x2="-5" y2="99" gradientUnits="userSpaceOnUse">
<stop stop-color="#DBFE01"/>
<stop offset="1" stop-color="#1B57E6"/>
</linearGradient>
<linearGradient id="paint2_linear_1663_9" x1="44.5" y1="222.5" x2="-5" y2="184" gradientUnits="userSpaceOnUse">
<stop stop-color="#DBFE01"/>
<stop offset="1" stop-color="#1B57E6"/>
</linearGradient>
<linearGradient id="paint3_linear_1663_9" x1="44.5" y1="307.5" x2="-5" y2="269" gradientUnits="userSpaceOnUse">
<stop stop-color="#DBFE01"/>
<stop offset="1" stop-color="#1B57E6"/>
</linearGradient>
<linearGradient id="paint4_linear_1663_9" x1="44.5" y1="392.5" x2="-5" y2="354" gradientUnits="userSpaceOnUse">
<stop stop-color="#DBFE01"/>
<stop offset="1" stop-color="#1B57E6"/>
</linearGradient>
<linearGradient id="paint5_linear_1663_9" x1="44.5" y1="477.5" x2="-5" y2="439" gradientUnits="userSpaceOnUse">
<stop stop-color="#DBFE01"/>
<stop offset="1" stop-color="#1B57E6"/>
</linearGradient>
</defs>
</svg>
