<svg width="21" height="16" viewBox="0 0 21 16" fill="none" xmlns="http://www.w3.org/2000/svg">
<path d="M10.4932 0.000292779C13.3323 0.000292779 16.1714 -0.000563856 19.0104 0.000653456C19.9666 0.00112684 20.7536 0.593773 20.955 1.46653C20.9862 1.60237 20.9977 1.74471 20.9978 1.88389C21 5.96207 21.0008 10.0401 20.9989 14.1183C20.9985 15.1839 20.1403 15.9972 19.0044 15.9977C13.3353 16.0008 7.66626 16.0007 1.99716 15.9977C0.861052 15.9971 0.00178509 15.1837 0.00130426 14.1187C-0.000498855 10.0406 -0.000306541 5.96246 0.00111193 1.88436C0.00152063 0.804772 0.864442 0.000450691 2.01692 0.000180172C4.8424 -0.000112882 7.66788 0.000180172 10.4933 0.000180172L10.4932 0.000292779ZM10.508 1.22808H5.65046C4.44391 1.22808 3.23756 1.22891 2.03101 1.22724C1.80002 1.22688 1.60485 1.29293 1.45562 1.46394C1.33267 1.6047 1.31342 1.76957 1.31342 1.94372C1.31481 5.97966 1.3145 10.0155 1.31462 14.0515C1.31462 14.0982 1.31493 14.145 1.3177 14.1916C1.32909 14.3875 1.42624 14.5395 1.59235 14.654C1.73898 14.7551 1.90876 14.7688 2.08419 14.7688C7.25013 14.7679 12.4162 14.7681 17.5821 14.7681C18.0492 14.7681 18.5164 14.7674 18.9836 14.7683C19.157 14.7686 19.3158 14.7301 19.4508 14.6234C19.6358 14.4773 19.6909 14.2849 19.6909 14.0655C19.6892 10.0295 19.6897 5.99368 19.6896 1.95776C19.6896 1.46495 19.4389 1.22808 18.9169 1.22796H10.5081L10.508 1.22808ZM16.2222 8.00421C15.7823 8.00421 15.3422 7.99546 14.9026 8.00617C14.1516 8.02461 13.5104 8.30315 12.9348 8.74534C12.5042 9.0762 12.072 9.40918 11.6121 9.70194C11.0225 10.0773 10.3687 10.3293 9.65635 10.4251C9.49977 10.4462 9.34044 10.458 9.18227 10.459C8.58366 10.4629 7.98457 10.4723 7.38625 10.457C6.86515 10.4438 6.39344 10.5768 5.94646 10.8111C5.59182 10.9968 5.27531 11.2269 4.99698 11.507C4.58568 11.9207 4.16719 12.3281 3.74517 12.7322C3.48739 12.9791 3.08645 12.9825 2.82628 12.7529C2.57067 12.5273 2.53913 12.1466 2.78529 11.9024C3.32406 11.368 3.85571 10.8245 4.42922 10.3241C5.11099 9.72919 5.92422 9.35602 6.86147 9.25228C7.00962 9.2359 7.15993 9.23209 7.30937 9.23145C7.8899 9.22922 8.47077 9.22111 9.05101 9.23366C9.4744 9.24288 9.86791 9.15312 10.2482 8.9914C10.8008 8.75648 11.3119 8.46257 11.7592 8.07398C12.3512 7.55958 13.0042 7.1317 13.7954 6.93939C14.1611 6.85055 14.5426 6.78524 14.9189 6.77537C15.8299 6.75154 16.742 6.76457 17.6537 6.76691C17.9429 6.76766 18.1613 6.89074 18.2772 7.14315C18.3862 7.38001 18.3401 7.60257 18.1604 7.7958C18.0236 7.9428 17.8433 7.99864 17.6374 7.9977C17.1657 7.99546 16.694 7.99702 16.2223 7.99702V8.00439L16.2222 8.00421ZM6.563 3.69318C7.28941 3.69386 7.87879 4.24667 7.87672 4.92547C7.87463 5.60398 7.28266 6.15373 6.55598 6.15179C5.83829 6.14983 5.25228 5.5997 5.24882 4.925C5.24533 4.2475 5.83748 3.69253 6.563 3.69318Z" fill="white"/>
</svg>
