<svg width="25" height="25" viewBox="0 0 25 25" fill="none" xmlns="http://www.w3.org/2000/svg">
<path d="M16.1177 6.23229C15.0177 5.5974 13.77 5.26316 12.5 5.26316V12.5L6.23611 16.1242C6.87208 17.2235 7.78624 18.1361 8.88664 18.7702C9.98704 19.4044 11.235 19.7377 12.5051 19.7368C13.7751 19.736 15.0225 19.4008 16.122 18.7652C17.2216 18.1295 18.1344 17.2157 18.769 16.1155C19.4035 15.0153 19.7373 13.7675 19.7368 12.4975C19.7364 11.2274 19.4017 9.97987 18.7665 8.88012C18.1311 7.78038 17.2177 6.86719 16.1177 6.23229Z" fill="#1B57E6"/>
<path fill-rule="evenodd" clip-rule="evenodd" d="M25 12.5C25 19.4036 19.4036 25 12.5 25C5.59644 25 0 19.4036 0 12.5C0 5.59644 5.59644 0 12.5 0C19.4036 0 25 5.59644 25 12.5ZM23.0263 12.5C23.0263 18.3135 18.3135 23.0263 12.5 23.0263C6.68648 23.0263 1.97368 18.3135 1.97368 12.5C1.97368 6.68647 6.68648 1.97368 12.5 1.97368C18.3135 1.97368 23.0263 6.68647 23.0263 12.5Z" fill="#1B57E6"/>
</svg>
