<svg width="21" height="21" viewBox="0 0 21 21" fill="none" xmlns="http://www.w3.org/2000/svg">
<rect x="1.75" y="3.34863" width="19.25" height="15.75" fill="#1B57E6" fill-opacity="0.6"/>
<path fill-rule="evenodd" clip-rule="evenodd" d="M16.5966 0.892578L14.242 1.17091L16.9445 3.83579L18.3749 3.67927L16.5966 0.892578ZM10.3543 1.58594L12.7088 1.30761L15.4113 3.97248L13.0568 4.25082L10.3543 1.58594ZM7.11302 5.45807H4.74206L2.37109 8.42177H4.74206L7.11302 5.45807ZM11.262 5.45807H8.89106L6.52009 8.42177H8.89106L11.262 5.45807ZM8.62986 1.73355L6.2753 2.01189L8.97778 4.67676L11.3324 4.39843L8.62986 1.73355ZM15.4113 5.45807H13.0403L10.6693 8.42177H13.0403L15.4113 5.45807ZM4.41033 2.19987L2.05576 2.4782L4.75825 5.14308L7.11282 4.86475L4.41033 2.19987ZM0 8.42101H0.592741L2.9637 5.45731L0.592741 3.08635H0V8.42101ZM18.375 8.42177H14.8186L17.1896 5.45807H18.375V8.42177ZM0 9.60642H18.375V18.2758C18.375 19.3803 17.4795 20.2758 16.375 20.2758H2C0.895434 20.2758 0 19.3803 0 18.2758V9.60642ZM11.3751 14.7242L7.00009 17.3492V12.1652L11.3751 14.7242Z" fill="url(#paint0_linear_1034_2)"/>
<defs>
<linearGradient id="paint0_linear_1034_2" x1="2.5" y1="1" x2="13.5" y2="20" gradientUnits="userSpaceOnUse">
<stop stop-color="#1B57E6"/>
<stop offset="1" stop-color="#DBFE01"/>
</linearGradient>
</defs>
</svg>
