<svg width="21" height="21" viewBox="0 0 21 21" fill="none" xmlns="http://www.w3.org/2000/svg">
<g opacity="0.65">
<rect x="1.75" y="3.34863" width="19.25" height="15.75" fill="#D9D9D9" fill-opacity="0.4"/>
<path d="M4.74206 5.45801H7.11302L4.74206 8.42171H2.37109L4.74206 5.45801Z" fill="#D9D9D9"/>
<path d="M12.7089 1.30772L10.3543 1.58606L13.0568 4.25094L15.4114 3.9726L12.7089 1.30772Z" fill="#D9D9D9"/>
<path d="M16.5965 0.892541L14.2419 1.17087L16.9444 3.83575L18.3748 3.67923L16.5965 0.892541Z" fill="#D9D9D9"/>
<path d="M8.89098 5.45801H11.2619L8.89098 8.42171H6.52002L8.89098 5.45801Z" fill="#D9D9D9"/>
<path d="M8.62983 1.73334L6.27526 2.01168L8.97775 4.67656L11.3323 4.39822L8.62983 1.73334Z" fill="#D9D9D9"/>
<path d="M13.0404 5.45801H15.4114L13.0404 8.42171H10.6694L13.0404 5.45801Z" fill="#D9D9D9"/>
<path d="M4.41029 2.20015L2.05572 2.47849L4.75821 5.14336L7.11278 4.86503L4.41029 2.20015Z" fill="#D9D9D9"/>
<path d="M0.592741 8.42061H0V3.08594H0.592741L2.9637 5.4569L0.592741 8.42061Z" fill="#D9D9D9"/>
<path d="M18.375 8.42171H14.8186L17.1896 5.45801H18.375V8.42171Z" fill="#D9D9D9"/>
<path fill-rule="evenodd" clip-rule="evenodd" d="M18.375 9.60645H0V18.2758C0 19.3804 0.895434 20.2758 2 20.2758H16.375C17.4795 20.2758 18.375 19.3804 18.375 18.2758V9.60645ZM7.00009 17.3492L11.3751 14.7242L7.00009 12.1652V17.3492Z" fill="#D9D9D9"/>
</g>
</svg>
