<svg xmlns="http://www.w3.org/2000/svg" xmlns:xlink="http://www.w3.org/1999/xlink" fill="none" version="1.1" width="18" height="18" viewBox="0 0 18 18"><defs><clipPath id="master_svg0_13_6125"><rect x="0" y="0" width="18" height="18" rx="0"/></clipPath></defs><g clip-path="url(#master_svg0_13_6125)"><g><path d="M8.8226305859375,0.38671875C4.0656405859374996,0.38671875,0.2093505859375,4.2430087499999996,0.2093505859375,8.99999875C0.2093505859375,13.75701875,4.0656405859374996,17.61331875,8.8226305859375,17.61331875C13.5796505859375,17.61331875,17.4359505859375,13.75701875,17.4359505859375,8.99999875C17.4357505859375,4.2430087499999996,13.5794505859375,0.38671875,8.8226305859375,0.38671875ZM8.3631405859375,4.29134875C8.3631405859375,4.00429875,8.5928905859375,3.83202875,8.8226305859375,3.83202875C9.1096805859375,3.83202875,9.2819505859375,4.06177875,9.2819505859375,4.29134875L9.2819505859375,8.65546875C9.2819505859375,8.94269875,9.1096805859375,9.11495875,8.8226305859375,9.11495875C8.5354005859375,9.11495875,8.3631405859375,8.88521875,8.3631405859375,8.65546875L8.3631405859375,4.29134875ZM8.8226305859375,14.16801875C6.2959505859375,14.16801875,4.2289405859375,12.04331875,4.2289405859375,9.45931875C4.2289405859375,7.50691875,5.4348005859375,5.84173875,7.0999805859375,5.15267875L7.2722405859375,5.15267875C7.5592905859375,5.15267875,7.7317305859375,5.38224875,7.7317305859375,5.61216875C7.7317305859375,5.84191875,7.6169505859375,6.01400875,7.3872005859375,6.07148875C6.0665605859375,6.64575875,5.1477505859375,7.96640875,5.1477505859375,9.51679875C5.1477505859375,11.58401875,6.7556205859375,13.24911875,8.7653305859375,13.24911875C10.7750505859375,13.24911875,12.3829505859375,11.58401875,12.3829505859375,9.51679875C12.3829505859375,7.96640875,11.4640505859375,6.64575875,10.1434505859375,6.07148875C9.9711905859375,6.01400875,9.7989205859375,5.84173875,9.7989205859375,5.61216875C9.7989205859375,5.32493875,10.0286705859375,5.15267875,10.2584505859375,5.15267875L10.4306505859375,5.15267875C12.0958505859375,5.84173875,13.3018505859375,7.50691875,13.3018505859375,9.45931875C13.4163505859375,12.04331875,11.3491505859375,14.16801875,8.8226305859375,14.16801875Z" fill="#FFFFFF" fill-opacity="1"/></g></g></svg>