<svg width="16" height="16" viewBox="0 0 16 16" fill="none" xmlns="http://www.w3.org/2000/svg">
<path d="M13.9636 0.246557C13.8057 0.0886866 13.5915 0 13.3682 0C13.1449 0 12.9308 0.0886866 12.7729 0.246557L7.40445 5.61498C7.24651 5.77287 7.15776 5.98703 7.15771 6.21035V7.99982C7.15771 8.22316 7.24644 8.43735 7.40436 8.59528C7.56229 8.7532 7.77648 8.84193 7.99982 8.84193H9.78929C10.0126 8.84188 10.2268 8.75313 10.3847 8.59519L15.7531 3.22677C15.911 3.06885 15.9996 2.8547 15.9996 2.6314C15.9996 2.4081 15.911 2.19395 15.7531 2.03603L13.9636 0.246557ZM8.84193 7.15772V6.55982L13.3682 2.03266L13.9661 2.6314L9.4415 7.15772H8.84193Z" fill="#74B0C6"/>
<path d="M2.63158 7.15771C1.93364 7.15771 1.26429 7.43497 0.770772 7.92849C0.277255 8.422 0 9.09136 0 9.78929C0 10.4872 0.277255 11.1566 0.770772 11.6501C1.26429 12.1436 1.93364 12.4209 2.63158 12.4209H13.3684C13.6197 12.4209 13.8606 12.5207 14.0383 12.6984C14.216 12.876 14.3158 13.117 14.3158 13.3682C14.3158 13.6195 14.216 13.8605 14.0383 14.0381C13.8606 14.2158 13.6197 14.3156 13.3684 14.3156H5.85263C5.74203 14.3156 5.63252 14.3374 5.53033 14.3797C5.42815 14.422 5.3353 14.484 5.25709 14.5622C5.17888 14.6404 5.11684 14.7332 5.07451 14.8354C5.03218 14.9376 5.0104 15.0471 5.0104 15.1577C5.0104 15.2683 5.03218 15.3778 5.07451 15.48C5.11684 15.5822 5.17888 15.675 5.25709 15.7532C5.3353 15.8314 5.42815 15.8934 5.53033 15.9358C5.63252 15.9781 5.74203 15.9998 5.85263 15.9998H13.3684C14.0664 15.9998 14.7357 15.7226 15.2292 15.229C15.7227 14.7355 16 14.0662 16 13.3682C16 12.6703 15.7227 12.001 15.2292 11.5074C14.7357 11.0139 14.0664 10.7367 13.3684 10.7367H2.63158C2.38032 10.7367 2.13935 10.6369 1.96169 10.4592C1.78402 10.2815 1.68421 10.0406 1.68421 9.78929C1.68421 9.53804 1.78402 9.29707 1.96169 9.1194C2.13935 8.94174 2.38032 8.84193 2.63158 8.84193H5.13684C5.36018 8.84193 5.57438 8.7532 5.7323 8.59528C5.89023 8.43735 5.97895 8.22316 5.97895 7.99982C5.97895 7.77648 5.89023 7.56229 5.7323 7.40436C5.57438 7.24644 5.36018 7.15771 5.13684 7.15771H2.63158Z" fill="#74B0C6"/>
</svg>
