<svg width="61" height="24" viewBox="0 0 61 24" fill="none" xmlns="http://www.w3.org/2000/svg">
<path d="M0 12C0 5.37258 5.37258 0 12 0H61V24H12C5.37258 24 0 18.6274 0 12Z" fill="#DBFE01"/>
<path d="M20.044 16V7.54H23.392C24.304 7.54 25 7.752 25.48 8.176C25.968 8.6 26.212 9.204 26.212 9.988C26.212 10.612 26.04 11.124 25.696 11.524C25.36 11.924 24.88 12.184 24.256 12.304C24.624 12.432 24.94 12.744 25.204 13.24L26.692 16H25.612L24.148 13.288C23.964 12.952 23.752 12.724 23.512 12.604C23.272 12.484 22.956 12.424 22.564 12.424H21.028V16H20.044ZM21.028 11.644H23.248C24.576 11.644 25.24 11.092 25.24 9.988C25.24 8.9 24.576 8.356 23.248 8.356H21.028V11.644ZM30.4384 16.108C29.5184 16.108 28.7904 15.84 28.2544 15.304C27.7184 14.76 27.4504 14.024 27.4504 13.096C27.4504 12.496 27.5704 11.968 27.8104 11.512C28.0504 11.048 28.3784 10.692 28.7944 10.444C29.2184 10.188 29.7064 10.06 30.2584 10.06C31.0504 10.06 31.6704 10.316 32.1184 10.828C32.5664 11.332 32.7904 12.028 32.7904 12.916V13.288H28.3984C28.4304 13.952 28.6224 14.46 28.9744 14.812C29.3264 15.156 29.8144 15.328 30.4384 15.328C30.7904 15.328 31.1264 15.276 31.4464 15.172C31.7664 15.06 32.0704 14.88 32.3584 14.632L32.6944 15.316C32.4304 15.564 32.0944 15.76 31.6864 15.904C31.2784 16.04 30.8624 16.108 30.4384 16.108ZM30.2824 10.78C29.7304 10.78 29.2944 10.952 28.9744 11.296C28.6544 11.64 28.4664 12.092 28.4104 12.652H31.9504C31.9264 12.06 31.7704 11.6 31.4824 11.272C31.2024 10.944 30.8024 10.78 30.2824 10.78ZM34.1972 18.16V10.168H35.1452V11.212C35.3212 10.852 35.5812 10.572 35.9252 10.372C36.2772 10.164 36.6852 10.06 37.1492 10.06C37.6692 10.06 38.1212 10.184 38.5052 10.432C38.8972 10.672 39.1972 11.02 39.4052 11.476C39.6212 11.924 39.7292 12.46 39.7292 13.084C39.7292 13.7 39.6212 14.236 39.4052 14.692C39.1972 15.14 38.8972 15.488 38.5052 15.736C38.1212 15.984 37.6692 16.108 37.1492 16.108C36.7012 16.108 36.3012 16.008 35.9492 15.808C35.5972 15.608 35.3372 15.332 35.1692 14.98V18.16H34.1972ZM36.9452 15.328C37.4892 15.328 37.9252 15.136 38.2532 14.752C38.5812 14.36 38.7452 13.804 38.7452 13.084C38.7452 12.356 38.5812 11.8 38.2532 11.416C37.9252 11.032 37.4892 10.84 36.9452 10.84C36.4012 10.84 35.9652 11.032 35.6372 11.416C35.3092 11.8 35.1452 12.356 35.1452 13.084C35.1452 13.804 35.3092 14.36 35.6372 14.752C35.9652 15.136 36.4012 15.328 36.9452 15.328ZM42.9813 16.108C42.3893 16.108 41.9413 15.936 41.6373 15.592C41.3413 15.24 41.1933 14.732 41.1933 14.068V7.54H42.1653V13.996C42.1653 14.852 42.5053 15.28 43.1853 15.28C43.3853 15.28 43.5653 15.256 43.7253 15.208L43.7013 16.024C43.4533 16.08 43.2133 16.108 42.9813 16.108ZM46.58 16.108C46.18 16.108 45.82 16.032 45.5 15.88C45.188 15.72 44.94 15.504 44.756 15.232C44.572 14.96 44.48 14.656 44.48 14.32C44.48 13.896 44.588 13.56 44.804 13.312C45.028 13.064 45.392 12.888 45.896 12.784C46.408 12.672 47.104 12.616 47.984 12.616H48.368V12.244C48.368 11.748 48.264 11.392 48.056 11.176C47.856 10.952 47.532 10.84 47.084 10.84C46.732 10.84 46.392 10.892 46.064 10.996C45.736 11.092 45.4 11.252 45.056 11.476L44.72 10.768C45.024 10.552 45.392 10.38 45.824 10.252C46.264 10.124 46.684 10.06 47.084 10.06C47.836 10.06 48.392 10.244 48.752 10.612C49.12 10.98 49.304 11.552 49.304 12.328V16H48.392V14.992C48.24 15.336 48.004 15.608 47.684 15.808C47.372 16.008 47.004 16.108 46.58 16.108ZM46.736 15.376C47.216 15.376 47.608 15.212 47.912 14.884C48.216 14.548 48.368 14.124 48.368 13.612V13.252H47.996C47.348 13.252 46.836 13.284 46.46 13.348C46.092 13.404 45.832 13.508 45.68 13.66C45.536 13.804 45.464 14.004 45.464 14.26C45.464 14.588 45.576 14.856 45.8 15.064C46.032 15.272 46.344 15.376 46.736 15.376ZM51.7207 18.16L52.7167 15.904L50.2567 10.168H51.3127L53.2447 14.896L55.1887 10.168H56.2087L52.7407 18.16H51.7207Z" fill="#1B57E6"/>
<path d="M13 7L8 12.0549L13 17" stroke="#1B57E6" stroke-width="2" stroke-linecap="round"/>
</svg>
