<svg width="24" height="23" viewBox="0 0 24 23" fill="none" xmlns="http://www.w3.org/2000/svg">
<circle cx="7" cy="19.2368" r="3" stroke="white" stroke-width="1.5"/>
<circle cx="17" cy="19.2368" r="3" stroke="white" stroke-width="1.5"/>
<path d="M14 19.2369L7.5 10.7369M7.5 10.7369L1.61828 2.87082C1.29856 2.44324 1.38024 1.82365 1.89853 1.69552C3.11485 1.39483 5.12648 1.85373 7.34522 5.06119C8.35 6.51372 9.19713 9.61949 7.5 10.7369Z" stroke="white" stroke-width="1.5" stroke-linecap="round"/>
<path d="M10.0001 19.2369L16.5001 10.7369M16.5001 10.7369L22.3312 2.86999C22.6481 2.44238 22.5657 1.82502 22.0492 1.69647C20.8332 1.39386 18.8197 1.85034 16.5986 5.06119C15.5938 6.51372 14.803 9.61949 16.5001 10.7369Z" stroke="white" stroke-width="1.5" stroke-linecap="round"/>
</svg>
