<svg width="17" height="17" viewBox="0 0 17 17" fill="none" xmlns="http://www.w3.org/2000/svg">
<rect x="6" y="3" width="11" height="2" rx="1" fill=""/>
<rect y="3" width="2" height="2" rx="1" fill=""/>
<rect y="9" width="6" height="2" rx="1" fill=""/>
<path d="M10 10C10 9.44772 10.4477 9 11 9H16C16.5523 9 17 9.44772 17 10C17 10.5523 16.5523 11 16 11H11C10.4477 11 10 10.5523 10 10Z" fill=""/>
<rect y="15" width="17" height="2" rx="1" fill=""/>
<path d="M9 8.5V8C9 7.44772 8.55228 7 8 7V7C7.44772 7 7 7.44772 7 8V12C7 12.5523 7.44772 13 8 13V13C8.55228 13 9 12.5523 9 12V10.5" stroke="" stroke-linecap="round" stroke-linejoin="round"/>
<path d="M5 2.5V2C5 1.44772 4.55228 1 4 1V1C3.44772 1 3 1.44772 3 2V6C3 6.55228 3.44772 7 4 7V7C4.55228 7 5 6.55228 5 6V4.5" stroke="" stroke-linecap="round" stroke-linejoin="round"/>
</svg>
