<svg width="468" height="126" viewBox="0 0 468 126" fill="none" xmlns="http://www.w3.org/2000/svg">
<path d="M20.504 43.192C8.28 43.192 0.792 33.016 0.792 22.712C0.792 12.408 7.576 2.488 20.44 2.488C23.256 2.488 26.584 3.192 29.144 3.704L31.96 2.36V14.136L26.072 4.6C24.152 3.896 22.296 3.512 20.44 3.512C11.16 3.512 6.808 11.192 7.192 19.256C7.576 28.344 14.04 38.84 24.728 39.096C28.376 39.16 31.832 37.496 34.008 34.168L34.648 35C31.832 40.568 26.328 43.192 20.504 43.192ZM38.35 29.24C38.35 19.128 46.926 14.2 53.71 14.2C59.982 14.2 68.046 18.808 68.046 28.344C68.046 38.328 59.918 43.576 52.622 43.576C46.286 43.576 38.35 39.16 38.35 29.24ZM47.694 17.464C40.206 24.056 46.158 40.952 55.63 40.952C56.782 40.952 57.998 40.76 59.214 40.184C66.766 32.632 59.918 16.824 50.894 16.824C49.806 16.824 48.782 17.016 47.694 17.464ZM70.908 43V42.168C70.908 42.168 74.044 42.04 74.044 38.52V19.192C74.044 16.824 73.02 15.544 70.908 15.416V14.648H77.564L80.252 17.912L80.38 20.6C81.596 17.976 84.156 14.328 89.34 14.328C92.732 14.328 96.444 16.312 97.532 20.664C98.62 18.104 101.372 14.328 106.62 14.328C111.612 14.328 116.028 18.168 116.092 25.08V38.456C116.092 40.824 117.116 42.104 119.228 42.168V43H109.436V25.528C109.436 20.216 108.348 16.888 104.956 16.888C101.5 16.888 99.132 19.896 97.98 22.2C98.428 23.16 98.62 25.272 98.62 26.168V38.904L101.82 43H88.252V42.168C88.252 42.168 91.964 41.72 91.964 38.2V25.528C91.964 20.28 90.94 16.76 87.74 16.76C84.092 16.76 81.788 19.896 80.764 22.392V39.352L77.436 43H70.908ZM121.596 43V42.168C121.596 42.168 124.732 42.04 124.732 38.52V19.192C124.732 16.824 123.708 15.544 121.596 15.416V14.648H128.252L130.94 17.912L131.068 20.6C132.284 17.976 134.844 14.328 140.028 14.328C143.42 14.328 147.132 16.312 148.22 20.664C149.308 18.104 152.06 14.328 157.308 14.328C162.3 14.328 166.716 18.168 166.78 25.08V38.456C166.78 40.824 167.804 42.104 169.916 42.168V43H160.124V25.528C160.124 20.216 159.036 16.888 155.644 16.888C152.188 16.888 149.82 19.896 148.668 22.2C149.116 23.16 149.308 25.272 149.308 26.168V38.904L152.507 43H138.94V42.168C138.94 42.168 142.652 41.72 142.652 38.2V25.528C142.652 20.28 141.628 16.76 138.428 16.76C134.78 16.76 132.476 19.896 131.452 22.392V39.352L128.124 43H121.596ZM170.578 15.416V14.648H180.434V31.8C180.434 37.176 181.266 40.632 184.978 40.632C189.01 40.632 191.058 36.344 192.082 34.232V19.064C192.082 16.76 191.058 15.544 188.946 15.416V14.648H198.802V38.392C198.802 40.76 199.826 42.04 201.938 42.168V42.936H195.346L192.658 39.608C192.594 39.224 192.53 36.984 192.402 36.408C191.25 38.776 188.498 43 183.314 43C177.938 43 173.714 38.648 173.714 31.992V19.192C173.714 16.824 172.69 15.544 170.578 15.416ZM204.213 43V42.168C204.213 42.168 207.349 42.04 207.349 38.52V19.192C207.349 16.824 206.325 15.544 204.213 15.416V14.648H210.805L213.429 17.784L213.685 22.584C214.901 20.088 217.653 14.328 223.477 14.328C228.277 14.328 232.501 17.656 232.501 24.824V38.456V38.584C232.501 40.888 233.525 42.104 235.637 42.168V43H225.781V24.952C225.781 19.512 224.437 17.208 221.493 17.208C217.397 17.208 214.965 22.52 214.069 24.888V38.84L217.653 43H204.213ZM236.846 15.416V14.648H246.766V38.456C246.766 40.696 247.854 41.976 249.966 42.168V43H240.046V19.128C240.046 16.888 238.958 15.672 236.846 15.416ZM238.19 5.304L242.862 0.695999L247.47 5.304L242.862 9.976L238.19 5.304ZM256.305 15.928H251.953V14.648H252.529C256.625 14.328 258.417 11.256 258.417 8.824C258.417 6.648 257.521 5.56 256.305 5.56V4.856H263.281C265.585 9.784 261.169 13.752 257.521 14.648H270.128V15.928H263.025V32.312C263.025 38.52 264.561 41.144 267.121 41.848C267.185 41.848 270.193 35.256 270.193 35.256L270.705 43H266.033C261.681 43 256.305 41.144 256.305 32.312V15.928ZM286.479 45.496L271.183 14.648H282.959L283.151 15.416C283.151 15.416 279.503 16.696 281.167 20.088L289.807 38.264L297.167 21.944L291.919 14.648H302.607L285.391 51.64C283.471 55.288 280.463 57.528 275.599 57.848L275.663 49.08L278.479 52.28C278.991 52.408 279.503 52.472 280.015 52.472C281.359 52.472 282.703 52.088 283.855 51.32L286.479 45.496Z" fill="#DBFE01"/>
<path d="M339.805 37.56C339.805 31.352 321.629 32.888 321.629 22.392C321.629 17.016 327.645 14.2 332.445 14.2C335.325 14.2 337.821 14.648 340.445 15.48L343.517 14.072V24.504L335.581 15.8C334.557 15.48 333.533 15.352 332.509 15.352C329.117 15.352 326.301 17.144 326.301 19.64C326.301 26.68 344.797 25.848 344.797 35.192C344.797 39.736 340.637 43.512 334.045 43.512C330.717 43.512 327.26 42.488 324.829 41.72L321.821 42.872L321.885 32.568L329.629 41.08C331.293 41.72 332.829 42.04 334.173 42.04C337.693 42.04 339.805 39.992 339.805 37.56ZM348.715 3.576V2.808H355.307L358.507 6.776V21.368C359.915 18.808 362.603 14.328 367.915 14.328C372.395 14.328 376.619 17.016 376.619 25.272V38.456V38.584C376.619 40.888 377.643 42.104 379.755 42.168V43H369.515V25.528C369.515 19.64 368.427 17.272 365.419 17.272C361.899 17.272 359.531 21.368 358.507 23.864V43H348.715V42.168C348.715 42.168 351.851 42.04 351.851 38.456V7.352C351.851 3.768 348.715 3.576 348.715 3.576ZM389.053 43.448C384.893 43.448 380.669 40.888 380.924 36.28C381.437 27.64 394.173 29.304 399.677 23.608V21.304C399.677 17.208 397.053 15.8 394.109 15.8C393.085 15.8 392.061 15.992 391.037 16.248L383.165 24.568L383.101 14.072L386.045 15.928C389.053 14.968 392.061 14.328 394.557 14.2C400.445 13.944 406.333 16.312 406.461 23.096V38.904C406.461 42.04 408.957 42.168 409.021 42.168V43H402.941L399.805 39.544L399.677 37.56C397.565 40.056 393.661 43.448 389.053 43.448ZM389.117 35.128C388.989 37.88 390.781 39.48 393.213 39.48C395.197 39.48 397.565 38.392 399.677 36.088V25.784C395.133 28.536 389.373 30.072 389.117 35.128ZM411.969 15.416V14.648H418.625L421.249 17.848L421.505 21.816C421.825 21.496 422.209 21.112 422.465 20.856C425.665 16.76 430.209 13.944 435.393 14.776L433.921 23.288L430.081 17.272C430.081 17.272 426.369 16.632 422.977 22.456C422.593 22.904 422.145 23.48 421.825 24.184V43H411.969V42.04C411.969 42.04 415.105 42.04 415.105 38.456V19.192C415.105 16.824 414.081 15.544 411.969 15.416ZM437.663 29.112C437.471 20.28 445.023 14.136 454.175 14.136C463.967 14.136 467.423 20.6 467.423 23.864H444.639C444.383 25.08 444.319 26.424 444.383 27.896C444.831 33.976 449.823 38.648 456.607 38.904C460.255 39.096 464.031 37.688 466.399 34.552L467.039 35.32C464.095 40.76 458.271 43.384 452.319 43.384C444.639 43.384 437.791 37.752 437.663 29.112ZM454.239 15.096C449.631 15.096 446.239 17.912 444.959 22.264H460.959C460.959 22.264 460.383 15.16 454.239 15.096ZM0.408 85.416V84.648H10.328V108.456C10.328 110.696 11.416 111.976 13.528 112.168V113H3.608V89.128C3.608 86.888 2.52 85.672 0.408 85.416ZM1.752 75.304L6.424 70.696L11.032 75.304L6.424 79.976L1.752 75.304ZM15.963 113V112.168C15.963 112.168 19.099 112.04 19.099 108.52V89.192C19.099 86.824 18.075 85.544 15.963 85.416V84.648H22.555L25.179 87.784L25.435 92.584C26.651 90.088 29.403 84.328 35.227 84.328C40.027 84.328 44.251 87.656 44.251 94.824V108.456V108.584C44.251 110.888 45.275 112.104 47.387 112.168V113H37.531V94.952C37.531 89.512 36.187 87.208 33.243 87.208C29.147 87.208 26.715 92.52 25.819 94.888V108.84L29.403 113H15.963ZM68.367 107.56C68.367 101.352 50.191 102.888 50.191 92.392C50.191 87.016 56.207 84.2 61.007 84.2C63.887 84.2 66.383 84.648 69.007 85.48L72.079 84.072V94.504L64.143 85.8C63.119 85.48 62.095 85.352 61.071 85.352C57.679 85.352 54.863 87.144 54.863 89.64C54.863 96.68 73.359 95.848 73.359 105.192C73.359 109.736 69.199 113.512 62.607 113.512C59.279 113.512 55.823 112.488 53.391 111.72L50.383 112.872L50.447 102.568L58.191 111.08C59.855 111.72 61.391 112.04 62.735 112.04C66.255 112.04 68.367 109.992 68.367 107.56ZM76.829 85.416V84.648H83.357L85.981 87.336L86.365 90.024C87.453 88.488 90.525 84.84 95.645 84.84C110.237 84.84 109.405 112.808 93.533 112.808C90.781 112.808 88.349 111.976 86.749 110.44V121.832L83.485 125.8H76.893V125.032C76.893 125.032 80.029 124.904 80.029 121.32V89.128C80.029 86.76 78.941 85.544 76.829 85.416ZM86.749 91.88V108.008C87.389 109.544 89.245 110.952 91.613 110.952C100.829 110.952 102.045 86.952 93.661 86.952C90.717 86.952 88.029 89.832 86.749 91.88ZM109.346 85.416V84.648H119.266V108.456C119.266 110.696 120.354 111.976 122.466 112.168V113H112.546V89.128C112.546 86.888 111.458 85.672 109.346 85.416ZM110.69 75.304L115.362 70.696L119.97 75.304L115.362 79.976L110.69 75.304ZM125.157 85.416V84.648H131.812L134.437 87.848L134.693 91.816C135.013 91.496 135.397 91.112 135.653 90.856C138.853 86.76 143.397 83.944 148.581 84.776L147.109 93.288L143.269 87.272C143.269 87.272 139.557 86.632 136.165 92.456C135.781 92.904 135.333 93.48 135.013 94.184V113H125.157V112.04C125.157 112.04 128.293 112.04 128.293 108.456V89.192C128.293 86.824 127.269 85.544 125.157 85.416ZM159.428 113.448C155.268 113.448 151.044 110.888 151.299 106.28C151.812 97.64 164.548 99.304 170.052 93.608V91.304C170.052 87.208 167.428 85.8 164.484 85.8C163.46 85.8 162.436 85.992 161.412 86.248L153.54 94.568L153.476 84.072L156.42 85.928C159.428 84.968 162.436 84.328 164.932 84.2C170.82 83.944 176.708 86.312 176.836 93.096V108.904C176.836 112.04 179.332 112.168 179.396 112.168V113H173.316L170.18 109.544L170.052 107.56C167.94 110.056 164.036 113.448 159.428 113.448ZM159.492 105.128C159.364 107.88 161.156 109.48 163.588 109.48C165.572 109.48 167.94 108.392 170.052 106.088V95.784C165.508 98.536 159.748 100.072 159.492 105.128ZM185.055 85.928H180.703V84.648H181.279C185.375 84.328 187.167 81.256 187.167 78.824C187.167 76.648 186.271 75.56 185.055 75.56V74.856H192.031C194.335 79.784 189.919 83.752 186.271 84.648H198.878V85.928H191.775V102.312C191.775 108.52 193.311 111.144 195.871 111.848C195.935 111.848 198.943 105.256 198.943 105.256L199.455 113H194.783C190.431 113 185.055 111.144 185.055 102.312V85.928ZM202.471 85.416V84.648H212.391V108.456C212.391 110.696 213.479 111.976 215.591 112.168V113H205.671V89.128C205.671 86.888 204.583 85.672 202.471 85.416ZM203.815 75.304L208.487 70.696L213.095 75.304L208.487 79.976L203.815 75.304ZM217.913 99.24C217.913 89.128 226.489 84.2 233.273 84.2C239.545 84.2 247.609 88.808 247.609 98.344C247.609 108.328 239.481 113.576 232.185 113.576C225.849 113.576 217.913 109.16 217.913 99.24ZM227.257 87.464C219.769 94.056 225.72 110.952 235.193 110.952C236.345 110.952 237.561 110.76 238.777 110.184C246.329 102.632 239.481 86.824 230.457 86.824C229.369 86.824 228.345 87.016 227.257 87.464ZM250.151 113V112.168C250.151 112.168 253.286 112.04 253.286 108.52V89.192C253.286 86.824 252.263 85.544 250.151 85.416V84.648H256.743L259.367 87.784L259.623 92.584C260.839 90.088 263.591 84.328 269.415 84.328C274.215 84.328 278.439 87.656 278.439 94.824V108.456V108.584C278.439 110.888 279.463 112.104 281.575 112.168V113H271.719V94.952C271.719 89.512 270.375 87.208 267.431 87.208C263.335 87.208 260.903 92.52 260.007 94.888V108.84L263.591 113H250.151Z" fill="white"/>
</svg>
