<svg width="270" height="59" viewBox="0 0 270 59" fill="none" xmlns="http://www.w3.org/2000/svg">
<mask id="path-1-inside-1_1812_23" fill="white">
<path d="M0 10C0 4.47715 4.47715 0 10 0H260C265.523 0 270 4.47715 270 10V49C270 54.5228 265.523 59 260 59H9.99999C4.47715 59 0 54.5228 0 49V10Z"/>
</mask>
<path d="M-2 10C-2 3.92487 2.92487 -1 9 -1H261C267.075 -1 272 3.92487 272 10H268C268 5.02944 264.418 1 260 1H10C5.58172 1 2 5.02944 2 10H-2ZM272 52C272 58.6274 266.627 64 260 64H10C3.37258 64 -2 58.6274 -2 52L2 49C2 51.7614 5.58172 54 10 54H260C264.418 54 268 51.7614 268 49L272 52ZM10 64C3.37258 64 -2 58.6274 -2 52V10C-2 3.92487 2.92487 -1 9 -1L10 1C5.58172 1 2 5.02944 2 10V49C2 51.7614 5.58172 54 10 54V64ZM261 -1C267.075 -1 272 3.92487 272 10V52C272 58.6274 266.627 64 260 64V54C264.418 54 268 51.7614 268 49V10C268 5.02944 264.418 1 260 1L261 -1Z" fill="#DBFE01" mask="url(#path-1-inside-1_1812_23)"/>
<path d="M34.096 15.14C35.752 15.14 37.408 15.5 38.992 15.824C38.992 15.788 40.54 15.068 40.576 15.068V21.692L37.012 16.256C36.076 15.896 35.104 15.716 34.096 15.716C29.416 15.716 26.572 19.784 26.572 24.212C26.572 29.648 30.82 35.588 36.58 35.696C37.696 35.696 38.74 35.192 39.388 34.292V29.612C39.388 27.776 37.192 26.948 35.644 26.84V26.372H41.08L43.168 28.064V38.036L40.684 35.228C39.028 37.1 36.616 38.036 34.132 38.036C28.012 38.036 23.008 32.852 23.008 26.732C23.008 20.36 27.58 15.14 34.096 15.14ZM44.8375 30.188C44.7295 25.22 48.9775 21.764 54.1255 21.764C59.6335 21.764 61.5775 25.4 61.5775 27.236H48.7615C48.6175 27.92 48.5815 28.676 48.6175 29.504C48.8695 32.924 51.6775 35.552 55.4935 35.696C57.5455 35.804 59.6695 35.012 61.0015 33.248L61.3615 33.68C59.7055 36.74 56.4295 38.216 53.0815 38.216C48.7615 38.216 44.9095 35.048 44.8375 30.188ZM54.1615 22.304C51.5695 22.304 49.6615 23.888 48.9415 26.336H57.9415C57.9415 26.336 57.6175 22.34 54.1615 22.304ZM65.2025 22.772H62.7545V22.052H63.0785C65.3825 21.872 66.3905 20.144 66.3905 18.776C66.3905 17.552 65.8865 16.94 65.2025 16.94V16.544H69.1265C70.4225 19.316 67.9385 21.548 65.8865 22.052H72.9785V22.772H68.9825V31.988C68.9825 35.48 69.8465 36.956 71.2865 37.352C71.3225 37.352 73.0145 33.644 73.0145 33.644L73.3025 38H70.6745C68.2265 38 65.2025 36.956 65.2025 31.988V22.772ZM93.8906 15.068C96.9866 15.068 99.7586 15.968 101.271 16.544L100.299 23.384L96.7706 16.76C96.7706 16.76 96.1226 15.788 93.8186 15.788C90.9386 15.788 88.3106 17.3 88.3106 20.288C88.3106 22.556 89.8226 24.176 95.0786 26.048C97.7426 26.984 102.099 28.82 102.099 32.456C102.099 35.768 98.4266 38.216 92.9186 38.216C90.0386 38.216 87.1586 37.82 85.3586 37.352V30.332L89.8226 36.776C89.8226 36.776 90.9026 37.424 93.0986 37.424C96.1226 37.424 98.6426 36.236 98.6426 34.04C98.6426 31.232 94.4306 30.008 91.9466 29.108C87.4826 27.416 84.7106 25.184 84.7106 21.692C84.7106 17.264 89.1386 15.068 93.8906 15.068ZM105.562 22.772H103.114V22.052H103.438C105.742 21.872 106.75 20.144 106.75 18.776C106.75 17.552 106.246 16.94 105.562 16.94V16.544H109.486C110.782 19.316 108.298 21.548 106.246 22.052H113.338V22.772H109.342V31.988C109.342 35.48 110.206 36.956 111.646 37.352C111.682 37.352 113.374 33.644 113.374 33.644L113.662 38H111.034C108.586 38 105.562 36.956 105.562 31.988V22.772ZM120.326 38.252C117.986 38.252 115.61 36.812 115.754 34.22C116.042 29.36 123.206 30.296 126.302 27.092V25.796C126.302 23.492 124.826 22.7 123.17 22.7C122.594 22.7 122.018 22.808 121.442 22.952L117.014 27.632L116.978 21.728L118.634 22.772C120.326 22.232 122.018 21.872 123.422 21.8C126.734 21.656 130.046 22.988 130.118 26.804V35.696C130.118 37.46 131.522 37.532 131.558 37.532V38H128.138L126.374 36.056L126.302 34.94C125.114 36.344 122.918 38.252 120.326 38.252ZM120.362 33.572C120.29 35.12 121.298 36.02 122.666 36.02C123.782 36.02 125.114 35.408 126.302 34.112V28.316C123.746 29.864 120.506 30.728 120.362 33.572ZM133.217 22.484V22.052H136.961L138.437 23.852L138.581 26.084C138.761 25.904 138.977 25.688 139.121 25.544C140.921 23.24 143.477 21.656 146.393 22.124L145.565 26.912L143.405 23.528C143.405 23.528 141.317 23.168 139.409 26.444C139.193 26.696 138.941 27.02 138.761 27.416V38H133.217V37.46C133.217 37.46 134.981 37.46 134.981 35.444V24.608C134.981 23.276 134.405 22.556 133.217 22.484ZM149.964 22.772H147.516V22.052H147.84C150.144 21.872 151.152 20.144 151.152 18.776C151.152 17.552 150.648 16.94 149.964 16.94V16.544H153.888C155.184 19.316 152.7 21.548 150.648 22.052H157.74V22.772H153.744V31.988C153.744 35.48 154.608 36.956 156.048 37.352C156.084 37.352 157.776 33.644 157.776 33.644L158.064 38H155.436C152.988 38 149.964 36.956 149.964 31.988V22.772ZM159.869 30.188C159.761 25.22 164.009 21.764 169.157 21.764C174.665 21.764 176.609 25.4 176.609 27.236H163.793C163.649 27.92 163.613 28.676 163.649 29.504C163.901 32.924 166.709 35.552 170.525 35.696C172.577 35.804 174.701 35.012 176.033 33.248L176.393 33.68C174.737 36.74 171.461 38.216 168.113 38.216C163.793 38.216 159.941 35.048 159.869 30.188ZM169.193 22.304C166.601 22.304 164.693 23.888 163.973 26.336H172.973C172.973 26.336 172.649 22.34 169.193 22.304ZM185.634 22.412C187.182 22.412 188.55 22.916 189.45 23.78V17.948C189.45 15.932 187.686 15.824 187.686 15.824V15.392H191.394L193.23 17.624V35.48C193.23 37.064 194.526 37.532 195.03 37.532V38H191.358L189.954 36.596L189.774 35.084C189.234 35.948 187.506 38.18 184.446 38.18C176.238 38.18 176.706 22.412 185.634 22.412ZM185.742 36.74C187.398 36.74 188.802 35.3 189.45 34.22V25.4C189.126 24.464 187.758 23.528 186.354 23.528C181.17 23.528 181.026 36.74 185.742 36.74Z" fill="url(#paint0_linear_1812_23)"/>
<path d="M219 32.7647L219.054 26.4286H242.937L232.677 16.5282C231.713 15.5982 230.182 15.6118 229.235 16.5588L228.809 16.1324L230.941 14L234.353 14.4265L248 27.3492V28.5V29.6508L234.353 42.5735L230.941 43L228.809 40.8676L229.235 40.4412C230.068 41.2741 231.411 41.2982 232.273 40.4957L242.937 30.5714H221.675C220.454 30.5714 219.457 31.5447 219.426 32.7647H219Z" fill="#DBFE01"/>
<defs>
<linearGradient id="paint0_linear_1812_23" x1="22" y1="29" x2="196" y2="29" gradientUnits="userSpaceOnUse">
<stop stop-color="white"/>
<stop offset="1" stop-color="#DBFE01"/>
</linearGradient>
</defs>
</svg>
