<svg width="15" height="13" viewBox="0 0 15 13" fill="none" xmlns="http://www.w3.org/2000/svg">
<path d="M0.324321 0.448985C0.35048 0.193933 0.565321 0 0.821711 0H13.6227C13.8791 0 14.094 0.193934 14.1201 0.448986L14.2992 2.19474C14.3474 2.66474 13.777 2.93322 13.4455 2.59656L12.3691 1.50336C12.2751 1.40791 12.1468 1.35417 12.0128 1.35417H2.08837C1.93864 1.35417 1.7968 1.42126 1.70183 1.53701L1.05336 2.32733C0.739054 2.71039 0.118876 2.45207 0.169431 1.95916L0.324321 0.448985Z" fill="#1D9AC0"/>
<path d="M6.5 0.722168H7.94444V11.5555H6.5V0.722168Z" fill="#1D9AC0"/>
<rect x="4.3335" y="13" width="1.44444" height="5.77778" rx="0.5" transform="rotate(-90 4.3335 13)" fill="#1D9AC0"/>
</svg>
