<svg width="18" height="16" viewBox="0 0 18 16" fill="none" xmlns="http://www.w3.org/2000/svg">
<path d="M0.574372 0.448985C0.600531 0.193933 0.815372 0 1.07176 0H16.9279C17.1843 0 17.3991 0.193934 17.4253 0.448986L17.6869 2.99981C17.7351 3.46981 17.1647 3.73829 16.8332 3.40162L15.2614 1.80526C15.1675 1.70981 15.0391 1.65607 14.9052 1.65607H2.6687C2.51898 1.65607 2.37713 1.72316 2.28216 1.83891L1.22084 3.13239C0.906535 3.51545 0.286356 3.25714 0.336912 2.76422L0.574372 0.448985Z" fill="#D9D9D9"/>
<path d="M8.1167 0.883301H9.88317V14.1318H8.1167V0.883301Z" fill="#D9D9D9"/>
<rect x="5.4668" y="15.1284" width="0.99647" height="6.97529" rx="0.498235" transform="rotate(-90 5.4668 15.1284)" fill="#D9D9D9"/>
</svg>
