<svg width="21" height="16" viewBox="0 0 21 16" fill="none" xmlns="http://www.w3.org/2000/svg">
<g opacity="0.65">
<path d="M16.4746 1H19.0002C19.5525 1 20.0002 1.44772 20.0002 2V4.51171M16.4746 1H6.60279M16.4746 1V4.51171M6.60279 1H4.07715C3.52486 1 3.07715 1.44772 3.07715 2V4.51171M6.60279 1V4.51171M3.07715 8.02341H20.0002M3.07715 8.02341V4.51171M3.07715 8.02341V11.5351M20.0002 8.02341V11.5351M20.0002 8.02341V4.51171M3.07715 4.51171H6.60279M6.60279 4.51171V11.5351M3.07715 11.5351V13.8462C3.07715 14.3984 3.52486 14.8462 4.07715 14.8462H6.60279V11.5351M3.07715 11.5351H6.60279M16.4746 11.5351V14.8462H19.0002C19.5525 14.8462 20.0002 14.3984 20.0002 13.8462V11.5351M16.4746 11.5351H20.0002M16.4746 11.5351V4.51171M16.4746 4.51171H20.0002" stroke="#D9D9D9" stroke-opacity="0.4" stroke-width="2"/>
<path d="M0 3.53808C0 2.9858 0.447715 2.53809 1 2.53809H3.84615V15.615H1C0.447715 15.615 0 15.1673 0 14.615L0 3.53808Z" fill="#D9D9D9"/>
<rect x="3.84619" y="14.8457" width="0.769231" height="0.769231" fill="#D9D9D9"/>
<rect x="3.84619" y="13.3076" width="0.769231" height="0.769231" fill="#D9D9D9"/>
<rect x="3.84619" y="11.7695" width="0.769231" height="0.769231" fill="#D9D9D9"/>
<rect x="3.84619" y="10.2305" width="0.769231" height="0.769231" fill="#D9D9D9"/>
<rect x="3.84619" y="8.69238" width="0.769231" height="0.769231" fill="#D9D9D9"/>
<rect x="3.84619" y="7.1543" width="0.769231" height="0.769231" fill="#D9D9D9"/>
<rect x="3.84619" y="5.61523" width="0.769231" height="0.769231" fill="#D9D9D9"/>
<path d="M5.38465 6.38424L3.84619 2.53809V10.2304H4.61542V6.38424H5.38465Z" fill="#D9D9D9"/>
<path fill-rule="evenodd" clip-rule="evenodd" d="M5.38477 4.23137L6.53861 6.76983H5.38477V10.2314V15.616L17.4617 15.616C18.014 15.616 18.4617 15.1683 18.4617 14.616L18.4617 3.53906C18.4617 2.98678 18.014 2.53906 17.4617 2.53906H5.38477V4.23137Z" fill="#D9D9D9"/>
</g>
</svg>
