<svg width="21" height="16" viewBox="0 0 21 16" fill="none" xmlns="http://www.w3.org/2000/svg">
<path d="M16.4743 1H19C19.5523 1 20 1.44772 20 2V4.51171M16.4743 1H6.60255M16.4743 1V4.51171M6.60255 1H4.0769C3.52462 1 3.0769 1.44772 3.0769 2V4.51171M6.60255 1V4.51171M3.0769 8.02341H20M3.0769 8.02341V4.51171M3.0769 8.02341V11.5351M20 8.02341V11.5351M20 8.02341V4.51171M3.0769 4.51171H6.60255M6.60255 4.51171V11.5351M3.0769 11.5351V13.8462C3.0769 14.3984 3.52462 14.8462 4.0769 14.8462H6.60255V11.5351M3.0769 11.5351H6.60255M16.4743 11.5351V14.8462H19C19.5523 14.8462 20 14.3984 20 13.8462V11.5351M16.4743 11.5351H20M16.4743 11.5351V4.51171M16.4743 4.51171H20" stroke="#1B57E6" stroke-opacity="0.6" stroke-width="2"/>
<rect x="3.84619" y="8.69141" width="0.769231" height="0.769231" fill="#D9D9D9"/>
<rect x="3.84619" y="7.1543" width="0.769231" height="0.769231" fill="#D9D9D9"/>
<rect x="3.84619" y="5.61523" width="0.769231" height="0.769231" fill="#D9D9D9"/>
<path fill-rule="evenodd" clip-rule="evenodd" d="M0 3.53906C0 2.98678 0.447715 2.53906 1 2.53906H3.84615V15.616H1C0.447715 15.616 0 15.1683 0 14.616V3.53906ZM3.84619 14.8457H4.61542V15.6149H3.84619V14.8457ZM4.61542 13.3086H3.84619V14.0778H4.61542V13.3086ZM3.84619 11.7695H4.61542V12.5388H3.84619V11.7695ZM3.84619 2.53906L5.38465 6.38522H4.61542V10.2305V10.2314V10.9997H3.84619V10.2314V10.2305V2.53906ZM5.38464 4.23137L6.53849 6.76983H5.38464V10.2314V15.616L17.4616 15.616C18.0139 15.616 18.4616 15.1683 18.4616 14.616L18.4616 3.53906C18.4616 2.98678 18.0139 2.53906 17.4616 2.53906H5.38464V4.23137Z" fill="url(#paint0_linear_1194_1722)"/>
<defs>
<linearGradient id="paint0_linear_1194_1722" x1="1" y1="9" x2="17" y2="9" gradientUnits="userSpaceOnUse">
<stop stop-color="#1B57E6"/>
<stop offset="1" stop-color="#DBFE01"/>
</linearGradient>
</defs>
</svg>
