<svg width="611" height="121" viewBox="0 0 611 121" fill="none" xmlns="http://www.w3.org/2000/svg">
<path d="M6.784 2.6L0.448 11.752V1H32V11.752L25.664 2.6H19.584V36.776C19.712 39.848 22.784 40.168 22.784 40.168V41H9.728V40.168C9.728 40.168 12.8 39.848 12.864 36.776V2.6H6.784ZM29.725 27.112C29.533 18.28 37.085 12.136 46.237 12.136C56.029 12.136 59.485 18.6 59.485 21.864H36.701C36.445 23.08 36.381 24.424 36.445 25.896C36.893 31.976 41.885 36.648 48.669 36.904C52.317 37.096 56.093 35.688 58.461 32.552L59.101 33.32C56.157 38.76 50.333 41.384 44.381 41.384C36.701 41.384 29.853 35.752 29.725 27.112ZM46.301 13.096C41.693 13.096 38.301 15.912 37.021 20.264H53.021C53.021 20.264 52.445 13.16 46.301 13.096ZM59.808 41L71.648 27.816L60.448 12.648H73.056L73.248 13.416C71.968 13.8 71.328 14.44 71.328 15.272C71.328 15.848 71.584 16.488 72.096 17.192L77.216 24.104L83.616 16.872L80.16 12.648H89.824L78.24 25.448L89.76 41H76.832L76.576 40.232C78.048 39.976 78.752 39.4 78.752 38.44C78.752 37.8 78.432 37.032 77.792 36.072L72.608 29.16L65.952 36.712L68.768 41H59.808ZM94.492 13.928H90.14V12.648H90.716C94.812 12.328 96.604 9.256 96.604 6.824C96.604 4.648 95.708 3.56 94.492 3.56V2.856H101.468C103.772 7.784 99.356 11.752 95.708 12.648H108.316V13.928H101.212V30.312C101.212 36.52 102.748 39.144 105.308 39.848C105.372 39.848 108.38 33.256 108.38 33.256L108.892 41H104.22C99.868 41 94.492 39.144 94.492 30.312V13.928ZM128.725 27.24C128.725 17.128 137.301 12.2 144.085 12.2C150.357 12.2 158.421 16.808 158.421 26.344C158.421 36.328 150.293 41.576 142.997 41.576C136.661 41.576 128.725 37.16 128.725 27.24ZM138.069 15.464C130.581 22.056 136.533 38.952 146.005 38.952C147.157 38.952 148.373 38.76 149.589 38.184C157.141 30.632 150.293 14.824 141.269 14.824C140.181 14.824 139.157 15.016 138.069 15.464ZM160.963 41V40.168C160.963 40.168 164.099 40.04 164.099 36.52V17.192C164.099 14.824 163.075 13.544 160.963 13.416V12.648H167.555L170.179 15.784L170.435 20.584C171.651 18.088 174.403 12.328 180.227 12.328C185.027 12.328 189.251 15.656 189.251 22.824V36.456V36.584C189.251 38.888 190.275 40.104 192.387 40.168V41H182.531V22.952C182.531 17.512 181.187 15.208 178.243 15.208C174.147 15.208 171.715 20.52 170.819 22.888V36.84L174.403 41H160.963ZM193.905 1.576V0.807999H203.825V36.456C203.825 38.696 204.913 39.976 207.025 40.168V41H197.105V5.096C197.105 2.856 196.017 1.704 193.905 1.576ZM223.354 43.496L208.058 12.648H219.834L220.026 13.416C220.026 13.416 216.378 14.696 218.042 18.088L226.682 36.264L234.042 19.944L228.794 12.648H239.482L222.266 49.64C220.346 53.288 217.338 55.528 212.474 55.848L212.538 47.08L215.354 50.28C215.866 50.408 216.378 50.472 216.89 50.472C218.234 50.472 219.578 50.088 220.73 49.32L223.354 43.496Z" fill="#DBFE01"/>
<path d="M260.68 13.928H256.328V12.648H256.904C261 12.328 262.792 9.256 262.792 6.824C262.792 4.648 261.896 3.56 260.68 3.56V2.856H267.656C269.96 7.784 265.544 11.752 261.896 12.648H274.503V13.928H267.4V30.312C267.4 36.52 268.936 39.144 271.496 39.848C271.56 39.848 274.568 33.256 274.568 33.256L275.08 41H270.408C266.056 41 260.68 39.144 260.68 30.312V13.928ZM277.038 27.24C277.038 17.128 285.614 12.2 292.398 12.2C298.67 12.2 306.734 16.808 306.734 26.344C306.734 36.328 298.606 41.576 291.31 41.576C284.974 41.576 277.038 37.16 277.038 27.24ZM286.382 15.464C278.894 22.056 284.845 38.952 294.318 38.952C295.47 38.952 296.686 38.76 297.902 38.184C305.454 30.632 298.606 14.824 289.582 14.824C288.494 14.824 287.47 15.016 286.382 15.464ZM326.221 41V40.168C326.221 40.168 329.357 40.04 329.357 36.52V17.192C329.357 14.824 328.333 13.544 326.221 13.416V12.648H332.877L335.565 15.912L335.693 18.6C336.909 15.976 339.469 12.328 344.653 12.328C348.045 12.328 351.757 14.312 352.845 18.664C353.933 16.104 356.685 12.328 361.933 12.328C366.925 12.328 371.341 16.168 371.405 23.08V36.456C371.405 38.824 372.429 40.104 374.541 40.168V41H364.749V23.528C364.749 18.216 363.661 14.888 360.269 14.888C356.812 14.888 354.445 17.896 353.293 20.2C353.741 21.16 353.933 23.272 353.933 24.168V36.904L357.132 41H343.565V40.168C343.565 40.168 347.277 39.72 347.277 36.2V23.528C347.277 18.28 346.253 14.76 343.053 14.76C339.405 14.76 337.101 17.896 336.077 20.392V37.352L332.749 41H326.221ZM385.74 41.448C381.58 41.448 377.356 38.888 377.612 34.28C378.124 25.64 390.86 27.304 396.364 21.608V19.304C396.364 15.208 393.74 13.8 390.796 13.8C389.772 13.8 388.748 13.992 387.724 14.248L379.852 22.568L379.788 12.072L382.732 13.928C385.74 12.968 388.748 12.328 391.244 12.2C397.132 11.944 403.02 14.312 403.148 21.096V36.904C403.148 40.04 405.644 40.168 405.708 40.168V41H399.628L396.492 37.544L396.364 35.56C394.252 38.056 390.348 41.448 385.74 41.448ZM385.804 33.128C385.676 35.88 387.468 37.48 389.9 37.48C391.884 37.48 394.252 36.392 396.364 34.088V23.784C391.82 26.536 386.06 28.072 385.804 33.128ZM414.304 41H407.776V40.168C407.776 40.168 410.976 40.04 410.976 36.52V5.352C410.976 1.768 407.84 1.576 407.84 1.576V0.807999H414.432L417.696 4.776V26.792L430.432 16.808L426.4 13.096V12.456H439.007L426.784 21.864L441.824 41H429.6V40.168C429.6 40.168 432.288 39.976 430.048 36.904L421.728 26.28L417.696 28.968V37.352L414.304 41ZM442.288 27.112C442.096 18.28 449.648 12.136 458.8 12.136C468.592 12.136 472.048 18.6 472.048 21.864H449.264C449.008 23.08 448.944 24.424 449.008 25.896C449.456 31.976 454.448 36.648 461.232 36.904C464.88 37.096 468.656 35.688 471.024 32.552L471.664 33.32C468.72 38.76 462.896 41.384 456.944 41.384C449.264 41.384 442.416 35.752 442.288 27.112ZM458.864 13.096C454.256 13.096 450.864 15.912 449.584 20.264H465.584C465.584 20.264 465.008 13.16 458.864 13.096ZM505.229 43.496L489.933 12.648H501.709L501.901 13.416C501.901 13.416 498.253 14.696 499.917 18.088L508.557 36.264L515.917 19.944L510.669 12.648H521.357L504.141 49.64C502.221 53.288 499.213 55.528 494.349 55.848L494.413 47.08L497.229 50.28C497.741 50.408 498.253 50.472 498.765 50.472C500.109 50.472 501.453 50.088 502.605 49.32L505.229 43.496ZM521.288 27.24C521.288 17.128 529.864 12.2 536.648 12.2C542.92 12.2 550.984 16.808 550.984 26.344C550.984 36.328 542.856 41.576 535.56 41.576C529.224 41.576 521.288 37.16 521.288 27.24ZM530.632 15.464C523.144 22.056 529.095 38.952 538.568 38.952C539.72 38.952 540.936 38.76 542.152 38.184C549.704 30.632 542.856 14.824 533.832 14.824C532.744 14.824 531.72 15.016 530.632 15.464ZM552.765 13.416V12.648H562.621V29.8C562.621 35.176 563.453 38.632 567.165 38.632C571.197 38.632 573.245 34.344 574.269 32.232V17.064C574.269 14.76 573.245 13.544 571.133 13.416V12.648H580.989V36.392C580.989 38.76 582.013 40.04 584.125 40.168V40.936H577.533L574.845 37.608C574.781 37.224 574.717 34.984 574.589 34.408C573.437 36.776 570.685 41 565.501 41C560.125 41 555.901 36.648 555.901 29.992V17.192C555.901 14.824 554.877 13.544 552.765 13.416ZM586.657 13.416V12.648H593.312L595.937 15.848L596.193 19.816C596.513 19.496 596.897 19.112 597.153 18.856C600.353 14.76 604.897 11.944 610.081 12.776L608.609 21.288L604.769 15.272C604.769 15.272 601.057 14.632 597.665 20.456C597.281 20.904 596.833 21.48 596.513 22.184V41H586.657V40.04C586.657 40.04 589.793 40.04 589.793 36.456V17.192C589.793 14.824 588.769 13.544 586.657 13.416ZM10.24 108.448C6.08 108.448 1.856 105.888 2.112 101.28C2.624 92.64 15.36 94.304 20.864 88.608V86.304C20.864 82.208 18.24 80.8 15.296 80.8C14.272 80.8 13.248 80.992 12.224 81.248L4.352 89.568L4.288 79.072L7.232 80.928C10.24 79.968 13.248 79.328 15.744 79.2C21.632 78.944 27.52 81.312 27.648 88.096V103.904C27.648 107.04 30.144 107.168 30.208 107.168V108H24.128L20.992 104.544L20.864 102.56C18.752 105.056 14.848 108.448 10.24 108.448ZM10.304 100.128C10.176 102.88 11.968 104.48 14.4 104.48C16.384 104.48 18.752 103.392 20.864 101.088V90.784C16.32 93.536 10.56 95.072 10.304 100.128ZM32.7235 94.368C32.7235 84.832 40.9795 79.264 49.2355 79.264C51.6035 79.264 54.7395 79.904 56.9155 80.352L59.6035 79.136V89.056L53.7795 80.992C52.6275 80.48 50.4515 80.224 49.3635 80.224C35.7315 80.224 35.2195 103.712 51.3475 103.712C54.8675 103.712 58.5155 102.176 60.1795 99.552L60.8195 100.32C58.0675 105.888 52.3715 108.384 47.6355 108.384C41.2355 108.32 32.7235 104.288 32.7235 94.368ZM67.0545 80.928H62.7025V79.648H63.2785C67.3745 79.328 69.1665 76.256 69.1665 73.824C69.1665 71.648 68.2705 70.56 67.0545 70.56V69.856H74.0305C76.3345 74.784 71.9185 78.752 68.2705 79.648H80.8785V80.928H73.7745V97.312C73.7745 103.52 75.3105 106.144 77.8705 106.848C77.9345 106.848 80.9425 100.256 80.9425 100.256L81.4545 108H76.7825C72.4305 108 67.0545 106.144 67.0545 97.312V80.928ZM84.4705 80.416V79.648H94.3905V103.456C94.3905 105.696 95.4785 106.976 97.5905 107.168V108H87.6705V84.128C87.6705 81.888 86.5825 80.672 84.4705 80.416ZM85.8145 70.304L90.4865 65.696L95.0945 70.304L90.4865 74.976L85.8145 70.304ZM99.9125 94.24C99.9125 84.128 108.489 79.2 115.273 79.2C121.545 79.2 129.609 83.808 129.609 93.344C129.609 103.328 121.481 108.576 114.185 108.576C107.849 108.576 99.9125 104.16 99.9125 94.24ZM109.257 82.464C101.769 89.056 107.72 105.952 117.193 105.952C118.345 105.952 119.561 105.76 120.777 105.184C128.329 97.632 121.481 81.824 112.457 81.824C111.369 81.824 110.345 82.016 109.257 82.464ZM132.151 108V107.168C132.151 107.168 135.286 107.04 135.286 103.52V84.192C135.286 81.824 134.263 80.544 132.151 80.416V79.648H138.743L141.367 82.784L141.623 87.584C142.839 85.088 145.591 79.328 151.415 79.328C156.215 79.328 160.439 82.656 160.439 89.824V103.456V103.584C160.439 105.888 161.463 107.104 163.575 107.168V108H153.719V89.952C153.719 84.512 152.375 82.208 149.431 82.208C145.335 82.208 142.903 87.52 142.007 89.888V103.84L145.591 108H132.151ZM184.555 102.56C184.555 96.352 166.379 97.888 166.379 87.392C166.379 82.016 172.395 79.2 177.195 79.2C180.075 79.2 182.571 79.648 185.195 80.48L188.267 79.072V89.504L180.331 80.8C179.307 80.48 178.283 80.352 177.259 80.352C173.867 80.352 171.051 82.144 171.051 84.64C171.051 91.68 189.547 90.848 189.547 100.192C189.547 104.736 185.387 108.512 178.795 108.512C175.467 108.512 172.01 107.488 169.579 106.72L166.571 107.872L166.635 97.568L174.379 106.08C176.043 106.72 177.579 107.04 178.923 107.04C182.443 107.04 184.555 104.992 184.555 102.56ZM210.09 68.576V67.808H216.682L219.882 71.776V86.368C221.29 83.808 223.978 79.328 229.29 79.328C233.77 79.328 237.994 82.016 237.994 90.272V103.456V103.584C237.994 105.888 239.018 107.104 241.13 107.168V108H230.89V90.528C230.89 84.64 229.802 82.272 226.794 82.272C223.274 82.272 220.906 86.368 219.882 88.864V108H210.09V107.168C210.09 107.168 213.226 107.04 213.226 103.456V72.352C213.226 68.768 210.09 68.576 210.09 68.576ZM250.428 108.448C246.268 108.448 242.044 105.888 242.299 101.28C242.812 92.64 255.548 94.304 261.052 88.608V86.304C261.052 82.208 258.428 80.8 255.484 80.8C254.46 80.8 253.436 80.992 252.412 81.248L244.54 89.568L244.476 79.072L247.42 80.928C250.428 79.968 253.436 79.328 255.932 79.2C261.82 78.944 267.708 81.312 267.836 88.096V103.904C267.836 107.04 270.332 107.168 270.396 107.168V108H264.316L261.18 104.544L261.052 102.56C258.94 105.056 255.036 108.448 250.428 108.448ZM250.492 100.128C250.364 102.88 252.156 104.48 254.588 104.48C256.572 104.48 258.94 103.392 261.052 101.088V90.784C256.508 93.536 250.748 95.072 250.492 100.128ZM271.767 80.416V79.648H278.295L280.919 82.336L281.303 85.024C282.391 83.488 285.463 79.84 290.583 79.84C305.175 79.84 304.343 107.808 288.471 107.808C285.719 107.808 283.287 106.976 281.687 105.44V116.832L278.423 120.8H271.831V120.032C271.831 120.032 274.967 119.904 274.967 116.32V84.128C274.967 81.76 273.879 80.544 271.767 80.416ZM281.687 86.88V103.008C282.327 104.544 284.183 105.952 286.551 105.952C295.767 105.952 296.983 81.952 288.599 81.952C285.655 81.952 282.967 84.832 281.687 86.88ZM303.579 80.416V79.648H310.107L312.731 82.336L313.115 85.024C314.203 83.488 317.275 79.84 322.395 79.84C336.987 79.84 336.155 107.808 320.283 107.808C317.531 107.808 315.099 106.976 313.499 105.44V116.832L310.235 120.8H303.643V120.032C303.643 120.032 306.779 119.904 306.779 116.32V84.128C306.779 81.76 305.691 80.544 303.579 80.416ZM313.499 86.88V103.008C314.139 104.544 315.995 105.952 318.363 105.952C327.579 105.952 328.795 81.952 320.411 81.952C317.467 81.952 314.779 84.832 313.499 86.88ZM336.288 94.112C336.096 85.28 343.648 79.136 352.8 79.136C362.592 79.136 366.048 85.6 366.048 88.864H343.264C343.008 90.08 342.944 91.424 343.008 92.896C343.456 98.976 348.448 103.648 355.232 103.904C358.88 104.096 362.656 102.688 365.024 99.552L365.664 100.32C362.72 105.76 356.896 108.384 350.944 108.384C343.264 108.384 336.416 102.752 336.288 94.112ZM352.864 80.096C348.256 80.096 344.864 82.912 343.584 87.264H359.584C359.584 87.264 359.008 80.16 352.864 80.096ZM367.963 108V107.168C367.963 107.168 371.099 107.04 371.099 103.52V84.192C371.099 81.824 370.075 80.544 367.963 80.416V79.648H374.555L377.179 82.784L377.435 87.584C378.651 85.088 381.403 79.328 387.227 79.328C392.027 79.328 396.251 82.656 396.251 89.824V103.456V103.584C396.251 105.888 397.275 107.104 399.387 107.168V108H389.531V89.952C389.531 84.512 388.187 82.208 385.243 82.208C381.147 82.208 378.715 87.52 377.819 89.888V103.84L381.403 108H367.963Z" fill="white"/>
</svg>
