<svg width="784" height="42" viewBox="0 0 784 42" fill="none" xmlns="http://www.w3.org/2000/svg">
<path d="M29.144 41H0.728V40.168C0.728 40.168 3.864 39.848 3.864 36.52V5.544C3.864 1.96 0.792 1.768 0.792 1.768V1H7.256L10.584 4.584V39.4H23.256L29.144 31.08V41ZM31.2875 27.24C31.2875 17.128 39.8635 12.2 46.6475 12.2C52.9195 12.2 60.9835 16.808 60.9835 26.344C60.9835 36.328 52.8555 41.576 45.5595 41.576C39.2235 41.576 31.2875 37.16 31.2875 27.24ZM40.6315 15.464C33.1435 22.056 39.0955 38.952 48.5675 38.952C49.7195 38.952 50.9355 38.76 52.1515 38.184C59.7035 30.632 52.8555 14.824 43.8315 14.824C42.7435 14.824 41.7195 15.016 40.6315 15.464ZM64.975 27.24C64.975 17.128 73.551 12.2 80.335 12.2C86.607 12.2 94.671 16.808 94.671 26.344C94.671 36.328 86.543 41.576 79.247 41.576C72.911 41.576 64.975 37.16 64.975 27.24ZM74.319 15.464C66.831 22.056 72.783 38.952 82.255 38.952C83.407 38.952 84.623 38.76 85.839 38.184C93.391 30.632 86.543 14.824 77.519 14.824C76.431 14.824 75.407 15.016 74.319 15.464ZM102.616 41H96.088V40.168C96.088 40.168 99.288 40.04 99.288 36.52V5.352C99.288 1.768 96.152 1.576 96.152 1.576V0.807999H102.744L106.008 4.776V26.792L118.744 16.808L114.712 13.096V12.456H127.32L115.096 21.864L130.136 41H117.912V40.168C117.912 40.168 120.6 39.976 118.36 36.904L110.04 26.28L106.008 28.968V37.352L102.616 41ZM156.928 41.448C152.768 41.448 148.544 38.888 148.799 34.28C149.312 25.64 162.048 27.304 167.552 21.608V19.304C167.552 15.208 164.928 13.8 161.984 13.8C160.96 13.8 159.936 13.992 158.912 14.248L151.04 22.568L150.976 12.072L153.92 13.928C156.928 12.968 159.936 12.328 162.432 12.2C168.32 11.944 174.208 14.312 174.336 21.096V36.904C174.336 40.04 176.832 40.168 176.896 40.168V41H170.816L167.68 37.544L167.552 35.56C165.44 38.056 161.536 41.448 156.928 41.448ZM156.992 33.128C156.864 35.88 158.656 37.48 161.088 37.48C163.072 37.48 165.44 36.392 167.552 34.088V23.784C163.008 26.536 157.248 28.072 156.992 33.128ZM182.555 13.928H178.203V12.648H178.779C182.875 12.328 184.667 9.256 184.667 6.824C184.667 4.648 183.771 3.56 182.555 3.56V2.856H189.531C191.835 7.784 187.419 11.752 183.771 12.648H196.378V13.928H189.275V30.312C189.275 36.52 190.811 39.144 193.371 39.848C193.435 39.848 196.443 33.256 196.443 33.256L196.955 41H192.283C187.931 41 182.555 39.144 182.555 30.312V13.928ZM236.18 35.56C236.18 29.352 218.004 30.888 218.004 20.392C218.004 15.016 224.02 12.2 228.82 12.2C231.7 12.2 234.196 12.648 236.82 13.48L239.892 12.072V22.504L231.956 13.8C230.932 13.48 229.908 13.352 228.884 13.352C225.492 13.352 222.676 15.144 222.676 17.64C222.676 24.68 241.172 23.848 241.172 33.192C241.172 37.736 237.012 41.512 230.42 41.512C227.092 41.512 223.635 40.488 221.204 39.72L218.196 40.872L218.26 30.568L226.004 39.08C227.668 39.72 229.204 40.04 230.548 40.04C234.068 40.04 236.18 37.992 236.18 35.56ZM245.85 27.24C245.85 17.128 254.426 12.2 261.21 12.2C267.482 12.2 275.546 16.808 275.546 26.344C275.546 36.328 267.418 41.576 260.122 41.576C253.786 41.576 245.85 37.16 245.85 27.24ZM255.194 15.464C247.706 22.056 253.658 38.952 263.13 38.952C264.282 38.952 265.498 38.76 266.714 38.184C274.266 30.632 267.418 14.824 258.394 14.824C257.306 14.824 256.282 15.016 255.194 15.464ZM278.408 41V40.168C278.408 40.168 281.544 40.04 281.544 36.52V17.192C281.544 14.824 280.52 13.544 278.408 13.416V12.648H285.064L287.752 15.912L287.88 18.6C289.096 15.976 291.656 12.328 296.84 12.328C300.232 12.328 303.944 14.312 305.032 18.664C306.12 16.104 308.872 12.328 314.12 12.328C319.112 12.328 323.528 16.168 323.592 23.08V36.456C323.592 38.824 324.616 40.104 326.728 40.168V41H316.936V23.528C316.936 18.216 315.848 14.888 312.456 14.888C309 14.888 306.632 17.896 305.48 20.2C305.928 21.16 306.12 23.272 306.12 24.168V36.904L309.32 41H295.752V40.168C295.752 40.168 299.464 39.72 299.464 36.2V23.528C299.464 18.28 298.44 14.76 295.24 14.76C291.592 14.76 289.288 17.896 288.264 20.392V37.352L284.936 41H278.408ZM329.288 27.112C329.096 18.28 336.648 12.136 345.8 12.136C355.592 12.136 359.048 18.6 359.048 21.864H336.264C336.008 23.08 335.944 24.424 336.008 25.896C336.456 31.976 341.448 36.648 348.232 36.904C351.88 37.096 355.656 35.688 358.024 32.552L358.664 33.32C355.72 38.76 349.896 41.384 343.944 41.384C336.264 41.384 329.416 35.752 329.288 27.112ZM345.864 13.096C341.256 13.096 337.864 15.912 336.584 20.264H352.584C352.584 20.264 352.008 13.16 345.864 13.096ZM378.725 27.112C378.533 18.28 386.085 12.136 395.237 12.136C405.029 12.136 408.485 18.6 408.485 21.864H385.701C385.445 23.08 385.381 24.424 385.445 25.896C385.893 31.976 390.885 36.648 397.669 36.904C401.317 37.096 405.093 35.688 407.461 32.552L408.101 33.32C405.157 38.76 399.333 41.384 393.381 41.384C385.701 41.384 378.853 35.752 378.725 27.112ZM395.301 13.096C390.693 13.096 387.301 15.912 386.021 20.264H402.021C402.021 20.264 401.445 13.16 395.301 13.096ZM408.808 41L420.648 27.816L409.448 12.648H422.056L422.248 13.416C420.968 13.8 420.328 14.44 420.328 15.272C420.328 15.848 420.584 16.488 421.096 17.192L426.216 24.104L432.616 16.872L429.16 12.648H438.824L427.24 25.448L438.76 41H425.832L425.576 40.232C427.048 39.976 427.752 39.4 427.752 38.44C427.752 37.8 427.432 37.032 426.792 36.072L421.608 29.16L414.952 36.712L417.768 41H408.808ZM438.411 27.368C438.411 17.832 446.667 12.264 454.923 12.264C457.291 12.264 460.427 12.904 462.603 13.352L465.291 12.136V22.056L459.467 13.992C458.315 13.48 456.139 13.224 455.051 13.224C441.419 13.224 440.907 36.712 457.035 36.712C460.555 36.712 464.203 35.176 465.867 32.552L466.507 33.32C463.755 38.888 458.059 41.384 453.323 41.384C446.923 41.32 438.411 37.288 438.411 27.368ZM469.35 27.112C469.158 18.28 476.71 12.136 485.862 12.136C495.654 12.136 499.11 18.6 499.11 21.864H476.326C476.07 23.08 476.006 24.424 476.07 25.896C476.518 31.976 481.51 36.648 488.294 36.904C491.942 37.096 495.718 35.688 498.086 32.552L498.726 33.32C495.782 38.76 489.958 41.384 484.006 41.384C476.326 41.384 469.478 35.752 469.35 27.112ZM485.926 13.096C481.318 13.096 477.926 15.912 476.646 20.264H492.646C492.646 20.264 492.07 13.16 485.926 13.096ZM501.843 1.576V0.807999H511.763V36.456C511.763 38.696 512.851 39.976 514.963 40.168V41H505.043V5.096C505.043 2.856 503.955 1.704 501.843 1.576ZM517.468 1.576V0.807999H527.388V36.456C527.388 38.696 528.476 39.976 530.588 40.168V41H520.668V5.096C520.668 2.856 519.58 1.704 517.468 1.576ZM533.413 27.112C533.221 18.28 540.773 12.136 549.925 12.136C559.717 12.136 563.173 18.6 563.173 21.864H540.389C540.133 23.08 540.069 24.424 540.133 25.896C540.581 31.976 545.573 36.648 552.357 36.904C556.005 37.096 559.781 35.688 562.149 32.552L562.789 33.32C559.845 38.76 554.021 41.384 548.069 41.384C540.389 41.384 533.541 35.752 533.413 27.112ZM549.989 13.096C545.381 13.096 541.989 15.912 540.709 20.264H556.709C556.709 20.264 556.133 13.16 549.989 13.096ZM565.088 41V40.168C565.088 40.168 568.224 40.04 568.224 36.52V17.192C568.224 14.824 567.2 13.544 565.088 13.416V12.648H571.68L574.304 15.784L574.56 20.584C575.776 18.088 578.528 12.328 584.352 12.328C589.152 12.328 593.376 15.656 593.376 22.824V36.456V36.584C593.376 38.888 594.4 40.104 596.512 40.168V41H586.656V22.952C586.656 17.512 585.312 15.208 582.368 15.208C578.272 15.208 575.84 20.52 574.944 22.888V36.84L578.528 41H565.088ZM601.305 13.928H596.953V12.648H597.529C601.625 12.328 603.417 9.256 603.417 6.824C603.417 4.648 602.521 3.56 601.305 3.56V2.856H608.281C610.585 7.784 606.169 11.752 602.521 12.648H615.128V13.928H608.025V30.312C608.025 36.52 609.561 39.144 612.121 39.848C612.185 39.848 615.193 33.256 615.193 33.256L615.705 41H611.033C606.681 41 601.305 39.144 601.305 30.312V13.928ZM635.474 27.368C635.474 17.832 643.73 12.264 651.986 12.264C654.354 12.264 657.49 12.904 659.666 13.352L662.354 12.136V22.056L656.53 13.992C655.378 13.48 653.202 13.224 652.114 13.224C638.482 13.224 637.97 36.712 654.098 36.712C657.618 36.712 661.266 35.176 662.93 32.552L663.57 33.32C660.818 38.888 655.122 41.384 650.385 41.384C643.986 41.32 635.474 37.288 635.474 27.368ZM675.053 41.448C670.893 41.448 666.669 38.888 666.924 34.28C667.437 25.64 680.173 27.304 685.677 21.608V19.304C685.677 15.208 683.053 13.8 680.109 13.8C679.085 13.8 678.061 13.992 677.037 14.248L669.165 22.568L669.101 12.072L672.045 13.928C675.053 12.968 678.061 12.328 680.557 12.2C686.445 11.944 692.333 14.312 692.461 21.096V36.904C692.461 40.04 694.957 40.168 695.021 40.168V41H688.941L685.805 37.544L685.677 35.56C683.565 38.056 679.661 41.448 675.053 41.448ZM675.117 33.128C674.989 35.88 676.781 37.48 679.213 37.48C681.197 37.48 683.565 36.392 685.677 34.088V23.784C681.133 26.536 675.373 28.072 675.117 33.128ZM716.867 35.56C716.867 29.352 698.691 30.888 698.691 20.392C698.691 15.016 704.707 12.2 709.507 12.2C712.387 12.2 714.883 12.648 717.507 13.48L720.579 12.072V22.504L712.643 13.8C711.619 13.48 710.595 13.352 709.571 13.352C706.179 13.352 703.363 15.144 703.363 17.64C703.363 24.68 721.859 23.848 721.859 33.192C721.859 37.736 717.699 41.512 711.107 41.512C707.779 41.512 704.323 40.488 701.891 39.72L698.883 40.872L698.947 30.568L706.691 39.08C708.355 39.72 709.891 40.04 711.235 40.04C714.755 40.04 716.867 37.992 716.867 35.56ZM726.225 27.112C726.033 18.28 733.585 12.136 742.737 12.136C752.529 12.136 755.985 18.6 755.985 21.864H733.201C732.945 23.08 732.881 24.424 732.945 25.896C733.393 31.976 738.385 36.648 745.169 36.904C748.817 37.096 752.593 35.688 754.961 32.552L755.601 33.32C752.657 38.76 746.833 41.384 740.881 41.384C733.201 41.384 726.353 35.752 726.225 27.112ZM742.801 13.096C738.193 13.096 734.801 15.912 733.521 20.264H749.521C749.521 20.264 748.945 13.16 742.801 13.096ZM778.43 35.56C778.43 29.352 760.254 30.888 760.254 20.392C760.254 15.016 766.27 12.2 771.07 12.2C773.95 12.2 776.446 12.648 779.07 13.48L782.142 12.072V22.504L774.206 13.8C773.182 13.48 772.158 13.352 771.134 13.352C767.742 13.352 764.926 15.144 764.926 17.64C764.926 24.68 783.422 23.848 783.422 33.192C783.422 37.736 779.262 41.512 772.67 41.512C769.342 41.512 765.885 40.488 763.454 39.72L760.446 40.872L760.51 30.568L768.254 39.08C769.918 39.72 771.454 40.04 772.798 40.04C776.318 40.04 778.43 37.992 778.43 35.56Z" fill="url(#paint0_linear_1248_1892)"/>
<defs>
<linearGradient id="paint0_linear_1248_1892" x1="26.5" y1="15.5" x2="675" y2="264.066" gradientUnits="userSpaceOnUse">
<stop stop-color="#1B57E6"/>
<stop offset="1" stop-color="#FFF901"/>
</linearGradient>
</defs>
</svg>
