<svg width="53" height="24" viewBox="0 0 53 24" fill="none" xmlns="http://www.w3.org/2000/svg">
<path d="M0 12C0 5.37258 5.37258 0 12 0H53V24H12C5.37258 24 0 18.6274 0 12Z" fill="#DBFE01"/>
<path d="M22.12 16V8.392H19.048V7.54H26.188V8.392H23.116V16H22.12ZM26.2167 16V10.168H27.1647V11.212C27.4767 10.508 28.1167 10.12 29.0847 10.048L29.4327 10.012L29.5047 10.852L28.8927 10.924C28.3407 10.972 27.9207 11.148 27.6327 11.452C27.3447 11.748 27.2007 12.156 27.2007 12.676V16H26.2167ZM32.2949 16.108C31.8949 16.108 31.5349 16.032 31.2149 15.88C30.9029 15.72 30.6549 15.504 30.4709 15.232C30.2869 14.96 30.1949 14.656 30.1949 14.32C30.1949 13.896 30.3029 13.56 30.5189 13.312C30.7429 13.064 31.1069 12.888 31.6109 12.784C32.1229 12.672 32.8189 12.616 33.6989 12.616H34.0829V12.244C34.0829 11.748 33.9789 11.392 33.7709 11.176C33.5709 10.952 33.2469 10.84 32.7989 10.84C32.4469 10.84 32.1069 10.892 31.7789 10.996C31.4509 11.092 31.1149 11.252 30.7709 11.476L30.4349 10.768C30.7389 10.552 31.1069 10.38 31.5389 10.252C31.9789 10.124 32.3989 10.06 32.7989 10.06C33.5509 10.06 34.1069 10.244 34.4669 10.612C34.8349 10.98 35.0189 11.552 35.0189 12.328V16H34.1069V14.992C33.9549 15.336 33.7189 15.608 33.3989 15.808C33.0869 16.008 32.7189 16.108 32.2949 16.108ZM32.4509 15.376C32.9309 15.376 33.3229 15.212 33.6269 14.884C33.9309 14.548 34.0829 14.124 34.0829 13.612V13.252H33.7109C33.0629 13.252 32.5509 13.284 32.1749 13.348C31.8069 13.404 31.5469 13.508 31.3949 13.66C31.2509 13.804 31.1789 14.004 31.1789 14.26C31.1789 14.588 31.2909 14.856 31.5149 15.064C31.7469 15.272 32.0589 15.376 32.4509 15.376ZM36.7022 8.716V7.624H37.9022V8.716H36.7022ZM36.8222 16V10.168H37.7942V16H36.8222ZM39.6112 16V10.168H40.5592V11.164C40.7512 10.796 41.0232 10.52 41.3752 10.336C41.7272 10.152 42.1232 10.06 42.5632 10.06C43.9472 10.06 44.6392 10.828 44.6392 12.364V16H43.6672V12.424C43.6672 11.88 43.5592 11.484 43.3432 11.236C43.1352 10.98 42.7992 10.852 42.3352 10.852C41.7992 10.852 41.3712 11.02 41.0512 11.356C40.7392 11.684 40.5832 12.124 40.5832 12.676V16H39.6112Z" fill="#1B57E6"/>
<path d="M13 7L8 12.0549L13 17" stroke="#1B57E6" stroke-width="2" stroke-linecap="round"/>
</svg>
