<svg width="32" height="63" viewBox="0 0 32 63" fill="none" xmlns="http://www.w3.org/2000/svg">
<path d="M0.500003 0C4.63664 4.93289e-08 8.73277 0.814773 12.5545 2.3978C16.3763 3.98082 19.8488 6.30109 22.7739 9.22614C25.6989 12.1512 28.0192 15.6237 29.6022 19.4455C31.1852 23.2672 32 27.3634 32 31.5C32 35.6366 31.1852 39.7328 29.6022 43.5545C28.0192 47.3763 25.6989 50.8488 22.7739 53.7739C19.8488 56.6989 16.3763 59.0192 12.5545 60.6022C8.73277 62.1852 4.63664 63 0.5 63L0.500002 31.5L0.500003 0Z" fill="#DBFE01"/>
<path d="M24 31.5L9 40.5933L9 22.4067L24 31.5Z" fill="#1B57E6"/>
</svg>
