<svg width="465" height="56" viewBox="0 0 465 56" fill="none" xmlns="http://www.w3.org/2000/svg">
<path d="M6.784 2.6L0.448 11.752V1H32V11.752L25.664 2.6H19.584V36.776C19.712 39.848 22.784 40.168 22.784 40.168V41H9.728V40.168C9.728 40.168 12.8 39.848 12.864 36.776V2.6H6.784ZM31.9065 13.416V12.648H38.5625L41.1865 15.848L41.4425 19.816C41.7625 19.496 42.1465 19.112 42.4025 18.856C45.6025 14.76 50.1465 11.944 55.3305 12.776L53.8585 21.288L50.0185 15.272C50.0185 15.272 46.3065 14.632 42.9145 20.456C42.5305 20.904 42.0825 21.48 41.7625 22.184V41H31.9065V40.04C31.9065 40.04 35.0425 40.04 35.0425 36.456V17.192C35.0425 14.824 34.0185 13.544 31.9065 13.416ZM71.6665 43.496L56.3705 12.648H68.1465L68.3385 13.416C68.3385 13.416 64.6905 14.696 66.3545 18.088L74.9945 36.264L82.3545 19.944L77.1065 12.648H87.7945L70.5785 49.64C68.6585 53.288 65.6505 55.528 60.7865 55.848L60.8505 47.08L63.6665 50.28C64.1785 50.408 64.6905 50.472 65.2025 50.472C66.5465 50.472 67.8905 50.088 69.0425 49.32L71.6665 43.496ZM354.216 1H362.28L382.632 34.792V1H387.432V1.768C386.216 1.896 384.232 3.624 384.232 5.48V37.544L386.216 41H378.856L359.4 9.448V41H354.6V40.168C355.816 40.04 357.8 38.312 357.8 36.52V6.824L354.216 1ZM387.6 27.24C387.6 17.128 396.176 12.2 402.96 12.2C409.232 12.2 417.296 16.808 417.296 26.344C417.296 36.328 409.168 41.576 401.872 41.576C395.536 41.576 387.6 37.16 387.6 27.24ZM396.944 15.464C389.456 22.056 395.408 38.952 404.88 38.952C406.032 38.952 407.248 38.76 408.464 38.184C416.016 30.632 409.168 14.824 400.144 14.824C399.056 14.824 398.032 15.016 396.944 15.464ZM427.225 41L417.049 12.648H428.441L428.697 13.416C428.697 13.416 424.601 13.8 425.881 17.448L433.369 38.568L439.833 19.624L437.145 12.648H448.857L449.113 13.416C449.113 13.416 445.337 14.568 446.617 17.96L454.361 38.568L460.441 19.88L455.321 12.648H464.601L455.257 41H448.217L440.729 21.864L434.201 41H427.225Z" fill="white"/>
<path d="M108.8 41H104.064V40.168C104.064 40.168 107.2 39.848 107.2 36.52V6.952L104.704 1H112.256L126.464 35.24L140.672 1H148.672V1.96C148.672 1.96 145.472 2.28 145.472 7.336V36.52C145.472 39.848 148.672 40.168 148.672 40.168V41H138.752V9.832L126.08 40.36V41H121.664L108.8 10.664V41ZM151.35 27.112C151.158 18.28 158.71 12.136 167.862 12.136C177.654 12.136 181.11 18.6 181.11 21.864H158.326C158.07 23.08 158.006 24.424 158.07 25.896C158.518 31.976 163.51 36.648 170.294 36.904C173.942 37.096 177.718 35.688 180.086 32.552L180.726 33.32C177.782 38.76 171.958 41.384 166.006 41.384C158.326 41.384 151.478 35.752 151.35 27.112ZM167.926 13.096C163.318 13.096 159.926 15.912 158.646 20.264H174.646C174.646 20.264 174.07 13.16 167.926 13.096ZM187.555 13.928H183.203V12.648H183.779C187.875 12.328 189.667 9.256 189.667 6.824C189.667 4.648 188.771 3.56 187.555 3.56V2.856H194.531C196.835 7.784 192.419 11.752 188.771 12.648H201.378V13.928H194.275V30.312C194.275 36.52 195.811 39.144 198.371 39.848C198.435 39.848 201.443 33.256 201.443 33.256L201.955 41H197.283C192.931 41 187.555 39.144 187.555 30.312V13.928ZM213.803 41.448C209.643 41.448 205.419 38.888 205.674 34.28C206.187 25.64 218.923 27.304 224.427 21.608V19.304C224.427 15.208 221.803 13.8 218.859 13.8C217.835 13.8 216.811 13.992 215.787 14.248L207.915 22.568L207.851 12.072L210.795 13.928C213.803 12.968 216.811 12.328 219.307 12.2C225.195 11.944 231.083 14.312 231.211 21.096V36.904C231.211 40.04 233.707 40.168 233.771 40.168V41H227.691L224.555 37.544L224.427 35.56C222.315 38.056 218.411 41.448 213.803 41.448ZM213.867 33.128C213.739 35.88 215.531 37.48 217.963 37.48C219.947 37.48 222.315 36.392 224.427 34.088V23.784C219.883 26.536 214.123 28.072 213.867 33.128ZM236.399 48.168C236.399 42.92 241.135 39.912 243.055 39.016C239.535 36.776 236.783 32.936 236.783 27.304C236.783 17.128 245.807 12.2 252.911 12.2C255.919 12.2 259.375 13.16 262.127 15.272L263.343 9.704H269.487L263.663 16.36C266.159 18.664 267.951 21.992 267.951 26.344C267.951 36.328 258.735 41.576 251.503 41.576C249.135 41.576 246.511 40.936 244.207 39.72C242.607 40.488 238.767 42.792 238.895 46.504C238.959 48.424 239.791 49.192 241.071 49.192C245.231 49.192 254.319 42.152 260.783 42.152C268.975 42.152 269.615 51.176 264.623 55.848H254.703C254.703 55.848 263.279 49.832 263.279 45.608C263.279 44.328 262.447 43.24 260.911 43.24C255.599 43.24 249.967 55.848 242.863 55.848C238.767 55.848 236.399 51.88 236.399 48.168ZM246.575 15.272C238.511 22.12 244.975 39.208 254.959 39.208C256.175 39.208 257.455 38.952 258.735 38.44C266.671 31.272 259.183 14.632 249.711 14.632C248.687 14.632 247.599 14.824 246.575 15.272ZM277.411 42.28L272.547 37.416L277.411 32.616L282.211 37.416L277.411 42.28ZM296.237 41H285.613L290.221 34.408L299.693 2.856C298.285 1.96 296.813 1.768 296.813 1.768V0.935997H307.053L320.173 41H309.677L309.421 40.168C309.421 40.168 312.621 39.592 311.533 36.136L308.333 26.28H294.381L291.885 34.536L296.237 41ZM294.893 24.68H307.821L301.677 5.352C301.421 4.84 301.229 4.392 300.909 4.008L294.893 24.68ZM324.861 36.776V5.288C324.733 1.96 321.725 1.768 321.725 1.768V1H334.717V1.768C334.717 1.768 331.709 1.96 331.581 5.288V36.776C331.709 39.848 334.781 40.168 334.781 40.168V41H321.725V40.168C321.725 40.168 324.733 39.848 324.861 36.776Z" fill="#DBFE01"/>
</svg>
