<svg width="386" height="114" viewBox="0 0 386 114" fill="none" xmlns="http://www.w3.org/2000/svg">
<path d="M0.728 43V42.168C2.52 42.04 3.928 40.184 3.928 38.52V7.544C3.928 5.752 2.648 3.896 0.792 3.768V3H30.104V12.408L23.64 4.28H10.648V21.88H20.44L23.704 16.888V28.472L20.44 23.48H10.648V43H0.728ZM31.408 15.416V14.648H41.328V38.456C41.328 40.696 42.416 41.976 44.528 42.168V43H34.608V19.128C34.608 16.888 33.52 15.672 31.408 15.416ZM32.752 5.304L37.424 0.695999L42.032 5.304L37.424 9.976L32.752 5.304ZM46.963 43V42.168C46.963 42.168 50.099 42.04 50.099 38.52V19.192C50.099 16.824 49.075 15.544 46.963 15.416V14.648H53.555L56.179 17.784L56.435 22.584C57.651 20.088 60.403 14.328 66.227 14.328C71.027 14.328 75.251 17.656 75.251 24.824V38.456V38.584C75.251 40.888 76.275 42.104 78.387 42.168V43H68.531V24.952C68.531 19.512 67.187 17.208 64.243 17.208C60.147 17.208 57.715 22.52 56.819 24.888V38.84L60.403 43H46.963ZM80.725 29.112C80.533 20.28 88.085 14.136 97.237 14.136C107.029 14.136 110.485 20.6 110.485 23.864H87.701C87.445 25.08 87.381 26.424 87.445 27.896C87.893 33.976 92.885 38.648 99.669 38.904C103.317 39.096 107.093 37.688 109.461 34.552L110.101 35.32C107.157 40.76 101.333 43.384 95.381 43.384C87.701 43.384 80.853 37.752 80.725 29.112ZM97.301 15.096C92.693 15.096 89.301 17.912 88.021 22.264H104.021C104.021 22.264 103.445 15.16 97.301 15.096ZM133.555 15.928H129.203V14.648H129.779C133.875 14.328 135.667 11.256 135.667 8.824C135.667 6.648 134.771 5.56 133.555 5.56V4.856H140.531C142.835 9.784 138.419 13.752 134.771 14.648H147.378V15.928H140.275V32.312C140.275 38.52 141.811 41.144 144.371 41.848C144.435 41.848 147.443 35.256 147.443 35.256L147.955 43H143.283C138.931 43 133.555 41.144 133.555 32.312V15.928ZM150.203 15.416V14.648H160.059V31.8C160.059 37.176 160.891 40.632 164.603 40.632C168.635 40.632 170.683 36.344 171.707 34.232V19.064C171.707 16.76 170.683 15.544 168.571 15.416V14.648H178.427V38.392C178.427 40.76 179.451 42.04 181.562 42.168V42.936H174.971L172.283 39.608C172.219 39.224 172.155 36.984 172.027 36.408C170.875 38.776 168.123 43 162.939 43C157.562 43 153.339 38.648 153.339 31.992V19.192C153.339 16.824 152.315 15.544 150.203 15.416ZM183.838 43V42.168C183.838 42.168 186.974 42.04 186.974 38.52V19.192C186.974 16.824 185.95 15.544 183.838 15.416V14.648H190.43L193.054 17.784L193.31 22.584C194.526 20.088 197.278 14.328 203.102 14.328C207.902 14.328 212.126 17.656 212.126 24.824V38.456V38.584C212.126 40.888 213.15 42.104 215.262 42.168V43H205.406V24.952C205.406 19.512 204.062 17.208 201.118 17.208C197.022 17.208 194.59 22.52 193.694 24.888V38.84L197.278 43H183.838ZM217.6 29.112C217.408 20.28 224.96 14.136 234.112 14.136C243.904 14.136 247.36 20.6 247.36 23.864H224.576C224.32 25.08 224.256 26.424 224.32 27.896C224.768 33.976 229.76 38.648 236.544 38.904C240.192 39.096 243.968 37.688 246.336 34.552L246.976 35.32C244.032 40.76 238.208 43.384 232.256 43.384C224.576 43.384 217.728 37.752 217.6 29.112ZM234.176 15.096C229.568 15.096 226.176 17.912 224.896 22.264H240.896C240.896 22.264 240.32 15.16 234.176 15.096Z" fill="#DBFE01"/>
<path d="M280.542 45.496L265.245 14.648H277.022L277.214 15.416C277.214 15.416 273.566 16.696 275.23 20.088L283.87 38.264L291.23 21.944L285.982 14.648H296.67L279.454 51.64C277.534 55.288 274.526 57.528 269.661 57.848L269.726 49.08L272.542 52.28C273.054 52.408 273.566 52.472 274.078 52.472C275.422 52.472 276.766 52.088 277.918 51.32L280.542 45.496ZM296.6 29.24C296.6 19.128 305.176 14.2 311.96 14.2C318.232 14.2 326.296 18.808 326.296 28.344C326.296 38.328 318.168 43.576 310.872 43.576C304.536 43.576 296.6 39.16 296.6 29.24ZM305.944 17.464C298.456 24.056 304.408 40.952 313.88 40.952C315.032 40.952 316.248 40.76 317.464 40.184C325.016 32.632 318.168 16.824 309.144 16.824C308.056 16.824 307.032 17.016 305.944 17.464ZM328.078 15.416V14.648H337.934V31.8C337.934 37.176 338.766 40.632 342.478 40.632C346.51 40.632 348.558 36.344 349.582 34.232V19.064C349.582 16.76 348.558 15.544 346.446 15.416V14.648H356.302V38.392C356.302 40.76 357.326 42.04 359.438 42.168V42.936H352.846L350.158 39.608C350.094 39.224 350.03 36.984 349.902 36.408C348.75 38.776 345.998 43 340.814 43C335.438 43 331.214 38.648 331.214 31.992V19.192C331.214 16.824 330.19 15.544 328.078 15.416ZM361.969 15.416V14.648H368.625L371.249 17.848L371.505 21.816C371.825 21.496 372.209 21.112 372.465 20.856C375.665 16.76 380.209 13.944 385.393 14.776L383.921 23.288L380.081 17.272C380.081 17.272 376.369 16.632 372.977 22.456C372.593 22.904 372.145 23.48 371.825 24.184V43H361.969V42.04C361.969 42.04 365.105 42.04 365.105 38.456V19.192C365.105 16.824 364.081 15.544 361.969 15.416ZM0.6 99.24C0.6 89.128 9.176 84.2 15.96 84.2C22.232 84.2 30.296 88.808 30.296 98.344C30.296 108.328 22.168 113.576 14.872 113.576C8.536 113.576 0.6 109.16 0.6 99.24ZM9.944 87.464C2.456 94.056 8.408 110.952 17.88 110.952C19.032 110.952 20.248 110.76 21.464 110.184C29.016 102.632 22.168 86.824 13.144 86.824C12.056 86.824 11.032 87.016 9.944 87.464ZM40.225 113L30.049 84.648H41.441L41.697 85.416C41.697 85.416 37.601 85.8 38.881 89.448L46.369 110.568L52.833 91.624L50.145 84.648H61.857L62.113 85.416C62.113 85.416 58.337 86.568 59.617 89.96L67.361 110.568L73.441 91.88L68.321 84.648H77.601L68.257 113H61.217L53.729 93.864L47.201 113H40.225ZM78.0255 113V112.168C78.0255 112.168 81.1615 112.04 81.1615 108.52V89.192C81.1615 86.824 80.1375 85.544 78.0255 85.416V84.648H84.6175L87.2415 87.784L87.4975 92.584C88.7135 90.088 91.4655 84.328 97.2895 84.328C102.09 84.328 106.314 87.656 106.314 94.824V108.456V108.584C106.314 110.888 107.338 112.104 109.45 112.168V113H99.5935V94.952C99.5935 89.512 98.2495 87.208 95.3055 87.208C91.2095 87.208 88.7775 92.52 87.8815 94.888V108.84L91.4655 113H78.0255ZM128.221 113V112.168C128.221 112.168 131.357 112.04 131.357 108.52V89.192C131.357 86.824 130.333 85.544 128.221 85.416V84.648H134.877L137.565 87.912L137.693 90.6C138.909 87.976 141.469 84.328 146.653 84.328C150.045 84.328 153.757 86.312 154.845 90.664C155.933 88.104 158.685 84.328 163.933 84.328C168.925 84.328 173.341 88.168 173.405 95.08V108.456C173.405 110.824 174.429 112.104 176.541 112.168V113H166.749V95.528C166.749 90.216 165.661 86.888 162.269 86.888C158.812 86.888 156.445 89.896 155.293 92.2C155.741 93.16 155.933 95.272 155.933 96.168V108.904L159.132 113H145.565V112.168C145.565 112.168 149.277 111.72 149.277 108.2V95.528C149.277 90.28 148.253 86.76 145.053 86.76C141.405 86.76 139.101 89.896 138.077 92.392V109.352L134.749 113H128.221ZM178.475 99.24C178.475 89.128 187.051 84.2 193.835 84.2C200.107 84.2 208.171 88.808 208.171 98.344C208.171 108.328 200.043 113.576 192.747 113.576C186.411 113.576 178.475 109.16 178.475 99.24ZM187.819 87.464C180.331 94.056 186.283 110.952 195.755 110.952C196.907 110.952 198.123 110.76 199.339 110.184C206.891 102.632 200.043 86.824 191.019 86.824C189.931 86.824 188.907 87.016 187.819 87.464ZM224.217 85.288C226.969 85.288 229.401 86.184 231.001 87.72V77.352C231.001 73.768 227.865 73.576 227.865 73.576V72.808H234.457L237.721 76.776V108.52C237.721 111.336 240.025 112.168 240.921 112.168V113H234.393L231.897 110.504L231.577 107.816C230.617 109.352 227.545 113.32 222.105 113.32C207.513 113.32 208.345 85.288 224.217 85.288ZM224.409 110.76C227.353 110.76 229.849 108.2 231.001 106.28V90.6C230.425 88.936 227.993 87.272 225.497 87.272C216.281 87.272 216.025 110.76 224.409 110.76ZM243.663 99.112C243.471 90.28 251.023 84.136 260.175 84.136C269.967 84.136 273.423 90.6 273.423 93.864H250.639C250.383 95.08 250.319 96.424 250.383 97.896C250.831 103.976 255.823 108.648 262.607 108.904C266.255 109.096 270.031 107.688 272.399 104.552L273.039 105.32C270.095 110.76 264.271 113.384 258.319 113.384C250.639 113.384 243.791 107.752 243.663 99.112ZM260.239 85.096C255.631 85.096 252.239 87.912 250.959 92.264H266.959C266.959 92.264 266.383 85.16 260.239 85.096ZM276.155 73.576V72.808H286.075V108.456C286.075 110.696 287.163 111.976 289.275 112.168V113H279.355V77.096C279.355 74.856 278.267 73.704 276.155 73.576Z" fill="white"/>
</svg>
