<svg width="507" height="682" viewBox="0 0 507 682" fill="none" xmlns="http://www.w3.org/2000/svg">
<path d="M355.729 79.5655C339.31 70.2035 333.584 49.313 342.939 32.9053C352.295 16.4976 372.376 12.3837 389.608 20.1479C418.157 33.0109 435.167 73.6403 441.366 98.7235C402.492 68.4969 380.963 93.9541 355.729 79.5655Z" fill="#DBFE01"/>
<path d="M444.631 497.927C372.348 710.052 233.805 648.57 173.57 591.313C132.779 550.208 90.8388 484.175 74.9675 456.297C2.60934 321.281 95.5877 240.271 124.456 213.268C147.551 191.665 184.067 143.259 199.438 121.757C215.758 98.9285 230.208 28.4202 339.656 35.4967C463.15 43.4813 472 147.309 472 210.643C472 269.929 452.13 305.529 454.754 359.535C456.854 402.74 454.754 461.172 444.631 497.927Z" stroke="url(#paint0_radial_1748_3)" stroke-width="70"/>
<path d="M444.631 497.927C372.348 710.052 233.805 648.57 173.57 591.313C132.779 550.208 90.8388 484.175 74.9675 456.297C2.60934 321.281 95.5877 240.271 124.456 213.268C147.551 191.665 184.067 143.259 199.438 121.757C215.758 98.9285 230.208 28.4202 339.656 35.4967C463.15 43.4813 472 147.309 472 210.643C472 269.929 452.13 305.529 454.754 359.535C456.854 402.74 454.754 461.172 444.631 497.927Z" stroke="url(#paint1_radial_1748_3)" stroke-width="70"/>
<path d="M444.631 497.927C372.348 710.052 233.805 648.57 173.57 591.313C132.779 550.208 90.8388 484.175 74.9675 456.297C2.60934 321.281 95.5877 240.271 124.456 213.268C147.551 191.665 184.067 143.259 199.438 121.757C215.758 98.9285 230.208 28.4202 339.656 35.4967C463.15 43.4813 472 147.309 472 210.643C472 269.929 452.13 305.529 454.754 359.535C456.854 402.74 454.754 461.172 444.631 497.927Z" stroke="url(#paint2_radial_1748_3)" stroke-width="70"/>
<path d="M444.631 497.927C372.348 710.052 233.805 648.57 173.57 591.313C132.779 550.208 90.8388 484.175 74.9675 456.297C2.60934 321.281 95.5877 240.271 124.456 213.268C147.551 191.665 184.067 143.259 199.438 121.757C215.758 98.9285 230.208 28.4202 339.656 35.4967C463.15 43.4813 472 147.309 472 210.643C472 269.929 452.13 305.529 454.754 359.535C456.854 402.74 454.754 461.172 444.631 497.927Z" stroke="url(#paint3_radial_1748_3)" stroke-width="23"/>
<path d="M444.631 497.927C372.348 710.052 233.805 648.57 173.57 591.313C132.779 550.208 90.8388 484.175 74.9675 456.297C2.60934 321.281 95.5877 240.271 124.456 213.268C147.551 191.665 184.067 143.259 199.438 121.757C215.758 98.9285 230.208 28.4202 339.656 35.4967C463.15 43.4813 472 147.309 472 210.643C472 269.929 452.13 305.529 454.754 359.535C456.854 402.74 454.754 461.172 444.631 497.927Z" stroke="url(#paint4_radial_1748_3)" stroke-width="23"/>
<path d="M75.1437 359.786C70.2519 378.042 51.4966 388.879 33.2526 383.991C15.0086 379.102 5.93627 360.721 9.07629 342.083C14.2783 311.206 49.2652 284.448 71.9562 272.09C52.5769 317.358 82.662 331.727 75.1437 359.786Z" fill="#DBFE01"/>
<path d="M376.597 538.231C390.476 525.401 412.12 526.243 424.942 540.113C437.763 553.982 435.627 574.369 423.027 588.456C402.151 611.794 358.283 615.756 332.498 614.099C373.043 586.155 355.267 557.949 376.597 538.231Z" fill="#DBFE01"/>
<path d="M35.4841 355.656V352.264H40.5721V337.768L36.6361 340.136L35.0361 337.128L41.7561 333.096H44.6681V352.264H49.4361V355.656H35.4841Z" fill="#1B57E6"/>
<path d="M369.56 62V58.96L376.856 51.184C377.837 50.1173 378.541 49.1787 378.968 48.368C379.395 47.536 379.608 46.6933 379.608 45.84C379.608 43.664 378.296 42.576 375.672 42.576C373.624 42.576 371.736 43.344 370.008 44.88L368.632 41.808C369.528 40.9973 370.648 40.3467 371.992 39.856C373.336 39.3653 374.733 39.12 376.184 39.12C378.595 39.12 380.44 39.664 381.72 40.752C383.021 41.84 383.672 43.3973 383.672 45.424C383.672 46.7893 383.341 48.1013 382.68 49.36C382.04 50.6187 381.027 51.9733 379.64 53.424L374.68 58.608H384.536V62H369.56Z" fill="#1B57E6"/>
<path d="M399.152 576.32C397.616 576.32 396.144 576.096 394.736 575.648C393.349 575.179 392.197 574.549 391.28 573.76L392.624 570.624C394.544 572.117 396.677 572.864 399.024 572.864C401.904 572.864 403.344 571.733 403.344 569.472C403.344 568.405 402.981 567.616 402.256 567.104C401.552 566.571 400.517 566.304 399.152 566.304H395.536V562.912H398.768C399.963 562.912 400.912 562.624 401.616 562.048C402.32 561.451 402.672 560.629 402.672 559.584C402.672 558.603 402.341 557.856 401.68 557.344C401.04 556.832 400.101 556.576 398.864 556.576C396.645 556.576 394.693 557.344 393.008 558.88L391.664 555.808C392.56 554.955 393.68 554.293 395.024 553.824C396.368 553.355 397.765 553.12 399.216 553.12C401.563 553.12 403.387 553.653 404.688 554.72C405.989 555.765 406.64 557.227 406.64 559.104C406.64 560.32 406.331 561.387 405.712 562.304C405.093 563.221 404.251 563.883 403.184 564.288C404.485 564.651 405.499 565.323 406.224 566.304C406.949 567.264 407.312 568.437 407.312 569.824C407.312 571.829 406.587 573.419 405.136 574.592C403.685 575.744 401.691 576.32 399.152 576.32Z" fill="#1B57E6"/>
<defs>
<radialGradient id="paint0_radial_1748_3" cx="0" cy="0" r="1" gradientUnits="userSpaceOnUse" gradientTransform="translate(260.201 340.286) rotate(90) scale(294.785 213.886)">
<stop stop-color="#1B57E6"/>
<stop offset="1" stop-color="#1B57E6" stop-opacity="0"/>
</radialGradient>
<radialGradient id="paint1_radial_1748_3" cx="0" cy="0" r="1" gradientUnits="userSpaceOnUse" gradientTransform="translate(260.201 340.286) rotate(90) scale(294.785 213.886)">
<stop stop-color="#1B57E6"/>
<stop offset="1" stop-color="#1B57E6" stop-opacity="0"/>
</radialGradient>
<radialGradient id="paint2_radial_1748_3" cx="0" cy="0" r="1" gradientUnits="userSpaceOnUse" gradientTransform="translate(282.695 351.538) rotate(94.5362) scale(284.425 206.37)">
<stop stop-color="#1B57E6"/>
<stop offset="1" stop-color="#1B57E6" stop-opacity="0"/>
</radialGradient>
<radialGradient id="paint3_radial_1748_3" cx="0" cy="0" r="1" gradientUnits="userSpaceOnUse" gradientTransform="translate(260.201 340.286) rotate(90) scale(294.785 213.886)">
<stop stop-color="#1B57E6"/>
<stop offset="1" stop-color="#1B57E6" stop-opacity="0"/>
</radialGradient>
<radialGradient id="paint4_radial_1748_3" cx="0" cy="0" r="1" gradientUnits="userSpaceOnUse" gradientTransform="translate(260.201 340.286) rotate(90) scale(294.785 213.886)">
<stop stop-color="#1B57E6"/>
<stop offset="1" stop-color="#1B57E6" stop-opacity="0"/>
</radialGradient>
</defs>
</svg>
