<svg xmlns="http://www.w3.org/2000/svg" xmlns:xlink="http://www.w3.org/1999/xlink" fill="none" version="1.1" width="24" height="24" viewBox="0 0 24 24"><g><path d="M18,0L6,0C2.68629,0,0,2.68629,0,6L0,18C0,21.3137,2.68629,24,6,24L18,24C21.3137,24,24,21.3137,24,18L24,6C24,2.68629,21.3137,0,18,0ZM18.51,16.14Q14.66,13,14.34,12.66L14.34,15.6C14.3456,15.9297,14.0798,16.2,13.75,16.2L5.59,16.2C5.26021,16.2,4.99441,15.9297,5,15.6L5,8.4C4.99436,8.0703,5.26016,7.8,5.59,7.8L13.75,7.8C14.0798,7.79995,14.3456,8.07025,14.34,8.4L14.34,11.4Q14.66,11,18.51,7.94C19.1,7.94,19,8.13,19,8.74L19,15.44C19,16,19.1,16.14,18.51,16.14Z" fill="#9656D6" fill-opacity="1"/></g></svg>