<svg width="24" height="17" viewBox="0 0 24 17" fill="none" xmlns="http://www.w3.org/2000/svg">
<path d="M1 1V0.5C0.723858 0.5 0.5 0.723858 0.5 1H1ZM17 6.33333H16.5C16.5 6.50259 16.5856 6.66035 16.7275 6.75258C16.8695 6.84481 17.0484 6.85898 17.2031 6.79024L17 6.33333ZM23 3.66667H23.5V2.89729L22.7969 3.20976L23 3.66667ZM23 13.6667L22.7969 14.1236L23.5 14.436V13.6667H23ZM17 11L17.2031 10.5431C17.0484 10.4744 16.8695 10.4885 16.7275 10.5808C16.5856 10.673 16.5 10.8307 16.5 11H17ZM16.5 13C16.5 13.2761 16.7239 13.5 17 13.5C17.2761 13.5 17.5 13.2761 17.5 13H16.5ZM17 16.8333C17.2761 16.8333 17.5 16.6095 17.5 16.3333C17.5 16.0572 17.2761 15.8333 17 15.8333V16.8333ZM1.5 14.3333V1H0.5V14.3333H1.5ZM1 1.5H15V0.5H1V1.5ZM16.5 3V6.33333H17.5V3H16.5ZM17.2031 6.79024L23.2031 4.12357L22.7969 3.20976L16.7969 5.87643L17.2031 6.79024ZM22.5 3.66667V13.6667H23.5V3.66667H22.5ZM23.2031 13.2098L17.2031 10.5431L16.7969 11.4569L22.7969 14.1236L23.2031 13.2098ZM16.5 11V13H17.5V11H16.5ZM3 16.8333H17V15.8333H3V16.8333ZM15 1.5C15.8284 1.5 16.5 2.17157 16.5 3H17.5C17.5 1.61929 16.3807 0.5 15 0.5V1.5ZM0.5 14.3333C0.5 15.714 1.61929 16.8333 3 16.8333V15.8333C2.17157 15.8333 1.5 15.1618 1.5 14.3333H0.5Z" fill="white"/>
<path d="M5.66667 4.33333C5.66667 5.06971 5.06971 5.66667 4.33333 5.66667C3.59695 5.66667 3 5.06971 3 4.33333C3 3.59695 3.59695 3 4.33333 3C5.06971 3 5.66667 3.59695 5.66667 4.33333Z" fill="white"/>
</svg>
