<svg width="285" height="29" viewBox="0 0 285 29" fill="none" xmlns="http://www.w3.org/2000/svg">
<path d="M8.616 21L0.808 0.967999H5.992L6.088 1.352C6.088 1.352 4.552 1.672 5.16 3.4L11.176 18.696L15.496 7.88L12.808 0.967999H18.536L18.632 1.352C18.632 1.352 16.84 1.64 17.448 3.24L23.304 18.312L28.744 4.808L25.704 0.967999H31.112L23.08 21H20.616L15.944 8.968L11.112 21H8.616ZM28.8625 14.056C28.7665 9.64 32.5425 6.568 37.1185 6.568C42.0145 6.568 43.7425 9.8 43.7425 11.432H32.3505C32.2225 12.04 32.1905 12.712 32.2225 13.448C32.4465 16.488 34.9425 18.824 38.3345 18.952C40.1585 19.048 42.0465 18.344 43.2305 16.776L43.5505 17.16C42.0785 19.88 39.1665 21.192 36.1905 21.192C32.3505 21.192 28.9265 18.376 28.8625 14.056ZM37.1505 7.048C34.8465 7.048 33.1505 8.456 32.5105 10.632H40.5105C40.5105 10.632 40.2225 7.08 37.1505 7.048ZM45.1088 1.288V0.903999H50.0688V18.728C50.0688 19.848 50.6128 20.488 51.6688 20.584V21H46.7088V3.048C46.7088 1.928 46.1648 1.352 45.1088 1.288ZM52.893 14.184C52.893 9.416 57.021 6.632 61.149 6.632C62.333 6.632 63.901 6.952 64.989 7.176L66.333 6.568V11.528L63.421 7.496C62.845 7.24 61.757 7.112 61.213 7.112C54.397 7.112 54.141 18.856 62.205 18.856C63.965 18.856 65.789 18.088 66.621 16.776L66.941 17.16C65.565 19.944 62.717 21.192 60.349 21.192C57.149 21.16 52.893 19.144 52.893 14.184ZM68.5188 14.12C68.5188 9.064 72.8068 6.6 76.1988 6.6C79.3348 6.6 83.3668 8.904 83.3668 13.672C83.3668 18.664 79.3028 21.288 75.6548 21.288C72.4868 21.288 68.5188 19.08 68.5188 14.12ZM73.1908 8.232C69.4468 11.528 72.4227 19.976 77.1588 19.976C77.7348 19.976 78.3428 19.88 78.9508 19.592C82.7268 15.816 79.3028 7.912 74.7908 7.912C74.2468 7.912 73.7348 8.008 73.1908 8.232ZM84.7978 21V20.584C84.7978 20.584 86.3658 20.52 86.3658 18.76V9.096C86.3658 7.912 85.8538 7.272 84.7978 7.208V6.824H88.1258L89.4698 8.456L89.5338 9.8C90.1418 8.488 91.4218 6.664 94.0138 6.664C95.7098 6.664 97.5658 7.656 98.1098 9.832C98.6538 8.552 100.03 6.664 102.654 6.664C105.15 6.664 107.358 8.584 107.39 12.04V18.728C107.39 19.912 107.902 20.552 108.958 20.584V21H104.062V12.264C104.062 9.608 103.518 7.944 101.822 7.944C100.094 7.944 98.9098 9.448 98.3338 10.6C98.5578 11.08 98.6538 12.136 98.6538 12.584V18.952L100.254 21H93.4698V20.584C93.4698 20.584 95.3258 20.36 95.3258 18.6V12.264C95.3258 9.64 94.8138 7.88 93.2138 7.88C91.3898 7.88 90.2378 9.448 89.7258 10.696V19.176L88.0618 21H84.7978ZM110.238 14.056C110.142 9.64 113.918 6.568 118.494 6.568C123.39 6.568 125.118 9.8 125.118 11.432H113.726C113.598 12.04 113.566 12.712 113.598 13.448C113.822 16.488 116.318 18.824 119.71 18.952C121.534 19.048 123.422 18.344 124.606 16.776L124.926 17.16C123.454 19.88 120.542 21.192 117.566 21.192C113.726 21.192 110.302 18.376 110.238 14.056ZM118.526 7.048C116.222 7.048 114.526 8.456 113.886 10.632H121.886C121.886 10.632 121.598 7.08 118.526 7.048ZM136.652 7.464H134.476V6.824H134.764C136.812 6.664 137.708 5.128 137.708 3.912C137.708 2.824 137.26 2.28 136.652 2.28V1.928H140.14C141.292 4.392 139.084 6.376 137.26 6.824H143.564V7.464H140.012V15.656C140.012 18.76 140.78 20.072 142.06 20.424C142.092 20.424 143.596 17.128 143.596 17.128L143.852 21H141.516C139.34 21 136.652 20.072 136.652 15.656V7.464ZM144.831 14.12C144.831 9.064 149.119 6.6 152.511 6.6C155.647 6.6 159.679 8.904 159.679 13.672C159.679 18.664 155.615 21.288 151.967 21.288C148.799 21.288 144.831 19.08 144.831 14.12ZM149.503 8.232C145.759 11.528 148.735 19.976 153.471 19.976C154.047 19.976 154.655 19.88 155.263 19.592C159.039 15.816 155.615 7.912 151.103 7.912C150.559 7.912 150.047 8.008 149.503 8.232ZM171.119 21H168.751V20.584C168.751 20.584 170.319 20.424 170.319 18.76V3.976L169.071 1H172.847L179.951 18.12L187.055 1H191.055V1.48C191.055 1.48 189.455 1.64 189.455 4.168V18.76C189.455 20.424 191.055 20.584 191.055 20.584V21H186.095V5.416L179.759 20.68V21H177.551L171.119 5.832V21ZM192.394 14.056C192.298 9.64 196.074 6.568 200.65 6.568C205.546 6.568 207.274 9.8 207.274 11.432H195.882C195.754 12.04 195.722 12.712 195.754 13.448C195.978 16.488 198.474 18.824 201.866 18.952C203.69 19.048 205.578 18.344 206.762 16.776L207.082 17.16C205.61 19.88 202.698 21.192 199.722 21.192C195.882 21.192 192.458 18.376 192.394 14.056ZM200.682 7.048C198.378 7.048 196.682 8.456 196.042 10.632H204.042C204.042 10.632 203.754 7.08 200.682 7.048ZM210.496 7.464H208.32V6.824H208.608C210.656 6.664 211.552 5.128 211.552 3.912C211.552 2.824 211.104 2.28 210.496 2.28V1.928H213.984C215.136 4.392 212.928 6.376 211.104 6.824H217.408V7.464H213.856V15.656C213.856 18.76 214.624 20.072 215.904 20.424C215.936 20.424 217.44 17.128 217.44 17.128L217.696 21H215.36C213.184 21 210.496 20.072 210.496 15.656V7.464ZM223.62 21.224C221.54 21.224 219.428 19.944 219.556 17.64C219.812 13.32 226.18 14.152 228.932 11.304V10.152C228.932 8.104 227.62 7.4 226.148 7.4C225.636 7.4 225.124 7.496 224.612 7.624L220.676 11.784L220.644 6.536L222.116 7.464C223.62 6.984 225.124 6.664 226.372 6.6C229.316 6.472 232.26 7.656 232.324 11.048V18.952C232.324 20.52 233.572 20.584 233.604 20.584V21H230.564L228.996 19.272L228.932 18.28C227.876 19.528 225.924 21.224 223.62 21.224ZM223.652 17.064C223.588 18.44 224.484 19.24 225.7 19.24C226.692 19.24 227.876 18.696 228.932 17.544V12.392C226.66 13.768 223.78 14.536 223.652 17.064ZM234.918 24.584C234.918 21.96 237.286 20.456 238.246 20.008C236.486 18.888 235.11 16.968 235.11 14.152C235.11 9.064 239.622 6.6 243.174 6.6C244.678 6.6 246.406 7.08 247.782 8.136L248.39 5.352H251.462L248.55 8.68C249.798 9.832 250.694 11.496 250.694 13.672C250.694 18.664 246.086 21.288 242.47 21.288C241.286 21.288 239.974 20.968 238.822 20.36C238.022 20.744 236.102 21.896 236.166 23.752C236.198 24.712 236.614 25.096 237.254 25.096C239.334 25.096 243.878 21.576 247.11 21.576C251.206 21.576 251.526 26.088 249.03 28.424H244.07C244.07 28.424 248.358 25.416 248.358 23.304C248.358 22.664 247.942 22.12 247.174 22.12C244.518 22.12 241.702 28.424 238.15 28.424C236.102 28.424 234.918 26.44 234.918 24.584ZM240.006 8.136C235.974 11.56 239.206 20.104 244.198 20.104C244.806 20.104 245.446 19.976 246.086 19.72C250.054 16.136 246.31 7.816 241.574 7.816C241.062 7.816 240.518 7.912 240.006 8.136ZM255.424 21.64L252.992 19.208L255.424 16.808L257.824 19.208L255.424 21.64ZM264.837 21H259.525L261.829 17.704L266.565 1.928C265.861 1.48 265.125 1.384 265.125 1.384V0.967999H270.245L276.805 21H271.557L271.429 20.584C271.429 20.584 273.029 20.296 272.485 18.568L270.885 13.64H263.909L262.661 17.768L264.837 21ZM264.165 12.84H270.629L267.557 3.176C267.429 2.92 267.333 2.696 267.173 2.504L264.165 12.84ZM279.149 18.888V3.144C279.085 1.48 277.581 1.384 277.581 1.384V1H284.077V1.384C284.077 1.384 282.573 1.48 282.509 3.144V18.888C282.573 20.424 284.109 20.584 284.109 20.584V21H277.581V20.584C277.581 20.584 279.085 20.424 279.149 18.888Z" fill="white"/>
</svg>
