<svg width="1766" height="166" viewBox="0 0 1766 166" fill="none" xmlns="http://www.w3.org/2000/svg">
<path d="M85 1H44V166H85V138.712H73.4688V96.1923H85V69.5385H73.4688V27.6538H85V1Z" fill="white"/>
<path d="M901 1H860V166H901V138.712H889.469V96.1923H901V69.5385H889.469V27.6538H901V1Z" fill="white"/>
<path d="M729 1H689V166H729V138.712H717.75V96.1923H729V69.5385H717.75V27.6538H729V1Z" fill="white"/>
<path d="M1024 1H983V166H1024V138.712H1012.47V96.1923H1024V69.5385H1012.47V27.6538H1024V1Z" fill="white"/>
<path d="M904 1V166H932.339V84.7692L942 166L951.661 84.7692V166H980V1H946.508L942 62.5577L937.492 1H904Z" fill="white"/>
<path fill-rule="evenodd" clip-rule="evenodd" d="M822 0C807.641 0 796 11.6406 796 26V139C796 153.359 807.641 165 822 165H831C845.359 165 857 153.359 857 139V26C857 11.6406 845.359 0 831 0H822ZM826.501 24.7502C825.448 24.7502 824.595 25.6037 824.595 26.6565V137.709C824.595 138.762 825.448 139.616 826.501 139.616C827.554 139.616 828.407 138.762 828.407 137.709V26.6565C828.407 25.6037 827.554 24.7502 826.501 24.7502Z" fill="white"/>
<path fill-rule="evenodd" clip-rule="evenodd" d="M625 0H661.728C669.797 0 686 9.05882 686 22V66.9706C685.787 70.3137 684.723 79.9118 679.293 82.5C684.723 85.0882 685.787 94.6863 686 98.0294V143C686 155.941 669.797 165 661.728 165H625V82.5V0ZM653.595 22.8462C656.051 22.8462 658.043 24.8376 658.043 27.2941V67.8983C658.043 70.3548 656.051 72.3462 653.595 72.3462V22.8462ZM658.043 97.1017C658.043 94.6452 656.051 92.6538 653.595 92.6538V142.154C656.051 142.154 658.043 140.162 658.043 137.706V97.1017Z" fill="white"/>
<path fill-rule="evenodd" clip-rule="evenodd" d="M732 27C732 12.6406 743.641 1 758 1H767C781.359 1 793 12.6406 793 27V81H764.407V27.6565C764.407 26.6037 763.554 25.7502 762.501 25.7502C761.448 25.7502 760.595 26.6037 760.595 27.6565V138.709C760.595 139.762 761.448 140.616 762.501 140.616C763.554 140.616 764.407 139.762 764.407 138.709V86H793V140C793 154.359 781.359 166 767 166H758C743.641 166 732 154.359 732 140V27Z" fill="white"/>
<path d="M1702 1H1662V166H1702V138.712H1690.75V96.1923H1702V69.5385H1690.75V27.6538H1702V1Z" fill="white"/>
<path d="M1294 1H1253V166H1294V138.712H1282.47V96.1923H1294V69.5385H1282.47V27.6538H1294V1Z" fill="white"/>
<path fill-rule="evenodd" clip-rule="evenodd" d="M1705 1H1742.17C1749.48 1 1766 8.66411 1766 21.5854V89.0666C1765.68 93.7115 1762.19 104.078 1753.29 108.385L1766 136.23V166H1748.21L1733.28 113.136V166H1705V1ZM1734.23 86.6734V27.0195C1736.69 27.0195 1738.68 29.0109 1738.68 31.4674V82.2255C1738.68 84.682 1736.69 86.6734 1734.23 86.6734Z" fill="white"/>
<path fill-rule="evenodd" clip-rule="evenodd" d="M1189 1H1226.17C1233.48 1 1250 8.66411 1250 21.5854V89.0666C1249.68 93.7115 1246.19 104.078 1237.29 108.385L1250 136.23V166H1232.21L1217.28 113.136V166H1189V1ZM1218.23 86.6734V27.0195C1220.69 27.0195 1222.68 29.0109 1222.68 31.4674V82.2255C1222.68 84.682 1220.69 86.6734 1218.23 86.6734Z" fill="white"/>
<path d="M1361 1V166H1389.34V84.7692L1399 166L1408.66 84.7692V166H1437V1H1403.51L1399 62.5577L1394.49 1H1361Z" fill="white"/>
<path d="M1457 1V166H1484.59V84.7692L1494 166L1503.41 84.7692V166H1531V1H1498.39L1494 62.5577L1489.61 1H1457Z" fill="white"/>
<path fill-rule="evenodd" clip-rule="evenodd" d="M1297 166V115.865L1305.26 1H1349.74L1358 115.865V166H1331.31L1330.04 138.712H1324.96L1323.69 166H1297ZM1327.5 41.6152L1330.04 111.423H1324.96L1327.5 41.6152Z" fill="white"/>
<path fill-rule="evenodd" clip-rule="evenodd" d="M1534 166V115.865L1542.26 1H1586.74L1595 115.865V166H1568.31L1567.04 138.712H1561.96L1560.69 166H1534ZM1564.5 41.6152L1567.04 111.423H1561.96L1564.5 41.6152Z" fill="white"/>
<path fill-rule="evenodd" clip-rule="evenodd" d="M1160 1H1125V166H1160C1174.36 166 1186 154.359 1186 140V27C1186 12.6406 1174.36 1 1160 1ZM1156.77 24.481H1152.96V139.346H1156.77V24.481Z" fill="white"/>
<path d="M1598 1H1625.01V53.9904L1633.27 1H1659V21.625L1649.79 68.2692L1659 133V166H1634.54L1626.59 103.808L1625.01 107.615V166H1598V1Z" fill="white"/>
<path fill-rule="evenodd" clip-rule="evenodd" d="M1044 166V115.865L1052.26 1H1096.74L1105 115.865V166H1078.31L1077.04 138.712H1071.96L1070.69 166H1044ZM1074.5 41.6152L1077.04 111.423H1071.96L1074.5 41.6152Z" fill="white"/>
<path d="M227.323 1L200 1L200 48.9135L207.926 166H253.074L261 48.9135L261 1L233.677 1L230.5 112.878L227.323 1Z" fill="white"/>
<path fill-rule="evenodd" clip-rule="evenodd" d="M308 1H345.172C352.479 1 369 8.66411 369 21.5854V89.0666C368.682 93.7115 365.188 104.078 356.292 108.385L369 136.23V166H351.208L336.276 113.136V166H308V1ZM337.229 86.6734V27.0195C339.686 27.0195 341.677 29.0109 341.677 31.4674V82.2255C341.677 84.682 339.686 86.6734 337.229 86.6734Z" fill="white"/>
<path d="M136 1H88V28.9231H96.96V166H126.4V28.9231H136V1Z" fill="white"/>
<path d="M0 1H30.1094V138.712H41V166H0V1Z" fill="white"/>
<path d="M197 1H156V166H197V138.712H185.469V96.1923H197V69.5385H185.469V27.6538H197V1Z" fill="white"/>
<path d="M605 1H564V166H605V138.712H593.469V96.1923H605V69.5385H593.469V27.6538H605V1Z" fill="white"/>
<path d="M305 1H264V166H305V138.712H293.469V96.1923H305V69.5385H293.469V27.6538H305V1Z" fill="white"/>
<path d="M399.323 1H372V21.625L389.156 103.173V166H415.844V103.173L433 21.625V1H405.677L402.5 54.3077L399.323 1Z" fill="white"/>
<path d="M500 1V166H527.323L527.958 89.2115L536.219 166H561V1H533.677L533.042 77.7885L524.781 1H500Z" fill="white"/>
<path fill-rule="evenodd" clip-rule="evenodd" d="M462 0C447.641 0 436 11.6406 436 26V139C436 153.359 447.641 165 462 165H471C485.359 165 497 153.359 497 139V26C497 11.6406 485.359 0 471 0H462ZM466.501 24.7502C465.448 24.7502 464.595 25.6037 464.595 26.6565V137.709C464.595 138.762 465.448 139.616 466.501 139.616C467.554 139.616 468.407 138.762 468.407 137.709V26.6565C468.407 25.6037 467.554 24.7502 466.501 24.7502Z" fill="white"/>
</svg>
