<svg width="336" height="260" viewBox="0 0 336 260" fill="none" xmlns="http://www.w3.org/2000/svg">
<path d="M304 183H286V259H304V246.431H298.937V226.846H304V214.569H298.937V195.277H304V183Z" fill="white"/>
<path d="M118 183H97V259H118V246.431H112.094V226.846H118V214.569H112.094V195.277H118V183Z" fill="white"/>
<path fill-rule="evenodd" clip-rule="evenodd" d="M306 183H323.672C327.146 183 335 186.53 335 192.482V223.564C334.849 225.703 333.187 230.478 328.958 232.462L335 245.288V259H326.542L319.443 234.65V259H306V183ZM319.896 222.462V194.985C321.064 194.985 322.011 195.902 322.011 197.033V220.413C322.011 221.544 321.064 222.462 319.896 222.462Z" fill="white"/>
<path fill-rule="evenodd" clip-rule="evenodd" d="M66 183H83.6719C87.1458 183 95 186.53 95 192.482V223.564C94.849 225.703 93.1875 230.478 88.9583 232.462L95 245.288V259H86.5417L79.4427 234.65V259H66V183ZM79.8963 222.462V194.985C81.0642 194.985 82.0109 195.902 82.0109 197.033V220.413C82.0109 221.544 81.0642 222.462 79.8963 222.462Z" fill="white"/>
<path d="M149 183V259H160.932V221.585L165 259L169.068 221.585V259H181V183H166.898L165 211.354L163.102 183H149Z" fill="white"/>
<path d="M189 183V259H201.678V221.585L206 259L210.322 221.585V259H223V183H208.017L206 211.354L203.983 183H189Z" fill="white"/>
<path fill-rule="evenodd" clip-rule="evenodd" d="M120 259V235.908L123.656 183H143.344L147 235.908V259H135.188L134.625 246.431H132.375L131.813 259H120ZM133.499 201.708L134.624 233.861H132.374L133.499 201.708Z" fill="white"/>
<path fill-rule="evenodd" clip-rule="evenodd" d="M225 259V235.908L228.792 183H249.208L253 235.908V259H240.75L240.167 246.431H237.833L237.25 259H225ZM238.999 201.708L240.166 233.861H237.833L238.999 201.708Z" fill="white"/>
<path fill-rule="evenodd" clip-rule="evenodd" d="M52.0656 183H36V259H52.0656C58.6568 259 64 253.638 64 247.024V194.976C64 188.362 58.6568 183 52.0656 183ZM50.5828 193.815H48.8328V246.723H50.5828V193.815Z" fill="white"/>
<path d="M255 183H267.839V207.408L271.766 183H284V192.5L279.62 213.985L284 243.8V259H272.37L268.594 230.354L267.839 232.108V259H255V183Z" fill="white"/>
<path fill-rule="evenodd" clip-rule="evenodd" d="M1 259V235.908L4.65625 183H24.3438L28 235.908V259H16.1875L15.625 246.431H13.375L12.8125 259H1ZM14.4995 201.708L15.6245 233.861H13.3745L14.4995 201.708Z" fill="white"/>
<path d="M206 92H187V168H206V155.431H200.656V135.846H206V123.569H200.656V104.277H206V92Z" fill="white"/>
<path d="M126 92H107V168H126V155.431H120.656V135.846H126V123.569H120.656V104.277H126V92Z" fill="white"/>
<path d="M261 92H244V168H261V155.431H256.219V135.846H261V123.569H256.219V104.277H261V92Z" fill="white"/>
<path d="M208 92V168H220.678V130.585L225 168L229.322 130.585V168H242V92H227.017L225 120.354L222.983 92H208Z" fill="white"/>
<path fill-rule="evenodd" clip-rule="evenodd" d="M170.082 92C163.962 92 159 97.3617 159 103.976V156.024C159 162.638 163.962 168 170.082 168H173.918C180.038 168 185 162.638 185 156.024V103.976C185 97.3617 180.038 92 173.918 92H170.082ZM172 103.4C171.552 103.4 171.188 103.793 171.188 104.278V155.43C171.188 155.915 171.552 156.308 172 156.308C172.449 156.308 172.813 155.915 172.813 155.43V104.278C172.813 103.793 172.449 103.4 172 103.4Z" fill="white"/>
<path fill-rule="evenodd" clip-rule="evenodd" d="M76 92H93.4607C97.2969 92 105 96.1725 105 102.133V122.847C104.899 124.387 104.393 128.808 101.812 130C104.393 131.192 104.899 135.613 105 137.153V157.867C105 163.827 97.2969 168 93.4607 168H76V130V92ZM89.5942 102.523C90.762 102.523 91.7088 103.44 91.7088 104.572V123.274C91.7088 124.406 90.762 125.323 89.5942 125.323V102.523ZM91.7088 136.726C91.7088 135.594 90.762 134.677 89.5942 134.677V157.477C90.762 157.477 91.7088 156.56 91.7088 155.428V136.726Z" fill="white"/>
<path fill-rule="evenodd" clip-rule="evenodd" d="M128 103.976C128 97.3617 133.534 92 140.361 92H144.639C151.466 92 157 97.3617 157 103.976V128.848H143.407V104.278C143.407 103.793 143.001 103.4 142.5 103.4C142 103.4 141.594 103.793 141.594 104.278V155.43C141.594 155.915 142 156.308 142.5 156.308C143.001 156.308 143.407 155.915 143.407 155.43V131.152H157V156.024C157 162.638 151.466 168 144.639 168H140.361C133.534 168 128 162.638 128 156.024V103.976Z" fill="white"/>
<path d="M93 1H70V13.8615H74.2933V77H88.4V13.8615H93V1Z" fill="white"/>
<path d="M30 1H43.9531V64.4308H49V77H30V1Z" fill="white"/>
<path d="M68 1H51V77H68V64.4308H63.2187V44.8462H68V32.5692H63.2187V13.2769H68V1Z" fill="white"/>
<path d="M119 1H101V77H119V64.4308H113.937V44.8462H119V32.5692H113.937V13.2769H119V1Z" fill="white"/>
<path d="M306 1H287V77H306V64.4308H300.656V44.8462H306V32.5692H300.656V13.2769H306V1Z" fill="white"/>
<path d="M166 1H148V77H166V64.4308H160.937V44.8462H166V32.5692H160.937V13.2769H166V1Z" fill="white"/>
<path d="M132.198 1L121 1L121 23.0692L124.248 77H142.752L146 23.0692L146 1L134.802 1L133.5 52.5317L132.198 1Z" fill="white"/>
<path d="M210.542 1H198V10.5L205.875 48.0615V77H218.125V48.0615L226 10.5V1H213.458L212 25.5538L210.542 1Z" fill="white"/>
<path fill-rule="evenodd" clip-rule="evenodd" d="M168 1H185.062C188.417 1 196 4.53013 196 10.4818V41.564C195.854 43.7035 194.25 48.4784 190.167 50.4623L196 63.2879V77H187.833L180.979 52.6504V77H168V1ZM181.417 40.4617V12.9848C182.544 12.9848 183.458 13.902 183.458 15.0335V38.4129C183.458 39.5444 182.544 40.4617 181.417 40.4617Z" fill="white"/>
<path d="M259 1V77H270.646L270.917 41.6308L274.437 77H285V1H273.354L273.083 36.3692L269.562 1H259Z" fill="white"/>
<path fill-rule="evenodd" clip-rule="evenodd" d="M240.361 1C233.534 1 228 6.36173 228 12.9758V65.0242C228 71.6383 233.534 77 240.361 77H244.639C251.466 77 257 71.6383 257 65.0242V12.9758C257 6.36173 251.466 1 244.639 1H240.361ZM242.5 12.4001C242 12.4001 241.594 12.7932 241.594 13.2781V64.4298C241.594 64.9147 242 65.3078 242.5 65.3078C243.001 65.3078 243.407 64.9147 243.407 64.4298V13.2781C243.407 12.7932 243.001 12.4001 242.5 12.4001Z" fill="white"/>
<path d="M206 92H187V168H206V155.431H200.656V135.846H206V123.569H200.656V104.277H206V92Z" stroke="white"/>
<path d="M126 92H107V168H126V155.431H120.656V135.846H126V123.569H120.656V104.277H126V92Z" stroke="white"/>
<path d="M261 92H244V168H261V155.431H256.219V135.846H261V123.569H256.219V104.277H261V92Z" stroke="white"/>
<path d="M208 92V168H220.678V130.585L225 168L229.322 130.585V168H242V92H227.017L225 120.354L222.983 92H208Z" stroke="white"/>
<path d="M159.5 103.976C159.5 97.6006 164.274 92.5 170.082 92.5H173.918C179.726 92.5 184.5 97.6006 184.5 103.976V156.024C184.5 162.399 179.726 167.5 173.918 167.5H170.082C164.274 167.5 159.5 162.399 159.5 156.024V103.976ZM172 102.9C171.24 102.9 170.688 103.554 170.688 104.278V155.43C170.688 156.154 171.24 156.808 172 156.808C172.761 156.808 173.313 156.154 173.313 155.43V104.278C173.313 103.554 172.761 102.9 172 102.9Z" stroke="white"/>
<path fill-rule="evenodd" clip-rule="evenodd" d="M76 92H93.4607C97.2969 92 105 96.1725 105 102.133V122.847C104.899 124.387 104.393 128.808 101.812 130C104.393 131.192 104.899 135.613 105 137.153V157.867C105 163.827 97.2969 168 93.4607 168H76V130V92ZM89.5942 102.523C90.762 102.523 91.7088 103.44 91.7088 104.572V123.274C91.7088 124.406 90.762 125.323 89.5942 125.323V102.523ZM91.7088 136.726C91.7088 135.594 90.762 134.677 89.5942 134.677V157.477C90.762 157.477 91.7088 156.56 91.7088 155.428V136.726Z" stroke="white"/>
<path d="M128.5 103.976C128.5 97.6527 133.795 92.5 140.361 92.5H144.639C151.205 92.5 156.5 97.6527 156.5 103.976V128.348H143.907V104.278C143.907 103.502 143.262 102.9 142.5 102.9C141.739 102.9 141.094 103.502 141.094 104.278V155.43C141.094 156.206 141.739 156.808 142.5 156.808C143.262 156.808 143.907 156.206 143.907 155.43V131.652H156.5V156.024C156.5 162.347 151.205 167.5 144.639 167.5H140.361C133.795 167.5 128.5 162.347 128.5 156.024V103.976Z" stroke="white"/>
<path d="M304 183H286V259H304V246.431H298.937V226.846H304V214.569H298.937V195.277H304V183Z" stroke="white"/>
<path d="M118 183H97V259H118V246.431H112.094V226.846H118V214.569H112.094V195.277H118V183Z" stroke="white"/>
<path fill-rule="evenodd" clip-rule="evenodd" d="M306 183H323.672C327.146 183 335 186.53 335 192.482V223.564C334.849 225.703 333.187 230.478 328.958 232.462L335 245.288V259H326.542L319.443 234.65V259H306V183ZM319.896 222.462V194.985C321.064 194.985 322.011 195.902 322.011 197.033V220.413C322.011 221.544 321.064 222.462 319.896 222.462Z" stroke="white"/>
<path fill-rule="evenodd" clip-rule="evenodd" d="M66 183H83.6719C87.1458 183 95 186.53 95 192.482V223.564C94.849 225.703 93.1875 230.478 88.9583 232.462L95 245.288V259H86.5417L79.4427 234.65V259H66V183ZM79.8963 222.462V194.985C81.0642 194.985 82.0109 195.902 82.0109 197.033V220.413C82.0109 221.544 81.0642 222.462 79.8963 222.462Z" stroke="white"/>
<path d="M149 183V259H160.932V221.585L165 259L169.068 221.585V259H181V183H166.898L165 211.354L163.102 183H149Z" stroke="white"/>
<path d="M189 183V259H201.678V221.585L206 259L210.322 221.585V259H223V183H208.017L206 211.354L203.983 183H189Z" stroke="white"/>
<path fill-rule="evenodd" clip-rule="evenodd" d="M120 259V235.908L123.656 183H143.344L147 235.908V259H135.188L134.625 246.431H132.375L131.813 259H120ZM133.499 201.708L134.624 233.861H132.374L133.499 201.708Z" stroke="white"/>
<path fill-rule="evenodd" clip-rule="evenodd" d="M225 259V235.908L228.792 183H249.208L253 235.908V259H240.75L240.167 246.431H237.833L237.25 259H225ZM238.999 201.708L240.166 233.861H237.833L238.999 201.708Z" stroke="white"/>
<path d="M48.8328 193.315H48.3328V193.815V246.723V247.223H48.8328H50.5828H51.0828V246.723V193.815V193.315H50.5828H48.8328ZM36.5 183.5H52.0656C58.379 183.5 63.5 188.636 63.5 194.976V247.024C63.5 253.364 58.379 258.5 52.0656 258.5H36.5V183.5Z" stroke="white"/>
<path d="M255 183H267.839V207.408L271.766 183H284V192.5L279.62 213.985L284 243.8V259H272.37L268.594 230.354L267.839 232.108V259H255V183Z" stroke="white"/>
<path fill-rule="evenodd" clip-rule="evenodd" d="M1 259V235.908L4.65625 183H24.3438L28 235.908V259H16.1875L15.625 246.431H13.375L12.8125 259H1ZM14.4995 201.708L15.6245 233.861H13.3745L14.4995 201.708Z" stroke="white"/>
<path d="M93 1H70V13.8615H74.2933V77H88.4V13.8615H93V1Z" stroke="white"/>
<path d="M30 1H43.9531V64.4308H49V77H30V1Z" stroke="white"/>
<path d="M68 1H51V77H68V64.4308H63.2187V44.8462H68V32.5692H63.2187V13.2769H68V1Z" stroke="white"/>
<path d="M119 1H101V77H119V64.4308H113.937V44.8462H119V32.5692H113.937V13.2769H119V1Z" stroke="white"/>
<path d="M306 1H287V77H306V64.4308H300.656V44.8462H306V32.5692H300.656V13.2769H306V1Z" stroke="white"/>
<path d="M166 1H148V77H166V64.4308H160.937V44.8462H166V32.5692H160.937V13.2769H166V1Z" stroke="white"/>
<path d="M132.198 1L121 1L121 23.0692L124.248 77H142.752L146 23.0692L146 1L134.802 1L133.5 52.5317L132.198 1Z" stroke="white"/>
<path d="M210.542 1H198V10.5L205.875 48.0615V77H218.125V48.0615L226 10.5V1H213.458L212 25.5538L210.542 1Z" stroke="white"/>
<path fill-rule="evenodd" clip-rule="evenodd" d="M168 1H185.062C188.417 1 196 4.53013 196 10.4818V41.564C195.854 43.7035 194.25 48.4784 190.167 50.4623L196 63.2879V77H187.833L180.979 52.6504V77H168V1ZM181.417 40.4617V12.9848C182.544 12.9848 183.458 13.902 183.458 15.0335V38.4129C183.458 39.5444 182.544 40.4617 181.417 40.4617Z" stroke="white"/>
<path d="M259 1V77H270.646L270.917 41.6308L274.437 77H285V1H273.354L273.083 36.3692L269.562 1H259Z" stroke="white"/>
<path d="M228.5 12.9758C228.5 6.65267 233.795 1.5 240.361 1.5H244.639C251.205 1.5 256.5 6.65266 256.5 12.9758V65.0242C256.5 71.3473 251.205 76.5 244.639 76.5H240.361C233.795 76.5 228.5 71.3473 228.5 65.0242V12.9758ZM242.5 11.9001C241.739 11.9001 241.094 12.5023 241.094 13.2781V64.4298C241.094 65.2056 241.739 65.8078 242.5 65.8078C243.262 65.8078 243.907 65.2056 243.907 64.4298V13.2781C243.907 12.5023 243.262 11.9001 242.5 11.9001Z" stroke="white"/>
</svg>
