<svg width="1722" height="166" viewBox="0 0 1722 166" fill="none" xmlns="http://www.w3.org/2000/svg">
<path d="M85 1H44V166H85V138.712H73.4688V96.1923H85V69.5385H73.4688V27.6538H85V1Z" fill="white"/>
<path d="M980 1H939V166H980V138.712H968.469V96.1923H980V69.5385H968.469V27.6538H980V1Z" fill="white"/>
<path d="M729 1H689V166H729V138.712H717.75V96.1923H729V69.5385H717.75V27.6538H729V1Z" fill="white"/>
<path d="M860 1V166H888.339V84.7692L898 166L907.661 84.7692V166H936V1H902.508L898 62.5577L893.492 1H860Z" fill="white"/>
<path fill-rule="evenodd" clip-rule="evenodd" d="M822 0C807.641 0 796 11.6406 796 26V139C796 153.359 807.641 165 822 165H831C845.359 165 857 153.359 857 139V26C857 11.6406 845.359 0 831 0H822ZM826.501 24.7502C825.448 24.7502 824.595 25.6037 824.595 26.6565V137.709C824.595 138.762 825.448 139.616 826.501 139.616C827.554 139.616 828.407 138.762 828.407 137.709V26.6565C828.407 25.6037 827.554 24.7502 826.501 24.7502Z" fill="white"/>
<path fill-rule="evenodd" clip-rule="evenodd" d="M625 0H661.728C669.797 0 686 9.05882 686 22V66.9706C685.787 70.3137 684.723 79.9118 679.293 82.5C684.723 85.0882 685.787 94.6863 686 98.0294V143C686 155.941 669.797 165 661.728 165H625V82.5V0ZM653.595 22.8462C656.051 22.8462 658.043 24.8376 658.043 27.2941V67.8983C658.043 70.3548 656.051 72.3462 653.595 72.3462V22.8462ZM658.043 97.1017C658.043 94.6452 656.051 92.6538 653.595 92.6538V142.154C656.051 142.154 658.043 140.162 658.043 137.706V97.1017Z" fill="white"/>
<path fill-rule="evenodd" clip-rule="evenodd" d="M732 27C732 12.6406 743.641 1 758 1H767C781.359 1 793 12.6406 793 27V81H764.407V27.6565C764.407 26.6037 763.554 25.7502 762.501 25.7502C761.448 25.7502 760.595 26.6037 760.595 27.6565V138.709C760.595 139.762 761.448 140.616 762.501 140.616C763.554 140.616 764.407 139.762 764.407 138.709V86H793V140C793 154.359 781.359 166 767 166H758C743.641 166 732 154.359 732 140V27Z" fill="white"/>
<path d="M1658 1H1618V166H1658V138.712H1646.75V96.1923H1658V69.5385H1646.75V27.6538H1658V1Z" fill="white"/>
<path d="M1250 1H1209V166H1250V138.712H1238.47V96.1923H1250V69.5385H1238.47V27.6538H1250V1Z" fill="white"/>
<path fill-rule="evenodd" clip-rule="evenodd" d="M1661 1H1698.17C1705.48 1 1722 8.66411 1722 21.5854V89.0666C1721.68 93.7115 1718.19 104.078 1709.29 108.385L1722 136.23V166H1704.21L1689.28 113.136V166H1661V1ZM1690.23 86.6734V27.0195C1692.69 27.0195 1694.68 29.0109 1694.68 31.4674V82.2255C1694.68 84.682 1692.69 86.6734 1690.23 86.6734Z" fill="white"/>
<path fill-rule="evenodd" clip-rule="evenodd" d="M1145 1H1182.17C1189.48 1 1206 8.66411 1206 21.5854V89.0666C1205.68 93.7115 1202.19 104.078 1193.29 108.385L1206 136.23V166H1188.21L1173.28 113.136V166H1145V1ZM1174.23 86.6734V27.0195C1176.69 27.0195 1178.68 29.0109 1178.68 31.4674V82.2255C1178.68 84.682 1176.69 86.6734 1174.23 86.6734Z" fill="white"/>
<path d="M1317 1V166H1345.34V84.7692L1355 166L1364.66 84.7692V166H1393V1H1359.51L1355 62.5577L1350.49 1H1317Z" fill="white"/>
<path d="M1413 1V166H1440.59V84.7692L1450 166L1459.41 84.7692V166H1487V1H1454.39L1450 62.5577L1445.61 1H1413Z" fill="white"/>
<path fill-rule="evenodd" clip-rule="evenodd" d="M1253 166V115.865L1261.26 1H1305.74L1314 115.865V166H1287.31L1286.04 138.712H1280.96L1279.69 166H1253ZM1283.5 41.6152L1286.04 111.423H1280.96L1283.5 41.6152Z" fill="white"/>
<path fill-rule="evenodd" clip-rule="evenodd" d="M1490 166V115.865L1498.26 1H1542.74L1551 115.865V166H1524.31L1523.04 138.712H1517.96L1516.69 166H1490ZM1520.5 41.6152L1523.04 111.423H1517.96L1520.5 41.6152Z" fill="white"/>
<path fill-rule="evenodd" clip-rule="evenodd" d="M1116 1H1081V166H1116C1130.36 166 1142 154.359 1142 140V27C1142 12.6406 1130.36 1 1116 1ZM1112.77 24.481H1108.96V139.346H1112.77V24.481Z" fill="white"/>
<path d="M1554 1H1581.01V53.9904L1589.27 1H1615V21.625L1605.79 68.2692L1615 133V166H1590.54L1582.59 103.808L1581.01 107.615V166H1554V1Z" fill="white"/>
<path fill-rule="evenodd" clip-rule="evenodd" d="M1000 166V115.865L1008.26 1H1052.74L1061 115.865V166H1034.31L1033.04 138.712H1027.96L1026.69 166H1000ZM1030.5 41.6152L1033.04 111.423H1027.96L1030.5 41.6152Z" fill="white"/>
<path d="M227.323 1L200 1L200 48.9135L207.926 166H253.074L261 48.9135L261 1L233.677 1L230.5 112.878L227.323 1Z" fill="white"/>
<path fill-rule="evenodd" clip-rule="evenodd" d="M308 1H345.172C352.479 1 369 8.66411 369 21.5854V89.0666C368.682 93.7115 365.188 104.078 356.292 108.385L369 136.23V166H351.208L336.276 113.136V166H308V1ZM337.229 86.6734V27.0195C339.686 27.0195 341.677 29.0109 341.677 31.4674V82.2255C341.677 84.682 339.686 86.6734 337.229 86.6734Z" fill="white"/>
<path d="M136 1H88V28.9231H96.96V166H126.4V28.9231H136V1Z" fill="white"/>
<path d="M0 1H30.1094V138.712H41V166H0V1Z" fill="white"/>
<path d="M197 1H156V166H197V138.712H185.469V96.1923H197V69.5385H185.469V27.6538H197V1Z" fill="white"/>
<path d="M605 1H564V166H605V138.712H593.469V96.1923H605V69.5385H593.469V27.6538H605V1Z" fill="white"/>
<path d="M305 1H264V166H305V138.712H293.469V96.1923H305V69.5385H293.469V27.6538H305V1Z" fill="white"/>
<path d="M399.323 1H372V21.625L389.156 103.173V166H415.844V103.173L433 21.625V1H405.677L402.5 54.3077L399.323 1Z" fill="white"/>
<path d="M500 1V166H527.323L527.958 89.2115L536.219 166H561V1H533.677L533.042 77.7885L524.781 1H500Z" fill="white"/>
<path fill-rule="evenodd" clip-rule="evenodd" d="M462 0C447.641 0 436 11.6406 436 26V139C436 153.359 447.641 165 462 165H471C485.359 165 497 153.359 497 139V26C497 11.6406 485.359 0 471 0H462ZM466.501 24.7502C465.448 24.7502 464.595 25.6037 464.595 26.6565V137.709C464.595 138.762 465.448 139.616 466.501 139.616C467.554 139.616 468.407 138.762 468.407 137.709V26.6565C468.407 25.6037 467.554 24.7502 466.501 24.7502Z" fill="white"/>
</svg>
